%TF.GenerationSoftware,KiCad,Pcbnew,7.0.2-0*%
%TF.CreationDate,2025-01-26T18:27:29-07:00*%
%TF.ProjectId,LeftMB,4c656674-4d42-42e6-9b69-6361645f7063,rev?*%
%TF.SameCoordinates,Original*%
%TF.FileFunction,Soldermask,Top*%
%TF.FilePolarity,Negative*%
%FSLAX46Y46*%
G04 Gerber Fmt 4.6, Leading zero omitted, Abs format (unit mm)*
G04 Created by KiCad (PCBNEW 7.0.2-0) date 2025-01-26 18:27:29*
%MOMM*%
%LPD*%
G01*
G04 APERTURE LIST*
G04 Aperture macros list*
%AMRoundRect*
0 Rectangle with rounded corners*
0 $1 Rounding radius*
0 $2 $3 $4 $5 $6 $7 $8 $9 X,Y pos of 4 corners*
0 Add a 4 corners polygon primitive as box body*
4,1,4,$2,$3,$4,$5,$6,$7,$8,$9,$2,$3,0*
0 Add four circle primitives for the rounded corners*
1,1,$1+$1,$2,$3*
1,1,$1+$1,$4,$5*
1,1,$1+$1,$6,$7*
1,1,$1+$1,$8,$9*
0 Add four rect primitives between the rounded corners*
20,1,$1+$1,$2,$3,$4,$5,0*
20,1,$1+$1,$4,$5,$6,$7,0*
20,1,$1+$1,$6,$7,$8,$9,0*
20,1,$1+$1,$8,$9,$2,$3,0*%
G04 Aperture macros list end*
%ADD10C,0.010000*%
%ADD11C,2.200000*%
%ADD12C,1.700000*%
%ADD13C,1.524000*%
%ADD14R,1.550000X1.300000*%
%ADD15R,1.000000X0.400000*%
%ADD16R,1.300000X2.000000*%
%ADD17RoundRect,0.250000X0.750000X-0.600000X0.750000X0.600000X-0.750000X0.600000X-0.750000X-0.600000X0*%
%ADD18O,2.000000X1.700000*%
%ADD19C,0.650000*%
%ADD20O,1.000000X1.800000*%
%ADD21O,1.000000X2.100000*%
G04 APERTURE END LIST*
%TO.C,ADS1115*%
D10*
X91881000Y-81123000D02*
X90783300Y-81123000D01*
X90783300Y-80721160D01*
X91881000Y-80721160D01*
X91881000Y-81123000D01*
G36*
X91881000Y-81123000D02*
G01*
X90783300Y-81123000D01*
X90783300Y-80721160D01*
X91881000Y-80721160D01*
X91881000Y-81123000D01*
G37*
X87781000Y-81123000D02*
X86678040Y-81123000D01*
X86678040Y-80721640D01*
X87781000Y-80721640D01*
X87781000Y-81123000D01*
G36*
X87781000Y-81123000D02*
G01*
X86678040Y-81123000D01*
X86678040Y-80721640D01*
X87781000Y-80721640D01*
X87781000Y-81123000D01*
G37*
X87781000Y-81623000D02*
X86676920Y-81623000D01*
X86676920Y-81221903D01*
X87781000Y-81221903D01*
X87781000Y-81623000D01*
G36*
X87781000Y-81623000D02*
G01*
X86676920Y-81623000D01*
X86676920Y-81221903D01*
X87781000Y-81221903D01*
X87781000Y-81623000D01*
G37*
X91881000Y-81623000D02*
X90781530Y-81623000D01*
X90781530Y-81222752D01*
X91881000Y-81222752D01*
X91881000Y-81623000D01*
G36*
X91881000Y-81623000D02*
G01*
X90781530Y-81623000D01*
X90781530Y-81222752D01*
X91881000Y-81222752D01*
X91881000Y-81623000D01*
G37*
X87781000Y-82123000D02*
X86677190Y-82123000D01*
X86677190Y-81722707D01*
X87781000Y-81722707D01*
X87781000Y-82123000D01*
G36*
X87781000Y-82123000D02*
G01*
X86677190Y-82123000D01*
X86677190Y-81722707D01*
X87781000Y-81722707D01*
X87781000Y-82123000D01*
G37*
X91881000Y-82123000D02*
X90782650Y-82123000D01*
X90782650Y-81722780D01*
X91881000Y-81722780D01*
X91881000Y-82123000D01*
G36*
X91881000Y-82123000D02*
G01*
X90782650Y-82123000D01*
X90782650Y-81722780D01*
X91881000Y-81722780D01*
X91881000Y-82123000D01*
G37*
X91881000Y-82623000D02*
X90781340Y-82623000D01*
X90781340Y-82223069D01*
X91881000Y-82223069D01*
X91881000Y-82623000D01*
G36*
X91881000Y-82623000D02*
G01*
X90781340Y-82623000D01*
X90781340Y-82223069D01*
X91881000Y-82223069D01*
X91881000Y-82623000D01*
G37*
X87781000Y-82623000D02*
X86677490Y-82623000D01*
X86677490Y-82223405D01*
X87781000Y-82223405D01*
X87781000Y-82623000D01*
G36*
X87781000Y-82623000D02*
G01*
X86677490Y-82623000D01*
X86677490Y-82223405D01*
X87781000Y-82223405D01*
X87781000Y-82623000D01*
G37*
X91881000Y-83123000D02*
X90781660Y-83123000D01*
X90781660Y-82723351D01*
X91881000Y-82723351D01*
X91881000Y-83123000D01*
G36*
X91881000Y-83123000D02*
G01*
X90781660Y-83123000D01*
X90781660Y-82723351D01*
X91881000Y-82723351D01*
X91881000Y-83123000D01*
G37*
X87781000Y-83123000D02*
X86679400Y-83123000D01*
X86679400Y-82723491D01*
X87781000Y-82723491D01*
X87781000Y-83123000D01*
G36*
X87781000Y-83123000D02*
G01*
X86679400Y-83123000D01*
X86679400Y-82723491D01*
X87781000Y-82723491D01*
X87781000Y-83123000D01*
G37*
%TD*%
D11*
%TO.C,REF\u002A\u002A*%
X88992000Y-57237000D03*
X95992000Y-57237000D03*
D12*
X90242000Y-54737000D03*
X94742000Y-54737000D03*
%TD*%
D11*
%TO.C,REF\u002A\u002A*%
X104740000Y-57237000D03*
X111740000Y-57237000D03*
D12*
X105990000Y-54737000D03*
X110490000Y-54737000D03*
%TD*%
D11*
%TO.C,REF\u002A\u002A*%
X53523000Y-67687000D03*
X60523000Y-67687000D03*
D12*
X54773000Y-65187000D03*
X59273000Y-65187000D03*
%TD*%
D13*
%TO.C,REF\u002A\u002A*%
X82564000Y-84170000D03*
X82564000Y-90170000D03*
X82564000Y-86170000D03*
X82564000Y-92170000D03*
X82564000Y-88170000D03*
X82564000Y-94170000D03*
%TD*%
D14*
%TO.C,START*%
X95315000Y-114590000D03*
X103265000Y-114590000D03*
X95315000Y-119090000D03*
X103265000Y-119090000D03*
%TD*%
%TO.C,SELECT*%
X95315000Y-122210000D03*
X103265000Y-122210000D03*
X95315000Y-126710000D03*
X103265000Y-126710000D03*
%TD*%
D11*
%TO.C,REF\u002A\u002A*%
X114900000Y-57237000D03*
X121900000Y-57237000D03*
D12*
X116150000Y-54737000D03*
X120650000Y-54737000D03*
%TD*%
D15*
%TO.C,FPC*%
X100690000Y-92860000D03*
X100690000Y-91860000D03*
X100690000Y-90860000D03*
X100690000Y-89860000D03*
X100690000Y-88860000D03*
X100690000Y-87860000D03*
X100690000Y-86860000D03*
X100690000Y-85860000D03*
X100690000Y-84860000D03*
X100690000Y-83860000D03*
X100690000Y-82860000D03*
X100690000Y-81860000D03*
X100690000Y-80860000D03*
X100690000Y-79860000D03*
D16*
X103390000Y-95660000D03*
X103390000Y-77060000D03*
%TD*%
D13*
%TO.C,B_Sav*%
X90805000Y-139700000D03*
X88265000Y-139700000D03*
X93345000Y-139700000D03*
X95885000Y-139700000D03*
%TD*%
%TO.C,Bat_Man*%
X92730000Y-106075000D03*
X85110000Y-106075000D03*
X87650000Y-106075000D03*
X80030000Y-106075000D03*
X82570000Y-106075000D03*
X90190000Y-106075000D03*
%TD*%
D17*
%TO.C,Battery*%
X97289500Y-109835000D03*
D18*
X97289500Y-107335000D03*
%TD*%
D19*
%TO.C,USB C*%
X105240000Y-135190000D03*
X99460000Y-135190000D03*
D20*
X106670000Y-138870000D03*
D21*
X106670000Y-134670000D03*
D20*
X98030000Y-138870000D03*
D21*
X98030000Y-134670000D03*
%TD*%
M02*
