%TF.GenerationSoftware,KiCad,Pcbnew,7.0.2-0*%
%TF.CreationDate,2025-01-26T18:27:37-07:00*%
%TF.ProjectId,LeftMB,4c656674-4d42-42e6-9b69-6361645f7063,rev?*%
%TF.SameCoordinates,Original*%
%TF.FileFunction,Drillmap*%
%TF.FilePolarity,Positive*%
%FSLAX45Y45*%
G04 Gerber Fmt 4.5, Leading zero omitted, Abs format (unit mm)*
G04 Created by KiCad (PCBNEW 7.0.2-0) date 2025-01-26 18:27:37*
%MOMM*%
%LPD*%
G01*
G04 APERTURE LIST*
%ADD10C,0.050000*%
%ADD11C,0.200000*%
%ADD12C,0.020000*%
%ADD13C,0.030000*%
%ADD14C,0.040000*%
%ADD15C,0.060000*%
%ADD16C,0.076200*%
%ADD17C,0.100000*%
%ADD18C,0.130000*%
G04 APERTURE END LIST*
D10*
X10325100Y-6616700D02*
G75*
G03*
X10325100Y-6616700I-100000J0D01*
G01*
X8140700Y-10160000D02*
G75*
G03*
X8140700Y-10160000I-100000J0D01*
G01*
X7721600Y-12852400D02*
X8659000Y-14097000D01*
X7721600Y-7340600D02*
X7721600Y-12852400D01*
X5207000Y-5969000D02*
X5207000Y-6997700D01*
X7808900Y-6629400D02*
G75*
G03*
X7808900Y-6629400I-100000J0D01*
G01*
X12331700Y-5207000D02*
X12331700Y-5930900D01*
X6832600Y-6769100D02*
G75*
G03*
X6832600Y-6769100I-100000J0D01*
G01*
X8786000Y-5969000D02*
X8788400Y-5207000D01*
X8496300Y-13411200D02*
G75*
G03*
X8496300Y-13411200I-100000J0D01*
G01*
X10083800Y-10223500D02*
G75*
G03*
X10083800Y-10223500I-100000J0D01*
G01*
X5207000Y-6997700D02*
X7378700Y-6997700D01*
X8659000Y-14097000D02*
X10818000Y-14097000D01*
X10147300Y-5549900D02*
G75*
G03*
X10147300Y-5549900I-100000J0D01*
G01*
X12331700Y-5930900D02*
X12331700Y-6070600D01*
X8788400Y-5207000D02*
X12331700Y-5207000D01*
X10820400Y-6070600D02*
X10818000Y-14097000D01*
X12331700Y-6070600D02*
X10820400Y-6070600D01*
X7378700Y-6997700D02*
X7721600Y-7340600D01*
X8786000Y-5969000D02*
X5207000Y-5969000D01*
D11*
D12*
X9794400Y-7927500D02*
X9814400Y-7947500D01*
X9814400Y-7927500D02*
X9794400Y-7947500D01*
X9794400Y-8276000D02*
X9814400Y-8296000D01*
X9814400Y-8276000D02*
X9794400Y-8296000D01*
X9857900Y-7927500D02*
X9877900Y-7947500D01*
X9877900Y-7927500D02*
X9857900Y-7947500D01*
X9857900Y-8376000D02*
X9877900Y-8396000D01*
X9877900Y-8376000D02*
X9857900Y-8396000D01*
X9921400Y-7927500D02*
X9941400Y-7947500D01*
X9941400Y-7927500D02*
X9921400Y-7947500D01*
X9921400Y-8476000D02*
X9941400Y-8496000D01*
X9941400Y-8476000D02*
X9921400Y-8496000D01*
D13*
X8562100Y-8191500D02*
G75*
G03*
X8562100Y-8191500I-15000J0D01*
G01*
X8562100Y-8343900D02*
G75*
G03*
X8562100Y-8343900I-15000J0D01*
G01*
X8828800Y-8813800D02*
G75*
G03*
X8828800Y-8813800I-15000J0D01*
G01*
X8955844Y-8686756D02*
G75*
G03*
X8955844Y-8686756I-15000J0D01*
G01*
X9286000Y-8585200D02*
G75*
G03*
X9286000Y-8585200I-15000J0D01*
G01*
X9286000Y-8915400D02*
G75*
G03*
X9286000Y-8915400I-15000J0D01*
G01*
X9298700Y-8039100D02*
G75*
G03*
X9298700Y-8039100I-15000J0D01*
G01*
X9298700Y-8191500D02*
G75*
G03*
X9298700Y-8191500I-15000J0D01*
G01*
X9794000Y-13017500D02*
G75*
G03*
X9794000Y-13017500I-15000J0D01*
G01*
X10098800Y-13017500D02*
G75*
G03*
X10098800Y-13017500I-15000J0D01*
G01*
X10224600Y-13271500D02*
G75*
G03*
X10224600Y-13271500I-15000J0D01*
G01*
X10238500Y-13144500D02*
G75*
G03*
X10238500Y-13144500I-15000J0D01*
G01*
X10326200Y-13271500D02*
G75*
G03*
X10326200Y-13271500I-15000J0D01*
G01*
X10490000Y-13096200D02*
G75*
G03*
X10490000Y-13096200I-15000J0D01*
G01*
X10492500Y-12941300D02*
G75*
G03*
X10492500Y-12941300I-15000J0D01*
G01*
D14*
X8953500Y-12680000D02*
X8953500Y-12720000D01*
X8933500Y-12700000D02*
X8973500Y-12700000D01*
X8953500Y-13124500D02*
X8953500Y-13164500D01*
X8933500Y-13144500D02*
X8973500Y-13144500D01*
X9080500Y-12680000D02*
X9080500Y-12720000D01*
X9060500Y-12700000D02*
X9100500Y-12700000D01*
X9080500Y-13124500D02*
X9080500Y-13164500D01*
X9060500Y-13144500D02*
X9100500Y-13144500D01*
D15*
X9824213Y-13488213D02*
X9824213Y-13445787D01*
X9781787Y-13445787D01*
X9781787Y-13488213D01*
X9824213Y-13488213D01*
D11*
X9833000Y-13522000D02*
X9833000Y-13412000D01*
X9833000Y-13412000D02*
G75*
G03*
X9773000Y-13412000I-30000J0D01*
G01*
X9773000Y-13412000D02*
X9773000Y-13522000D01*
X9773000Y-13522000D02*
G75*
G03*
X9833000Y-13522000I30000J0D01*
G01*
D15*
X9824213Y-13908213D02*
X9824213Y-13865787D01*
X9781787Y-13865787D01*
X9781787Y-13908213D01*
X9824213Y-13908213D01*
D11*
X9833000Y-13927000D02*
X9833000Y-13847000D01*
X9833000Y-13847000D02*
G75*
G03*
X9773000Y-13847000I-30000J0D01*
G01*
X9773000Y-13847000D02*
X9773000Y-13927000D01*
X9773000Y-13927000D02*
G75*
G03*
X9833000Y-13927000I30000J0D01*
G01*
D15*
X10688213Y-13488213D02*
X10688213Y-13445787D01*
X10645787Y-13445787D01*
X10645787Y-13488213D01*
X10688213Y-13488213D01*
D11*
X10697000Y-13522000D02*
X10697000Y-13412000D01*
X10697000Y-13412000D02*
G75*
G03*
X10637000Y-13412000I-30000J0D01*
G01*
X10637000Y-13412000D02*
X10637000Y-13522000D01*
X10637000Y-13522000D02*
G75*
G03*
X10697000Y-13522000I30000J0D01*
G01*
D15*
X10688213Y-13908213D02*
X10688213Y-13865787D01*
X10645787Y-13865787D01*
X10645787Y-13908213D01*
X10688213Y-13908213D01*
D11*
X10697000Y-13927000D02*
X10697000Y-13847000D01*
X10697000Y-13847000D02*
G75*
G03*
X10637000Y-13847000I-30000J0D01*
G01*
X10637000Y-13847000D02*
X10637000Y-13927000D01*
X10637000Y-13927000D02*
G75*
G03*
X10697000Y-13927000I30000J0D01*
G01*
D16*
X8003000Y-10645600D02*
X8041100Y-10607500D01*
X8003000Y-10569400D01*
X7964900Y-10607500D01*
X8003000Y-10645600D01*
X8256400Y-8455100D02*
X8294500Y-8417000D01*
X8256400Y-8378900D01*
X8218300Y-8417000D01*
X8256400Y-8455100D01*
X8256400Y-8655100D02*
X8294500Y-8617000D01*
X8256400Y-8578900D01*
X8218300Y-8617000D01*
X8256400Y-8655100D01*
X8256400Y-8855100D02*
X8294500Y-8817000D01*
X8256400Y-8778900D01*
X8218300Y-8817000D01*
X8256400Y-8855100D01*
X8256400Y-9055100D02*
X8294500Y-9017000D01*
X8256400Y-8978900D01*
X8218300Y-9017000D01*
X8256400Y-9055100D01*
X8256400Y-9255100D02*
X8294500Y-9217000D01*
X8256400Y-9178900D01*
X8218300Y-9217000D01*
X8256400Y-9255100D01*
X8256400Y-9455100D02*
X8294500Y-9417000D01*
X8256400Y-9378900D01*
X8218300Y-9417000D01*
X8256400Y-9455100D01*
X8257000Y-10645600D02*
X8295100Y-10607500D01*
X8257000Y-10569400D01*
X8218900Y-10607500D01*
X8257000Y-10645600D01*
X8511000Y-10645600D02*
X8549100Y-10607500D01*
X8511000Y-10569400D01*
X8472900Y-10607500D01*
X8511000Y-10645600D01*
X8765000Y-10645600D02*
X8803100Y-10607500D01*
X8765000Y-10569400D01*
X8726900Y-10607500D01*
X8765000Y-10645600D01*
X8826500Y-14008100D02*
X8864600Y-13970000D01*
X8826500Y-13931900D01*
X8788400Y-13970000D01*
X8826500Y-14008100D01*
X9019000Y-10645600D02*
X9057100Y-10607500D01*
X9019000Y-10569400D01*
X8980900Y-10607500D01*
X9019000Y-10645600D01*
X9080500Y-14008100D02*
X9118600Y-13970000D01*
X9080500Y-13931900D01*
X9042400Y-13970000D01*
X9080500Y-14008100D01*
X9273000Y-10645600D02*
X9311100Y-10607500D01*
X9273000Y-10569400D01*
X9234900Y-10607500D01*
X9273000Y-10645600D01*
X9334500Y-14008100D02*
X9372600Y-13970000D01*
X9334500Y-13931900D01*
X9296400Y-13970000D01*
X9334500Y-14008100D01*
X9588500Y-14008100D02*
X9626600Y-13970000D01*
X9588500Y-13931900D01*
X9550400Y-13970000D01*
X9588500Y-14008100D01*
D17*
X5427300Y-6468700D02*
X5527300Y-6568700D01*
X5527300Y-6468700D02*
X5427300Y-6568700D01*
X5527300Y-6518700D02*
G75*
G03*
X5527300Y-6518700I-50000J0D01*
G01*
X5877300Y-6468700D02*
X5977300Y-6568700D01*
X5977300Y-6468700D02*
X5877300Y-6568700D01*
X5977300Y-6518700D02*
G75*
G03*
X5977300Y-6518700I-50000J0D01*
G01*
X8974200Y-5423700D02*
X9074200Y-5523700D01*
X9074200Y-5423700D02*
X8974200Y-5523700D01*
X9074200Y-5473700D02*
G75*
G03*
X9074200Y-5473700I-50000J0D01*
G01*
X9424200Y-5423700D02*
X9524200Y-5523700D01*
X9524200Y-5423700D02*
X9424200Y-5523700D01*
X9524200Y-5473700D02*
G75*
G03*
X9524200Y-5473700I-50000J0D01*
G01*
X9678950Y-10683500D02*
X9778950Y-10783500D01*
X9778950Y-10683500D02*
X9678950Y-10783500D01*
X9778950Y-10733500D02*
G75*
G03*
X9778950Y-10733500I-50000J0D01*
G01*
X9678950Y-10933500D02*
X9778950Y-11033500D01*
X9778950Y-10933500D02*
X9678950Y-11033500D01*
X9778950Y-10983500D02*
G75*
G03*
X9778950Y-10983500I-50000J0D01*
G01*
X10549000Y-5423700D02*
X10649000Y-5523700D01*
X10649000Y-5423700D02*
X10549000Y-5523700D01*
X10649000Y-5473700D02*
G75*
G03*
X10649000Y-5473700I-50000J0D01*
G01*
X10999000Y-5423700D02*
X11099000Y-5523700D01*
X11099000Y-5423700D02*
X10999000Y-5523700D01*
X11099000Y-5473700D02*
G75*
G03*
X11099000Y-5473700I-50000J0D01*
G01*
X11565000Y-5423700D02*
X11665000Y-5523700D01*
X11665000Y-5423700D02*
X11565000Y-5523700D01*
X11665000Y-5473700D02*
G75*
G03*
X11665000Y-5473700I-50000J0D01*
G01*
X12015000Y-5423700D02*
X12115000Y-5523700D01*
X12115000Y-5423700D02*
X12015000Y-5523700D01*
X12115000Y-5473700D02*
G75*
G03*
X12115000Y-5473700I-50000J0D01*
G01*
D18*
X5287300Y-6703700D02*
X5417300Y-6833700D01*
X5417300Y-6703700D02*
X5287300Y-6833700D01*
X5352300Y-6703700D02*
X5352300Y-6833700D01*
X5287300Y-6768700D02*
X5417300Y-6768700D01*
X5987300Y-6703700D02*
X6117300Y-6833700D01*
X6117300Y-6703700D02*
X5987300Y-6833700D01*
X6052300Y-6703700D02*
X6052300Y-6833700D01*
X5987300Y-6768700D02*
X6117300Y-6768700D01*
X8834200Y-5658700D02*
X8964200Y-5788700D01*
X8964200Y-5658700D02*
X8834200Y-5788700D01*
X8899200Y-5658700D02*
X8899200Y-5788700D01*
X8834200Y-5723700D02*
X8964200Y-5723700D01*
X9534200Y-5658700D02*
X9664200Y-5788700D01*
X9664200Y-5658700D02*
X9534200Y-5788700D01*
X9599200Y-5658700D02*
X9599200Y-5788700D01*
X9534200Y-5723700D02*
X9664200Y-5723700D01*
X10409000Y-5658700D02*
X10539000Y-5788700D01*
X10539000Y-5658700D02*
X10409000Y-5788700D01*
X10474000Y-5658700D02*
X10474000Y-5788700D01*
X10409000Y-5723700D02*
X10539000Y-5723700D01*
X11109000Y-5658700D02*
X11239000Y-5788700D01*
X11239000Y-5658700D02*
X11109000Y-5788700D01*
X11174000Y-5658700D02*
X11174000Y-5788700D01*
X11109000Y-5723700D02*
X11239000Y-5723700D01*
X11425000Y-5658700D02*
X11555000Y-5788700D01*
X11555000Y-5658700D02*
X11425000Y-5788700D01*
X11490000Y-5658700D02*
X11490000Y-5788700D01*
X11425000Y-5723700D02*
X11555000Y-5723700D01*
X12125000Y-5658700D02*
X12255000Y-5788700D01*
X12255000Y-5658700D02*
X12125000Y-5788700D01*
X12190000Y-5658700D02*
X12190000Y-5788700D01*
X12125000Y-5723700D02*
X12255000Y-5723700D01*
D11*
X5452119Y-14412024D02*
X5452119Y-14212024D01*
X5452119Y-14212024D02*
X5499738Y-14212024D01*
X5499738Y-14212024D02*
X5528310Y-14221548D01*
X5528310Y-14221548D02*
X5547357Y-14240595D01*
X5547357Y-14240595D02*
X5556881Y-14259643D01*
X5556881Y-14259643D02*
X5566405Y-14297738D01*
X5566405Y-14297738D02*
X5566405Y-14326309D01*
X5566405Y-14326309D02*
X5556881Y-14364405D01*
X5556881Y-14364405D02*
X5547357Y-14383452D01*
X5547357Y-14383452D02*
X5528310Y-14402500D01*
X5528310Y-14402500D02*
X5499738Y-14412024D01*
X5499738Y-14412024D02*
X5452119Y-14412024D01*
X5652119Y-14412024D02*
X5652119Y-14278690D01*
X5652119Y-14316786D02*
X5661643Y-14297738D01*
X5661643Y-14297738D02*
X5671167Y-14288214D01*
X5671167Y-14288214D02*
X5690214Y-14278690D01*
X5690214Y-14278690D02*
X5709262Y-14278690D01*
X5775928Y-14412024D02*
X5775928Y-14278690D01*
X5775928Y-14212024D02*
X5766405Y-14221548D01*
X5766405Y-14221548D02*
X5775928Y-14231071D01*
X5775928Y-14231071D02*
X5785452Y-14221548D01*
X5785452Y-14221548D02*
X5775928Y-14212024D01*
X5775928Y-14212024D02*
X5775928Y-14231071D01*
X5899738Y-14412024D02*
X5880690Y-14402500D01*
X5880690Y-14402500D02*
X5871167Y-14383452D01*
X5871167Y-14383452D02*
X5871167Y-14212024D01*
X6004500Y-14412024D02*
X5985452Y-14402500D01*
X5985452Y-14402500D02*
X5975928Y-14383452D01*
X5975928Y-14383452D02*
X5975928Y-14212024D01*
X6233071Y-14412024D02*
X6233071Y-14212024D01*
X6233071Y-14212024D02*
X6299738Y-14354881D01*
X6299738Y-14354881D02*
X6366405Y-14212024D01*
X6366405Y-14212024D02*
X6366405Y-14412024D01*
X6547357Y-14412024D02*
X6547357Y-14307262D01*
X6547357Y-14307262D02*
X6537833Y-14288214D01*
X6537833Y-14288214D02*
X6518786Y-14278690D01*
X6518786Y-14278690D02*
X6480690Y-14278690D01*
X6480690Y-14278690D02*
X6461643Y-14288214D01*
X6547357Y-14402500D02*
X6528309Y-14412024D01*
X6528309Y-14412024D02*
X6480690Y-14412024D01*
X6480690Y-14412024D02*
X6461643Y-14402500D01*
X6461643Y-14402500D02*
X6452119Y-14383452D01*
X6452119Y-14383452D02*
X6452119Y-14364405D01*
X6452119Y-14364405D02*
X6461643Y-14345357D01*
X6461643Y-14345357D02*
X6480690Y-14335833D01*
X6480690Y-14335833D02*
X6528309Y-14335833D01*
X6528309Y-14335833D02*
X6547357Y-14326309D01*
X6642595Y-14278690D02*
X6642595Y-14478690D01*
X6642595Y-14288214D02*
X6661643Y-14278690D01*
X6661643Y-14278690D02*
X6699738Y-14278690D01*
X6699738Y-14278690D02*
X6718786Y-14288214D01*
X6718786Y-14288214D02*
X6728309Y-14297738D01*
X6728309Y-14297738D02*
X6737833Y-14316786D01*
X6737833Y-14316786D02*
X6737833Y-14373928D01*
X6737833Y-14373928D02*
X6728309Y-14392976D01*
X6728309Y-14392976D02*
X6718786Y-14402500D01*
X6718786Y-14402500D02*
X6699738Y-14412024D01*
X6699738Y-14412024D02*
X6661643Y-14412024D01*
X6661643Y-14412024D02*
X6642595Y-14402500D01*
X6823548Y-14392976D02*
X6833071Y-14402500D01*
X6833071Y-14402500D02*
X6823548Y-14412024D01*
X6823548Y-14412024D02*
X6814024Y-14402500D01*
X6814024Y-14402500D02*
X6823548Y-14392976D01*
X6823548Y-14392976D02*
X6823548Y-14412024D01*
X6823548Y-14288214D02*
X6833071Y-14297738D01*
X6833071Y-14297738D02*
X6823548Y-14307262D01*
X6823548Y-14307262D02*
X6814024Y-14297738D01*
X6814024Y-14297738D02*
X6823548Y-14288214D01*
X6823548Y-14288214D02*
X6823548Y-14307262D01*
D12*
X5184500Y-14729500D02*
X5204500Y-14749500D01*
X5204500Y-14729500D02*
X5184500Y-14749500D01*
D11*
X5490214Y-14632024D02*
X5509262Y-14632024D01*
X5509262Y-14632024D02*
X5528310Y-14641548D01*
X5528310Y-14641548D02*
X5537833Y-14651071D01*
X5537833Y-14651071D02*
X5547357Y-14670119D01*
X5547357Y-14670119D02*
X5556881Y-14708214D01*
X5556881Y-14708214D02*
X5556881Y-14755833D01*
X5556881Y-14755833D02*
X5547357Y-14793928D01*
X5547357Y-14793928D02*
X5537833Y-14812976D01*
X5537833Y-14812976D02*
X5528310Y-14822500D01*
X5528310Y-14822500D02*
X5509262Y-14832024D01*
X5509262Y-14832024D02*
X5490214Y-14832024D01*
X5490214Y-14832024D02*
X5471167Y-14822500D01*
X5471167Y-14822500D02*
X5461643Y-14812976D01*
X5461643Y-14812976D02*
X5452119Y-14793928D01*
X5452119Y-14793928D02*
X5442595Y-14755833D01*
X5442595Y-14755833D02*
X5442595Y-14708214D01*
X5442595Y-14708214D02*
X5452119Y-14670119D01*
X5452119Y-14670119D02*
X5461643Y-14651071D01*
X5461643Y-14651071D02*
X5471167Y-14641548D01*
X5471167Y-14641548D02*
X5490214Y-14632024D01*
X5642595Y-14812976D02*
X5652119Y-14822500D01*
X5652119Y-14822500D02*
X5642595Y-14832024D01*
X5642595Y-14832024D02*
X5633071Y-14822500D01*
X5633071Y-14822500D02*
X5642595Y-14812976D01*
X5642595Y-14812976D02*
X5642595Y-14832024D01*
X5728309Y-14651071D02*
X5737833Y-14641548D01*
X5737833Y-14641548D02*
X5756881Y-14632024D01*
X5756881Y-14632024D02*
X5804500Y-14632024D01*
X5804500Y-14632024D02*
X5823548Y-14641548D01*
X5823548Y-14641548D02*
X5833071Y-14651071D01*
X5833071Y-14651071D02*
X5842595Y-14670119D01*
X5842595Y-14670119D02*
X5842595Y-14689167D01*
X5842595Y-14689167D02*
X5833071Y-14717738D01*
X5833071Y-14717738D02*
X5718786Y-14832024D01*
X5718786Y-14832024D02*
X5842595Y-14832024D01*
X5966405Y-14632024D02*
X5985452Y-14632024D01*
X5985452Y-14632024D02*
X6004500Y-14641548D01*
X6004500Y-14641548D02*
X6014024Y-14651071D01*
X6014024Y-14651071D02*
X6023548Y-14670119D01*
X6023548Y-14670119D02*
X6033071Y-14708214D01*
X6033071Y-14708214D02*
X6033071Y-14755833D01*
X6033071Y-14755833D02*
X6023548Y-14793928D01*
X6023548Y-14793928D02*
X6014024Y-14812976D01*
X6014024Y-14812976D02*
X6004500Y-14822500D01*
X6004500Y-14822500D02*
X5985452Y-14832024D01*
X5985452Y-14832024D02*
X5966405Y-14832024D01*
X5966405Y-14832024D02*
X5947357Y-14822500D01*
X5947357Y-14822500D02*
X5937833Y-14812976D01*
X5937833Y-14812976D02*
X5928309Y-14793928D01*
X5928309Y-14793928D02*
X5918786Y-14755833D01*
X5918786Y-14755833D02*
X5918786Y-14708214D01*
X5918786Y-14708214D02*
X5928309Y-14670119D01*
X5928309Y-14670119D02*
X5937833Y-14651071D01*
X5937833Y-14651071D02*
X5947357Y-14641548D01*
X5947357Y-14641548D02*
X5966405Y-14632024D01*
X6156881Y-14632024D02*
X6175929Y-14632024D01*
X6175929Y-14632024D02*
X6194976Y-14641548D01*
X6194976Y-14641548D02*
X6204500Y-14651071D01*
X6204500Y-14651071D02*
X6214024Y-14670119D01*
X6214024Y-14670119D02*
X6223548Y-14708214D01*
X6223548Y-14708214D02*
X6223548Y-14755833D01*
X6223548Y-14755833D02*
X6214024Y-14793928D01*
X6214024Y-14793928D02*
X6204500Y-14812976D01*
X6204500Y-14812976D02*
X6194976Y-14822500D01*
X6194976Y-14822500D02*
X6175929Y-14832024D01*
X6175929Y-14832024D02*
X6156881Y-14832024D01*
X6156881Y-14832024D02*
X6137833Y-14822500D01*
X6137833Y-14822500D02*
X6128309Y-14812976D01*
X6128309Y-14812976D02*
X6118786Y-14793928D01*
X6118786Y-14793928D02*
X6109262Y-14755833D01*
X6109262Y-14755833D02*
X6109262Y-14708214D01*
X6109262Y-14708214D02*
X6118786Y-14670119D01*
X6118786Y-14670119D02*
X6128309Y-14651071D01*
X6128309Y-14651071D02*
X6137833Y-14641548D01*
X6137833Y-14641548D02*
X6156881Y-14632024D01*
X6309262Y-14832024D02*
X6309262Y-14698690D01*
X6309262Y-14717738D02*
X6318786Y-14708214D01*
X6318786Y-14708214D02*
X6337833Y-14698690D01*
X6337833Y-14698690D02*
X6366405Y-14698690D01*
X6366405Y-14698690D02*
X6385452Y-14708214D01*
X6385452Y-14708214D02*
X6394976Y-14727262D01*
X6394976Y-14727262D02*
X6394976Y-14832024D01*
X6394976Y-14727262D02*
X6404500Y-14708214D01*
X6404500Y-14708214D02*
X6423548Y-14698690D01*
X6423548Y-14698690D02*
X6452119Y-14698690D01*
X6452119Y-14698690D02*
X6471167Y-14708214D01*
X6471167Y-14708214D02*
X6480690Y-14727262D01*
X6480690Y-14727262D02*
X6480690Y-14832024D01*
X6575929Y-14832024D02*
X6575929Y-14698690D01*
X6575929Y-14717738D02*
X6585452Y-14708214D01*
X6585452Y-14708214D02*
X6604500Y-14698690D01*
X6604500Y-14698690D02*
X6633071Y-14698690D01*
X6633071Y-14698690D02*
X6652119Y-14708214D01*
X6652119Y-14708214D02*
X6661643Y-14727262D01*
X6661643Y-14727262D02*
X6661643Y-14832024D01*
X6661643Y-14727262D02*
X6671167Y-14708214D01*
X6671167Y-14708214D02*
X6690214Y-14698690D01*
X6690214Y-14698690D02*
X6718786Y-14698690D01*
X6718786Y-14698690D02*
X6737833Y-14708214D01*
X6737833Y-14708214D02*
X6747357Y-14727262D01*
X6747357Y-14727262D02*
X6747357Y-14832024D01*
X7137833Y-14622500D02*
X6966405Y-14879643D01*
X7394976Y-14632024D02*
X7414024Y-14632024D01*
X7414024Y-14632024D02*
X7433072Y-14641548D01*
X7433072Y-14641548D02*
X7442595Y-14651071D01*
X7442595Y-14651071D02*
X7452119Y-14670119D01*
X7452119Y-14670119D02*
X7461643Y-14708214D01*
X7461643Y-14708214D02*
X7461643Y-14755833D01*
X7461643Y-14755833D02*
X7452119Y-14793928D01*
X7452119Y-14793928D02*
X7442595Y-14812976D01*
X7442595Y-14812976D02*
X7433072Y-14822500D01*
X7433072Y-14822500D02*
X7414024Y-14832024D01*
X7414024Y-14832024D02*
X7394976Y-14832024D01*
X7394976Y-14832024D02*
X7375929Y-14822500D01*
X7375929Y-14822500D02*
X7366405Y-14812976D01*
X7366405Y-14812976D02*
X7356881Y-14793928D01*
X7356881Y-14793928D02*
X7347357Y-14755833D01*
X7347357Y-14755833D02*
X7347357Y-14708214D01*
X7347357Y-14708214D02*
X7356881Y-14670119D01*
X7356881Y-14670119D02*
X7366405Y-14651071D01*
X7366405Y-14651071D02*
X7375929Y-14641548D01*
X7375929Y-14641548D02*
X7394976Y-14632024D01*
X7547357Y-14812976D02*
X7556881Y-14822500D01*
X7556881Y-14822500D02*
X7547357Y-14832024D01*
X7547357Y-14832024D02*
X7537833Y-14822500D01*
X7537833Y-14822500D02*
X7547357Y-14812976D01*
X7547357Y-14812976D02*
X7547357Y-14832024D01*
X7680691Y-14632024D02*
X7699738Y-14632024D01*
X7699738Y-14632024D02*
X7718786Y-14641548D01*
X7718786Y-14641548D02*
X7728310Y-14651071D01*
X7728310Y-14651071D02*
X7737833Y-14670119D01*
X7737833Y-14670119D02*
X7747357Y-14708214D01*
X7747357Y-14708214D02*
X7747357Y-14755833D01*
X7747357Y-14755833D02*
X7737833Y-14793928D01*
X7737833Y-14793928D02*
X7728310Y-14812976D01*
X7728310Y-14812976D02*
X7718786Y-14822500D01*
X7718786Y-14822500D02*
X7699738Y-14832024D01*
X7699738Y-14832024D02*
X7680691Y-14832024D01*
X7680691Y-14832024D02*
X7661643Y-14822500D01*
X7661643Y-14822500D02*
X7652119Y-14812976D01*
X7652119Y-14812976D02*
X7642595Y-14793928D01*
X7642595Y-14793928D02*
X7633072Y-14755833D01*
X7633072Y-14755833D02*
X7633072Y-14708214D01*
X7633072Y-14708214D02*
X7642595Y-14670119D01*
X7642595Y-14670119D02*
X7652119Y-14651071D01*
X7652119Y-14651071D02*
X7661643Y-14641548D01*
X7661643Y-14641548D02*
X7680691Y-14632024D01*
X7871167Y-14632024D02*
X7890214Y-14632024D01*
X7890214Y-14632024D02*
X7909262Y-14641548D01*
X7909262Y-14641548D02*
X7918786Y-14651071D01*
X7918786Y-14651071D02*
X7928310Y-14670119D01*
X7928310Y-14670119D02*
X7937833Y-14708214D01*
X7937833Y-14708214D02*
X7937833Y-14755833D01*
X7937833Y-14755833D02*
X7928310Y-14793928D01*
X7928310Y-14793928D02*
X7918786Y-14812976D01*
X7918786Y-14812976D02*
X7909262Y-14822500D01*
X7909262Y-14822500D02*
X7890214Y-14832024D01*
X7890214Y-14832024D02*
X7871167Y-14832024D01*
X7871167Y-14832024D02*
X7852119Y-14822500D01*
X7852119Y-14822500D02*
X7842595Y-14812976D01*
X7842595Y-14812976D02*
X7833072Y-14793928D01*
X7833072Y-14793928D02*
X7823548Y-14755833D01*
X7823548Y-14755833D02*
X7823548Y-14708214D01*
X7823548Y-14708214D02*
X7833072Y-14670119D01*
X7833072Y-14670119D02*
X7842595Y-14651071D01*
X7842595Y-14651071D02*
X7852119Y-14641548D01*
X7852119Y-14641548D02*
X7871167Y-14632024D01*
X8004500Y-14632024D02*
X8137833Y-14632024D01*
X8137833Y-14632024D02*
X8052119Y-14832024D01*
X8223548Y-14832024D02*
X8261643Y-14832024D01*
X8261643Y-14832024D02*
X8280691Y-14822500D01*
X8280691Y-14822500D02*
X8290214Y-14812976D01*
X8290214Y-14812976D02*
X8309262Y-14784405D01*
X8309262Y-14784405D02*
X8318786Y-14746309D01*
X8318786Y-14746309D02*
X8318786Y-14670119D01*
X8318786Y-14670119D02*
X8309262Y-14651071D01*
X8309262Y-14651071D02*
X8299738Y-14641548D01*
X8299738Y-14641548D02*
X8280691Y-14632024D01*
X8280691Y-14632024D02*
X8242595Y-14632024D01*
X8242595Y-14632024D02*
X8223548Y-14641548D01*
X8223548Y-14641548D02*
X8214024Y-14651071D01*
X8214024Y-14651071D02*
X8204500Y-14670119D01*
X8204500Y-14670119D02*
X8204500Y-14717738D01*
X8204500Y-14717738D02*
X8214024Y-14736786D01*
X8214024Y-14736786D02*
X8223548Y-14746309D01*
X8223548Y-14746309D02*
X8242595Y-14755833D01*
X8242595Y-14755833D02*
X8280691Y-14755833D01*
X8280691Y-14755833D02*
X8299738Y-14746309D01*
X8299738Y-14746309D02*
X8309262Y-14736786D01*
X8309262Y-14736786D02*
X8318786Y-14717738D01*
X8394976Y-14632024D02*
X8394976Y-14670119D01*
X8471167Y-14632024D02*
X8471167Y-14670119D01*
X8766405Y-14908214D02*
X8756881Y-14898690D01*
X8756881Y-14898690D02*
X8737834Y-14870119D01*
X8737834Y-14870119D02*
X8728310Y-14851071D01*
X8728310Y-14851071D02*
X8718786Y-14822500D01*
X8718786Y-14822500D02*
X8709262Y-14774881D01*
X8709262Y-14774881D02*
X8709262Y-14736786D01*
X8709262Y-14736786D02*
X8718786Y-14689167D01*
X8718786Y-14689167D02*
X8728310Y-14660595D01*
X8728310Y-14660595D02*
X8737834Y-14641548D01*
X8737834Y-14641548D02*
X8756881Y-14612976D01*
X8756881Y-14612976D02*
X8766405Y-14603452D01*
X8928310Y-14632024D02*
X8890215Y-14632024D01*
X8890215Y-14632024D02*
X8871167Y-14641548D01*
X8871167Y-14641548D02*
X8861643Y-14651071D01*
X8861643Y-14651071D02*
X8842596Y-14679643D01*
X8842596Y-14679643D02*
X8833072Y-14717738D01*
X8833072Y-14717738D02*
X8833072Y-14793928D01*
X8833072Y-14793928D02*
X8842596Y-14812976D01*
X8842596Y-14812976D02*
X8852119Y-14822500D01*
X8852119Y-14822500D02*
X8871167Y-14832024D01*
X8871167Y-14832024D02*
X8909262Y-14832024D01*
X8909262Y-14832024D02*
X8928310Y-14822500D01*
X8928310Y-14822500D02*
X8937834Y-14812976D01*
X8937834Y-14812976D02*
X8947357Y-14793928D01*
X8947357Y-14793928D02*
X8947357Y-14746309D01*
X8947357Y-14746309D02*
X8937834Y-14727262D01*
X8937834Y-14727262D02*
X8928310Y-14717738D01*
X8928310Y-14717738D02*
X8909262Y-14708214D01*
X8909262Y-14708214D02*
X8871167Y-14708214D01*
X8871167Y-14708214D02*
X8852119Y-14717738D01*
X8852119Y-14717738D02*
X8842596Y-14727262D01*
X8842596Y-14727262D02*
X8833072Y-14746309D01*
X9185453Y-14832024D02*
X9185453Y-14632024D01*
X9271167Y-14832024D02*
X9271167Y-14727262D01*
X9271167Y-14727262D02*
X9261643Y-14708214D01*
X9261643Y-14708214D02*
X9242596Y-14698690D01*
X9242596Y-14698690D02*
X9214024Y-14698690D01*
X9214024Y-14698690D02*
X9194977Y-14708214D01*
X9194977Y-14708214D02*
X9185453Y-14717738D01*
X9394977Y-14832024D02*
X9375929Y-14822500D01*
X9375929Y-14822500D02*
X9366405Y-14812976D01*
X9366405Y-14812976D02*
X9356881Y-14793928D01*
X9356881Y-14793928D02*
X9356881Y-14736786D01*
X9356881Y-14736786D02*
X9366405Y-14717738D01*
X9366405Y-14717738D02*
X9375929Y-14708214D01*
X9375929Y-14708214D02*
X9394977Y-14698690D01*
X9394977Y-14698690D02*
X9423548Y-14698690D01*
X9423548Y-14698690D02*
X9442596Y-14708214D01*
X9442596Y-14708214D02*
X9452119Y-14717738D01*
X9452119Y-14717738D02*
X9461643Y-14736786D01*
X9461643Y-14736786D02*
X9461643Y-14793928D01*
X9461643Y-14793928D02*
X9452119Y-14812976D01*
X9452119Y-14812976D02*
X9442596Y-14822500D01*
X9442596Y-14822500D02*
X9423548Y-14832024D01*
X9423548Y-14832024D02*
X9394977Y-14832024D01*
X9575929Y-14832024D02*
X9556881Y-14822500D01*
X9556881Y-14822500D02*
X9547358Y-14803452D01*
X9547358Y-14803452D02*
X9547358Y-14632024D01*
X9728310Y-14822500D02*
X9709262Y-14832024D01*
X9709262Y-14832024D02*
X9671167Y-14832024D01*
X9671167Y-14832024D02*
X9652119Y-14822500D01*
X9652119Y-14822500D02*
X9642596Y-14803452D01*
X9642596Y-14803452D02*
X9642596Y-14727262D01*
X9642596Y-14727262D02*
X9652119Y-14708214D01*
X9652119Y-14708214D02*
X9671167Y-14698690D01*
X9671167Y-14698690D02*
X9709262Y-14698690D01*
X9709262Y-14698690D02*
X9728310Y-14708214D01*
X9728310Y-14708214D02*
X9737834Y-14727262D01*
X9737834Y-14727262D02*
X9737834Y-14746309D01*
X9737834Y-14746309D02*
X9642596Y-14765357D01*
X9814024Y-14822500D02*
X9833072Y-14832024D01*
X9833072Y-14832024D02*
X9871167Y-14832024D01*
X9871167Y-14832024D02*
X9890215Y-14822500D01*
X9890215Y-14822500D02*
X9899739Y-14803452D01*
X9899739Y-14803452D02*
X9899739Y-14793928D01*
X9899739Y-14793928D02*
X9890215Y-14774881D01*
X9890215Y-14774881D02*
X9871167Y-14765357D01*
X9871167Y-14765357D02*
X9842596Y-14765357D01*
X9842596Y-14765357D02*
X9823548Y-14755833D01*
X9823548Y-14755833D02*
X9814024Y-14736786D01*
X9814024Y-14736786D02*
X9814024Y-14727262D01*
X9814024Y-14727262D02*
X9823548Y-14708214D01*
X9823548Y-14708214D02*
X9842596Y-14698690D01*
X9842596Y-14698690D02*
X9871167Y-14698690D01*
X9871167Y-14698690D02*
X9890215Y-14708214D01*
X9966405Y-14908214D02*
X9975929Y-14898690D01*
X9975929Y-14898690D02*
X9994977Y-14870119D01*
X9994977Y-14870119D02*
X10004500Y-14851071D01*
X10004500Y-14851071D02*
X10014024Y-14822500D01*
X10014024Y-14822500D02*
X10023548Y-14774881D01*
X10023548Y-14774881D02*
X10023548Y-14736786D01*
X10023548Y-14736786D02*
X10014024Y-14689167D01*
X10014024Y-14689167D02*
X10004500Y-14660595D01*
X10004500Y-14660595D02*
X9994977Y-14641548D01*
X9994977Y-14641548D02*
X9975929Y-14612976D01*
X9975929Y-14612976D02*
X9966405Y-14603452D01*
D13*
X5204500Y-15003500D02*
G75*
G03*
X5204500Y-15003500I-15000J0D01*
G01*
D11*
X5490214Y-14896024D02*
X5509262Y-14896024D01*
X5509262Y-14896024D02*
X5528310Y-14905548D01*
X5528310Y-14905548D02*
X5537833Y-14915071D01*
X5537833Y-14915071D02*
X5547357Y-14934119D01*
X5547357Y-14934119D02*
X5556881Y-14972214D01*
X5556881Y-14972214D02*
X5556881Y-15019833D01*
X5556881Y-15019833D02*
X5547357Y-15057928D01*
X5547357Y-15057928D02*
X5537833Y-15076976D01*
X5537833Y-15076976D02*
X5528310Y-15086500D01*
X5528310Y-15086500D02*
X5509262Y-15096024D01*
X5509262Y-15096024D02*
X5490214Y-15096024D01*
X5490214Y-15096024D02*
X5471167Y-15086500D01*
X5471167Y-15086500D02*
X5461643Y-15076976D01*
X5461643Y-15076976D02*
X5452119Y-15057928D01*
X5452119Y-15057928D02*
X5442595Y-15019833D01*
X5442595Y-15019833D02*
X5442595Y-14972214D01*
X5442595Y-14972214D02*
X5452119Y-14934119D01*
X5452119Y-14934119D02*
X5461643Y-14915071D01*
X5461643Y-14915071D02*
X5471167Y-14905548D01*
X5471167Y-14905548D02*
X5490214Y-14896024D01*
X5642595Y-15076976D02*
X5652119Y-15086500D01*
X5652119Y-15086500D02*
X5642595Y-15096024D01*
X5642595Y-15096024D02*
X5633071Y-15086500D01*
X5633071Y-15086500D02*
X5642595Y-15076976D01*
X5642595Y-15076976D02*
X5642595Y-15096024D01*
X5718786Y-14896024D02*
X5842595Y-14896024D01*
X5842595Y-14896024D02*
X5775928Y-14972214D01*
X5775928Y-14972214D02*
X5804500Y-14972214D01*
X5804500Y-14972214D02*
X5823548Y-14981738D01*
X5823548Y-14981738D02*
X5833071Y-14991262D01*
X5833071Y-14991262D02*
X5842595Y-15010309D01*
X5842595Y-15010309D02*
X5842595Y-15057928D01*
X5842595Y-15057928D02*
X5833071Y-15076976D01*
X5833071Y-15076976D02*
X5823548Y-15086500D01*
X5823548Y-15086500D02*
X5804500Y-15096024D01*
X5804500Y-15096024D02*
X5747357Y-15096024D01*
X5747357Y-15096024D02*
X5728309Y-15086500D01*
X5728309Y-15086500D02*
X5718786Y-15076976D01*
X5966405Y-14896024D02*
X5985452Y-14896024D01*
X5985452Y-14896024D02*
X6004500Y-14905548D01*
X6004500Y-14905548D02*
X6014024Y-14915071D01*
X6014024Y-14915071D02*
X6023548Y-14934119D01*
X6023548Y-14934119D02*
X6033071Y-14972214D01*
X6033071Y-14972214D02*
X6033071Y-15019833D01*
X6033071Y-15019833D02*
X6023548Y-15057928D01*
X6023548Y-15057928D02*
X6014024Y-15076976D01*
X6014024Y-15076976D02*
X6004500Y-15086500D01*
X6004500Y-15086500D02*
X5985452Y-15096024D01*
X5985452Y-15096024D02*
X5966405Y-15096024D01*
X5966405Y-15096024D02*
X5947357Y-15086500D01*
X5947357Y-15086500D02*
X5937833Y-15076976D01*
X5937833Y-15076976D02*
X5928309Y-15057928D01*
X5928309Y-15057928D02*
X5918786Y-15019833D01*
X5918786Y-15019833D02*
X5918786Y-14972214D01*
X5918786Y-14972214D02*
X5928309Y-14934119D01*
X5928309Y-14934119D02*
X5937833Y-14915071D01*
X5937833Y-14915071D02*
X5947357Y-14905548D01*
X5947357Y-14905548D02*
X5966405Y-14896024D01*
X6156881Y-14896024D02*
X6175929Y-14896024D01*
X6175929Y-14896024D02*
X6194976Y-14905548D01*
X6194976Y-14905548D02*
X6204500Y-14915071D01*
X6204500Y-14915071D02*
X6214024Y-14934119D01*
X6214024Y-14934119D02*
X6223548Y-14972214D01*
X6223548Y-14972214D02*
X6223548Y-15019833D01*
X6223548Y-15019833D02*
X6214024Y-15057928D01*
X6214024Y-15057928D02*
X6204500Y-15076976D01*
X6204500Y-15076976D02*
X6194976Y-15086500D01*
X6194976Y-15086500D02*
X6175929Y-15096024D01*
X6175929Y-15096024D02*
X6156881Y-15096024D01*
X6156881Y-15096024D02*
X6137833Y-15086500D01*
X6137833Y-15086500D02*
X6128309Y-15076976D01*
X6128309Y-15076976D02*
X6118786Y-15057928D01*
X6118786Y-15057928D02*
X6109262Y-15019833D01*
X6109262Y-15019833D02*
X6109262Y-14972214D01*
X6109262Y-14972214D02*
X6118786Y-14934119D01*
X6118786Y-14934119D02*
X6128309Y-14915071D01*
X6128309Y-14915071D02*
X6137833Y-14905548D01*
X6137833Y-14905548D02*
X6156881Y-14896024D01*
X6309262Y-15096024D02*
X6309262Y-14962690D01*
X6309262Y-14981738D02*
X6318786Y-14972214D01*
X6318786Y-14972214D02*
X6337833Y-14962690D01*
X6337833Y-14962690D02*
X6366405Y-14962690D01*
X6366405Y-14962690D02*
X6385452Y-14972214D01*
X6385452Y-14972214D02*
X6394976Y-14991262D01*
X6394976Y-14991262D02*
X6394976Y-15096024D01*
X6394976Y-14991262D02*
X6404500Y-14972214D01*
X6404500Y-14972214D02*
X6423548Y-14962690D01*
X6423548Y-14962690D02*
X6452119Y-14962690D01*
X6452119Y-14962690D02*
X6471167Y-14972214D01*
X6471167Y-14972214D02*
X6480690Y-14991262D01*
X6480690Y-14991262D02*
X6480690Y-15096024D01*
X6575929Y-15096024D02*
X6575929Y-14962690D01*
X6575929Y-14981738D02*
X6585452Y-14972214D01*
X6585452Y-14972214D02*
X6604500Y-14962690D01*
X6604500Y-14962690D02*
X6633071Y-14962690D01*
X6633071Y-14962690D02*
X6652119Y-14972214D01*
X6652119Y-14972214D02*
X6661643Y-14991262D01*
X6661643Y-14991262D02*
X6661643Y-15096024D01*
X6661643Y-14991262D02*
X6671167Y-14972214D01*
X6671167Y-14972214D02*
X6690214Y-14962690D01*
X6690214Y-14962690D02*
X6718786Y-14962690D01*
X6718786Y-14962690D02*
X6737833Y-14972214D01*
X6737833Y-14972214D02*
X6747357Y-14991262D01*
X6747357Y-14991262D02*
X6747357Y-15096024D01*
X7137833Y-14886500D02*
X6966405Y-15143643D01*
X7394976Y-14896024D02*
X7414024Y-14896024D01*
X7414024Y-14896024D02*
X7433072Y-14905548D01*
X7433072Y-14905548D02*
X7442595Y-14915071D01*
X7442595Y-14915071D02*
X7452119Y-14934119D01*
X7452119Y-14934119D02*
X7461643Y-14972214D01*
X7461643Y-14972214D02*
X7461643Y-15019833D01*
X7461643Y-15019833D02*
X7452119Y-15057928D01*
X7452119Y-15057928D02*
X7442595Y-15076976D01*
X7442595Y-15076976D02*
X7433072Y-15086500D01*
X7433072Y-15086500D02*
X7414024Y-15096024D01*
X7414024Y-15096024D02*
X7394976Y-15096024D01*
X7394976Y-15096024D02*
X7375929Y-15086500D01*
X7375929Y-15086500D02*
X7366405Y-15076976D01*
X7366405Y-15076976D02*
X7356881Y-15057928D01*
X7356881Y-15057928D02*
X7347357Y-15019833D01*
X7347357Y-15019833D02*
X7347357Y-14972214D01*
X7347357Y-14972214D02*
X7356881Y-14934119D01*
X7356881Y-14934119D02*
X7366405Y-14915071D01*
X7366405Y-14915071D02*
X7375929Y-14905548D01*
X7375929Y-14905548D02*
X7394976Y-14896024D01*
X7547357Y-15076976D02*
X7556881Y-15086500D01*
X7556881Y-15086500D02*
X7547357Y-15096024D01*
X7547357Y-15096024D02*
X7537833Y-15086500D01*
X7537833Y-15086500D02*
X7547357Y-15076976D01*
X7547357Y-15076976D02*
X7547357Y-15096024D01*
X7680691Y-14896024D02*
X7699738Y-14896024D01*
X7699738Y-14896024D02*
X7718786Y-14905548D01*
X7718786Y-14905548D02*
X7728310Y-14915071D01*
X7728310Y-14915071D02*
X7737833Y-14934119D01*
X7737833Y-14934119D02*
X7747357Y-14972214D01*
X7747357Y-14972214D02*
X7747357Y-15019833D01*
X7747357Y-15019833D02*
X7737833Y-15057928D01*
X7737833Y-15057928D02*
X7728310Y-15076976D01*
X7728310Y-15076976D02*
X7718786Y-15086500D01*
X7718786Y-15086500D02*
X7699738Y-15096024D01*
X7699738Y-15096024D02*
X7680691Y-15096024D01*
X7680691Y-15096024D02*
X7661643Y-15086500D01*
X7661643Y-15086500D02*
X7652119Y-15076976D01*
X7652119Y-15076976D02*
X7642595Y-15057928D01*
X7642595Y-15057928D02*
X7633072Y-15019833D01*
X7633072Y-15019833D02*
X7633072Y-14972214D01*
X7633072Y-14972214D02*
X7642595Y-14934119D01*
X7642595Y-14934119D02*
X7652119Y-14915071D01*
X7652119Y-14915071D02*
X7661643Y-14905548D01*
X7661643Y-14905548D02*
X7680691Y-14896024D01*
X7937833Y-15096024D02*
X7823548Y-15096024D01*
X7880691Y-15096024D02*
X7880691Y-14896024D01*
X7880691Y-14896024D02*
X7861643Y-14924595D01*
X7861643Y-14924595D02*
X7842595Y-14943643D01*
X7842595Y-14943643D02*
X7823548Y-14953167D01*
X8128310Y-15096024D02*
X8014024Y-15096024D01*
X8071167Y-15096024D02*
X8071167Y-14896024D01*
X8071167Y-14896024D02*
X8052119Y-14924595D01*
X8052119Y-14924595D02*
X8033072Y-14943643D01*
X8033072Y-14943643D02*
X8014024Y-14953167D01*
X8242595Y-14981738D02*
X8223548Y-14972214D01*
X8223548Y-14972214D02*
X8214024Y-14962690D01*
X8214024Y-14962690D02*
X8204500Y-14943643D01*
X8204500Y-14943643D02*
X8204500Y-14934119D01*
X8204500Y-14934119D02*
X8214024Y-14915071D01*
X8214024Y-14915071D02*
X8223548Y-14905548D01*
X8223548Y-14905548D02*
X8242595Y-14896024D01*
X8242595Y-14896024D02*
X8280691Y-14896024D01*
X8280691Y-14896024D02*
X8299738Y-14905548D01*
X8299738Y-14905548D02*
X8309262Y-14915071D01*
X8309262Y-14915071D02*
X8318786Y-14934119D01*
X8318786Y-14934119D02*
X8318786Y-14943643D01*
X8318786Y-14943643D02*
X8309262Y-14962690D01*
X8309262Y-14962690D02*
X8299738Y-14972214D01*
X8299738Y-14972214D02*
X8280691Y-14981738D01*
X8280691Y-14981738D02*
X8242595Y-14981738D01*
X8242595Y-14981738D02*
X8223548Y-14991262D01*
X8223548Y-14991262D02*
X8214024Y-15000786D01*
X8214024Y-15000786D02*
X8204500Y-15019833D01*
X8204500Y-15019833D02*
X8204500Y-15057928D01*
X8204500Y-15057928D02*
X8214024Y-15076976D01*
X8214024Y-15076976D02*
X8223548Y-15086500D01*
X8223548Y-15086500D02*
X8242595Y-15096024D01*
X8242595Y-15096024D02*
X8280691Y-15096024D01*
X8280691Y-15096024D02*
X8299738Y-15086500D01*
X8299738Y-15086500D02*
X8309262Y-15076976D01*
X8309262Y-15076976D02*
X8318786Y-15057928D01*
X8318786Y-15057928D02*
X8318786Y-15019833D01*
X8318786Y-15019833D02*
X8309262Y-15000786D01*
X8309262Y-15000786D02*
X8299738Y-14991262D01*
X8299738Y-14991262D02*
X8280691Y-14981738D01*
X8394976Y-14896024D02*
X8394976Y-14934119D01*
X8471167Y-14896024D02*
X8471167Y-14934119D01*
X8766405Y-15172214D02*
X8756881Y-15162690D01*
X8756881Y-15162690D02*
X8737834Y-15134119D01*
X8737834Y-15134119D02*
X8728310Y-15115071D01*
X8728310Y-15115071D02*
X8718786Y-15086500D01*
X8718786Y-15086500D02*
X8709262Y-15038881D01*
X8709262Y-15038881D02*
X8709262Y-15000786D01*
X8709262Y-15000786D02*
X8718786Y-14953167D01*
X8718786Y-14953167D02*
X8728310Y-14924595D01*
X8728310Y-14924595D02*
X8737834Y-14905548D01*
X8737834Y-14905548D02*
X8756881Y-14876976D01*
X8756881Y-14876976D02*
X8766405Y-14867452D01*
X8947357Y-15096024D02*
X8833072Y-15096024D01*
X8890215Y-15096024D02*
X8890215Y-14896024D01*
X8890215Y-14896024D02*
X8871167Y-14924595D01*
X8871167Y-14924595D02*
X8852119Y-14943643D01*
X8852119Y-14943643D02*
X8833072Y-14953167D01*
X9128310Y-14896024D02*
X9033072Y-14896024D01*
X9033072Y-14896024D02*
X9023548Y-14991262D01*
X9023548Y-14991262D02*
X9033072Y-14981738D01*
X9033072Y-14981738D02*
X9052119Y-14972214D01*
X9052119Y-14972214D02*
X9099738Y-14972214D01*
X9099738Y-14972214D02*
X9118786Y-14981738D01*
X9118786Y-14981738D02*
X9128310Y-14991262D01*
X9128310Y-14991262D02*
X9137834Y-15010309D01*
X9137834Y-15010309D02*
X9137834Y-15057928D01*
X9137834Y-15057928D02*
X9128310Y-15076976D01*
X9128310Y-15076976D02*
X9118786Y-15086500D01*
X9118786Y-15086500D02*
X9099738Y-15096024D01*
X9099738Y-15096024D02*
X9052119Y-15096024D01*
X9052119Y-15096024D02*
X9033072Y-15086500D01*
X9033072Y-15086500D02*
X9023548Y-15076976D01*
X9375929Y-15096024D02*
X9375929Y-14896024D01*
X9461643Y-15096024D02*
X9461643Y-14991262D01*
X9461643Y-14991262D02*
X9452119Y-14972214D01*
X9452119Y-14972214D02*
X9433072Y-14962690D01*
X9433072Y-14962690D02*
X9404500Y-14962690D01*
X9404500Y-14962690D02*
X9385453Y-14972214D01*
X9385453Y-14972214D02*
X9375929Y-14981738D01*
X9585453Y-15096024D02*
X9566405Y-15086500D01*
X9566405Y-15086500D02*
X9556881Y-15076976D01*
X9556881Y-15076976D02*
X9547358Y-15057928D01*
X9547358Y-15057928D02*
X9547358Y-15000786D01*
X9547358Y-15000786D02*
X9556881Y-14981738D01*
X9556881Y-14981738D02*
X9566405Y-14972214D01*
X9566405Y-14972214D02*
X9585453Y-14962690D01*
X9585453Y-14962690D02*
X9614024Y-14962690D01*
X9614024Y-14962690D02*
X9633072Y-14972214D01*
X9633072Y-14972214D02*
X9642596Y-14981738D01*
X9642596Y-14981738D02*
X9652119Y-15000786D01*
X9652119Y-15000786D02*
X9652119Y-15057928D01*
X9652119Y-15057928D02*
X9642596Y-15076976D01*
X9642596Y-15076976D02*
X9633072Y-15086500D01*
X9633072Y-15086500D02*
X9614024Y-15096024D01*
X9614024Y-15096024D02*
X9585453Y-15096024D01*
X9766405Y-15096024D02*
X9747358Y-15086500D01*
X9747358Y-15086500D02*
X9737834Y-15067452D01*
X9737834Y-15067452D02*
X9737834Y-14896024D01*
X9918786Y-15086500D02*
X9899739Y-15096024D01*
X9899739Y-15096024D02*
X9861643Y-15096024D01*
X9861643Y-15096024D02*
X9842596Y-15086500D01*
X9842596Y-15086500D02*
X9833072Y-15067452D01*
X9833072Y-15067452D02*
X9833072Y-14991262D01*
X9833072Y-14991262D02*
X9842596Y-14972214D01*
X9842596Y-14972214D02*
X9861643Y-14962690D01*
X9861643Y-14962690D02*
X9899739Y-14962690D01*
X9899739Y-14962690D02*
X9918786Y-14972214D01*
X9918786Y-14972214D02*
X9928310Y-14991262D01*
X9928310Y-14991262D02*
X9928310Y-15010309D01*
X9928310Y-15010309D02*
X9833072Y-15029357D01*
X10004500Y-15086500D02*
X10023548Y-15096024D01*
X10023548Y-15096024D02*
X10061643Y-15096024D01*
X10061643Y-15096024D02*
X10080691Y-15086500D01*
X10080691Y-15086500D02*
X10090215Y-15067452D01*
X10090215Y-15067452D02*
X10090215Y-15057928D01*
X10090215Y-15057928D02*
X10080691Y-15038881D01*
X10080691Y-15038881D02*
X10061643Y-15029357D01*
X10061643Y-15029357D02*
X10033072Y-15029357D01*
X10033072Y-15029357D02*
X10014024Y-15019833D01*
X10014024Y-15019833D02*
X10004500Y-15000786D01*
X10004500Y-15000786D02*
X10004500Y-14991262D01*
X10004500Y-14991262D02*
X10014024Y-14972214D01*
X10014024Y-14972214D02*
X10033072Y-14962690D01*
X10033072Y-14962690D02*
X10061643Y-14962690D01*
X10061643Y-14962690D02*
X10080691Y-14972214D01*
X10156881Y-15172214D02*
X10166405Y-15162690D01*
X10166405Y-15162690D02*
X10185453Y-15134119D01*
X10185453Y-15134119D02*
X10194977Y-15115071D01*
X10194977Y-15115071D02*
X10204500Y-15086500D01*
X10204500Y-15086500D02*
X10214024Y-15038881D01*
X10214024Y-15038881D02*
X10214024Y-15000786D01*
X10214024Y-15000786D02*
X10204500Y-14953167D01*
X10204500Y-14953167D02*
X10194977Y-14924595D01*
X10194977Y-14924595D02*
X10185453Y-14905548D01*
X10185453Y-14905548D02*
X10166405Y-14876976D01*
X10166405Y-14876976D02*
X10156881Y-14867452D01*
D14*
X5184500Y-15247500D02*
X5184500Y-15287500D01*
X5164500Y-15267500D02*
X5204500Y-15267500D01*
D11*
X5490214Y-15160024D02*
X5509262Y-15160024D01*
X5509262Y-15160024D02*
X5528310Y-15169548D01*
X5528310Y-15169548D02*
X5537833Y-15179071D01*
X5537833Y-15179071D02*
X5547357Y-15198119D01*
X5547357Y-15198119D02*
X5556881Y-15236214D01*
X5556881Y-15236214D02*
X5556881Y-15283833D01*
X5556881Y-15283833D02*
X5547357Y-15321928D01*
X5547357Y-15321928D02*
X5537833Y-15340976D01*
X5537833Y-15340976D02*
X5528310Y-15350500D01*
X5528310Y-15350500D02*
X5509262Y-15360024D01*
X5509262Y-15360024D02*
X5490214Y-15360024D01*
X5490214Y-15360024D02*
X5471167Y-15350500D01*
X5471167Y-15350500D02*
X5461643Y-15340976D01*
X5461643Y-15340976D02*
X5452119Y-15321928D01*
X5452119Y-15321928D02*
X5442595Y-15283833D01*
X5442595Y-15283833D02*
X5442595Y-15236214D01*
X5442595Y-15236214D02*
X5452119Y-15198119D01*
X5452119Y-15198119D02*
X5461643Y-15179071D01*
X5461643Y-15179071D02*
X5471167Y-15169548D01*
X5471167Y-15169548D02*
X5490214Y-15160024D01*
X5642595Y-15340976D02*
X5652119Y-15350500D01*
X5652119Y-15350500D02*
X5642595Y-15360024D01*
X5642595Y-15360024D02*
X5633071Y-15350500D01*
X5633071Y-15350500D02*
X5642595Y-15340976D01*
X5642595Y-15340976D02*
X5642595Y-15360024D01*
X5823548Y-15226690D02*
X5823548Y-15360024D01*
X5775928Y-15150500D02*
X5728309Y-15293357D01*
X5728309Y-15293357D02*
X5852119Y-15293357D01*
X5966405Y-15160024D02*
X5985452Y-15160024D01*
X5985452Y-15160024D02*
X6004500Y-15169548D01*
X6004500Y-15169548D02*
X6014024Y-15179071D01*
X6014024Y-15179071D02*
X6023548Y-15198119D01*
X6023548Y-15198119D02*
X6033071Y-15236214D01*
X6033071Y-15236214D02*
X6033071Y-15283833D01*
X6033071Y-15283833D02*
X6023548Y-15321928D01*
X6023548Y-15321928D02*
X6014024Y-15340976D01*
X6014024Y-15340976D02*
X6004500Y-15350500D01*
X6004500Y-15350500D02*
X5985452Y-15360024D01*
X5985452Y-15360024D02*
X5966405Y-15360024D01*
X5966405Y-15360024D02*
X5947357Y-15350500D01*
X5947357Y-15350500D02*
X5937833Y-15340976D01*
X5937833Y-15340976D02*
X5928309Y-15321928D01*
X5928309Y-15321928D02*
X5918786Y-15283833D01*
X5918786Y-15283833D02*
X5918786Y-15236214D01*
X5918786Y-15236214D02*
X5928309Y-15198119D01*
X5928309Y-15198119D02*
X5937833Y-15179071D01*
X5937833Y-15179071D02*
X5947357Y-15169548D01*
X5947357Y-15169548D02*
X5966405Y-15160024D01*
X6156881Y-15160024D02*
X6175929Y-15160024D01*
X6175929Y-15160024D02*
X6194976Y-15169548D01*
X6194976Y-15169548D02*
X6204500Y-15179071D01*
X6204500Y-15179071D02*
X6214024Y-15198119D01*
X6214024Y-15198119D02*
X6223548Y-15236214D01*
X6223548Y-15236214D02*
X6223548Y-15283833D01*
X6223548Y-15283833D02*
X6214024Y-15321928D01*
X6214024Y-15321928D02*
X6204500Y-15340976D01*
X6204500Y-15340976D02*
X6194976Y-15350500D01*
X6194976Y-15350500D02*
X6175929Y-15360024D01*
X6175929Y-15360024D02*
X6156881Y-15360024D01*
X6156881Y-15360024D02*
X6137833Y-15350500D01*
X6137833Y-15350500D02*
X6128309Y-15340976D01*
X6128309Y-15340976D02*
X6118786Y-15321928D01*
X6118786Y-15321928D02*
X6109262Y-15283833D01*
X6109262Y-15283833D02*
X6109262Y-15236214D01*
X6109262Y-15236214D02*
X6118786Y-15198119D01*
X6118786Y-15198119D02*
X6128309Y-15179071D01*
X6128309Y-15179071D02*
X6137833Y-15169548D01*
X6137833Y-15169548D02*
X6156881Y-15160024D01*
X6309262Y-15360024D02*
X6309262Y-15226690D01*
X6309262Y-15245738D02*
X6318786Y-15236214D01*
X6318786Y-15236214D02*
X6337833Y-15226690D01*
X6337833Y-15226690D02*
X6366405Y-15226690D01*
X6366405Y-15226690D02*
X6385452Y-15236214D01*
X6385452Y-15236214D02*
X6394976Y-15255262D01*
X6394976Y-15255262D02*
X6394976Y-15360024D01*
X6394976Y-15255262D02*
X6404500Y-15236214D01*
X6404500Y-15236214D02*
X6423548Y-15226690D01*
X6423548Y-15226690D02*
X6452119Y-15226690D01*
X6452119Y-15226690D02*
X6471167Y-15236214D01*
X6471167Y-15236214D02*
X6480690Y-15255262D01*
X6480690Y-15255262D02*
X6480690Y-15360024D01*
X6575929Y-15360024D02*
X6575929Y-15226690D01*
X6575929Y-15245738D02*
X6585452Y-15236214D01*
X6585452Y-15236214D02*
X6604500Y-15226690D01*
X6604500Y-15226690D02*
X6633071Y-15226690D01*
X6633071Y-15226690D02*
X6652119Y-15236214D01*
X6652119Y-15236214D02*
X6661643Y-15255262D01*
X6661643Y-15255262D02*
X6661643Y-15360024D01*
X6661643Y-15255262D02*
X6671167Y-15236214D01*
X6671167Y-15236214D02*
X6690214Y-15226690D01*
X6690214Y-15226690D02*
X6718786Y-15226690D01*
X6718786Y-15226690D02*
X6737833Y-15236214D01*
X6737833Y-15236214D02*
X6747357Y-15255262D01*
X6747357Y-15255262D02*
X6747357Y-15360024D01*
X7137833Y-15150500D02*
X6966405Y-15407643D01*
X7394976Y-15160024D02*
X7414024Y-15160024D01*
X7414024Y-15160024D02*
X7433072Y-15169548D01*
X7433072Y-15169548D02*
X7442595Y-15179071D01*
X7442595Y-15179071D02*
X7452119Y-15198119D01*
X7452119Y-15198119D02*
X7461643Y-15236214D01*
X7461643Y-15236214D02*
X7461643Y-15283833D01*
X7461643Y-15283833D02*
X7452119Y-15321928D01*
X7452119Y-15321928D02*
X7442595Y-15340976D01*
X7442595Y-15340976D02*
X7433072Y-15350500D01*
X7433072Y-15350500D02*
X7414024Y-15360024D01*
X7414024Y-15360024D02*
X7394976Y-15360024D01*
X7394976Y-15360024D02*
X7375929Y-15350500D01*
X7375929Y-15350500D02*
X7366405Y-15340976D01*
X7366405Y-15340976D02*
X7356881Y-15321928D01*
X7356881Y-15321928D02*
X7347357Y-15283833D01*
X7347357Y-15283833D02*
X7347357Y-15236214D01*
X7347357Y-15236214D02*
X7356881Y-15198119D01*
X7356881Y-15198119D02*
X7366405Y-15179071D01*
X7366405Y-15179071D02*
X7375929Y-15169548D01*
X7375929Y-15169548D02*
X7394976Y-15160024D01*
X7547357Y-15340976D02*
X7556881Y-15350500D01*
X7556881Y-15350500D02*
X7547357Y-15360024D01*
X7547357Y-15360024D02*
X7537833Y-15350500D01*
X7537833Y-15350500D02*
X7547357Y-15340976D01*
X7547357Y-15340976D02*
X7547357Y-15360024D01*
X7680691Y-15160024D02*
X7699738Y-15160024D01*
X7699738Y-15160024D02*
X7718786Y-15169548D01*
X7718786Y-15169548D02*
X7728310Y-15179071D01*
X7728310Y-15179071D02*
X7737833Y-15198119D01*
X7737833Y-15198119D02*
X7747357Y-15236214D01*
X7747357Y-15236214D02*
X7747357Y-15283833D01*
X7747357Y-15283833D02*
X7737833Y-15321928D01*
X7737833Y-15321928D02*
X7728310Y-15340976D01*
X7728310Y-15340976D02*
X7718786Y-15350500D01*
X7718786Y-15350500D02*
X7699738Y-15360024D01*
X7699738Y-15360024D02*
X7680691Y-15360024D01*
X7680691Y-15360024D02*
X7661643Y-15350500D01*
X7661643Y-15350500D02*
X7652119Y-15340976D01*
X7652119Y-15340976D02*
X7642595Y-15321928D01*
X7642595Y-15321928D02*
X7633072Y-15283833D01*
X7633072Y-15283833D02*
X7633072Y-15236214D01*
X7633072Y-15236214D02*
X7642595Y-15198119D01*
X7642595Y-15198119D02*
X7652119Y-15179071D01*
X7652119Y-15179071D02*
X7661643Y-15169548D01*
X7661643Y-15169548D02*
X7680691Y-15160024D01*
X7937833Y-15360024D02*
X7823548Y-15360024D01*
X7880691Y-15360024D02*
X7880691Y-15160024D01*
X7880691Y-15160024D02*
X7861643Y-15188595D01*
X7861643Y-15188595D02*
X7842595Y-15207643D01*
X7842595Y-15207643D02*
X7823548Y-15217167D01*
X8118786Y-15160024D02*
X8023548Y-15160024D01*
X8023548Y-15160024D02*
X8014024Y-15255262D01*
X8014024Y-15255262D02*
X8023548Y-15245738D01*
X8023548Y-15245738D02*
X8042595Y-15236214D01*
X8042595Y-15236214D02*
X8090214Y-15236214D01*
X8090214Y-15236214D02*
X8109262Y-15245738D01*
X8109262Y-15245738D02*
X8118786Y-15255262D01*
X8118786Y-15255262D02*
X8128310Y-15274309D01*
X8128310Y-15274309D02*
X8128310Y-15321928D01*
X8128310Y-15321928D02*
X8118786Y-15340976D01*
X8118786Y-15340976D02*
X8109262Y-15350500D01*
X8109262Y-15350500D02*
X8090214Y-15360024D01*
X8090214Y-15360024D02*
X8042595Y-15360024D01*
X8042595Y-15360024D02*
X8023548Y-15350500D01*
X8023548Y-15350500D02*
X8014024Y-15340976D01*
X8194976Y-15160024D02*
X8328310Y-15160024D01*
X8328310Y-15160024D02*
X8242595Y-15360024D01*
X8394976Y-15160024D02*
X8394976Y-15198119D01*
X8471167Y-15160024D02*
X8471167Y-15198119D01*
X8766405Y-15436214D02*
X8756881Y-15426690D01*
X8756881Y-15426690D02*
X8737834Y-15398119D01*
X8737834Y-15398119D02*
X8728310Y-15379071D01*
X8728310Y-15379071D02*
X8718786Y-15350500D01*
X8718786Y-15350500D02*
X8709262Y-15302881D01*
X8709262Y-15302881D02*
X8709262Y-15264786D01*
X8709262Y-15264786D02*
X8718786Y-15217167D01*
X8718786Y-15217167D02*
X8728310Y-15188595D01*
X8728310Y-15188595D02*
X8737834Y-15169548D01*
X8737834Y-15169548D02*
X8756881Y-15140976D01*
X8756881Y-15140976D02*
X8766405Y-15131452D01*
X8928310Y-15226690D02*
X8928310Y-15360024D01*
X8880691Y-15150500D02*
X8833072Y-15293357D01*
X8833072Y-15293357D02*
X8956881Y-15293357D01*
X9185453Y-15360024D02*
X9185453Y-15160024D01*
X9271167Y-15360024D02*
X9271167Y-15255262D01*
X9271167Y-15255262D02*
X9261643Y-15236214D01*
X9261643Y-15236214D02*
X9242596Y-15226690D01*
X9242596Y-15226690D02*
X9214024Y-15226690D01*
X9214024Y-15226690D02*
X9194977Y-15236214D01*
X9194977Y-15236214D02*
X9185453Y-15245738D01*
X9394977Y-15360024D02*
X9375929Y-15350500D01*
X9375929Y-15350500D02*
X9366405Y-15340976D01*
X9366405Y-15340976D02*
X9356881Y-15321928D01*
X9356881Y-15321928D02*
X9356881Y-15264786D01*
X9356881Y-15264786D02*
X9366405Y-15245738D01*
X9366405Y-15245738D02*
X9375929Y-15236214D01*
X9375929Y-15236214D02*
X9394977Y-15226690D01*
X9394977Y-15226690D02*
X9423548Y-15226690D01*
X9423548Y-15226690D02*
X9442596Y-15236214D01*
X9442596Y-15236214D02*
X9452119Y-15245738D01*
X9452119Y-15245738D02*
X9461643Y-15264786D01*
X9461643Y-15264786D02*
X9461643Y-15321928D01*
X9461643Y-15321928D02*
X9452119Y-15340976D01*
X9452119Y-15340976D02*
X9442596Y-15350500D01*
X9442596Y-15350500D02*
X9423548Y-15360024D01*
X9423548Y-15360024D02*
X9394977Y-15360024D01*
X9575929Y-15360024D02*
X9556881Y-15350500D01*
X9556881Y-15350500D02*
X9547358Y-15331452D01*
X9547358Y-15331452D02*
X9547358Y-15160024D01*
X9728310Y-15350500D02*
X9709262Y-15360024D01*
X9709262Y-15360024D02*
X9671167Y-15360024D01*
X9671167Y-15360024D02*
X9652119Y-15350500D01*
X9652119Y-15350500D02*
X9642596Y-15331452D01*
X9642596Y-15331452D02*
X9642596Y-15255262D01*
X9642596Y-15255262D02*
X9652119Y-15236214D01*
X9652119Y-15236214D02*
X9671167Y-15226690D01*
X9671167Y-15226690D02*
X9709262Y-15226690D01*
X9709262Y-15226690D02*
X9728310Y-15236214D01*
X9728310Y-15236214D02*
X9737834Y-15255262D01*
X9737834Y-15255262D02*
X9737834Y-15274309D01*
X9737834Y-15274309D02*
X9642596Y-15293357D01*
X9814024Y-15350500D02*
X9833072Y-15360024D01*
X9833072Y-15360024D02*
X9871167Y-15360024D01*
X9871167Y-15360024D02*
X9890215Y-15350500D01*
X9890215Y-15350500D02*
X9899739Y-15331452D01*
X9899739Y-15331452D02*
X9899739Y-15321928D01*
X9899739Y-15321928D02*
X9890215Y-15302881D01*
X9890215Y-15302881D02*
X9871167Y-15293357D01*
X9871167Y-15293357D02*
X9842596Y-15293357D01*
X9842596Y-15293357D02*
X9823548Y-15283833D01*
X9823548Y-15283833D02*
X9814024Y-15264786D01*
X9814024Y-15264786D02*
X9814024Y-15255262D01*
X9814024Y-15255262D02*
X9823548Y-15236214D01*
X9823548Y-15236214D02*
X9842596Y-15226690D01*
X9842596Y-15226690D02*
X9871167Y-15226690D01*
X9871167Y-15226690D02*
X9890215Y-15236214D01*
X9966405Y-15436214D02*
X9975929Y-15426690D01*
X9975929Y-15426690D02*
X9994977Y-15398119D01*
X9994977Y-15398119D02*
X10004500Y-15379071D01*
X10004500Y-15379071D02*
X10014024Y-15350500D01*
X10014024Y-15350500D02*
X10023548Y-15302881D01*
X10023548Y-15302881D02*
X10023548Y-15264786D01*
X10023548Y-15264786D02*
X10014024Y-15217167D01*
X10014024Y-15217167D02*
X10004500Y-15188595D01*
X10004500Y-15188595D02*
X9994977Y-15169548D01*
X9994977Y-15169548D02*
X9975929Y-15140976D01*
X9975929Y-15140976D02*
X9966405Y-15131452D01*
D15*
X5195713Y-15552713D02*
X5195713Y-15510287D01*
X5153287Y-15510287D01*
X5153287Y-15552713D01*
X5195713Y-15552713D01*
D11*
X5490214Y-15424024D02*
X5509262Y-15424024D01*
X5509262Y-15424024D02*
X5528310Y-15433548D01*
X5528310Y-15433548D02*
X5537833Y-15443071D01*
X5537833Y-15443071D02*
X5547357Y-15462119D01*
X5547357Y-15462119D02*
X5556881Y-15500214D01*
X5556881Y-15500214D02*
X5556881Y-15547833D01*
X5556881Y-15547833D02*
X5547357Y-15585928D01*
X5547357Y-15585928D02*
X5537833Y-15604976D01*
X5537833Y-15604976D02*
X5528310Y-15614500D01*
X5528310Y-15614500D02*
X5509262Y-15624024D01*
X5509262Y-15624024D02*
X5490214Y-15624024D01*
X5490214Y-15624024D02*
X5471167Y-15614500D01*
X5471167Y-15614500D02*
X5461643Y-15604976D01*
X5461643Y-15604976D02*
X5452119Y-15585928D01*
X5452119Y-15585928D02*
X5442595Y-15547833D01*
X5442595Y-15547833D02*
X5442595Y-15500214D01*
X5442595Y-15500214D02*
X5452119Y-15462119D01*
X5452119Y-15462119D02*
X5461643Y-15443071D01*
X5461643Y-15443071D02*
X5471167Y-15433548D01*
X5471167Y-15433548D02*
X5490214Y-15424024D01*
X5642595Y-15604976D02*
X5652119Y-15614500D01*
X5652119Y-15614500D02*
X5642595Y-15624024D01*
X5642595Y-15624024D02*
X5633071Y-15614500D01*
X5633071Y-15614500D02*
X5642595Y-15604976D01*
X5642595Y-15604976D02*
X5642595Y-15624024D01*
X5823548Y-15424024D02*
X5785452Y-15424024D01*
X5785452Y-15424024D02*
X5766405Y-15433548D01*
X5766405Y-15433548D02*
X5756881Y-15443071D01*
X5756881Y-15443071D02*
X5737833Y-15471643D01*
X5737833Y-15471643D02*
X5728309Y-15509738D01*
X5728309Y-15509738D02*
X5728309Y-15585928D01*
X5728309Y-15585928D02*
X5737833Y-15604976D01*
X5737833Y-15604976D02*
X5747357Y-15614500D01*
X5747357Y-15614500D02*
X5766405Y-15624024D01*
X5766405Y-15624024D02*
X5804500Y-15624024D01*
X5804500Y-15624024D02*
X5823548Y-15614500D01*
X5823548Y-15614500D02*
X5833071Y-15604976D01*
X5833071Y-15604976D02*
X5842595Y-15585928D01*
X5842595Y-15585928D02*
X5842595Y-15538309D01*
X5842595Y-15538309D02*
X5833071Y-15519262D01*
X5833071Y-15519262D02*
X5823548Y-15509738D01*
X5823548Y-15509738D02*
X5804500Y-15500214D01*
X5804500Y-15500214D02*
X5766405Y-15500214D01*
X5766405Y-15500214D02*
X5747357Y-15509738D01*
X5747357Y-15509738D02*
X5737833Y-15519262D01*
X5737833Y-15519262D02*
X5728309Y-15538309D01*
X5966405Y-15424024D02*
X5985452Y-15424024D01*
X5985452Y-15424024D02*
X6004500Y-15433548D01*
X6004500Y-15433548D02*
X6014024Y-15443071D01*
X6014024Y-15443071D02*
X6023548Y-15462119D01*
X6023548Y-15462119D02*
X6033071Y-15500214D01*
X6033071Y-15500214D02*
X6033071Y-15547833D01*
X6033071Y-15547833D02*
X6023548Y-15585928D01*
X6023548Y-15585928D02*
X6014024Y-15604976D01*
X6014024Y-15604976D02*
X6004500Y-15614500D01*
X6004500Y-15614500D02*
X5985452Y-15624024D01*
X5985452Y-15624024D02*
X5966405Y-15624024D01*
X5966405Y-15624024D02*
X5947357Y-15614500D01*
X5947357Y-15614500D02*
X5937833Y-15604976D01*
X5937833Y-15604976D02*
X5928309Y-15585928D01*
X5928309Y-15585928D02*
X5918786Y-15547833D01*
X5918786Y-15547833D02*
X5918786Y-15500214D01*
X5918786Y-15500214D02*
X5928309Y-15462119D01*
X5928309Y-15462119D02*
X5937833Y-15443071D01*
X5937833Y-15443071D02*
X5947357Y-15433548D01*
X5947357Y-15433548D02*
X5966405Y-15424024D01*
X6156881Y-15424024D02*
X6175929Y-15424024D01*
X6175929Y-15424024D02*
X6194976Y-15433548D01*
X6194976Y-15433548D02*
X6204500Y-15443071D01*
X6204500Y-15443071D02*
X6214024Y-15462119D01*
X6214024Y-15462119D02*
X6223548Y-15500214D01*
X6223548Y-15500214D02*
X6223548Y-15547833D01*
X6223548Y-15547833D02*
X6214024Y-15585928D01*
X6214024Y-15585928D02*
X6204500Y-15604976D01*
X6204500Y-15604976D02*
X6194976Y-15614500D01*
X6194976Y-15614500D02*
X6175929Y-15624024D01*
X6175929Y-15624024D02*
X6156881Y-15624024D01*
X6156881Y-15624024D02*
X6137833Y-15614500D01*
X6137833Y-15614500D02*
X6128309Y-15604976D01*
X6128309Y-15604976D02*
X6118786Y-15585928D01*
X6118786Y-15585928D02*
X6109262Y-15547833D01*
X6109262Y-15547833D02*
X6109262Y-15500214D01*
X6109262Y-15500214D02*
X6118786Y-15462119D01*
X6118786Y-15462119D02*
X6128309Y-15443071D01*
X6128309Y-15443071D02*
X6137833Y-15433548D01*
X6137833Y-15433548D02*
X6156881Y-15424024D01*
X6309262Y-15624024D02*
X6309262Y-15490690D01*
X6309262Y-15509738D02*
X6318786Y-15500214D01*
X6318786Y-15500214D02*
X6337833Y-15490690D01*
X6337833Y-15490690D02*
X6366405Y-15490690D01*
X6366405Y-15490690D02*
X6385452Y-15500214D01*
X6385452Y-15500214D02*
X6394976Y-15519262D01*
X6394976Y-15519262D02*
X6394976Y-15624024D01*
X6394976Y-15519262D02*
X6404500Y-15500214D01*
X6404500Y-15500214D02*
X6423548Y-15490690D01*
X6423548Y-15490690D02*
X6452119Y-15490690D01*
X6452119Y-15490690D02*
X6471167Y-15500214D01*
X6471167Y-15500214D02*
X6480690Y-15519262D01*
X6480690Y-15519262D02*
X6480690Y-15624024D01*
X6575929Y-15624024D02*
X6575929Y-15490690D01*
X6575929Y-15509738D02*
X6585452Y-15500214D01*
X6585452Y-15500214D02*
X6604500Y-15490690D01*
X6604500Y-15490690D02*
X6633071Y-15490690D01*
X6633071Y-15490690D02*
X6652119Y-15500214D01*
X6652119Y-15500214D02*
X6661643Y-15519262D01*
X6661643Y-15519262D02*
X6661643Y-15624024D01*
X6661643Y-15519262D02*
X6671167Y-15500214D01*
X6671167Y-15500214D02*
X6690214Y-15490690D01*
X6690214Y-15490690D02*
X6718786Y-15490690D01*
X6718786Y-15490690D02*
X6737833Y-15500214D01*
X6737833Y-15500214D02*
X6747357Y-15519262D01*
X6747357Y-15519262D02*
X6747357Y-15624024D01*
X7137833Y-15414500D02*
X6966405Y-15671643D01*
X7394976Y-15424024D02*
X7414024Y-15424024D01*
X7414024Y-15424024D02*
X7433072Y-15433548D01*
X7433072Y-15433548D02*
X7442595Y-15443071D01*
X7442595Y-15443071D02*
X7452119Y-15462119D01*
X7452119Y-15462119D02*
X7461643Y-15500214D01*
X7461643Y-15500214D02*
X7461643Y-15547833D01*
X7461643Y-15547833D02*
X7452119Y-15585928D01*
X7452119Y-15585928D02*
X7442595Y-15604976D01*
X7442595Y-15604976D02*
X7433072Y-15614500D01*
X7433072Y-15614500D02*
X7414024Y-15624024D01*
X7414024Y-15624024D02*
X7394976Y-15624024D01*
X7394976Y-15624024D02*
X7375929Y-15614500D01*
X7375929Y-15614500D02*
X7366405Y-15604976D01*
X7366405Y-15604976D02*
X7356881Y-15585928D01*
X7356881Y-15585928D02*
X7347357Y-15547833D01*
X7347357Y-15547833D02*
X7347357Y-15500214D01*
X7347357Y-15500214D02*
X7356881Y-15462119D01*
X7356881Y-15462119D02*
X7366405Y-15443071D01*
X7366405Y-15443071D02*
X7375929Y-15433548D01*
X7375929Y-15433548D02*
X7394976Y-15424024D01*
X7547357Y-15604976D02*
X7556881Y-15614500D01*
X7556881Y-15614500D02*
X7547357Y-15624024D01*
X7547357Y-15624024D02*
X7537833Y-15614500D01*
X7537833Y-15614500D02*
X7547357Y-15604976D01*
X7547357Y-15604976D02*
X7547357Y-15624024D01*
X7680691Y-15424024D02*
X7699738Y-15424024D01*
X7699738Y-15424024D02*
X7718786Y-15433548D01*
X7718786Y-15433548D02*
X7728310Y-15443071D01*
X7728310Y-15443071D02*
X7737833Y-15462119D01*
X7737833Y-15462119D02*
X7747357Y-15500214D01*
X7747357Y-15500214D02*
X7747357Y-15547833D01*
X7747357Y-15547833D02*
X7737833Y-15585928D01*
X7737833Y-15585928D02*
X7728310Y-15604976D01*
X7728310Y-15604976D02*
X7718786Y-15614500D01*
X7718786Y-15614500D02*
X7699738Y-15624024D01*
X7699738Y-15624024D02*
X7680691Y-15624024D01*
X7680691Y-15624024D02*
X7661643Y-15614500D01*
X7661643Y-15614500D02*
X7652119Y-15604976D01*
X7652119Y-15604976D02*
X7642595Y-15585928D01*
X7642595Y-15585928D02*
X7633072Y-15547833D01*
X7633072Y-15547833D02*
X7633072Y-15500214D01*
X7633072Y-15500214D02*
X7642595Y-15462119D01*
X7642595Y-15462119D02*
X7652119Y-15443071D01*
X7652119Y-15443071D02*
X7661643Y-15433548D01*
X7661643Y-15433548D02*
X7680691Y-15424024D01*
X7823548Y-15443071D02*
X7833072Y-15433548D01*
X7833072Y-15433548D02*
X7852119Y-15424024D01*
X7852119Y-15424024D02*
X7899738Y-15424024D01*
X7899738Y-15424024D02*
X7918786Y-15433548D01*
X7918786Y-15433548D02*
X7928310Y-15443071D01*
X7928310Y-15443071D02*
X7937833Y-15462119D01*
X7937833Y-15462119D02*
X7937833Y-15481167D01*
X7937833Y-15481167D02*
X7928310Y-15509738D01*
X7928310Y-15509738D02*
X7814024Y-15624024D01*
X7814024Y-15624024D02*
X7937833Y-15624024D01*
X8004500Y-15424024D02*
X8128310Y-15424024D01*
X8128310Y-15424024D02*
X8061643Y-15500214D01*
X8061643Y-15500214D02*
X8090214Y-15500214D01*
X8090214Y-15500214D02*
X8109262Y-15509738D01*
X8109262Y-15509738D02*
X8118786Y-15519262D01*
X8118786Y-15519262D02*
X8128310Y-15538309D01*
X8128310Y-15538309D02*
X8128310Y-15585928D01*
X8128310Y-15585928D02*
X8118786Y-15604976D01*
X8118786Y-15604976D02*
X8109262Y-15614500D01*
X8109262Y-15614500D02*
X8090214Y-15624024D01*
X8090214Y-15624024D02*
X8033072Y-15624024D01*
X8033072Y-15624024D02*
X8014024Y-15614500D01*
X8014024Y-15614500D02*
X8004500Y-15604976D01*
X8299738Y-15424024D02*
X8261643Y-15424024D01*
X8261643Y-15424024D02*
X8242595Y-15433548D01*
X8242595Y-15433548D02*
X8233072Y-15443071D01*
X8233072Y-15443071D02*
X8214024Y-15471643D01*
X8214024Y-15471643D02*
X8204500Y-15509738D01*
X8204500Y-15509738D02*
X8204500Y-15585928D01*
X8204500Y-15585928D02*
X8214024Y-15604976D01*
X8214024Y-15604976D02*
X8223548Y-15614500D01*
X8223548Y-15614500D02*
X8242595Y-15624024D01*
X8242595Y-15624024D02*
X8280691Y-15624024D01*
X8280691Y-15624024D02*
X8299738Y-15614500D01*
X8299738Y-15614500D02*
X8309262Y-15604976D01*
X8309262Y-15604976D02*
X8318786Y-15585928D01*
X8318786Y-15585928D02*
X8318786Y-15538309D01*
X8318786Y-15538309D02*
X8309262Y-15519262D01*
X8309262Y-15519262D02*
X8299738Y-15509738D01*
X8299738Y-15509738D02*
X8280691Y-15500214D01*
X8280691Y-15500214D02*
X8242595Y-15500214D01*
X8242595Y-15500214D02*
X8223548Y-15509738D01*
X8223548Y-15509738D02*
X8214024Y-15519262D01*
X8214024Y-15519262D02*
X8204500Y-15538309D01*
X8394976Y-15424024D02*
X8394976Y-15462119D01*
X8471167Y-15424024D02*
X8471167Y-15462119D01*
X8766405Y-15700214D02*
X8756881Y-15690690D01*
X8756881Y-15690690D02*
X8737834Y-15662119D01*
X8737834Y-15662119D02*
X8728310Y-15643071D01*
X8728310Y-15643071D02*
X8718786Y-15614500D01*
X8718786Y-15614500D02*
X8709262Y-15566881D01*
X8709262Y-15566881D02*
X8709262Y-15528786D01*
X8709262Y-15528786D02*
X8718786Y-15481167D01*
X8718786Y-15481167D02*
X8728310Y-15452595D01*
X8728310Y-15452595D02*
X8737834Y-15433548D01*
X8737834Y-15433548D02*
X8756881Y-15404976D01*
X8756881Y-15404976D02*
X8766405Y-15395452D01*
X8880691Y-15424024D02*
X8899738Y-15424024D01*
X8899738Y-15424024D02*
X8918786Y-15433548D01*
X8918786Y-15433548D02*
X8928310Y-15443071D01*
X8928310Y-15443071D02*
X8937834Y-15462119D01*
X8937834Y-15462119D02*
X8947357Y-15500214D01*
X8947357Y-15500214D02*
X8947357Y-15547833D01*
X8947357Y-15547833D02*
X8937834Y-15585928D01*
X8937834Y-15585928D02*
X8928310Y-15604976D01*
X8928310Y-15604976D02*
X8918786Y-15614500D01*
X8918786Y-15614500D02*
X8899738Y-15624024D01*
X8899738Y-15624024D02*
X8880691Y-15624024D01*
X8880691Y-15624024D02*
X8861643Y-15614500D01*
X8861643Y-15614500D02*
X8852119Y-15604976D01*
X8852119Y-15604976D02*
X8842596Y-15585928D01*
X8842596Y-15585928D02*
X8833072Y-15547833D01*
X8833072Y-15547833D02*
X8833072Y-15500214D01*
X8833072Y-15500214D02*
X8842596Y-15462119D01*
X8842596Y-15462119D02*
X8852119Y-15443071D01*
X8852119Y-15443071D02*
X8861643Y-15433548D01*
X8861643Y-15433548D02*
X8880691Y-15424024D01*
X9185453Y-15624024D02*
X9185453Y-15424024D01*
X9271167Y-15624024D02*
X9271167Y-15519262D01*
X9271167Y-15519262D02*
X9261643Y-15500214D01*
X9261643Y-15500214D02*
X9242596Y-15490690D01*
X9242596Y-15490690D02*
X9214024Y-15490690D01*
X9214024Y-15490690D02*
X9194977Y-15500214D01*
X9194977Y-15500214D02*
X9185453Y-15509738D01*
X9394977Y-15624024D02*
X9375929Y-15614500D01*
X9375929Y-15614500D02*
X9366405Y-15604976D01*
X9366405Y-15604976D02*
X9356881Y-15585928D01*
X9356881Y-15585928D02*
X9356881Y-15528786D01*
X9356881Y-15528786D02*
X9366405Y-15509738D01*
X9366405Y-15509738D02*
X9375929Y-15500214D01*
X9375929Y-15500214D02*
X9394977Y-15490690D01*
X9394977Y-15490690D02*
X9423548Y-15490690D01*
X9423548Y-15490690D02*
X9442596Y-15500214D01*
X9442596Y-15500214D02*
X9452119Y-15509738D01*
X9452119Y-15509738D02*
X9461643Y-15528786D01*
X9461643Y-15528786D02*
X9461643Y-15585928D01*
X9461643Y-15585928D02*
X9452119Y-15604976D01*
X9452119Y-15604976D02*
X9442596Y-15614500D01*
X9442596Y-15614500D02*
X9423548Y-15624024D01*
X9423548Y-15624024D02*
X9394977Y-15624024D01*
X9575929Y-15624024D02*
X9556881Y-15614500D01*
X9556881Y-15614500D02*
X9547358Y-15595452D01*
X9547358Y-15595452D02*
X9547358Y-15424024D01*
X9728310Y-15614500D02*
X9709262Y-15624024D01*
X9709262Y-15624024D02*
X9671167Y-15624024D01*
X9671167Y-15624024D02*
X9652119Y-15614500D01*
X9652119Y-15614500D02*
X9642596Y-15595452D01*
X9642596Y-15595452D02*
X9642596Y-15519262D01*
X9642596Y-15519262D02*
X9652119Y-15500214D01*
X9652119Y-15500214D02*
X9671167Y-15490690D01*
X9671167Y-15490690D02*
X9709262Y-15490690D01*
X9709262Y-15490690D02*
X9728310Y-15500214D01*
X9728310Y-15500214D02*
X9737834Y-15519262D01*
X9737834Y-15519262D02*
X9737834Y-15538309D01*
X9737834Y-15538309D02*
X9642596Y-15557357D01*
X9814024Y-15614500D02*
X9833072Y-15624024D01*
X9833072Y-15624024D02*
X9871167Y-15624024D01*
X9871167Y-15624024D02*
X9890215Y-15614500D01*
X9890215Y-15614500D02*
X9899739Y-15595452D01*
X9899739Y-15595452D02*
X9899739Y-15585928D01*
X9899739Y-15585928D02*
X9890215Y-15566881D01*
X9890215Y-15566881D02*
X9871167Y-15557357D01*
X9871167Y-15557357D02*
X9842596Y-15557357D01*
X9842596Y-15557357D02*
X9823548Y-15547833D01*
X9823548Y-15547833D02*
X9814024Y-15528786D01*
X9814024Y-15528786D02*
X9814024Y-15519262D01*
X9814024Y-15519262D02*
X9823548Y-15500214D01*
X9823548Y-15500214D02*
X9842596Y-15490690D01*
X9842596Y-15490690D02*
X9871167Y-15490690D01*
X9871167Y-15490690D02*
X9890215Y-15500214D01*
X10137834Y-15547833D02*
X10290215Y-15547833D01*
X10214024Y-15624024D02*
X10214024Y-15471643D01*
X10623548Y-15490690D02*
X10623548Y-15624024D01*
X10575929Y-15414500D02*
X10528310Y-15557357D01*
X10528310Y-15557357D02*
X10652120Y-15557357D01*
X10871167Y-15614500D02*
X10890215Y-15624024D01*
X10890215Y-15624024D02*
X10928310Y-15624024D01*
X10928310Y-15624024D02*
X10947358Y-15614500D01*
X10947358Y-15614500D02*
X10956882Y-15595452D01*
X10956882Y-15595452D02*
X10956882Y-15585928D01*
X10956882Y-15585928D02*
X10947358Y-15566881D01*
X10947358Y-15566881D02*
X10928310Y-15557357D01*
X10928310Y-15557357D02*
X10899739Y-15557357D01*
X10899739Y-15557357D02*
X10880691Y-15547833D01*
X10880691Y-15547833D02*
X10871167Y-15528786D01*
X10871167Y-15528786D02*
X10871167Y-15519262D01*
X10871167Y-15519262D02*
X10880691Y-15500214D01*
X10880691Y-15500214D02*
X10899739Y-15490690D01*
X10899739Y-15490690D02*
X10928310Y-15490690D01*
X10928310Y-15490690D02*
X10947358Y-15500214D01*
X11071167Y-15624024D02*
X11052120Y-15614500D01*
X11052120Y-15614500D02*
X11042596Y-15595452D01*
X11042596Y-15595452D02*
X11042596Y-15424024D01*
X11175929Y-15624024D02*
X11156882Y-15614500D01*
X11156882Y-15614500D02*
X11147358Y-15604976D01*
X11147358Y-15604976D02*
X11137834Y-15585928D01*
X11137834Y-15585928D02*
X11137834Y-15528786D01*
X11137834Y-15528786D02*
X11147358Y-15509738D01*
X11147358Y-15509738D02*
X11156882Y-15500214D01*
X11156882Y-15500214D02*
X11175929Y-15490690D01*
X11175929Y-15490690D02*
X11204501Y-15490690D01*
X11204501Y-15490690D02*
X11223548Y-15500214D01*
X11223548Y-15500214D02*
X11233072Y-15509738D01*
X11233072Y-15509738D02*
X11242596Y-15528786D01*
X11242596Y-15528786D02*
X11242596Y-15585928D01*
X11242596Y-15585928D02*
X11233072Y-15604976D01*
X11233072Y-15604976D02*
X11223548Y-15614500D01*
X11223548Y-15614500D02*
X11204501Y-15624024D01*
X11204501Y-15624024D02*
X11175929Y-15624024D01*
X11299739Y-15490690D02*
X11375929Y-15490690D01*
X11328310Y-15424024D02*
X11328310Y-15595452D01*
X11328310Y-15595452D02*
X11337834Y-15614500D01*
X11337834Y-15614500D02*
X11356881Y-15624024D01*
X11356881Y-15624024D02*
X11375929Y-15624024D01*
X11433072Y-15614500D02*
X11452120Y-15624024D01*
X11452120Y-15624024D02*
X11490215Y-15624024D01*
X11490215Y-15624024D02*
X11509262Y-15614500D01*
X11509262Y-15614500D02*
X11518786Y-15595452D01*
X11518786Y-15595452D02*
X11518786Y-15585928D01*
X11518786Y-15585928D02*
X11509262Y-15566881D01*
X11509262Y-15566881D02*
X11490215Y-15557357D01*
X11490215Y-15557357D02*
X11461643Y-15557357D01*
X11461643Y-15557357D02*
X11442596Y-15547833D01*
X11442596Y-15547833D02*
X11433072Y-15528786D01*
X11433072Y-15528786D02*
X11433072Y-15519262D01*
X11433072Y-15519262D02*
X11442596Y-15500214D01*
X11442596Y-15500214D02*
X11461643Y-15490690D01*
X11461643Y-15490690D02*
X11490215Y-15490690D01*
X11490215Y-15490690D02*
X11509262Y-15500214D01*
X11585453Y-15700214D02*
X11594977Y-15690690D01*
X11594977Y-15690690D02*
X11614024Y-15662119D01*
X11614024Y-15662119D02*
X11623548Y-15643071D01*
X11623548Y-15643071D02*
X11633072Y-15614500D01*
X11633072Y-15614500D02*
X11642596Y-15566881D01*
X11642596Y-15566881D02*
X11642596Y-15528786D01*
X11642596Y-15528786D02*
X11633072Y-15481167D01*
X11633072Y-15481167D02*
X11623548Y-15452595D01*
X11623548Y-15452595D02*
X11614024Y-15433548D01*
X11614024Y-15433548D02*
X11594977Y-15404976D01*
X11594977Y-15404976D02*
X11585453Y-15395452D01*
D16*
X5166400Y-15833600D02*
X5204500Y-15795500D01*
X5166400Y-15757400D01*
X5128300Y-15795500D01*
X5166400Y-15833600D01*
D11*
X5490214Y-15688024D02*
X5509262Y-15688024D01*
X5509262Y-15688024D02*
X5528310Y-15697548D01*
X5528310Y-15697548D02*
X5537833Y-15707071D01*
X5537833Y-15707071D02*
X5547357Y-15726119D01*
X5547357Y-15726119D02*
X5556881Y-15764214D01*
X5556881Y-15764214D02*
X5556881Y-15811833D01*
X5556881Y-15811833D02*
X5547357Y-15849928D01*
X5547357Y-15849928D02*
X5537833Y-15868976D01*
X5537833Y-15868976D02*
X5528310Y-15878500D01*
X5528310Y-15878500D02*
X5509262Y-15888024D01*
X5509262Y-15888024D02*
X5490214Y-15888024D01*
X5490214Y-15888024D02*
X5471167Y-15878500D01*
X5471167Y-15878500D02*
X5461643Y-15868976D01*
X5461643Y-15868976D02*
X5452119Y-15849928D01*
X5452119Y-15849928D02*
X5442595Y-15811833D01*
X5442595Y-15811833D02*
X5442595Y-15764214D01*
X5442595Y-15764214D02*
X5452119Y-15726119D01*
X5452119Y-15726119D02*
X5461643Y-15707071D01*
X5461643Y-15707071D02*
X5471167Y-15697548D01*
X5471167Y-15697548D02*
X5490214Y-15688024D01*
X5642595Y-15868976D02*
X5652119Y-15878500D01*
X5652119Y-15878500D02*
X5642595Y-15888024D01*
X5642595Y-15888024D02*
X5633071Y-15878500D01*
X5633071Y-15878500D02*
X5642595Y-15868976D01*
X5642595Y-15868976D02*
X5642595Y-15888024D01*
X5718786Y-15688024D02*
X5852119Y-15688024D01*
X5852119Y-15688024D02*
X5766405Y-15888024D01*
X6014024Y-15688024D02*
X5975928Y-15688024D01*
X5975928Y-15688024D02*
X5956881Y-15697548D01*
X5956881Y-15697548D02*
X5947357Y-15707071D01*
X5947357Y-15707071D02*
X5928309Y-15735643D01*
X5928309Y-15735643D02*
X5918786Y-15773738D01*
X5918786Y-15773738D02*
X5918786Y-15849928D01*
X5918786Y-15849928D02*
X5928309Y-15868976D01*
X5928309Y-15868976D02*
X5937833Y-15878500D01*
X5937833Y-15878500D02*
X5956881Y-15888024D01*
X5956881Y-15888024D02*
X5994976Y-15888024D01*
X5994976Y-15888024D02*
X6014024Y-15878500D01*
X6014024Y-15878500D02*
X6023548Y-15868976D01*
X6023548Y-15868976D02*
X6033071Y-15849928D01*
X6033071Y-15849928D02*
X6033071Y-15802309D01*
X6033071Y-15802309D02*
X6023548Y-15783262D01*
X6023548Y-15783262D02*
X6014024Y-15773738D01*
X6014024Y-15773738D02*
X5994976Y-15764214D01*
X5994976Y-15764214D02*
X5956881Y-15764214D01*
X5956881Y-15764214D02*
X5937833Y-15773738D01*
X5937833Y-15773738D02*
X5928309Y-15783262D01*
X5928309Y-15783262D02*
X5918786Y-15802309D01*
X6109262Y-15707071D02*
X6118786Y-15697548D01*
X6118786Y-15697548D02*
X6137833Y-15688024D01*
X6137833Y-15688024D02*
X6185452Y-15688024D01*
X6185452Y-15688024D02*
X6204500Y-15697548D01*
X6204500Y-15697548D02*
X6214024Y-15707071D01*
X6214024Y-15707071D02*
X6223548Y-15726119D01*
X6223548Y-15726119D02*
X6223548Y-15745167D01*
X6223548Y-15745167D02*
X6214024Y-15773738D01*
X6214024Y-15773738D02*
X6099738Y-15888024D01*
X6099738Y-15888024D02*
X6223548Y-15888024D01*
X6309262Y-15888024D02*
X6309262Y-15754690D01*
X6309262Y-15773738D02*
X6318786Y-15764214D01*
X6318786Y-15764214D02*
X6337833Y-15754690D01*
X6337833Y-15754690D02*
X6366405Y-15754690D01*
X6366405Y-15754690D02*
X6385452Y-15764214D01*
X6385452Y-15764214D02*
X6394976Y-15783262D01*
X6394976Y-15783262D02*
X6394976Y-15888024D01*
X6394976Y-15783262D02*
X6404500Y-15764214D01*
X6404500Y-15764214D02*
X6423548Y-15754690D01*
X6423548Y-15754690D02*
X6452119Y-15754690D01*
X6452119Y-15754690D02*
X6471167Y-15764214D01*
X6471167Y-15764214D02*
X6480690Y-15783262D01*
X6480690Y-15783262D02*
X6480690Y-15888024D01*
X6575929Y-15888024D02*
X6575929Y-15754690D01*
X6575929Y-15773738D02*
X6585452Y-15764214D01*
X6585452Y-15764214D02*
X6604500Y-15754690D01*
X6604500Y-15754690D02*
X6633071Y-15754690D01*
X6633071Y-15754690D02*
X6652119Y-15764214D01*
X6652119Y-15764214D02*
X6661643Y-15783262D01*
X6661643Y-15783262D02*
X6661643Y-15888024D01*
X6661643Y-15783262D02*
X6671167Y-15764214D01*
X6671167Y-15764214D02*
X6690214Y-15754690D01*
X6690214Y-15754690D02*
X6718786Y-15754690D01*
X6718786Y-15754690D02*
X6737833Y-15764214D01*
X6737833Y-15764214D02*
X6747357Y-15783262D01*
X6747357Y-15783262D02*
X6747357Y-15888024D01*
X7137833Y-15678500D02*
X6966405Y-15935643D01*
X7394976Y-15688024D02*
X7414024Y-15688024D01*
X7414024Y-15688024D02*
X7433072Y-15697548D01*
X7433072Y-15697548D02*
X7442595Y-15707071D01*
X7442595Y-15707071D02*
X7452119Y-15726119D01*
X7452119Y-15726119D02*
X7461643Y-15764214D01*
X7461643Y-15764214D02*
X7461643Y-15811833D01*
X7461643Y-15811833D02*
X7452119Y-15849928D01*
X7452119Y-15849928D02*
X7442595Y-15868976D01*
X7442595Y-15868976D02*
X7433072Y-15878500D01*
X7433072Y-15878500D02*
X7414024Y-15888024D01*
X7414024Y-15888024D02*
X7394976Y-15888024D01*
X7394976Y-15888024D02*
X7375929Y-15878500D01*
X7375929Y-15878500D02*
X7366405Y-15868976D01*
X7366405Y-15868976D02*
X7356881Y-15849928D01*
X7356881Y-15849928D02*
X7347357Y-15811833D01*
X7347357Y-15811833D02*
X7347357Y-15764214D01*
X7347357Y-15764214D02*
X7356881Y-15726119D01*
X7356881Y-15726119D02*
X7366405Y-15707071D01*
X7366405Y-15707071D02*
X7375929Y-15697548D01*
X7375929Y-15697548D02*
X7394976Y-15688024D01*
X7547357Y-15868976D02*
X7556881Y-15878500D01*
X7556881Y-15878500D02*
X7547357Y-15888024D01*
X7547357Y-15888024D02*
X7537833Y-15878500D01*
X7537833Y-15878500D02*
X7547357Y-15868976D01*
X7547357Y-15868976D02*
X7547357Y-15888024D01*
X7680691Y-15688024D02*
X7699738Y-15688024D01*
X7699738Y-15688024D02*
X7718786Y-15697548D01*
X7718786Y-15697548D02*
X7728310Y-15707071D01*
X7728310Y-15707071D02*
X7737833Y-15726119D01*
X7737833Y-15726119D02*
X7747357Y-15764214D01*
X7747357Y-15764214D02*
X7747357Y-15811833D01*
X7747357Y-15811833D02*
X7737833Y-15849928D01*
X7737833Y-15849928D02*
X7728310Y-15868976D01*
X7728310Y-15868976D02*
X7718786Y-15878500D01*
X7718786Y-15878500D02*
X7699738Y-15888024D01*
X7699738Y-15888024D02*
X7680691Y-15888024D01*
X7680691Y-15888024D02*
X7661643Y-15878500D01*
X7661643Y-15878500D02*
X7652119Y-15868976D01*
X7652119Y-15868976D02*
X7642595Y-15849928D01*
X7642595Y-15849928D02*
X7633072Y-15811833D01*
X7633072Y-15811833D02*
X7633072Y-15764214D01*
X7633072Y-15764214D02*
X7642595Y-15726119D01*
X7642595Y-15726119D02*
X7652119Y-15707071D01*
X7652119Y-15707071D02*
X7661643Y-15697548D01*
X7661643Y-15697548D02*
X7680691Y-15688024D01*
X7814024Y-15688024D02*
X7937833Y-15688024D01*
X7937833Y-15688024D02*
X7871167Y-15764214D01*
X7871167Y-15764214D02*
X7899738Y-15764214D01*
X7899738Y-15764214D02*
X7918786Y-15773738D01*
X7918786Y-15773738D02*
X7928310Y-15783262D01*
X7928310Y-15783262D02*
X7937833Y-15802309D01*
X7937833Y-15802309D02*
X7937833Y-15849928D01*
X7937833Y-15849928D02*
X7928310Y-15868976D01*
X7928310Y-15868976D02*
X7918786Y-15878500D01*
X7918786Y-15878500D02*
X7899738Y-15888024D01*
X7899738Y-15888024D02*
X7842595Y-15888024D01*
X7842595Y-15888024D02*
X7823548Y-15878500D01*
X7823548Y-15878500D02*
X7814024Y-15868976D01*
X8061643Y-15688024D02*
X8080691Y-15688024D01*
X8080691Y-15688024D02*
X8099738Y-15697548D01*
X8099738Y-15697548D02*
X8109262Y-15707071D01*
X8109262Y-15707071D02*
X8118786Y-15726119D01*
X8118786Y-15726119D02*
X8128310Y-15764214D01*
X8128310Y-15764214D02*
X8128310Y-15811833D01*
X8128310Y-15811833D02*
X8118786Y-15849928D01*
X8118786Y-15849928D02*
X8109262Y-15868976D01*
X8109262Y-15868976D02*
X8099738Y-15878500D01*
X8099738Y-15878500D02*
X8080691Y-15888024D01*
X8080691Y-15888024D02*
X8061643Y-15888024D01*
X8061643Y-15888024D02*
X8042595Y-15878500D01*
X8042595Y-15878500D02*
X8033072Y-15868976D01*
X8033072Y-15868976D02*
X8023548Y-15849928D01*
X8023548Y-15849928D02*
X8014024Y-15811833D01*
X8014024Y-15811833D02*
X8014024Y-15764214D01*
X8014024Y-15764214D02*
X8023548Y-15726119D01*
X8023548Y-15726119D02*
X8033072Y-15707071D01*
X8033072Y-15707071D02*
X8042595Y-15697548D01*
X8042595Y-15697548D02*
X8061643Y-15688024D01*
X8252119Y-15688024D02*
X8271167Y-15688024D01*
X8271167Y-15688024D02*
X8290214Y-15697548D01*
X8290214Y-15697548D02*
X8299738Y-15707071D01*
X8299738Y-15707071D02*
X8309262Y-15726119D01*
X8309262Y-15726119D02*
X8318786Y-15764214D01*
X8318786Y-15764214D02*
X8318786Y-15811833D01*
X8318786Y-15811833D02*
X8309262Y-15849928D01*
X8309262Y-15849928D02*
X8299738Y-15868976D01*
X8299738Y-15868976D02*
X8290214Y-15878500D01*
X8290214Y-15878500D02*
X8271167Y-15888024D01*
X8271167Y-15888024D02*
X8252119Y-15888024D01*
X8252119Y-15888024D02*
X8233072Y-15878500D01*
X8233072Y-15878500D02*
X8223548Y-15868976D01*
X8223548Y-15868976D02*
X8214024Y-15849928D01*
X8214024Y-15849928D02*
X8204500Y-15811833D01*
X8204500Y-15811833D02*
X8204500Y-15764214D01*
X8204500Y-15764214D02*
X8214024Y-15726119D01*
X8214024Y-15726119D02*
X8223548Y-15707071D01*
X8223548Y-15707071D02*
X8233072Y-15697548D01*
X8233072Y-15697548D02*
X8252119Y-15688024D01*
X8394976Y-15688024D02*
X8394976Y-15726119D01*
X8471167Y-15688024D02*
X8471167Y-15726119D01*
X8766405Y-15964214D02*
X8756881Y-15954690D01*
X8756881Y-15954690D02*
X8737834Y-15926119D01*
X8737834Y-15926119D02*
X8728310Y-15907071D01*
X8728310Y-15907071D02*
X8718786Y-15878500D01*
X8718786Y-15878500D02*
X8709262Y-15830881D01*
X8709262Y-15830881D02*
X8709262Y-15792786D01*
X8709262Y-15792786D02*
X8718786Y-15745167D01*
X8718786Y-15745167D02*
X8728310Y-15716595D01*
X8728310Y-15716595D02*
X8737834Y-15697548D01*
X8737834Y-15697548D02*
X8756881Y-15668976D01*
X8756881Y-15668976D02*
X8766405Y-15659452D01*
X8947357Y-15888024D02*
X8833072Y-15888024D01*
X8890215Y-15888024D02*
X8890215Y-15688024D01*
X8890215Y-15688024D02*
X8871167Y-15716595D01*
X8871167Y-15716595D02*
X8852119Y-15735643D01*
X8852119Y-15735643D02*
X8833072Y-15745167D01*
X9118786Y-15688024D02*
X9080691Y-15688024D01*
X9080691Y-15688024D02*
X9061643Y-15697548D01*
X9061643Y-15697548D02*
X9052119Y-15707071D01*
X9052119Y-15707071D02*
X9033072Y-15735643D01*
X9033072Y-15735643D02*
X9023548Y-15773738D01*
X9023548Y-15773738D02*
X9023548Y-15849928D01*
X9023548Y-15849928D02*
X9033072Y-15868976D01*
X9033072Y-15868976D02*
X9042596Y-15878500D01*
X9042596Y-15878500D02*
X9061643Y-15888024D01*
X9061643Y-15888024D02*
X9099738Y-15888024D01*
X9099738Y-15888024D02*
X9118786Y-15878500D01*
X9118786Y-15878500D02*
X9128310Y-15868976D01*
X9128310Y-15868976D02*
X9137834Y-15849928D01*
X9137834Y-15849928D02*
X9137834Y-15802309D01*
X9137834Y-15802309D02*
X9128310Y-15783262D01*
X9128310Y-15783262D02*
X9118786Y-15773738D01*
X9118786Y-15773738D02*
X9099738Y-15764214D01*
X9099738Y-15764214D02*
X9061643Y-15764214D01*
X9061643Y-15764214D02*
X9042596Y-15773738D01*
X9042596Y-15773738D02*
X9033072Y-15783262D01*
X9033072Y-15783262D02*
X9023548Y-15802309D01*
X9375929Y-15888024D02*
X9375929Y-15688024D01*
X9461643Y-15888024D02*
X9461643Y-15783262D01*
X9461643Y-15783262D02*
X9452119Y-15764214D01*
X9452119Y-15764214D02*
X9433072Y-15754690D01*
X9433072Y-15754690D02*
X9404500Y-15754690D01*
X9404500Y-15754690D02*
X9385453Y-15764214D01*
X9385453Y-15764214D02*
X9375929Y-15773738D01*
X9585453Y-15888024D02*
X9566405Y-15878500D01*
X9566405Y-15878500D02*
X9556881Y-15868976D01*
X9556881Y-15868976D02*
X9547358Y-15849928D01*
X9547358Y-15849928D02*
X9547358Y-15792786D01*
X9547358Y-15792786D02*
X9556881Y-15773738D01*
X9556881Y-15773738D02*
X9566405Y-15764214D01*
X9566405Y-15764214D02*
X9585453Y-15754690D01*
X9585453Y-15754690D02*
X9614024Y-15754690D01*
X9614024Y-15754690D02*
X9633072Y-15764214D01*
X9633072Y-15764214D02*
X9642596Y-15773738D01*
X9642596Y-15773738D02*
X9652119Y-15792786D01*
X9652119Y-15792786D02*
X9652119Y-15849928D01*
X9652119Y-15849928D02*
X9642596Y-15868976D01*
X9642596Y-15868976D02*
X9633072Y-15878500D01*
X9633072Y-15878500D02*
X9614024Y-15888024D01*
X9614024Y-15888024D02*
X9585453Y-15888024D01*
X9766405Y-15888024D02*
X9747358Y-15878500D01*
X9747358Y-15878500D02*
X9737834Y-15859452D01*
X9737834Y-15859452D02*
X9737834Y-15688024D01*
X9918786Y-15878500D02*
X9899739Y-15888024D01*
X9899739Y-15888024D02*
X9861643Y-15888024D01*
X9861643Y-15888024D02*
X9842596Y-15878500D01*
X9842596Y-15878500D02*
X9833072Y-15859452D01*
X9833072Y-15859452D02*
X9833072Y-15783262D01*
X9833072Y-15783262D02*
X9842596Y-15764214D01*
X9842596Y-15764214D02*
X9861643Y-15754690D01*
X9861643Y-15754690D02*
X9899739Y-15754690D01*
X9899739Y-15754690D02*
X9918786Y-15764214D01*
X9918786Y-15764214D02*
X9928310Y-15783262D01*
X9928310Y-15783262D02*
X9928310Y-15802309D01*
X9928310Y-15802309D02*
X9833072Y-15821357D01*
X10004500Y-15878500D02*
X10023548Y-15888024D01*
X10023548Y-15888024D02*
X10061643Y-15888024D01*
X10061643Y-15888024D02*
X10080691Y-15878500D01*
X10080691Y-15878500D02*
X10090215Y-15859452D01*
X10090215Y-15859452D02*
X10090215Y-15849928D01*
X10090215Y-15849928D02*
X10080691Y-15830881D01*
X10080691Y-15830881D02*
X10061643Y-15821357D01*
X10061643Y-15821357D02*
X10033072Y-15821357D01*
X10033072Y-15821357D02*
X10014024Y-15811833D01*
X10014024Y-15811833D02*
X10004500Y-15792786D01*
X10004500Y-15792786D02*
X10004500Y-15783262D01*
X10004500Y-15783262D02*
X10014024Y-15764214D01*
X10014024Y-15764214D02*
X10033072Y-15754690D01*
X10033072Y-15754690D02*
X10061643Y-15754690D01*
X10061643Y-15754690D02*
X10080691Y-15764214D01*
X10156881Y-15964214D02*
X10166405Y-15954690D01*
X10166405Y-15954690D02*
X10185453Y-15926119D01*
X10185453Y-15926119D02*
X10194977Y-15907071D01*
X10194977Y-15907071D02*
X10204500Y-15878500D01*
X10204500Y-15878500D02*
X10214024Y-15830881D01*
X10214024Y-15830881D02*
X10214024Y-15792786D01*
X10214024Y-15792786D02*
X10204500Y-15745167D01*
X10204500Y-15745167D02*
X10194977Y-15716595D01*
X10194977Y-15716595D02*
X10185453Y-15697548D01*
X10185453Y-15697548D02*
X10166405Y-15668976D01*
X10166405Y-15668976D02*
X10156881Y-15659452D01*
D17*
X5104500Y-16009500D02*
X5204500Y-16109500D01*
X5204500Y-16009500D02*
X5104500Y-16109500D01*
X5204500Y-16059500D02*
G75*
G03*
X5204500Y-16059500I-50000J0D01*
G01*
D11*
X5556881Y-16152024D02*
X5442595Y-16152024D01*
X5499738Y-16152024D02*
X5499738Y-15952024D01*
X5499738Y-15952024D02*
X5480690Y-15980595D01*
X5480690Y-15980595D02*
X5461643Y-15999643D01*
X5461643Y-15999643D02*
X5442595Y-16009167D01*
X5642595Y-16132976D02*
X5652119Y-16142500D01*
X5652119Y-16142500D02*
X5642595Y-16152024D01*
X5642595Y-16152024D02*
X5633071Y-16142500D01*
X5633071Y-16142500D02*
X5642595Y-16132976D01*
X5642595Y-16132976D02*
X5642595Y-16152024D01*
X5775928Y-15952024D02*
X5794976Y-15952024D01*
X5794976Y-15952024D02*
X5814024Y-15961548D01*
X5814024Y-15961548D02*
X5823548Y-15971071D01*
X5823548Y-15971071D02*
X5833071Y-15990119D01*
X5833071Y-15990119D02*
X5842595Y-16028214D01*
X5842595Y-16028214D02*
X5842595Y-16075833D01*
X5842595Y-16075833D02*
X5833071Y-16113928D01*
X5833071Y-16113928D02*
X5823548Y-16132976D01*
X5823548Y-16132976D02*
X5814024Y-16142500D01*
X5814024Y-16142500D02*
X5794976Y-16152024D01*
X5794976Y-16152024D02*
X5775928Y-16152024D01*
X5775928Y-16152024D02*
X5756881Y-16142500D01*
X5756881Y-16142500D02*
X5747357Y-16132976D01*
X5747357Y-16132976D02*
X5737833Y-16113928D01*
X5737833Y-16113928D02*
X5728309Y-16075833D01*
X5728309Y-16075833D02*
X5728309Y-16028214D01*
X5728309Y-16028214D02*
X5737833Y-15990119D01*
X5737833Y-15990119D02*
X5747357Y-15971071D01*
X5747357Y-15971071D02*
X5756881Y-15961548D01*
X5756881Y-15961548D02*
X5775928Y-15952024D01*
X5966405Y-15952024D02*
X5985452Y-15952024D01*
X5985452Y-15952024D02*
X6004500Y-15961548D01*
X6004500Y-15961548D02*
X6014024Y-15971071D01*
X6014024Y-15971071D02*
X6023548Y-15990119D01*
X6023548Y-15990119D02*
X6033071Y-16028214D01*
X6033071Y-16028214D02*
X6033071Y-16075833D01*
X6033071Y-16075833D02*
X6023548Y-16113928D01*
X6023548Y-16113928D02*
X6014024Y-16132976D01*
X6014024Y-16132976D02*
X6004500Y-16142500D01*
X6004500Y-16142500D02*
X5985452Y-16152024D01*
X5985452Y-16152024D02*
X5966405Y-16152024D01*
X5966405Y-16152024D02*
X5947357Y-16142500D01*
X5947357Y-16142500D02*
X5937833Y-16132976D01*
X5937833Y-16132976D02*
X5928309Y-16113928D01*
X5928309Y-16113928D02*
X5918786Y-16075833D01*
X5918786Y-16075833D02*
X5918786Y-16028214D01*
X5918786Y-16028214D02*
X5928309Y-15990119D01*
X5928309Y-15990119D02*
X5937833Y-15971071D01*
X5937833Y-15971071D02*
X5947357Y-15961548D01*
X5947357Y-15961548D02*
X5966405Y-15952024D01*
X6156881Y-15952024D02*
X6175929Y-15952024D01*
X6175929Y-15952024D02*
X6194976Y-15961548D01*
X6194976Y-15961548D02*
X6204500Y-15971071D01*
X6204500Y-15971071D02*
X6214024Y-15990119D01*
X6214024Y-15990119D02*
X6223548Y-16028214D01*
X6223548Y-16028214D02*
X6223548Y-16075833D01*
X6223548Y-16075833D02*
X6214024Y-16113928D01*
X6214024Y-16113928D02*
X6204500Y-16132976D01*
X6204500Y-16132976D02*
X6194976Y-16142500D01*
X6194976Y-16142500D02*
X6175929Y-16152024D01*
X6175929Y-16152024D02*
X6156881Y-16152024D01*
X6156881Y-16152024D02*
X6137833Y-16142500D01*
X6137833Y-16142500D02*
X6128309Y-16132976D01*
X6128309Y-16132976D02*
X6118786Y-16113928D01*
X6118786Y-16113928D02*
X6109262Y-16075833D01*
X6109262Y-16075833D02*
X6109262Y-16028214D01*
X6109262Y-16028214D02*
X6118786Y-15990119D01*
X6118786Y-15990119D02*
X6128309Y-15971071D01*
X6128309Y-15971071D02*
X6137833Y-15961548D01*
X6137833Y-15961548D02*
X6156881Y-15952024D01*
X6309262Y-16152024D02*
X6309262Y-16018690D01*
X6309262Y-16037738D02*
X6318786Y-16028214D01*
X6318786Y-16028214D02*
X6337833Y-16018690D01*
X6337833Y-16018690D02*
X6366405Y-16018690D01*
X6366405Y-16018690D02*
X6385452Y-16028214D01*
X6385452Y-16028214D02*
X6394976Y-16047262D01*
X6394976Y-16047262D02*
X6394976Y-16152024D01*
X6394976Y-16047262D02*
X6404500Y-16028214D01*
X6404500Y-16028214D02*
X6423548Y-16018690D01*
X6423548Y-16018690D02*
X6452119Y-16018690D01*
X6452119Y-16018690D02*
X6471167Y-16028214D01*
X6471167Y-16028214D02*
X6480690Y-16047262D01*
X6480690Y-16047262D02*
X6480690Y-16152024D01*
X6575929Y-16152024D02*
X6575929Y-16018690D01*
X6575929Y-16037738D02*
X6585452Y-16028214D01*
X6585452Y-16028214D02*
X6604500Y-16018690D01*
X6604500Y-16018690D02*
X6633071Y-16018690D01*
X6633071Y-16018690D02*
X6652119Y-16028214D01*
X6652119Y-16028214D02*
X6661643Y-16047262D01*
X6661643Y-16047262D02*
X6661643Y-16152024D01*
X6661643Y-16047262D02*
X6671167Y-16028214D01*
X6671167Y-16028214D02*
X6690214Y-16018690D01*
X6690214Y-16018690D02*
X6718786Y-16018690D01*
X6718786Y-16018690D02*
X6737833Y-16028214D01*
X6737833Y-16028214D02*
X6747357Y-16047262D01*
X6747357Y-16047262D02*
X6747357Y-16152024D01*
X7137833Y-15942500D02*
X6966405Y-16199643D01*
X7394976Y-15952024D02*
X7414024Y-15952024D01*
X7414024Y-15952024D02*
X7433072Y-15961548D01*
X7433072Y-15961548D02*
X7442595Y-15971071D01*
X7442595Y-15971071D02*
X7452119Y-15990119D01*
X7452119Y-15990119D02*
X7461643Y-16028214D01*
X7461643Y-16028214D02*
X7461643Y-16075833D01*
X7461643Y-16075833D02*
X7452119Y-16113928D01*
X7452119Y-16113928D02*
X7442595Y-16132976D01*
X7442595Y-16132976D02*
X7433072Y-16142500D01*
X7433072Y-16142500D02*
X7414024Y-16152024D01*
X7414024Y-16152024D02*
X7394976Y-16152024D01*
X7394976Y-16152024D02*
X7375929Y-16142500D01*
X7375929Y-16142500D02*
X7366405Y-16132976D01*
X7366405Y-16132976D02*
X7356881Y-16113928D01*
X7356881Y-16113928D02*
X7347357Y-16075833D01*
X7347357Y-16075833D02*
X7347357Y-16028214D01*
X7347357Y-16028214D02*
X7356881Y-15990119D01*
X7356881Y-15990119D02*
X7366405Y-15971071D01*
X7366405Y-15971071D02*
X7375929Y-15961548D01*
X7375929Y-15961548D02*
X7394976Y-15952024D01*
X7547357Y-16132976D02*
X7556881Y-16142500D01*
X7556881Y-16142500D02*
X7547357Y-16152024D01*
X7547357Y-16152024D02*
X7537833Y-16142500D01*
X7537833Y-16142500D02*
X7547357Y-16132976D01*
X7547357Y-16132976D02*
X7547357Y-16152024D01*
X7680691Y-15952024D02*
X7699738Y-15952024D01*
X7699738Y-15952024D02*
X7718786Y-15961548D01*
X7718786Y-15961548D02*
X7728310Y-15971071D01*
X7728310Y-15971071D02*
X7737833Y-15990119D01*
X7737833Y-15990119D02*
X7747357Y-16028214D01*
X7747357Y-16028214D02*
X7747357Y-16075833D01*
X7747357Y-16075833D02*
X7737833Y-16113928D01*
X7737833Y-16113928D02*
X7728310Y-16132976D01*
X7728310Y-16132976D02*
X7718786Y-16142500D01*
X7718786Y-16142500D02*
X7699738Y-16152024D01*
X7699738Y-16152024D02*
X7680691Y-16152024D01*
X7680691Y-16152024D02*
X7661643Y-16142500D01*
X7661643Y-16142500D02*
X7652119Y-16132976D01*
X7652119Y-16132976D02*
X7642595Y-16113928D01*
X7642595Y-16113928D02*
X7633072Y-16075833D01*
X7633072Y-16075833D02*
X7633072Y-16028214D01*
X7633072Y-16028214D02*
X7642595Y-15990119D01*
X7642595Y-15990119D02*
X7652119Y-15971071D01*
X7652119Y-15971071D02*
X7661643Y-15961548D01*
X7661643Y-15961548D02*
X7680691Y-15952024D01*
X7814024Y-15952024D02*
X7937833Y-15952024D01*
X7937833Y-15952024D02*
X7871167Y-16028214D01*
X7871167Y-16028214D02*
X7899738Y-16028214D01*
X7899738Y-16028214D02*
X7918786Y-16037738D01*
X7918786Y-16037738D02*
X7928310Y-16047262D01*
X7928310Y-16047262D02*
X7937833Y-16066309D01*
X7937833Y-16066309D02*
X7937833Y-16113928D01*
X7937833Y-16113928D02*
X7928310Y-16132976D01*
X7928310Y-16132976D02*
X7918786Y-16142500D01*
X7918786Y-16142500D02*
X7899738Y-16152024D01*
X7899738Y-16152024D02*
X7842595Y-16152024D01*
X7842595Y-16152024D02*
X7823548Y-16142500D01*
X7823548Y-16142500D02*
X7814024Y-16132976D01*
X8033072Y-16152024D02*
X8071167Y-16152024D01*
X8071167Y-16152024D02*
X8090214Y-16142500D01*
X8090214Y-16142500D02*
X8099738Y-16132976D01*
X8099738Y-16132976D02*
X8118786Y-16104405D01*
X8118786Y-16104405D02*
X8128310Y-16066309D01*
X8128310Y-16066309D02*
X8128310Y-15990119D01*
X8128310Y-15990119D02*
X8118786Y-15971071D01*
X8118786Y-15971071D02*
X8109262Y-15961548D01*
X8109262Y-15961548D02*
X8090214Y-15952024D01*
X8090214Y-15952024D02*
X8052119Y-15952024D01*
X8052119Y-15952024D02*
X8033072Y-15961548D01*
X8033072Y-15961548D02*
X8023548Y-15971071D01*
X8023548Y-15971071D02*
X8014024Y-15990119D01*
X8014024Y-15990119D02*
X8014024Y-16037738D01*
X8014024Y-16037738D02*
X8023548Y-16056786D01*
X8023548Y-16056786D02*
X8033072Y-16066309D01*
X8033072Y-16066309D02*
X8052119Y-16075833D01*
X8052119Y-16075833D02*
X8090214Y-16075833D01*
X8090214Y-16075833D02*
X8109262Y-16066309D01*
X8109262Y-16066309D02*
X8118786Y-16056786D01*
X8118786Y-16056786D02*
X8128310Y-16037738D01*
X8299738Y-16018690D02*
X8299738Y-16152024D01*
X8252119Y-15942500D02*
X8204500Y-16085357D01*
X8204500Y-16085357D02*
X8328310Y-16085357D01*
X8394976Y-15952024D02*
X8394976Y-15990119D01*
X8471167Y-15952024D02*
X8471167Y-15990119D01*
X8766405Y-16228214D02*
X8756881Y-16218690D01*
X8756881Y-16218690D02*
X8737834Y-16190119D01*
X8737834Y-16190119D02*
X8728310Y-16171071D01*
X8728310Y-16171071D02*
X8718786Y-16142500D01*
X8718786Y-16142500D02*
X8709262Y-16094881D01*
X8709262Y-16094881D02*
X8709262Y-16056786D01*
X8709262Y-16056786D02*
X8718786Y-16009167D01*
X8718786Y-16009167D02*
X8728310Y-15980595D01*
X8728310Y-15980595D02*
X8737834Y-15961548D01*
X8737834Y-15961548D02*
X8756881Y-15932976D01*
X8756881Y-15932976D02*
X8766405Y-15923452D01*
X8947357Y-16152024D02*
X8833072Y-16152024D01*
X8890215Y-16152024D02*
X8890215Y-15952024D01*
X8890215Y-15952024D02*
X8871167Y-15980595D01*
X8871167Y-15980595D02*
X8852119Y-15999643D01*
X8852119Y-15999643D02*
X8833072Y-16009167D01*
X9071167Y-15952024D02*
X9090215Y-15952024D01*
X9090215Y-15952024D02*
X9109262Y-15961548D01*
X9109262Y-15961548D02*
X9118786Y-15971071D01*
X9118786Y-15971071D02*
X9128310Y-15990119D01*
X9128310Y-15990119D02*
X9137834Y-16028214D01*
X9137834Y-16028214D02*
X9137834Y-16075833D01*
X9137834Y-16075833D02*
X9128310Y-16113928D01*
X9128310Y-16113928D02*
X9118786Y-16132976D01*
X9118786Y-16132976D02*
X9109262Y-16142500D01*
X9109262Y-16142500D02*
X9090215Y-16152024D01*
X9090215Y-16152024D02*
X9071167Y-16152024D01*
X9071167Y-16152024D02*
X9052119Y-16142500D01*
X9052119Y-16142500D02*
X9042596Y-16132976D01*
X9042596Y-16132976D02*
X9033072Y-16113928D01*
X9033072Y-16113928D02*
X9023548Y-16075833D01*
X9023548Y-16075833D02*
X9023548Y-16028214D01*
X9023548Y-16028214D02*
X9033072Y-15990119D01*
X9033072Y-15990119D02*
X9042596Y-15971071D01*
X9042596Y-15971071D02*
X9052119Y-15961548D01*
X9052119Y-15961548D02*
X9071167Y-15952024D01*
X9375929Y-16152024D02*
X9375929Y-15952024D01*
X9461643Y-16152024D02*
X9461643Y-16047262D01*
X9461643Y-16047262D02*
X9452119Y-16028214D01*
X9452119Y-16028214D02*
X9433072Y-16018690D01*
X9433072Y-16018690D02*
X9404500Y-16018690D01*
X9404500Y-16018690D02*
X9385453Y-16028214D01*
X9385453Y-16028214D02*
X9375929Y-16037738D01*
X9585453Y-16152024D02*
X9566405Y-16142500D01*
X9566405Y-16142500D02*
X9556881Y-16132976D01*
X9556881Y-16132976D02*
X9547358Y-16113928D01*
X9547358Y-16113928D02*
X9547358Y-16056786D01*
X9547358Y-16056786D02*
X9556881Y-16037738D01*
X9556881Y-16037738D02*
X9566405Y-16028214D01*
X9566405Y-16028214D02*
X9585453Y-16018690D01*
X9585453Y-16018690D02*
X9614024Y-16018690D01*
X9614024Y-16018690D02*
X9633072Y-16028214D01*
X9633072Y-16028214D02*
X9642596Y-16037738D01*
X9642596Y-16037738D02*
X9652119Y-16056786D01*
X9652119Y-16056786D02*
X9652119Y-16113928D01*
X9652119Y-16113928D02*
X9642596Y-16132976D01*
X9642596Y-16132976D02*
X9633072Y-16142500D01*
X9633072Y-16142500D02*
X9614024Y-16152024D01*
X9614024Y-16152024D02*
X9585453Y-16152024D01*
X9766405Y-16152024D02*
X9747358Y-16142500D01*
X9747358Y-16142500D02*
X9737834Y-16123452D01*
X9737834Y-16123452D02*
X9737834Y-15952024D01*
X9918786Y-16142500D02*
X9899739Y-16152024D01*
X9899739Y-16152024D02*
X9861643Y-16152024D01*
X9861643Y-16152024D02*
X9842596Y-16142500D01*
X9842596Y-16142500D02*
X9833072Y-16123452D01*
X9833072Y-16123452D02*
X9833072Y-16047262D01*
X9833072Y-16047262D02*
X9842596Y-16028214D01*
X9842596Y-16028214D02*
X9861643Y-16018690D01*
X9861643Y-16018690D02*
X9899739Y-16018690D01*
X9899739Y-16018690D02*
X9918786Y-16028214D01*
X9918786Y-16028214D02*
X9928310Y-16047262D01*
X9928310Y-16047262D02*
X9928310Y-16066309D01*
X9928310Y-16066309D02*
X9833072Y-16085357D01*
X10004500Y-16142500D02*
X10023548Y-16152024D01*
X10023548Y-16152024D02*
X10061643Y-16152024D01*
X10061643Y-16152024D02*
X10080691Y-16142500D01*
X10080691Y-16142500D02*
X10090215Y-16123452D01*
X10090215Y-16123452D02*
X10090215Y-16113928D01*
X10090215Y-16113928D02*
X10080691Y-16094881D01*
X10080691Y-16094881D02*
X10061643Y-16085357D01*
X10061643Y-16085357D02*
X10033072Y-16085357D01*
X10033072Y-16085357D02*
X10014024Y-16075833D01*
X10014024Y-16075833D02*
X10004500Y-16056786D01*
X10004500Y-16056786D02*
X10004500Y-16047262D01*
X10004500Y-16047262D02*
X10014024Y-16028214D01*
X10014024Y-16028214D02*
X10033072Y-16018690D01*
X10033072Y-16018690D02*
X10061643Y-16018690D01*
X10061643Y-16018690D02*
X10080691Y-16028214D01*
X10156881Y-16228214D02*
X10166405Y-16218690D01*
X10166405Y-16218690D02*
X10185453Y-16190119D01*
X10185453Y-16190119D02*
X10194977Y-16171071D01*
X10194977Y-16171071D02*
X10204500Y-16142500D01*
X10204500Y-16142500D02*
X10214024Y-16094881D01*
X10214024Y-16094881D02*
X10214024Y-16056786D01*
X10214024Y-16056786D02*
X10204500Y-16009167D01*
X10204500Y-16009167D02*
X10194977Y-15980595D01*
X10194977Y-15980595D02*
X10185453Y-15961548D01*
X10185453Y-15961548D02*
X10166405Y-15932976D01*
X10166405Y-15932976D02*
X10156881Y-15923452D01*
D18*
X5074500Y-16258500D02*
X5204500Y-16388500D01*
X5204500Y-16258500D02*
X5074500Y-16388500D01*
X5139500Y-16258500D02*
X5139500Y-16388500D01*
X5074500Y-16323500D02*
X5204500Y-16323500D01*
D11*
X5556881Y-16416024D02*
X5442595Y-16416024D01*
X5499738Y-16416024D02*
X5499738Y-16216024D01*
X5499738Y-16216024D02*
X5480690Y-16244595D01*
X5480690Y-16244595D02*
X5461643Y-16263643D01*
X5461643Y-16263643D02*
X5442595Y-16273167D01*
X5642595Y-16396976D02*
X5652119Y-16406500D01*
X5652119Y-16406500D02*
X5642595Y-16416024D01*
X5642595Y-16416024D02*
X5633071Y-16406500D01*
X5633071Y-16406500D02*
X5642595Y-16396976D01*
X5642595Y-16396976D02*
X5642595Y-16416024D01*
X5718786Y-16216024D02*
X5842595Y-16216024D01*
X5842595Y-16216024D02*
X5775928Y-16292214D01*
X5775928Y-16292214D02*
X5804500Y-16292214D01*
X5804500Y-16292214D02*
X5823548Y-16301738D01*
X5823548Y-16301738D02*
X5833071Y-16311262D01*
X5833071Y-16311262D02*
X5842595Y-16330309D01*
X5842595Y-16330309D02*
X5842595Y-16377928D01*
X5842595Y-16377928D02*
X5833071Y-16396976D01*
X5833071Y-16396976D02*
X5823548Y-16406500D01*
X5823548Y-16406500D02*
X5804500Y-16416024D01*
X5804500Y-16416024D02*
X5747357Y-16416024D01*
X5747357Y-16416024D02*
X5728309Y-16406500D01*
X5728309Y-16406500D02*
X5718786Y-16396976D01*
X5966405Y-16216024D02*
X5985452Y-16216024D01*
X5985452Y-16216024D02*
X6004500Y-16225548D01*
X6004500Y-16225548D02*
X6014024Y-16235071D01*
X6014024Y-16235071D02*
X6023548Y-16254119D01*
X6023548Y-16254119D02*
X6033071Y-16292214D01*
X6033071Y-16292214D02*
X6033071Y-16339833D01*
X6033071Y-16339833D02*
X6023548Y-16377928D01*
X6023548Y-16377928D02*
X6014024Y-16396976D01*
X6014024Y-16396976D02*
X6004500Y-16406500D01*
X6004500Y-16406500D02*
X5985452Y-16416024D01*
X5985452Y-16416024D02*
X5966405Y-16416024D01*
X5966405Y-16416024D02*
X5947357Y-16406500D01*
X5947357Y-16406500D02*
X5937833Y-16396976D01*
X5937833Y-16396976D02*
X5928309Y-16377928D01*
X5928309Y-16377928D02*
X5918786Y-16339833D01*
X5918786Y-16339833D02*
X5918786Y-16292214D01*
X5918786Y-16292214D02*
X5928309Y-16254119D01*
X5928309Y-16254119D02*
X5937833Y-16235071D01*
X5937833Y-16235071D02*
X5947357Y-16225548D01*
X5947357Y-16225548D02*
X5966405Y-16216024D01*
X6156881Y-16216024D02*
X6175929Y-16216024D01*
X6175929Y-16216024D02*
X6194976Y-16225548D01*
X6194976Y-16225548D02*
X6204500Y-16235071D01*
X6204500Y-16235071D02*
X6214024Y-16254119D01*
X6214024Y-16254119D02*
X6223548Y-16292214D01*
X6223548Y-16292214D02*
X6223548Y-16339833D01*
X6223548Y-16339833D02*
X6214024Y-16377928D01*
X6214024Y-16377928D02*
X6204500Y-16396976D01*
X6204500Y-16396976D02*
X6194976Y-16406500D01*
X6194976Y-16406500D02*
X6175929Y-16416024D01*
X6175929Y-16416024D02*
X6156881Y-16416024D01*
X6156881Y-16416024D02*
X6137833Y-16406500D01*
X6137833Y-16406500D02*
X6128309Y-16396976D01*
X6128309Y-16396976D02*
X6118786Y-16377928D01*
X6118786Y-16377928D02*
X6109262Y-16339833D01*
X6109262Y-16339833D02*
X6109262Y-16292214D01*
X6109262Y-16292214D02*
X6118786Y-16254119D01*
X6118786Y-16254119D02*
X6128309Y-16235071D01*
X6128309Y-16235071D02*
X6137833Y-16225548D01*
X6137833Y-16225548D02*
X6156881Y-16216024D01*
X6309262Y-16416024D02*
X6309262Y-16282690D01*
X6309262Y-16301738D02*
X6318786Y-16292214D01*
X6318786Y-16292214D02*
X6337833Y-16282690D01*
X6337833Y-16282690D02*
X6366405Y-16282690D01*
X6366405Y-16282690D02*
X6385452Y-16292214D01*
X6385452Y-16292214D02*
X6394976Y-16311262D01*
X6394976Y-16311262D02*
X6394976Y-16416024D01*
X6394976Y-16311262D02*
X6404500Y-16292214D01*
X6404500Y-16292214D02*
X6423548Y-16282690D01*
X6423548Y-16282690D02*
X6452119Y-16282690D01*
X6452119Y-16282690D02*
X6471167Y-16292214D01*
X6471167Y-16292214D02*
X6480690Y-16311262D01*
X6480690Y-16311262D02*
X6480690Y-16416024D01*
X6575929Y-16416024D02*
X6575929Y-16282690D01*
X6575929Y-16301738D02*
X6585452Y-16292214D01*
X6585452Y-16292214D02*
X6604500Y-16282690D01*
X6604500Y-16282690D02*
X6633071Y-16282690D01*
X6633071Y-16282690D02*
X6652119Y-16292214D01*
X6652119Y-16292214D02*
X6661643Y-16311262D01*
X6661643Y-16311262D02*
X6661643Y-16416024D01*
X6661643Y-16311262D02*
X6671167Y-16292214D01*
X6671167Y-16292214D02*
X6690214Y-16282690D01*
X6690214Y-16282690D02*
X6718786Y-16282690D01*
X6718786Y-16282690D02*
X6737833Y-16292214D01*
X6737833Y-16292214D02*
X6747357Y-16311262D01*
X6747357Y-16311262D02*
X6747357Y-16416024D01*
X7137833Y-16206500D02*
X6966405Y-16463643D01*
X7394976Y-16216024D02*
X7414024Y-16216024D01*
X7414024Y-16216024D02*
X7433072Y-16225548D01*
X7433072Y-16225548D02*
X7442595Y-16235071D01*
X7442595Y-16235071D02*
X7452119Y-16254119D01*
X7452119Y-16254119D02*
X7461643Y-16292214D01*
X7461643Y-16292214D02*
X7461643Y-16339833D01*
X7461643Y-16339833D02*
X7452119Y-16377928D01*
X7452119Y-16377928D02*
X7442595Y-16396976D01*
X7442595Y-16396976D02*
X7433072Y-16406500D01*
X7433072Y-16406500D02*
X7414024Y-16416024D01*
X7414024Y-16416024D02*
X7394976Y-16416024D01*
X7394976Y-16416024D02*
X7375929Y-16406500D01*
X7375929Y-16406500D02*
X7366405Y-16396976D01*
X7366405Y-16396976D02*
X7356881Y-16377928D01*
X7356881Y-16377928D02*
X7347357Y-16339833D01*
X7347357Y-16339833D02*
X7347357Y-16292214D01*
X7347357Y-16292214D02*
X7356881Y-16254119D01*
X7356881Y-16254119D02*
X7366405Y-16235071D01*
X7366405Y-16235071D02*
X7375929Y-16225548D01*
X7375929Y-16225548D02*
X7394976Y-16216024D01*
X7547357Y-16396976D02*
X7556881Y-16406500D01*
X7556881Y-16406500D02*
X7547357Y-16416024D01*
X7547357Y-16416024D02*
X7537833Y-16406500D01*
X7537833Y-16406500D02*
X7547357Y-16396976D01*
X7547357Y-16396976D02*
X7547357Y-16416024D01*
X7680691Y-16216024D02*
X7699738Y-16216024D01*
X7699738Y-16216024D02*
X7718786Y-16225548D01*
X7718786Y-16225548D02*
X7728310Y-16235071D01*
X7728310Y-16235071D02*
X7737833Y-16254119D01*
X7737833Y-16254119D02*
X7747357Y-16292214D01*
X7747357Y-16292214D02*
X7747357Y-16339833D01*
X7747357Y-16339833D02*
X7737833Y-16377928D01*
X7737833Y-16377928D02*
X7728310Y-16396976D01*
X7728310Y-16396976D02*
X7718786Y-16406500D01*
X7718786Y-16406500D02*
X7699738Y-16416024D01*
X7699738Y-16416024D02*
X7680691Y-16416024D01*
X7680691Y-16416024D02*
X7661643Y-16406500D01*
X7661643Y-16406500D02*
X7652119Y-16396976D01*
X7652119Y-16396976D02*
X7642595Y-16377928D01*
X7642595Y-16377928D02*
X7633072Y-16339833D01*
X7633072Y-16339833D02*
X7633072Y-16292214D01*
X7633072Y-16292214D02*
X7642595Y-16254119D01*
X7642595Y-16254119D02*
X7652119Y-16235071D01*
X7652119Y-16235071D02*
X7661643Y-16225548D01*
X7661643Y-16225548D02*
X7680691Y-16216024D01*
X7928310Y-16216024D02*
X7833072Y-16216024D01*
X7833072Y-16216024D02*
X7823548Y-16311262D01*
X7823548Y-16311262D02*
X7833072Y-16301738D01*
X7833072Y-16301738D02*
X7852119Y-16292214D01*
X7852119Y-16292214D02*
X7899738Y-16292214D01*
X7899738Y-16292214D02*
X7918786Y-16301738D01*
X7918786Y-16301738D02*
X7928310Y-16311262D01*
X7928310Y-16311262D02*
X7937833Y-16330309D01*
X7937833Y-16330309D02*
X7937833Y-16377928D01*
X7937833Y-16377928D02*
X7928310Y-16396976D01*
X7928310Y-16396976D02*
X7918786Y-16406500D01*
X7918786Y-16406500D02*
X7899738Y-16416024D01*
X7899738Y-16416024D02*
X7852119Y-16416024D01*
X7852119Y-16416024D02*
X7833072Y-16406500D01*
X7833072Y-16406500D02*
X7823548Y-16396976D01*
X8128310Y-16416024D02*
X8014024Y-16416024D01*
X8071167Y-16416024D02*
X8071167Y-16216024D01*
X8071167Y-16216024D02*
X8052119Y-16244595D01*
X8052119Y-16244595D02*
X8033072Y-16263643D01*
X8033072Y-16263643D02*
X8014024Y-16273167D01*
X8204500Y-16235071D02*
X8214024Y-16225548D01*
X8214024Y-16225548D02*
X8233072Y-16216024D01*
X8233072Y-16216024D02*
X8280691Y-16216024D01*
X8280691Y-16216024D02*
X8299738Y-16225548D01*
X8299738Y-16225548D02*
X8309262Y-16235071D01*
X8309262Y-16235071D02*
X8318786Y-16254119D01*
X8318786Y-16254119D02*
X8318786Y-16273167D01*
X8318786Y-16273167D02*
X8309262Y-16301738D01*
X8309262Y-16301738D02*
X8194976Y-16416024D01*
X8194976Y-16416024D02*
X8318786Y-16416024D01*
X8394976Y-16216024D02*
X8394976Y-16254119D01*
X8471167Y-16216024D02*
X8471167Y-16254119D01*
X8766405Y-16492214D02*
X8756881Y-16482690D01*
X8756881Y-16482690D02*
X8737834Y-16454119D01*
X8737834Y-16454119D02*
X8728310Y-16435071D01*
X8728310Y-16435071D02*
X8718786Y-16406500D01*
X8718786Y-16406500D02*
X8709262Y-16358881D01*
X8709262Y-16358881D02*
X8709262Y-16320786D01*
X8709262Y-16320786D02*
X8718786Y-16273167D01*
X8718786Y-16273167D02*
X8728310Y-16244595D01*
X8728310Y-16244595D02*
X8737834Y-16225548D01*
X8737834Y-16225548D02*
X8756881Y-16196976D01*
X8756881Y-16196976D02*
X8766405Y-16187452D01*
X8871167Y-16301738D02*
X8852119Y-16292214D01*
X8852119Y-16292214D02*
X8842596Y-16282690D01*
X8842596Y-16282690D02*
X8833072Y-16263643D01*
X8833072Y-16263643D02*
X8833072Y-16254119D01*
X8833072Y-16254119D02*
X8842596Y-16235071D01*
X8842596Y-16235071D02*
X8852119Y-16225548D01*
X8852119Y-16225548D02*
X8871167Y-16216024D01*
X8871167Y-16216024D02*
X8909262Y-16216024D01*
X8909262Y-16216024D02*
X8928310Y-16225548D01*
X8928310Y-16225548D02*
X8937834Y-16235071D01*
X8937834Y-16235071D02*
X8947357Y-16254119D01*
X8947357Y-16254119D02*
X8947357Y-16263643D01*
X8947357Y-16263643D02*
X8937834Y-16282690D01*
X8937834Y-16282690D02*
X8928310Y-16292214D01*
X8928310Y-16292214D02*
X8909262Y-16301738D01*
X8909262Y-16301738D02*
X8871167Y-16301738D01*
X8871167Y-16301738D02*
X8852119Y-16311262D01*
X8852119Y-16311262D02*
X8842596Y-16320786D01*
X8842596Y-16320786D02*
X8833072Y-16339833D01*
X8833072Y-16339833D02*
X8833072Y-16377928D01*
X8833072Y-16377928D02*
X8842596Y-16396976D01*
X8842596Y-16396976D02*
X8852119Y-16406500D01*
X8852119Y-16406500D02*
X8871167Y-16416024D01*
X8871167Y-16416024D02*
X8909262Y-16416024D01*
X8909262Y-16416024D02*
X8928310Y-16406500D01*
X8928310Y-16406500D02*
X8937834Y-16396976D01*
X8937834Y-16396976D02*
X8947357Y-16377928D01*
X8947357Y-16377928D02*
X8947357Y-16339833D01*
X8947357Y-16339833D02*
X8937834Y-16320786D01*
X8937834Y-16320786D02*
X8928310Y-16311262D01*
X8928310Y-16311262D02*
X8909262Y-16301738D01*
X9185453Y-16416024D02*
X9185453Y-16216024D01*
X9271167Y-16416024D02*
X9271167Y-16311262D01*
X9271167Y-16311262D02*
X9261643Y-16292214D01*
X9261643Y-16292214D02*
X9242596Y-16282690D01*
X9242596Y-16282690D02*
X9214024Y-16282690D01*
X9214024Y-16282690D02*
X9194977Y-16292214D01*
X9194977Y-16292214D02*
X9185453Y-16301738D01*
X9394977Y-16416024D02*
X9375929Y-16406500D01*
X9375929Y-16406500D02*
X9366405Y-16396976D01*
X9366405Y-16396976D02*
X9356881Y-16377928D01*
X9356881Y-16377928D02*
X9356881Y-16320786D01*
X9356881Y-16320786D02*
X9366405Y-16301738D01*
X9366405Y-16301738D02*
X9375929Y-16292214D01*
X9375929Y-16292214D02*
X9394977Y-16282690D01*
X9394977Y-16282690D02*
X9423548Y-16282690D01*
X9423548Y-16282690D02*
X9442596Y-16292214D01*
X9442596Y-16292214D02*
X9452119Y-16301738D01*
X9452119Y-16301738D02*
X9461643Y-16320786D01*
X9461643Y-16320786D02*
X9461643Y-16377928D01*
X9461643Y-16377928D02*
X9452119Y-16396976D01*
X9452119Y-16396976D02*
X9442596Y-16406500D01*
X9442596Y-16406500D02*
X9423548Y-16416024D01*
X9423548Y-16416024D02*
X9394977Y-16416024D01*
X9575929Y-16416024D02*
X9556881Y-16406500D01*
X9556881Y-16406500D02*
X9547358Y-16387452D01*
X9547358Y-16387452D02*
X9547358Y-16216024D01*
X9728310Y-16406500D02*
X9709262Y-16416024D01*
X9709262Y-16416024D02*
X9671167Y-16416024D01*
X9671167Y-16416024D02*
X9652119Y-16406500D01*
X9652119Y-16406500D02*
X9642596Y-16387452D01*
X9642596Y-16387452D02*
X9642596Y-16311262D01*
X9642596Y-16311262D02*
X9652119Y-16292214D01*
X9652119Y-16292214D02*
X9671167Y-16282690D01*
X9671167Y-16282690D02*
X9709262Y-16282690D01*
X9709262Y-16282690D02*
X9728310Y-16292214D01*
X9728310Y-16292214D02*
X9737834Y-16311262D01*
X9737834Y-16311262D02*
X9737834Y-16330309D01*
X9737834Y-16330309D02*
X9642596Y-16349357D01*
X9814024Y-16406500D02*
X9833072Y-16416024D01*
X9833072Y-16416024D02*
X9871167Y-16416024D01*
X9871167Y-16416024D02*
X9890215Y-16406500D01*
X9890215Y-16406500D02*
X9899739Y-16387452D01*
X9899739Y-16387452D02*
X9899739Y-16377928D01*
X9899739Y-16377928D02*
X9890215Y-16358881D01*
X9890215Y-16358881D02*
X9871167Y-16349357D01*
X9871167Y-16349357D02*
X9842596Y-16349357D01*
X9842596Y-16349357D02*
X9823548Y-16339833D01*
X9823548Y-16339833D02*
X9814024Y-16320786D01*
X9814024Y-16320786D02*
X9814024Y-16311262D01*
X9814024Y-16311262D02*
X9823548Y-16292214D01*
X9823548Y-16292214D02*
X9842596Y-16282690D01*
X9842596Y-16282690D02*
X9871167Y-16282690D01*
X9871167Y-16282690D02*
X9890215Y-16292214D01*
X9966405Y-16492214D02*
X9975929Y-16482690D01*
X9975929Y-16482690D02*
X9994977Y-16454119D01*
X9994977Y-16454119D02*
X10004500Y-16435071D01*
X10004500Y-16435071D02*
X10014024Y-16406500D01*
X10014024Y-16406500D02*
X10023548Y-16358881D01*
X10023548Y-16358881D02*
X10023548Y-16320786D01*
X10023548Y-16320786D02*
X10014024Y-16273167D01*
X10014024Y-16273167D02*
X10004500Y-16244595D01*
X10004500Y-16244595D02*
X9994977Y-16225548D01*
X9994977Y-16225548D02*
X9975929Y-16196976D01*
X9975929Y-16196976D02*
X9966405Y-16187452D01*
M02*
