%TF.GenerationSoftware,KiCad,Pcbnew,7.0.2-0*%
%TF.CreationDate,2025-01-26T18:27:29-07:00*%
%TF.ProjectId,LeftMB,4c656674-4d42-42e6-9b69-6361645f7063,rev?*%
%TF.SameCoordinates,Original*%
%TF.FileFunction,Legend,Top*%
%TF.FilePolarity,Positive*%
%FSLAX46Y46*%
G04 Gerber Fmt 4.6, Leading zero omitted, Abs format (unit mm)*
G04 Created by KiCad (PCBNEW 7.0.2-0) date 2025-01-26 18:27:29*
%MOMM*%
%LPD*%
G01*
G04 APERTURE LIST*
G04 Aperture macros list*
%AMRoundRect*
0 Rectangle with rounded corners*
0 $1 Rounding radius*
0 $2 $3 $4 $5 $6 $7 $8 $9 X,Y pos of 4 corners*
0 Add a 4 corners polygon primitive as box body*
4,1,4,$2,$3,$4,$5,$6,$7,$8,$9,$2,$3,0*
0 Add four circle primitives for the rounded corners*
1,1,$1+$1,$2,$3*
1,1,$1+$1,$4,$5*
1,1,$1+$1,$6,$7*
1,1,$1+$1,$8,$9*
0 Add four rect primitives between the rounded corners*
20,1,$1+$1,$2,$3,$4,$5,0*
20,1,$1+$1,$4,$5,$6,$7,0*
20,1,$1+$1,$6,$7,$8,$9,0*
20,1,$1+$1,$8,$9,$2,$3,0*%
G04 Aperture macros list end*
%ADD10C,0.150000*%
%ADD11C,0.200000*%
%ADD12C,0.120000*%
%ADD13C,0.010000*%
%ADD14C,2.200000*%
%ADD15C,1.700000*%
%ADD16C,1.524000*%
%ADD17R,1.550000X1.300000*%
%ADD18R,1.000000X0.400000*%
%ADD19R,1.300000X2.000000*%
%ADD20RoundRect,0.250000X0.750000X-0.600000X0.750000X0.600000X-0.750000X0.600000X-0.750000X-0.600000X0*%
%ADD21O,2.000000X1.700000*%
%ADD22C,0.650000*%
%ADD23O,1.000000X1.800000*%
%ADD24O,1.000000X2.100000*%
G04 APERTURE END LIST*
D10*
%TO.C,START*%
X97313809Y-117255000D02*
X97456666Y-117302619D01*
X97456666Y-117302619D02*
X97694761Y-117302619D01*
X97694761Y-117302619D02*
X97789999Y-117255000D01*
X97789999Y-117255000D02*
X97837618Y-117207380D01*
X97837618Y-117207380D02*
X97885237Y-117112142D01*
X97885237Y-117112142D02*
X97885237Y-117016904D01*
X97885237Y-117016904D02*
X97837618Y-116921666D01*
X97837618Y-116921666D02*
X97789999Y-116874047D01*
X97789999Y-116874047D02*
X97694761Y-116826428D01*
X97694761Y-116826428D02*
X97504285Y-116778809D01*
X97504285Y-116778809D02*
X97409047Y-116731190D01*
X97409047Y-116731190D02*
X97361428Y-116683571D01*
X97361428Y-116683571D02*
X97313809Y-116588333D01*
X97313809Y-116588333D02*
X97313809Y-116493095D01*
X97313809Y-116493095D02*
X97361428Y-116397857D01*
X97361428Y-116397857D02*
X97409047Y-116350238D01*
X97409047Y-116350238D02*
X97504285Y-116302619D01*
X97504285Y-116302619D02*
X97742380Y-116302619D01*
X97742380Y-116302619D02*
X97885237Y-116350238D01*
X98170952Y-116302619D02*
X98742380Y-116302619D01*
X98456666Y-117302619D02*
X98456666Y-116302619D01*
X99028095Y-117016904D02*
X99504285Y-117016904D01*
X98932857Y-117302619D02*
X99266190Y-116302619D01*
X99266190Y-116302619D02*
X99599523Y-117302619D01*
X100504285Y-117302619D02*
X100170952Y-116826428D01*
X99932857Y-117302619D02*
X99932857Y-116302619D01*
X99932857Y-116302619D02*
X100313809Y-116302619D01*
X100313809Y-116302619D02*
X100409047Y-116350238D01*
X100409047Y-116350238D02*
X100456666Y-116397857D01*
X100456666Y-116397857D02*
X100504285Y-116493095D01*
X100504285Y-116493095D02*
X100504285Y-116635952D01*
X100504285Y-116635952D02*
X100456666Y-116731190D01*
X100456666Y-116731190D02*
X100409047Y-116778809D01*
X100409047Y-116778809D02*
X100313809Y-116826428D01*
X100313809Y-116826428D02*
X99932857Y-116826428D01*
X100790000Y-116302619D02*
X101361428Y-116302619D01*
X101075714Y-117302619D02*
X101075714Y-116302619D01*
%TO.C,SELECT*%
X96813809Y-124875000D02*
X96956666Y-124922619D01*
X96956666Y-124922619D02*
X97194761Y-124922619D01*
X97194761Y-124922619D02*
X97289999Y-124875000D01*
X97289999Y-124875000D02*
X97337618Y-124827380D01*
X97337618Y-124827380D02*
X97385237Y-124732142D01*
X97385237Y-124732142D02*
X97385237Y-124636904D01*
X97385237Y-124636904D02*
X97337618Y-124541666D01*
X97337618Y-124541666D02*
X97289999Y-124494047D01*
X97289999Y-124494047D02*
X97194761Y-124446428D01*
X97194761Y-124446428D02*
X97004285Y-124398809D01*
X97004285Y-124398809D02*
X96909047Y-124351190D01*
X96909047Y-124351190D02*
X96861428Y-124303571D01*
X96861428Y-124303571D02*
X96813809Y-124208333D01*
X96813809Y-124208333D02*
X96813809Y-124113095D01*
X96813809Y-124113095D02*
X96861428Y-124017857D01*
X96861428Y-124017857D02*
X96909047Y-123970238D01*
X96909047Y-123970238D02*
X97004285Y-123922619D01*
X97004285Y-123922619D02*
X97242380Y-123922619D01*
X97242380Y-123922619D02*
X97385237Y-123970238D01*
X97813809Y-124398809D02*
X98147142Y-124398809D01*
X98289999Y-124922619D02*
X97813809Y-124922619D01*
X97813809Y-124922619D02*
X97813809Y-123922619D01*
X97813809Y-123922619D02*
X98289999Y-123922619D01*
X99194761Y-124922619D02*
X98718571Y-124922619D01*
X98718571Y-124922619D02*
X98718571Y-123922619D01*
X99528095Y-124398809D02*
X99861428Y-124398809D01*
X100004285Y-124922619D02*
X99528095Y-124922619D01*
X99528095Y-124922619D02*
X99528095Y-123922619D01*
X99528095Y-123922619D02*
X100004285Y-123922619D01*
X101004285Y-124827380D02*
X100956666Y-124875000D01*
X100956666Y-124875000D02*
X100813809Y-124922619D01*
X100813809Y-124922619D02*
X100718571Y-124922619D01*
X100718571Y-124922619D02*
X100575714Y-124875000D01*
X100575714Y-124875000D02*
X100480476Y-124779761D01*
X100480476Y-124779761D02*
X100432857Y-124684523D01*
X100432857Y-124684523D02*
X100385238Y-124494047D01*
X100385238Y-124494047D02*
X100385238Y-124351190D01*
X100385238Y-124351190D02*
X100432857Y-124160714D01*
X100432857Y-124160714D02*
X100480476Y-124065476D01*
X100480476Y-124065476D02*
X100575714Y-123970238D01*
X100575714Y-123970238D02*
X100718571Y-123922619D01*
X100718571Y-123922619D02*
X100813809Y-123922619D01*
X100813809Y-123922619D02*
X100956666Y-123970238D01*
X100956666Y-123970238D02*
X101004285Y-124017857D01*
X101290000Y-123922619D02*
X101861428Y-123922619D01*
X101575714Y-124922619D02*
X101575714Y-123922619D01*
%TO.C,FPC*%
X102935809Y-87217142D02*
X102935809Y-87550475D01*
X103459619Y-87550475D02*
X102459619Y-87550475D01*
X102459619Y-87550475D02*
X102459619Y-87074285D01*
X103459619Y-86693332D02*
X102459619Y-86693332D01*
X102459619Y-86693332D02*
X102459619Y-86312380D01*
X102459619Y-86312380D02*
X102507238Y-86217142D01*
X102507238Y-86217142D02*
X102554857Y-86169523D01*
X102554857Y-86169523D02*
X102650095Y-86121904D01*
X102650095Y-86121904D02*
X102792952Y-86121904D01*
X102792952Y-86121904D02*
X102888190Y-86169523D01*
X102888190Y-86169523D02*
X102935809Y-86217142D01*
X102935809Y-86217142D02*
X102983428Y-86312380D01*
X102983428Y-86312380D02*
X102983428Y-86693332D01*
X103364380Y-85121904D02*
X103412000Y-85169523D01*
X103412000Y-85169523D02*
X103459619Y-85312380D01*
X103459619Y-85312380D02*
X103459619Y-85407618D01*
X103459619Y-85407618D02*
X103412000Y-85550475D01*
X103412000Y-85550475D02*
X103316761Y-85645713D01*
X103316761Y-85645713D02*
X103221523Y-85693332D01*
X103221523Y-85693332D02*
X103031047Y-85740951D01*
X103031047Y-85740951D02*
X102888190Y-85740951D01*
X102888190Y-85740951D02*
X102697714Y-85693332D01*
X102697714Y-85693332D02*
X102602476Y-85645713D01*
X102602476Y-85645713D02*
X102507238Y-85550475D01*
X102507238Y-85550475D02*
X102459619Y-85407618D01*
X102459619Y-85407618D02*
X102459619Y-85312380D01*
X102459619Y-85312380D02*
X102507238Y-85169523D01*
X102507238Y-85169523D02*
X102554857Y-85121904D01*
%TO.C,ADS1115*%
D11*
X88331000Y-80873000D02*
G75*
G03*
X88331000Y-80873000I-100000J0D01*
G01*
D12*
%TO.C,REF\u002A\u002A*%
X88622000Y-52067000D02*
X88622000Y-55917000D01*
X88622000Y-58557000D02*
X88622000Y-58857000D01*
X89512000Y-58857000D02*
X88622000Y-58857000D01*
X89512000Y-58857000D02*
X89512000Y-58507000D01*
X90002000Y-56307000D02*
X94982000Y-56307000D01*
X95472000Y-58857000D02*
X95472000Y-58507000D01*
X96362000Y-52067000D02*
X88622000Y-52067000D01*
X96362000Y-55917000D02*
X96362000Y-52067000D01*
X96362000Y-58557000D02*
X96362000Y-58857000D01*
X96362000Y-58857000D02*
X95472000Y-58857000D01*
X104370000Y-52067000D02*
X104370000Y-55917000D01*
X104370000Y-58557000D02*
X104370000Y-58857000D01*
X105260000Y-58857000D02*
X104370000Y-58857000D01*
X105260000Y-58857000D02*
X105260000Y-58507000D01*
X105750000Y-56307000D02*
X110730000Y-56307000D01*
X111220000Y-58857000D02*
X111220000Y-58507000D01*
X112110000Y-52067000D02*
X104370000Y-52067000D01*
X112110000Y-55917000D02*
X112110000Y-52067000D01*
X112110000Y-58557000D02*
X112110000Y-58857000D01*
X112110000Y-58857000D02*
X111220000Y-58857000D01*
X53153000Y-62517000D02*
X53153000Y-66367000D01*
X53153000Y-69007000D02*
X53153000Y-69307000D01*
X54043000Y-69307000D02*
X53153000Y-69307000D01*
X54043000Y-69307000D02*
X54043000Y-68957000D01*
X54533000Y-66757000D02*
X59513000Y-66757000D01*
X60003000Y-69307000D02*
X60003000Y-68957000D01*
X60893000Y-62517000D02*
X53153000Y-62517000D01*
X60893000Y-66367000D02*
X60893000Y-62517000D01*
X60893000Y-69007000D02*
X60893000Y-69307000D01*
X60893000Y-69307000D02*
X60003000Y-69307000D01*
%TO.C,START*%
X96060000Y-113610000D02*
X102520000Y-113610000D01*
X96060000Y-113640000D02*
X96060000Y-113610000D01*
X96060000Y-115540000D02*
X96060000Y-118140000D01*
X96060000Y-120070000D02*
X96060000Y-120040000D01*
X96060000Y-120070000D02*
X102520000Y-120070000D01*
X102520000Y-113610000D02*
X102520000Y-113640000D01*
X102520000Y-115540000D02*
X102520000Y-118140000D01*
X102520000Y-120070000D02*
X102520000Y-120040000D01*
%TO.C,SELECT*%
X96060000Y-121230000D02*
X102520000Y-121230000D01*
X96060000Y-121260000D02*
X96060000Y-121230000D01*
X96060000Y-123160000D02*
X96060000Y-125760000D01*
X96060000Y-127690000D02*
X96060000Y-127660000D01*
X96060000Y-127690000D02*
X102520000Y-127690000D01*
X102520000Y-121230000D02*
X102520000Y-121260000D01*
X102520000Y-123160000D02*
X102520000Y-125760000D01*
X102520000Y-127690000D02*
X102520000Y-127660000D01*
%TO.C,REF\u002A\u002A*%
X114530000Y-52067000D02*
X114530000Y-55917000D01*
X114530000Y-58557000D02*
X114530000Y-58857000D01*
X115420000Y-58857000D02*
X114530000Y-58857000D01*
X115420000Y-58857000D02*
X115420000Y-58507000D01*
X115910000Y-56307000D02*
X120890000Y-56307000D01*
X121380000Y-58857000D02*
X121380000Y-58507000D01*
X122270000Y-52067000D02*
X114530000Y-52067000D01*
X122270000Y-55917000D02*
X122270000Y-52067000D01*
X122270000Y-58557000D02*
X122270000Y-58857000D01*
X122270000Y-58857000D02*
X121380000Y-58857000D01*
%TO.C,FPC*%
X100430000Y-96070000D02*
X102480000Y-96070000D01*
X104300000Y-96070000D02*
X104600000Y-96070000D01*
X104600000Y-96070000D02*
X104600000Y-95270000D01*
X100430000Y-95300000D02*
X100430000Y-96070000D01*
X100780000Y-95300000D02*
X100430000Y-95300000D01*
X104600000Y-95270000D02*
X105900000Y-95270000D01*
X105900000Y-95270000D02*
X105900000Y-77450000D01*
X100190000Y-93320000D02*
X100780000Y-93320000D01*
X100780000Y-93320000D02*
X100780000Y-95300000D01*
X104600000Y-77450000D02*
X104600000Y-76650000D01*
X105900000Y-77450000D02*
X104600000Y-77450000D01*
X100430000Y-77420000D02*
X100780000Y-77420000D01*
X100780000Y-77420000D02*
X100780000Y-79400000D01*
X100430000Y-76650000D02*
X100430000Y-77420000D01*
X102480000Y-76650000D02*
X100430000Y-76650000D01*
X104600000Y-76650000D02*
X104300000Y-76650000D01*
%TD*%
%LPC*%
%TO.C,ADS1115*%
D13*
X91881000Y-81123000D02*
X90783300Y-81123000D01*
X90783300Y-80721160D01*
X91881000Y-80721160D01*
X91881000Y-81123000D01*
G36*
X91881000Y-81123000D02*
G01*
X90783300Y-81123000D01*
X90783300Y-80721160D01*
X91881000Y-80721160D01*
X91881000Y-81123000D01*
G37*
X87781000Y-81123000D02*
X86678040Y-81123000D01*
X86678040Y-80721640D01*
X87781000Y-80721640D01*
X87781000Y-81123000D01*
G36*
X87781000Y-81123000D02*
G01*
X86678040Y-81123000D01*
X86678040Y-80721640D01*
X87781000Y-80721640D01*
X87781000Y-81123000D01*
G37*
X87781000Y-81623000D02*
X86676920Y-81623000D01*
X86676920Y-81221903D01*
X87781000Y-81221903D01*
X87781000Y-81623000D01*
G36*
X87781000Y-81623000D02*
G01*
X86676920Y-81623000D01*
X86676920Y-81221903D01*
X87781000Y-81221903D01*
X87781000Y-81623000D01*
G37*
X91881000Y-81623000D02*
X90781530Y-81623000D01*
X90781530Y-81222752D01*
X91881000Y-81222752D01*
X91881000Y-81623000D01*
G36*
X91881000Y-81623000D02*
G01*
X90781530Y-81623000D01*
X90781530Y-81222752D01*
X91881000Y-81222752D01*
X91881000Y-81623000D01*
G37*
X87781000Y-82123000D02*
X86677190Y-82123000D01*
X86677190Y-81722707D01*
X87781000Y-81722707D01*
X87781000Y-82123000D01*
G36*
X87781000Y-82123000D02*
G01*
X86677190Y-82123000D01*
X86677190Y-81722707D01*
X87781000Y-81722707D01*
X87781000Y-82123000D01*
G37*
X91881000Y-82123000D02*
X90782650Y-82123000D01*
X90782650Y-81722780D01*
X91881000Y-81722780D01*
X91881000Y-82123000D01*
G36*
X91881000Y-82123000D02*
G01*
X90782650Y-82123000D01*
X90782650Y-81722780D01*
X91881000Y-81722780D01*
X91881000Y-82123000D01*
G37*
X91881000Y-82623000D02*
X90781340Y-82623000D01*
X90781340Y-82223069D01*
X91881000Y-82223069D01*
X91881000Y-82623000D01*
G36*
X91881000Y-82623000D02*
G01*
X90781340Y-82623000D01*
X90781340Y-82223069D01*
X91881000Y-82223069D01*
X91881000Y-82623000D01*
G37*
X87781000Y-82623000D02*
X86677490Y-82623000D01*
X86677490Y-82223405D01*
X87781000Y-82223405D01*
X87781000Y-82623000D01*
G36*
X87781000Y-82623000D02*
G01*
X86677490Y-82623000D01*
X86677490Y-82223405D01*
X87781000Y-82223405D01*
X87781000Y-82623000D01*
G37*
X91881000Y-83123000D02*
X90781660Y-83123000D01*
X90781660Y-82723351D01*
X91881000Y-82723351D01*
X91881000Y-83123000D01*
G36*
X91881000Y-83123000D02*
G01*
X90781660Y-83123000D01*
X90781660Y-82723351D01*
X91881000Y-82723351D01*
X91881000Y-83123000D01*
G37*
X87781000Y-83123000D02*
X86679400Y-83123000D01*
X86679400Y-82723491D01*
X87781000Y-82723491D01*
X87781000Y-83123000D01*
G36*
X87781000Y-83123000D02*
G01*
X86679400Y-83123000D01*
X86679400Y-82723491D01*
X87781000Y-82723491D01*
X87781000Y-83123000D01*
G37*
%TD*%
D14*
%TO.C,REF\u002A\u002A*%
X88992000Y-57237000D03*
X95992000Y-57237000D03*
D15*
X90242000Y-54737000D03*
X94742000Y-54737000D03*
%TD*%
D14*
%TO.C,REF\u002A\u002A*%
X104740000Y-57237000D03*
X111740000Y-57237000D03*
D15*
X105990000Y-54737000D03*
X110490000Y-54737000D03*
%TD*%
D14*
%TO.C,REF\u002A\u002A*%
X53523000Y-67687000D03*
X60523000Y-67687000D03*
D15*
X54773000Y-65187000D03*
X59273000Y-65187000D03*
%TD*%
D16*
%TO.C,REF\u002A\u002A*%
X82564000Y-84170000D03*
X82564000Y-90170000D03*
X82564000Y-86170000D03*
X82564000Y-92170000D03*
X82564000Y-88170000D03*
X82564000Y-94170000D03*
%TD*%
D17*
%TO.C,START*%
X95315000Y-114590000D03*
X103265000Y-114590000D03*
X95315000Y-119090000D03*
X103265000Y-119090000D03*
%TD*%
%TO.C,SELECT*%
X95315000Y-122210000D03*
X103265000Y-122210000D03*
X95315000Y-126710000D03*
X103265000Y-126710000D03*
%TD*%
D14*
%TO.C,REF\u002A\u002A*%
X114900000Y-57237000D03*
X121900000Y-57237000D03*
D15*
X116150000Y-54737000D03*
X120650000Y-54737000D03*
%TD*%
D18*
%TO.C,FPC*%
X100690000Y-92860000D03*
X100690000Y-91860000D03*
X100690000Y-90860000D03*
X100690000Y-89860000D03*
X100690000Y-88860000D03*
X100690000Y-87860000D03*
X100690000Y-86860000D03*
X100690000Y-85860000D03*
X100690000Y-84860000D03*
X100690000Y-83860000D03*
X100690000Y-82860000D03*
X100690000Y-81860000D03*
X100690000Y-80860000D03*
X100690000Y-79860000D03*
D19*
X103390000Y-95660000D03*
X103390000Y-77060000D03*
%TD*%
D16*
%TO.C,B_Sav*%
X90805000Y-139700000D03*
X88265000Y-139700000D03*
X93345000Y-139700000D03*
X95885000Y-139700000D03*
%TD*%
%TO.C,Bat_Man*%
X92730000Y-106075000D03*
X85110000Y-106075000D03*
X87650000Y-106075000D03*
X80030000Y-106075000D03*
X82570000Y-106075000D03*
X90190000Y-106075000D03*
%TD*%
D20*
%TO.C,Battery*%
X97289500Y-109835000D03*
D21*
X97289500Y-107335000D03*
%TD*%
D22*
%TO.C,USB C*%
X105240000Y-135190000D03*
X99460000Y-135190000D03*
D23*
X106670000Y-138870000D03*
D24*
X106670000Y-134670000D03*
D23*
X98030000Y-138870000D03*
D24*
X98030000Y-134670000D03*
%TD*%
%LPD*%
M02*
