%TF.GenerationSoftware,KiCad,Pcbnew,7.0.2-0*%
%TF.CreationDate,2025-01-26T18:27:37-07:00*%
%TF.ProjectId,LeftMB,4c656674-4d42-42e6-9b69-6361645f7063,rev?*%
%TF.SameCoordinates,Original*%
%TF.FileFunction,Drillmap*%
%TF.FilePolarity,Positive*%
%FSLAX45Y45*%
G04 Gerber Fmt 4.5, Leading zero omitted, Abs format (unit mm)*
G04 Created by KiCad (PCBNEW 7.0.2-0) date 2025-01-26 18:27:37*
%MOMM*%
%LPD*%
G01*
G04 APERTURE LIST*
%ADD10C,0.050000*%
%ADD11C,0.200000*%
%ADD12C,0.065000*%
G04 APERTURE END LIST*
D10*
X10325100Y-6616700D02*
G75*
G03*
X10325100Y-6616700I-100000J0D01*
G01*
X8140700Y-10160000D02*
G75*
G03*
X8140700Y-10160000I-100000J0D01*
G01*
X7721600Y-12852400D02*
X8659000Y-14097000D01*
X7721600Y-7340600D02*
X7721600Y-12852400D01*
X5207000Y-5969000D02*
X5207000Y-6997700D01*
X7808900Y-6629400D02*
G75*
G03*
X7808900Y-6629400I-100000J0D01*
G01*
X12331700Y-5207000D02*
X12331700Y-5930900D01*
X6832600Y-6769100D02*
G75*
G03*
X6832600Y-6769100I-100000J0D01*
G01*
X8786000Y-5969000D02*
X8788400Y-5207000D01*
X8496300Y-13411200D02*
G75*
G03*
X8496300Y-13411200I-100000J0D01*
G01*
X10083800Y-10223500D02*
G75*
G03*
X10083800Y-10223500I-100000J0D01*
G01*
X5207000Y-6997700D02*
X7378700Y-6997700D01*
X8659000Y-14097000D02*
X10818000Y-14097000D01*
X10147300Y-5549900D02*
G75*
G03*
X10147300Y-5549900I-100000J0D01*
G01*
X12331700Y-5930900D02*
X12331700Y-6070600D01*
X8788400Y-5207000D02*
X12331700Y-5207000D01*
X10820400Y-6070600D02*
X10818000Y-14097000D01*
X12331700Y-6070600D02*
X10820400Y-6070600D01*
X7378700Y-6997700D02*
X7721600Y-7340600D01*
X8786000Y-5969000D02*
X5207000Y-5969000D01*
D11*
D12*
X9913500Y-13486500D02*
X9978500Y-13551500D01*
X9978500Y-13486500D02*
X9913500Y-13551500D01*
X10491500Y-13486500D02*
X10556500Y-13551500D01*
X10556500Y-13486500D02*
X10491500Y-13551500D01*
D11*
X5452119Y-14412024D02*
X5452119Y-14212024D01*
X5452119Y-14212024D02*
X5499738Y-14212024D01*
X5499738Y-14212024D02*
X5528310Y-14221548D01*
X5528310Y-14221548D02*
X5547357Y-14240595D01*
X5547357Y-14240595D02*
X5556881Y-14259643D01*
X5556881Y-14259643D02*
X5566405Y-14297738D01*
X5566405Y-14297738D02*
X5566405Y-14326309D01*
X5566405Y-14326309D02*
X5556881Y-14364405D01*
X5556881Y-14364405D02*
X5547357Y-14383452D01*
X5547357Y-14383452D02*
X5528310Y-14402500D01*
X5528310Y-14402500D02*
X5499738Y-14412024D01*
X5499738Y-14412024D02*
X5452119Y-14412024D01*
X5652119Y-14412024D02*
X5652119Y-14278690D01*
X5652119Y-14316786D02*
X5661643Y-14297738D01*
X5661643Y-14297738D02*
X5671167Y-14288214D01*
X5671167Y-14288214D02*
X5690214Y-14278690D01*
X5690214Y-14278690D02*
X5709262Y-14278690D01*
X5775928Y-14412024D02*
X5775928Y-14278690D01*
X5775928Y-14212024D02*
X5766405Y-14221548D01*
X5766405Y-14221548D02*
X5775928Y-14231071D01*
X5775928Y-14231071D02*
X5785452Y-14221548D01*
X5785452Y-14221548D02*
X5775928Y-14212024D01*
X5775928Y-14212024D02*
X5775928Y-14231071D01*
X5899738Y-14412024D02*
X5880690Y-14402500D01*
X5880690Y-14402500D02*
X5871167Y-14383452D01*
X5871167Y-14383452D02*
X5871167Y-14212024D01*
X6004500Y-14412024D02*
X5985452Y-14402500D01*
X5985452Y-14402500D02*
X5975928Y-14383452D01*
X5975928Y-14383452D02*
X5975928Y-14212024D01*
X6233071Y-14412024D02*
X6233071Y-14212024D01*
X6233071Y-14212024D02*
X6299738Y-14354881D01*
X6299738Y-14354881D02*
X6366405Y-14212024D01*
X6366405Y-14212024D02*
X6366405Y-14412024D01*
X6547357Y-14412024D02*
X6547357Y-14307262D01*
X6547357Y-14307262D02*
X6537833Y-14288214D01*
X6537833Y-14288214D02*
X6518786Y-14278690D01*
X6518786Y-14278690D02*
X6480690Y-14278690D01*
X6480690Y-14278690D02*
X6461643Y-14288214D01*
X6547357Y-14402500D02*
X6528309Y-14412024D01*
X6528309Y-14412024D02*
X6480690Y-14412024D01*
X6480690Y-14412024D02*
X6461643Y-14402500D01*
X6461643Y-14402500D02*
X6452119Y-14383452D01*
X6452119Y-14383452D02*
X6452119Y-14364405D01*
X6452119Y-14364405D02*
X6461643Y-14345357D01*
X6461643Y-14345357D02*
X6480690Y-14335833D01*
X6480690Y-14335833D02*
X6528309Y-14335833D01*
X6528309Y-14335833D02*
X6547357Y-14326309D01*
X6642595Y-14278690D02*
X6642595Y-14478690D01*
X6642595Y-14288214D02*
X6661643Y-14278690D01*
X6661643Y-14278690D02*
X6699738Y-14278690D01*
X6699738Y-14278690D02*
X6718786Y-14288214D01*
X6718786Y-14288214D02*
X6728309Y-14297738D01*
X6728309Y-14297738D02*
X6737833Y-14316786D01*
X6737833Y-14316786D02*
X6737833Y-14373928D01*
X6737833Y-14373928D02*
X6728309Y-14392976D01*
X6728309Y-14392976D02*
X6718786Y-14402500D01*
X6718786Y-14402500D02*
X6699738Y-14412024D01*
X6699738Y-14412024D02*
X6661643Y-14412024D01*
X6661643Y-14412024D02*
X6642595Y-14402500D01*
X6823548Y-14392976D02*
X6833071Y-14402500D01*
X6833071Y-14402500D02*
X6823548Y-14412024D01*
X6823548Y-14412024D02*
X6814024Y-14402500D01*
X6814024Y-14402500D02*
X6823548Y-14392976D01*
X6823548Y-14392976D02*
X6823548Y-14412024D01*
X6823548Y-14288214D02*
X6833071Y-14297738D01*
X6833071Y-14297738D02*
X6823548Y-14307262D01*
X6823548Y-14307262D02*
X6814024Y-14297738D01*
X6814024Y-14297738D02*
X6823548Y-14288214D01*
X6823548Y-14288214D02*
X6823548Y-14307262D01*
D12*
X5139500Y-14707000D02*
X5204500Y-14772000D01*
X5204500Y-14707000D02*
X5139500Y-14772000D01*
D11*
X5490214Y-14632024D02*
X5509262Y-14632024D01*
X5509262Y-14632024D02*
X5528310Y-14641548D01*
X5528310Y-14641548D02*
X5537833Y-14651071D01*
X5537833Y-14651071D02*
X5547357Y-14670119D01*
X5547357Y-14670119D02*
X5556881Y-14708214D01*
X5556881Y-14708214D02*
X5556881Y-14755833D01*
X5556881Y-14755833D02*
X5547357Y-14793928D01*
X5547357Y-14793928D02*
X5537833Y-14812976D01*
X5537833Y-14812976D02*
X5528310Y-14822500D01*
X5528310Y-14822500D02*
X5509262Y-14832024D01*
X5509262Y-14832024D02*
X5490214Y-14832024D01*
X5490214Y-14832024D02*
X5471167Y-14822500D01*
X5471167Y-14822500D02*
X5461643Y-14812976D01*
X5461643Y-14812976D02*
X5452119Y-14793928D01*
X5452119Y-14793928D02*
X5442595Y-14755833D01*
X5442595Y-14755833D02*
X5442595Y-14708214D01*
X5442595Y-14708214D02*
X5452119Y-14670119D01*
X5452119Y-14670119D02*
X5461643Y-14651071D01*
X5461643Y-14651071D02*
X5471167Y-14641548D01*
X5471167Y-14641548D02*
X5490214Y-14632024D01*
X5642595Y-14812976D02*
X5652119Y-14822500D01*
X5652119Y-14822500D02*
X5642595Y-14832024D01*
X5642595Y-14832024D02*
X5633071Y-14822500D01*
X5633071Y-14822500D02*
X5642595Y-14812976D01*
X5642595Y-14812976D02*
X5642595Y-14832024D01*
X5823548Y-14632024D02*
X5785452Y-14632024D01*
X5785452Y-14632024D02*
X5766405Y-14641548D01*
X5766405Y-14641548D02*
X5756881Y-14651071D01*
X5756881Y-14651071D02*
X5737833Y-14679643D01*
X5737833Y-14679643D02*
X5728309Y-14717738D01*
X5728309Y-14717738D02*
X5728309Y-14793928D01*
X5728309Y-14793928D02*
X5737833Y-14812976D01*
X5737833Y-14812976D02*
X5747357Y-14822500D01*
X5747357Y-14822500D02*
X5766405Y-14832024D01*
X5766405Y-14832024D02*
X5804500Y-14832024D01*
X5804500Y-14832024D02*
X5823548Y-14822500D01*
X5823548Y-14822500D02*
X5833071Y-14812976D01*
X5833071Y-14812976D02*
X5842595Y-14793928D01*
X5842595Y-14793928D02*
X5842595Y-14746309D01*
X5842595Y-14746309D02*
X5833071Y-14727262D01*
X5833071Y-14727262D02*
X5823548Y-14717738D01*
X5823548Y-14717738D02*
X5804500Y-14708214D01*
X5804500Y-14708214D02*
X5766405Y-14708214D01*
X5766405Y-14708214D02*
X5747357Y-14717738D01*
X5747357Y-14717738D02*
X5737833Y-14727262D01*
X5737833Y-14727262D02*
X5728309Y-14746309D01*
X6023548Y-14632024D02*
X5928309Y-14632024D01*
X5928309Y-14632024D02*
X5918786Y-14727262D01*
X5918786Y-14727262D02*
X5928309Y-14717738D01*
X5928309Y-14717738D02*
X5947357Y-14708214D01*
X5947357Y-14708214D02*
X5994976Y-14708214D01*
X5994976Y-14708214D02*
X6014024Y-14717738D01*
X6014024Y-14717738D02*
X6023548Y-14727262D01*
X6023548Y-14727262D02*
X6033071Y-14746309D01*
X6033071Y-14746309D02*
X6033071Y-14793928D01*
X6033071Y-14793928D02*
X6023548Y-14812976D01*
X6023548Y-14812976D02*
X6014024Y-14822500D01*
X6014024Y-14822500D02*
X5994976Y-14832024D01*
X5994976Y-14832024D02*
X5947357Y-14832024D01*
X5947357Y-14832024D02*
X5928309Y-14822500D01*
X5928309Y-14822500D02*
X5918786Y-14812976D01*
X6156881Y-14632024D02*
X6175929Y-14632024D01*
X6175929Y-14632024D02*
X6194976Y-14641548D01*
X6194976Y-14641548D02*
X6204500Y-14651071D01*
X6204500Y-14651071D02*
X6214024Y-14670119D01*
X6214024Y-14670119D02*
X6223548Y-14708214D01*
X6223548Y-14708214D02*
X6223548Y-14755833D01*
X6223548Y-14755833D02*
X6214024Y-14793928D01*
X6214024Y-14793928D02*
X6204500Y-14812976D01*
X6204500Y-14812976D02*
X6194976Y-14822500D01*
X6194976Y-14822500D02*
X6175929Y-14832024D01*
X6175929Y-14832024D02*
X6156881Y-14832024D01*
X6156881Y-14832024D02*
X6137833Y-14822500D01*
X6137833Y-14822500D02*
X6128309Y-14812976D01*
X6128309Y-14812976D02*
X6118786Y-14793928D01*
X6118786Y-14793928D02*
X6109262Y-14755833D01*
X6109262Y-14755833D02*
X6109262Y-14708214D01*
X6109262Y-14708214D02*
X6118786Y-14670119D01*
X6118786Y-14670119D02*
X6128309Y-14651071D01*
X6128309Y-14651071D02*
X6137833Y-14641548D01*
X6137833Y-14641548D02*
X6156881Y-14632024D01*
X6309262Y-14832024D02*
X6309262Y-14698690D01*
X6309262Y-14717738D02*
X6318786Y-14708214D01*
X6318786Y-14708214D02*
X6337833Y-14698690D01*
X6337833Y-14698690D02*
X6366405Y-14698690D01*
X6366405Y-14698690D02*
X6385452Y-14708214D01*
X6385452Y-14708214D02*
X6394976Y-14727262D01*
X6394976Y-14727262D02*
X6394976Y-14832024D01*
X6394976Y-14727262D02*
X6404500Y-14708214D01*
X6404500Y-14708214D02*
X6423548Y-14698690D01*
X6423548Y-14698690D02*
X6452119Y-14698690D01*
X6452119Y-14698690D02*
X6471167Y-14708214D01*
X6471167Y-14708214D02*
X6480690Y-14727262D01*
X6480690Y-14727262D02*
X6480690Y-14832024D01*
X6575929Y-14832024D02*
X6575929Y-14698690D01*
X6575929Y-14717738D02*
X6585452Y-14708214D01*
X6585452Y-14708214D02*
X6604500Y-14698690D01*
X6604500Y-14698690D02*
X6633071Y-14698690D01*
X6633071Y-14698690D02*
X6652119Y-14708214D01*
X6652119Y-14708214D02*
X6661643Y-14727262D01*
X6661643Y-14727262D02*
X6661643Y-14832024D01*
X6661643Y-14727262D02*
X6671167Y-14708214D01*
X6671167Y-14708214D02*
X6690214Y-14698690D01*
X6690214Y-14698690D02*
X6718786Y-14698690D01*
X6718786Y-14698690D02*
X6737833Y-14708214D01*
X6737833Y-14708214D02*
X6747357Y-14727262D01*
X6747357Y-14727262D02*
X6747357Y-14832024D01*
X7137833Y-14622500D02*
X6966405Y-14879643D01*
X7394976Y-14632024D02*
X7414024Y-14632024D01*
X7414024Y-14632024D02*
X7433072Y-14641548D01*
X7433072Y-14641548D02*
X7442595Y-14651071D01*
X7442595Y-14651071D02*
X7452119Y-14670119D01*
X7452119Y-14670119D02*
X7461643Y-14708214D01*
X7461643Y-14708214D02*
X7461643Y-14755833D01*
X7461643Y-14755833D02*
X7452119Y-14793928D01*
X7452119Y-14793928D02*
X7442595Y-14812976D01*
X7442595Y-14812976D02*
X7433072Y-14822500D01*
X7433072Y-14822500D02*
X7414024Y-14832024D01*
X7414024Y-14832024D02*
X7394976Y-14832024D01*
X7394976Y-14832024D02*
X7375929Y-14822500D01*
X7375929Y-14822500D02*
X7366405Y-14812976D01*
X7366405Y-14812976D02*
X7356881Y-14793928D01*
X7356881Y-14793928D02*
X7347357Y-14755833D01*
X7347357Y-14755833D02*
X7347357Y-14708214D01*
X7347357Y-14708214D02*
X7356881Y-14670119D01*
X7356881Y-14670119D02*
X7366405Y-14651071D01*
X7366405Y-14651071D02*
X7375929Y-14641548D01*
X7375929Y-14641548D02*
X7394976Y-14632024D01*
X7547357Y-14812976D02*
X7556881Y-14822500D01*
X7556881Y-14822500D02*
X7547357Y-14832024D01*
X7547357Y-14832024D02*
X7537833Y-14822500D01*
X7537833Y-14822500D02*
X7547357Y-14812976D01*
X7547357Y-14812976D02*
X7547357Y-14832024D01*
X7680691Y-14632024D02*
X7699738Y-14632024D01*
X7699738Y-14632024D02*
X7718786Y-14641548D01*
X7718786Y-14641548D02*
X7728310Y-14651071D01*
X7728310Y-14651071D02*
X7737833Y-14670119D01*
X7737833Y-14670119D02*
X7747357Y-14708214D01*
X7747357Y-14708214D02*
X7747357Y-14755833D01*
X7747357Y-14755833D02*
X7737833Y-14793928D01*
X7737833Y-14793928D02*
X7728310Y-14812976D01*
X7728310Y-14812976D02*
X7718786Y-14822500D01*
X7718786Y-14822500D02*
X7699738Y-14832024D01*
X7699738Y-14832024D02*
X7680691Y-14832024D01*
X7680691Y-14832024D02*
X7661643Y-14822500D01*
X7661643Y-14822500D02*
X7652119Y-14812976D01*
X7652119Y-14812976D02*
X7642595Y-14793928D01*
X7642595Y-14793928D02*
X7633072Y-14755833D01*
X7633072Y-14755833D02*
X7633072Y-14708214D01*
X7633072Y-14708214D02*
X7642595Y-14670119D01*
X7642595Y-14670119D02*
X7652119Y-14651071D01*
X7652119Y-14651071D02*
X7661643Y-14641548D01*
X7661643Y-14641548D02*
X7680691Y-14632024D01*
X7823548Y-14651071D02*
X7833072Y-14641548D01*
X7833072Y-14641548D02*
X7852119Y-14632024D01*
X7852119Y-14632024D02*
X7899738Y-14632024D01*
X7899738Y-14632024D02*
X7918786Y-14641548D01*
X7918786Y-14641548D02*
X7928310Y-14651071D01*
X7928310Y-14651071D02*
X7937833Y-14670119D01*
X7937833Y-14670119D02*
X7937833Y-14689167D01*
X7937833Y-14689167D02*
X7928310Y-14717738D01*
X7928310Y-14717738D02*
X7814024Y-14832024D01*
X7814024Y-14832024D02*
X7937833Y-14832024D01*
X8118786Y-14632024D02*
X8023548Y-14632024D01*
X8023548Y-14632024D02*
X8014024Y-14727262D01*
X8014024Y-14727262D02*
X8023548Y-14717738D01*
X8023548Y-14717738D02*
X8042595Y-14708214D01*
X8042595Y-14708214D02*
X8090214Y-14708214D01*
X8090214Y-14708214D02*
X8109262Y-14717738D01*
X8109262Y-14717738D02*
X8118786Y-14727262D01*
X8118786Y-14727262D02*
X8128310Y-14746309D01*
X8128310Y-14746309D02*
X8128310Y-14793928D01*
X8128310Y-14793928D02*
X8118786Y-14812976D01*
X8118786Y-14812976D02*
X8109262Y-14822500D01*
X8109262Y-14822500D02*
X8090214Y-14832024D01*
X8090214Y-14832024D02*
X8042595Y-14832024D01*
X8042595Y-14832024D02*
X8023548Y-14822500D01*
X8023548Y-14822500D02*
X8014024Y-14812976D01*
X8299738Y-14632024D02*
X8261643Y-14632024D01*
X8261643Y-14632024D02*
X8242595Y-14641548D01*
X8242595Y-14641548D02*
X8233072Y-14651071D01*
X8233072Y-14651071D02*
X8214024Y-14679643D01*
X8214024Y-14679643D02*
X8204500Y-14717738D01*
X8204500Y-14717738D02*
X8204500Y-14793928D01*
X8204500Y-14793928D02*
X8214024Y-14812976D01*
X8214024Y-14812976D02*
X8223548Y-14822500D01*
X8223548Y-14822500D02*
X8242595Y-14832024D01*
X8242595Y-14832024D02*
X8280691Y-14832024D01*
X8280691Y-14832024D02*
X8299738Y-14822500D01*
X8299738Y-14822500D02*
X8309262Y-14812976D01*
X8309262Y-14812976D02*
X8318786Y-14793928D01*
X8318786Y-14793928D02*
X8318786Y-14746309D01*
X8318786Y-14746309D02*
X8309262Y-14727262D01*
X8309262Y-14727262D02*
X8299738Y-14717738D01*
X8299738Y-14717738D02*
X8280691Y-14708214D01*
X8280691Y-14708214D02*
X8242595Y-14708214D01*
X8242595Y-14708214D02*
X8223548Y-14717738D01*
X8223548Y-14717738D02*
X8214024Y-14727262D01*
X8214024Y-14727262D02*
X8204500Y-14746309D01*
X8394976Y-14632024D02*
X8394976Y-14670119D01*
X8471167Y-14632024D02*
X8471167Y-14670119D01*
X8766405Y-14908214D02*
X8756881Y-14898690D01*
X8756881Y-14898690D02*
X8737834Y-14870119D01*
X8737834Y-14870119D02*
X8728310Y-14851071D01*
X8728310Y-14851071D02*
X8718786Y-14822500D01*
X8718786Y-14822500D02*
X8709262Y-14774881D01*
X8709262Y-14774881D02*
X8709262Y-14736786D01*
X8709262Y-14736786D02*
X8718786Y-14689167D01*
X8718786Y-14689167D02*
X8728310Y-14660595D01*
X8728310Y-14660595D02*
X8737834Y-14641548D01*
X8737834Y-14641548D02*
X8756881Y-14612976D01*
X8756881Y-14612976D02*
X8766405Y-14603452D01*
X8833072Y-14651071D02*
X8842596Y-14641548D01*
X8842596Y-14641548D02*
X8861643Y-14632024D01*
X8861643Y-14632024D02*
X8909262Y-14632024D01*
X8909262Y-14632024D02*
X8928310Y-14641548D01*
X8928310Y-14641548D02*
X8937834Y-14651071D01*
X8937834Y-14651071D02*
X8947357Y-14670119D01*
X8947357Y-14670119D02*
X8947357Y-14689167D01*
X8947357Y-14689167D02*
X8937834Y-14717738D01*
X8937834Y-14717738D02*
X8823548Y-14832024D01*
X8823548Y-14832024D02*
X8947357Y-14832024D01*
X9185453Y-14832024D02*
X9185453Y-14632024D01*
X9271167Y-14832024D02*
X9271167Y-14727262D01*
X9271167Y-14727262D02*
X9261643Y-14708214D01*
X9261643Y-14708214D02*
X9242596Y-14698690D01*
X9242596Y-14698690D02*
X9214024Y-14698690D01*
X9214024Y-14698690D02*
X9194977Y-14708214D01*
X9194977Y-14708214D02*
X9185453Y-14717738D01*
X9394977Y-14832024D02*
X9375929Y-14822500D01*
X9375929Y-14822500D02*
X9366405Y-14812976D01*
X9366405Y-14812976D02*
X9356881Y-14793928D01*
X9356881Y-14793928D02*
X9356881Y-14736786D01*
X9356881Y-14736786D02*
X9366405Y-14717738D01*
X9366405Y-14717738D02*
X9375929Y-14708214D01*
X9375929Y-14708214D02*
X9394977Y-14698690D01*
X9394977Y-14698690D02*
X9423548Y-14698690D01*
X9423548Y-14698690D02*
X9442596Y-14708214D01*
X9442596Y-14708214D02*
X9452119Y-14717738D01*
X9452119Y-14717738D02*
X9461643Y-14736786D01*
X9461643Y-14736786D02*
X9461643Y-14793928D01*
X9461643Y-14793928D02*
X9452119Y-14812976D01*
X9452119Y-14812976D02*
X9442596Y-14822500D01*
X9442596Y-14822500D02*
X9423548Y-14832024D01*
X9423548Y-14832024D02*
X9394977Y-14832024D01*
X9575929Y-14832024D02*
X9556881Y-14822500D01*
X9556881Y-14822500D02*
X9547358Y-14803452D01*
X9547358Y-14803452D02*
X9547358Y-14632024D01*
X9728310Y-14822500D02*
X9709262Y-14832024D01*
X9709262Y-14832024D02*
X9671167Y-14832024D01*
X9671167Y-14832024D02*
X9652119Y-14822500D01*
X9652119Y-14822500D02*
X9642596Y-14803452D01*
X9642596Y-14803452D02*
X9642596Y-14727262D01*
X9642596Y-14727262D02*
X9652119Y-14708214D01*
X9652119Y-14708214D02*
X9671167Y-14698690D01*
X9671167Y-14698690D02*
X9709262Y-14698690D01*
X9709262Y-14698690D02*
X9728310Y-14708214D01*
X9728310Y-14708214D02*
X9737834Y-14727262D01*
X9737834Y-14727262D02*
X9737834Y-14746309D01*
X9737834Y-14746309D02*
X9642596Y-14765357D01*
X9814024Y-14822500D02*
X9833072Y-14832024D01*
X9833072Y-14832024D02*
X9871167Y-14832024D01*
X9871167Y-14832024D02*
X9890215Y-14822500D01*
X9890215Y-14822500D02*
X9899739Y-14803452D01*
X9899739Y-14803452D02*
X9899739Y-14793928D01*
X9899739Y-14793928D02*
X9890215Y-14774881D01*
X9890215Y-14774881D02*
X9871167Y-14765357D01*
X9871167Y-14765357D02*
X9842596Y-14765357D01*
X9842596Y-14765357D02*
X9823548Y-14755833D01*
X9823548Y-14755833D02*
X9814024Y-14736786D01*
X9814024Y-14736786D02*
X9814024Y-14727262D01*
X9814024Y-14727262D02*
X9823548Y-14708214D01*
X9823548Y-14708214D02*
X9842596Y-14698690D01*
X9842596Y-14698690D02*
X9871167Y-14698690D01*
X9871167Y-14698690D02*
X9890215Y-14708214D01*
X9966405Y-14908214D02*
X9975929Y-14898690D01*
X9975929Y-14898690D02*
X9994977Y-14870119D01*
X9994977Y-14870119D02*
X10004500Y-14851071D01*
X10004500Y-14851071D02*
X10014024Y-14822500D01*
X10014024Y-14822500D02*
X10023548Y-14774881D01*
X10023548Y-14774881D02*
X10023548Y-14736786D01*
X10023548Y-14736786D02*
X10014024Y-14689167D01*
X10014024Y-14689167D02*
X10004500Y-14660595D01*
X10004500Y-14660595D02*
X9994977Y-14641548D01*
X9994977Y-14641548D02*
X9975929Y-14612976D01*
X9975929Y-14612976D02*
X9966405Y-14603452D01*
X10328310Y-14908214D02*
X10318786Y-14898690D01*
X10318786Y-14898690D02*
X10299739Y-14870119D01*
X10299739Y-14870119D02*
X10290215Y-14851071D01*
X10290215Y-14851071D02*
X10280691Y-14822500D01*
X10280691Y-14822500D02*
X10271167Y-14774881D01*
X10271167Y-14774881D02*
X10271167Y-14736786D01*
X10271167Y-14736786D02*
X10280691Y-14689167D01*
X10280691Y-14689167D02*
X10290215Y-14660595D01*
X10290215Y-14660595D02*
X10299739Y-14641548D01*
X10299739Y-14641548D02*
X10318786Y-14612976D01*
X10318786Y-14612976D02*
X10328310Y-14603452D01*
X10404500Y-14698690D02*
X10404500Y-14832024D01*
X10404500Y-14717738D02*
X10414024Y-14708214D01*
X10414024Y-14708214D02*
X10433072Y-14698690D01*
X10433072Y-14698690D02*
X10461643Y-14698690D01*
X10461643Y-14698690D02*
X10480691Y-14708214D01*
X10480691Y-14708214D02*
X10490215Y-14727262D01*
X10490215Y-14727262D02*
X10490215Y-14832024D01*
X10614024Y-14832024D02*
X10594977Y-14822500D01*
X10594977Y-14822500D02*
X10585453Y-14812976D01*
X10585453Y-14812976D02*
X10575929Y-14793928D01*
X10575929Y-14793928D02*
X10575929Y-14736786D01*
X10575929Y-14736786D02*
X10585453Y-14717738D01*
X10585453Y-14717738D02*
X10594977Y-14708214D01*
X10594977Y-14708214D02*
X10614024Y-14698690D01*
X10614024Y-14698690D02*
X10642596Y-14698690D01*
X10642596Y-14698690D02*
X10661643Y-14708214D01*
X10661643Y-14708214D02*
X10671167Y-14717738D01*
X10671167Y-14717738D02*
X10680691Y-14736786D01*
X10680691Y-14736786D02*
X10680691Y-14793928D01*
X10680691Y-14793928D02*
X10671167Y-14812976D01*
X10671167Y-14812976D02*
X10661643Y-14822500D01*
X10661643Y-14822500D02*
X10642596Y-14832024D01*
X10642596Y-14832024D02*
X10614024Y-14832024D01*
X10737834Y-14698690D02*
X10814024Y-14698690D01*
X10766405Y-14632024D02*
X10766405Y-14803452D01*
X10766405Y-14803452D02*
X10775929Y-14822500D01*
X10775929Y-14822500D02*
X10794977Y-14832024D01*
X10794977Y-14832024D02*
X10814024Y-14832024D01*
X11033072Y-14698690D02*
X11033072Y-14898690D01*
X11033072Y-14708214D02*
X11052120Y-14698690D01*
X11052120Y-14698690D02*
X11090215Y-14698690D01*
X11090215Y-14698690D02*
X11109262Y-14708214D01*
X11109262Y-14708214D02*
X11118786Y-14717738D01*
X11118786Y-14717738D02*
X11128310Y-14736786D01*
X11128310Y-14736786D02*
X11128310Y-14793928D01*
X11128310Y-14793928D02*
X11118786Y-14812976D01*
X11118786Y-14812976D02*
X11109262Y-14822500D01*
X11109262Y-14822500D02*
X11090215Y-14832024D01*
X11090215Y-14832024D02*
X11052120Y-14832024D01*
X11052120Y-14832024D02*
X11033072Y-14822500D01*
X11242596Y-14832024D02*
X11223548Y-14822500D01*
X11223548Y-14822500D02*
X11214024Y-14803452D01*
X11214024Y-14803452D02*
X11214024Y-14632024D01*
X11404500Y-14832024D02*
X11404500Y-14727262D01*
X11404500Y-14727262D02*
X11394977Y-14708214D01*
X11394977Y-14708214D02*
X11375929Y-14698690D01*
X11375929Y-14698690D02*
X11337834Y-14698690D01*
X11337834Y-14698690D02*
X11318786Y-14708214D01*
X11404500Y-14822500D02*
X11385453Y-14832024D01*
X11385453Y-14832024D02*
X11337834Y-14832024D01*
X11337834Y-14832024D02*
X11318786Y-14822500D01*
X11318786Y-14822500D02*
X11309262Y-14803452D01*
X11309262Y-14803452D02*
X11309262Y-14784405D01*
X11309262Y-14784405D02*
X11318786Y-14765357D01*
X11318786Y-14765357D02*
X11337834Y-14755833D01*
X11337834Y-14755833D02*
X11385453Y-14755833D01*
X11385453Y-14755833D02*
X11404500Y-14746309D01*
X11471167Y-14698690D02*
X11547358Y-14698690D01*
X11499739Y-14632024D02*
X11499739Y-14803452D01*
X11499739Y-14803452D02*
X11509262Y-14822500D01*
X11509262Y-14822500D02*
X11528310Y-14832024D01*
X11528310Y-14832024D02*
X11547358Y-14832024D01*
X11690215Y-14822500D02*
X11671167Y-14832024D01*
X11671167Y-14832024D02*
X11633072Y-14832024D01*
X11633072Y-14832024D02*
X11614024Y-14822500D01*
X11614024Y-14822500D02*
X11604500Y-14803452D01*
X11604500Y-14803452D02*
X11604500Y-14727262D01*
X11604500Y-14727262D02*
X11614024Y-14708214D01*
X11614024Y-14708214D02*
X11633072Y-14698690D01*
X11633072Y-14698690D02*
X11671167Y-14698690D01*
X11671167Y-14698690D02*
X11690215Y-14708214D01*
X11690215Y-14708214D02*
X11699739Y-14727262D01*
X11699739Y-14727262D02*
X11699739Y-14746309D01*
X11699739Y-14746309D02*
X11604500Y-14765357D01*
X11871167Y-14832024D02*
X11871167Y-14632024D01*
X11871167Y-14822500D02*
X11852120Y-14832024D01*
X11852120Y-14832024D02*
X11814024Y-14832024D01*
X11814024Y-14832024D02*
X11794977Y-14822500D01*
X11794977Y-14822500D02*
X11785453Y-14812976D01*
X11785453Y-14812976D02*
X11775929Y-14793928D01*
X11775929Y-14793928D02*
X11775929Y-14736786D01*
X11775929Y-14736786D02*
X11785453Y-14717738D01*
X11785453Y-14717738D02*
X11794977Y-14708214D01*
X11794977Y-14708214D02*
X11814024Y-14698690D01*
X11814024Y-14698690D02*
X11852120Y-14698690D01*
X11852120Y-14698690D02*
X11871167Y-14708214D01*
X11947358Y-14908214D02*
X11956881Y-14898690D01*
X11956881Y-14898690D02*
X11975929Y-14870119D01*
X11975929Y-14870119D02*
X11985453Y-14851071D01*
X11985453Y-14851071D02*
X11994977Y-14822500D01*
X11994977Y-14822500D02*
X12004500Y-14774881D01*
X12004500Y-14774881D02*
X12004500Y-14736786D01*
X12004500Y-14736786D02*
X11994977Y-14689167D01*
X11994977Y-14689167D02*
X11985453Y-14660595D01*
X11985453Y-14660595D02*
X11975929Y-14641548D01*
X11975929Y-14641548D02*
X11956881Y-14612976D01*
X11956881Y-14612976D02*
X11947358Y-14603452D01*
M02*
