%TF.GenerationSoftware,KiCad,Pcbnew,7.0.2-0*%
%TF.CreationDate,2025-01-26T18:27:29-07:00*%
%TF.ProjectId,LeftMB,4c656674-4d42-42e6-9b69-6361645f7063,rev?*%
%TF.SameCoordinates,Original*%
%TF.FileFunction,Soldermask,Bot*%
%TF.FilePolarity,Negative*%
%FSLAX46Y46*%
G04 Gerber Fmt 4.6, Leading zero omitted, Abs format (unit mm)*
G04 Created by KiCad (PCBNEW 7.0.2-0) date 2025-01-26 18:27:29*
%MOMM*%
%LPD*%
G01*
G04 APERTURE LIST*
G04 Aperture macros list*
%AMRoundRect*
0 Rectangle with rounded corners*
0 $1 Rounding radius*
0 $2 $3 $4 $5 $6 $7 $8 $9 X,Y pos of 4 corners*
0 Add a 4 corners polygon primitive as box body*
4,1,4,$2,$3,$4,$5,$6,$7,$8,$9,$2,$3,0*
0 Add four circle primitives for the rounded corners*
1,1,$1+$1,$2,$3*
1,1,$1+$1,$4,$5*
1,1,$1+$1,$6,$7*
1,1,$1+$1,$8,$9*
0 Add four rect primitives between the rounded corners*
20,1,$1+$1,$2,$3,$4,$5,0*
20,1,$1+$1,$4,$5,$6,$7,0*
20,1,$1+$1,$6,$7,$8,$9,0*
20,1,$1+$1,$8,$9,$2,$3,0*%
G04 Aperture macros list end*
%ADD10C,2.200000*%
%ADD11C,1.700000*%
%ADD12C,1.524000*%
%ADD13RoundRect,0.250000X0.750000X-0.600000X0.750000X0.600000X-0.750000X0.600000X-0.750000X-0.600000X0*%
%ADD14O,2.000000X1.700000*%
%ADD15C,0.650000*%
%ADD16R,0.600000X1.240000*%
%ADD17R,0.300000X1.240000*%
%ADD18O,1.000000X1.800000*%
%ADD19O,1.000000X2.100000*%
G04 APERTURE END LIST*
D10*
%TO.C,REF\u002A\u002A*%
X88992000Y-57237000D03*
X95992000Y-57237000D03*
D11*
X90242000Y-54737000D03*
X94742000Y-54737000D03*
%TD*%
D10*
%TO.C,REF\u002A\u002A*%
X104740000Y-57237000D03*
X111740000Y-57237000D03*
D11*
X105990000Y-54737000D03*
X110490000Y-54737000D03*
%TD*%
D10*
%TO.C,REF\u002A\u002A*%
X53523000Y-67687000D03*
X60523000Y-67687000D03*
D11*
X54773000Y-65187000D03*
X59273000Y-65187000D03*
%TD*%
D12*
%TO.C,REF\u002A\u002A*%
X82564000Y-84170000D03*
X82564000Y-90170000D03*
X82564000Y-86170000D03*
X82564000Y-92170000D03*
X82564000Y-88170000D03*
X82564000Y-94170000D03*
%TD*%
D10*
%TO.C,REF\u002A\u002A*%
X114900000Y-57237000D03*
X121900000Y-57237000D03*
D11*
X116150000Y-54737000D03*
X120650000Y-54737000D03*
%TD*%
D12*
%TO.C,B_Sav*%
X90805000Y-139700000D03*
X88265000Y-139700000D03*
X93345000Y-139700000D03*
X95885000Y-139700000D03*
%TD*%
%TO.C,Bat_Man*%
X92730000Y-106075000D03*
X85110000Y-106075000D03*
X87650000Y-106075000D03*
X80030000Y-106075000D03*
X82570000Y-106075000D03*
X90190000Y-106075000D03*
%TD*%
D13*
%TO.C,Battery*%
X97289500Y-109835000D03*
D14*
X97289500Y-107335000D03*
%TD*%
D15*
%TO.C,USB C*%
X105240000Y-135190000D03*
X99460000Y-135190000D03*
D16*
X105550000Y-134070000D03*
X104750000Y-134070000D03*
D17*
X103600000Y-134070000D03*
X102600000Y-134070000D03*
X102100000Y-134070000D03*
X101100000Y-134070000D03*
D16*
X99950000Y-134070000D03*
X99150000Y-134070000D03*
X99150000Y-134070000D03*
X99950000Y-134070000D03*
D17*
X100600000Y-134070000D03*
X101600000Y-134070000D03*
X103100000Y-134070000D03*
X104100000Y-134070000D03*
D16*
X104750000Y-134070000D03*
X105550000Y-134070000D03*
D18*
X106670000Y-138870000D03*
D19*
X106670000Y-134670000D03*
D18*
X98030000Y-138870000D03*
D19*
X98030000Y-134670000D03*
%TD*%
M02*
