M48
; DRILL file {KiCad 7.0.2-0} date 2025 January 26, Sunday 18:27:34
; FORMAT={-:-/ absolute / inch / decimal}
; #@! TF.CreationDate,2025-01-26T18:27:34-07:00
; #@! TF.GenerationSoftware,Kicad,Pcbnew,7.0.2-0
; #@! TF.FileFunction,Plated,1,2,PTH
FMAT,2
INCH
; #@! TA.AperFunction,Plated,PTH,ViaDrill
T1C0.0079
; #@! TA.AperFunction,Plated,PTH,ViaDrill
T2C0.0118
; #@! TA.AperFunction,Plated,PTH,ViaDrill
T3C0.0157
; #@! TA.AperFunction,Plated,PTH,ComponentDrill
T4C0.0236
; #@! TA.AperFunction,Plated,PTH,ComponentDrill
T5C0.0300
; #@! TA.AperFunction,Plated,PTH,ComponentDrill
T6C0.0394
; #@! TA.AperFunction,Plated,PTH,ComponentDrill
T7C0.0512
%
G90
G05
T1
X3.86Y-3.125
X3.86Y-3.2622
X3.885Y-3.125
X3.885Y-3.3016
X3.91Y-3.125
X3.91Y-3.3409
T2
X3.365Y-3.225
X3.365Y-3.285
X3.47Y-3.47
X3.52Y-3.42
X3.65Y-3.38
X3.65Y-3.51
X3.655Y-3.165
X3.655Y-3.225
X3.85Y-5.125
X3.97Y-5.125
X4.0195Y-5.225
X4.025Y-5.175
X4.0595Y-5.225
X4.124Y-5.156
X4.125Y-5.095
T3
X3.525Y-5.0
X3.525Y-5.175
X3.575Y-5.0
X3.575Y-5.175
T5
X3.1508Y-4.1762
X3.2506Y-3.3138
X3.2506Y-3.3925
X3.2506Y-3.4713
X3.2506Y-3.55
X3.2506Y-3.6287
X3.2506Y-3.7075
X3.2508Y-4.1762
X3.3508Y-4.1762
X3.4508Y-4.1762
X3.475Y-5.5
X3.5508Y-4.1762
X3.575Y-5.5
X3.6508Y-4.1762
X3.675Y-5.5
X3.775Y-5.5
T6
X2.1564Y-2.5664
X2.3336Y-2.5664
X3.5528Y-2.155
X3.73Y-2.155
X3.8303Y-4.2258
X3.8303Y-4.3242
X4.1728Y-2.155
X4.35Y-2.155
X4.5728Y-2.155
X4.75Y-2.155
T7
X2.1072Y-2.6648
X2.3828Y-2.6648
X3.5036Y-2.2534
X3.7792Y-2.2534
X4.1236Y-2.2534
X4.3992Y-2.2534
X4.5236Y-2.2534
X4.7992Y-2.2534
T4
G00X3.8594Y-5.3236
M15
G01X3.8594Y-5.2803
M16
G05
G00X3.8594Y-5.4831
M15
G01X3.8594Y-5.4516
M16
G05
G00X4.1996Y-5.3236
M15
G01X4.1996Y-5.2803
M16
G05
G00X4.1996Y-5.4831
M15
G01X4.1996Y-5.4516
M16
G05
T0
M30
