%TF.GenerationSoftware,KiCad,Pcbnew,7.0.2-0*%
%TF.CreationDate,2025-01-26T18:28:25-07:00*%
%TF.ProjectId,RightMB,52696768-744d-4422-9e6b-696361645f70,rev?*%
%TF.SameCoordinates,Original*%
%TF.FileFunction,Drillmap*%
%TF.FilePolarity,Positive*%
%FSLAX45Y45*%
G04 Gerber Fmt 4.5, Leading zero omitted, Abs format (unit mm)*
G04 Created by KiCad (PCBNEW 7.0.2-0) date 2025-01-26 18:28:25*
%MOMM*%
%LPD*%
G01*
G04 APERTURE LIST*
%ADD10C,0.050000*%
%ADD11C,0.200000*%
G04 APERTURE END LIST*
D10*
X20739100Y-10744200D02*
X20751800Y-5969000D01*
X20345400Y-11137900D02*
X20739100Y-10744200D01*
X23723600Y-9271000D02*
G75*
G03*
X23723600Y-9271000I-100000J0D01*
G01*
X22783800Y-11049000D02*
G75*
G03*
X22783800Y-11049000I-100000J0D01*
G01*
X20345400Y-13563600D02*
X20345400Y-11137900D01*
X25019000Y-7188200D02*
X25234900Y-6972300D01*
X20345400Y-13563600D02*
X22123400Y-13563600D01*
X21577300Y-7620000D02*
G75*
G03*
X21577300Y-7620000I-100000J0D01*
G01*
X25019000Y-10566400D02*
X24117300Y-11468100D01*
X22987000Y-12700000D02*
X22123400Y-13563600D01*
X20751800Y-5969000D02*
X26073100Y-5969000D01*
X26073100Y-5969000D02*
X26073100Y-6972300D01*
X21474100Y-6235700D02*
G75*
G03*
X21474100Y-6235700I-100000J0D01*
G01*
X24320500Y-10795000D02*
G75*
G03*
X24320500Y-10795000I-100000J0D01*
G01*
X24117300Y-11468100D02*
X24117300Y-12039600D01*
X26073100Y-6972300D02*
X25234900Y-6972300D01*
X23456900Y-12700000D02*
X22987000Y-12700000D01*
X22148800Y-13309600D02*
G75*
G03*
X22148800Y-13309600I-100000J0D01*
G01*
X24117300Y-12039600D02*
X23456900Y-12700000D01*
X24320500Y-6705600D02*
G75*
G03*
X24320500Y-6705600I-100000J0D01*
G01*
X25019000Y-7188200D02*
X25019000Y-10566400D01*
D11*
X20590519Y-13878624D02*
X20590519Y-13678624D01*
X20590519Y-13678624D02*
X20638138Y-13678624D01*
X20638138Y-13678624D02*
X20666710Y-13688148D01*
X20666710Y-13688148D02*
X20685757Y-13707195D01*
X20685757Y-13707195D02*
X20695281Y-13726243D01*
X20695281Y-13726243D02*
X20704805Y-13764338D01*
X20704805Y-13764338D02*
X20704805Y-13792909D01*
X20704805Y-13792909D02*
X20695281Y-13831005D01*
X20695281Y-13831005D02*
X20685757Y-13850052D01*
X20685757Y-13850052D02*
X20666710Y-13869100D01*
X20666710Y-13869100D02*
X20638138Y-13878624D01*
X20638138Y-13878624D02*
X20590519Y-13878624D01*
X20790519Y-13878624D02*
X20790519Y-13745290D01*
X20790519Y-13783386D02*
X20800043Y-13764338D01*
X20800043Y-13764338D02*
X20809567Y-13754814D01*
X20809567Y-13754814D02*
X20828614Y-13745290D01*
X20828614Y-13745290D02*
X20847662Y-13745290D01*
X20914329Y-13878624D02*
X20914329Y-13745290D01*
X20914329Y-13678624D02*
X20904805Y-13688148D01*
X20904805Y-13688148D02*
X20914329Y-13697671D01*
X20914329Y-13697671D02*
X20923852Y-13688148D01*
X20923852Y-13688148D02*
X20914329Y-13678624D01*
X20914329Y-13678624D02*
X20914329Y-13697671D01*
X21038138Y-13878624D02*
X21019090Y-13869100D01*
X21019090Y-13869100D02*
X21009567Y-13850052D01*
X21009567Y-13850052D02*
X21009567Y-13678624D01*
X21142900Y-13878624D02*
X21123852Y-13869100D01*
X21123852Y-13869100D02*
X21114329Y-13850052D01*
X21114329Y-13850052D02*
X21114329Y-13678624D01*
X21371471Y-13878624D02*
X21371471Y-13678624D01*
X21371471Y-13678624D02*
X21438138Y-13821481D01*
X21438138Y-13821481D02*
X21504805Y-13678624D01*
X21504805Y-13678624D02*
X21504805Y-13878624D01*
X21685757Y-13878624D02*
X21685757Y-13773862D01*
X21685757Y-13773862D02*
X21676233Y-13754814D01*
X21676233Y-13754814D02*
X21657186Y-13745290D01*
X21657186Y-13745290D02*
X21619090Y-13745290D01*
X21619090Y-13745290D02*
X21600043Y-13754814D01*
X21685757Y-13869100D02*
X21666710Y-13878624D01*
X21666710Y-13878624D02*
X21619090Y-13878624D01*
X21619090Y-13878624D02*
X21600043Y-13869100D01*
X21600043Y-13869100D02*
X21590519Y-13850052D01*
X21590519Y-13850052D02*
X21590519Y-13831005D01*
X21590519Y-13831005D02*
X21600043Y-13811957D01*
X21600043Y-13811957D02*
X21619090Y-13802433D01*
X21619090Y-13802433D02*
X21666710Y-13802433D01*
X21666710Y-13802433D02*
X21685757Y-13792909D01*
X21780995Y-13745290D02*
X21780995Y-13945290D01*
X21780995Y-13754814D02*
X21800043Y-13745290D01*
X21800043Y-13745290D02*
X21838138Y-13745290D01*
X21838138Y-13745290D02*
X21857186Y-13754814D01*
X21857186Y-13754814D02*
X21866710Y-13764338D01*
X21866710Y-13764338D02*
X21876233Y-13783386D01*
X21876233Y-13783386D02*
X21876233Y-13840528D01*
X21876233Y-13840528D02*
X21866710Y-13859576D01*
X21866710Y-13859576D02*
X21857186Y-13869100D01*
X21857186Y-13869100D02*
X21838138Y-13878624D01*
X21838138Y-13878624D02*
X21800043Y-13878624D01*
X21800043Y-13878624D02*
X21780995Y-13869100D01*
X21961948Y-13859576D02*
X21971471Y-13869100D01*
X21971471Y-13869100D02*
X21961948Y-13878624D01*
X21961948Y-13878624D02*
X21952424Y-13869100D01*
X21952424Y-13869100D02*
X21961948Y-13859576D01*
X21961948Y-13859576D02*
X21961948Y-13878624D01*
X21961948Y-13754814D02*
X21971471Y-13764338D01*
X21971471Y-13764338D02*
X21961948Y-13773862D01*
X21961948Y-13773862D02*
X21952424Y-13764338D01*
X21952424Y-13764338D02*
X21961948Y-13754814D01*
X21961948Y-13754814D02*
X21961948Y-13773862D01*
M02*
