M48
; DRILL file {KiCad 7.0.2-0} date 2025 January 26, Sunday 18:28:23
; FORMAT={-:-/ absolute / inch / decimal}
; #@! TF.CreationDate,2025-01-26T18:28:23-07:00
; #@! TF.GenerationSoftware,Kicad,Pcbnew,7.0.2-0
; #@! TF.FileFunction,Plated,1,2,PTH
FMAT,2
INCH
; #@! TA.AperFunction,Plated,PTH,ViaDrill
T1C0.0079
; #@! TA.AperFunction,Plated,PTH,ViaDrill
T2C0.0118
; #@! TA.AperFunction,Plated,PTH,ComponentDrill
T3C0.0295
; #@! TA.AperFunction,Plated,PTH,ComponentDrill
T4C0.0300
; #@! TA.AperFunction,Plated,PTH,ComponentDrill
T5C0.0394
; #@! TA.AperFunction,Plated,PTH,ComponentDrill
T6C0.0472
; #@! TA.AperFunction,Plated,PTH,ComponentDrill
T7C0.0512
%
G90
G05
T1
X8.285Y-4.615
X8.285Y-4.7128
X8.285Y-4.75
X8.285Y-4.79
X8.285Y-4.83
X8.285Y-4.87
X8.285Y-4.91
X8.305Y-4.45
X8.32Y-4.319
X8.345Y-4.85
X8.345Y-4.9
X8.35Y-4.65
X8.35Y-4.8
X8.56Y-5.235
X8.585Y-5.255
T2
X8.285Y-4.965
X8.33Y-5.21
X8.35Y-5.0
X8.45Y-5.195
X8.65Y-4.65
X8.65Y-4.85
X8.975Y-4.65
X8.975Y-4.85
T3
X8.6883Y-4.3556
X8.6883Y-4.4344
T4
X8.4Y-3.25
X8.4Y-3.35
X8.4Y-3.45
X8.4Y-3.55
X8.4Y-3.65
X8.4Y-3.75
X8.4Y-3.85
X8.4Y-3.95
X8.4Y-4.05
X8.4Y-4.15
X8.4Y-4.25
X8.4Y-4.35
X8.4Y-4.45
X8.4Y-4.55
X8.4Y-4.65
X8.4Y-4.75
X8.4Y-4.85
X8.4Y-4.95
X8.4Y-5.05
X8.4Y-5.15
X8.5Y-3.25
X8.5Y-3.35
X8.5Y-3.45
X8.5Y-3.55
X8.5Y-3.65
X8.5Y-3.75
X8.5Y-3.85
X8.5Y-3.95
X8.5Y-4.05
X8.5Y-4.15
X8.5Y-4.25
X8.5Y-4.35
X8.5Y-4.45
X8.5Y-4.55
X8.5Y-4.65
X8.5Y-4.75
X8.5Y-4.85
X8.5Y-4.95
X8.5Y-5.05
X8.5Y-5.15
T5
X8.7472Y-2.7173
X9.025Y-4.85
X9.025Y-4.85
X9.025Y-4.925
X9.1Y-4.85
X9.1Y-4.925
X9.1528Y-2.7173
X9.9778Y-2.57
X10.155Y-2.57
T6
X8.7472Y-2.5717
X8.7472Y-2.8276
X9.1528Y-2.5717
X9.1528Y-2.8276
T7
X9.9286Y-2.6684
X10.2042Y-2.6684
T0
M30
