%TF.GenerationSoftware,KiCad,Pcbnew,7.0.2-0*%
%TF.CreationDate,2025-01-26T18:28:18-07:00*%
%TF.ProjectId,RightMB,52696768-744d-4422-9e6b-696361645f70,rev?*%
%TF.SameCoordinates,Original*%
%TF.FileFunction,Soldermask,Bot*%
%TF.FilePolarity,Negative*%
%FSLAX46Y46*%
G04 Gerber Fmt 4.6, Leading zero omitted, Abs format (unit mm)*
G04 Created by KiCad (PCBNEW 7.0.2-0) date 2025-01-26 18:28:18*
%MOMM*%
%LPD*%
G01*
G04 APERTURE LIST*
G04 Aperture macros list*
%AMRoundRect*
0 Rectangle with rounded corners*
0 $1 Rounding radius*
0 $2 $3 $4 $5 $6 $7 $8 $9 X,Y pos of 4 corners*
0 Add a 4 corners polygon primitive as box body*
4,1,4,$2,$3,$4,$5,$6,$7,$8,$9,$2,$3,0*
0 Add four circle primitives for the rounded corners*
1,1,$1+$1,$2,$3*
1,1,$1+$1,$4,$5*
1,1,$1+$1,$6,$7*
1,1,$1+$1,$8,$9*
0 Add four rect primitives between the rounded corners*
20,1,$1+$1,$2,$3,$4,$5,0*
20,1,$1+$1,$4,$5,$6,$7,0*
20,1,$1+$1,$6,$7,$8,$9,0*
20,1,$1+$1,$8,$9,$2,$3,0*%
G04 Aperture macros list end*
%ADD10C,2.200000*%
%ADD11C,1.700000*%
%ADD12R,1.700000X1.700000*%
%ADD13C,2.000000*%
%ADD14C,1.524000*%
%ADD15RoundRect,0.250000X0.625000X-0.350000X0.625000X0.350000X-0.625000X0.350000X-0.625000X-0.350000X0*%
%ADD16O,1.750000X1.200000*%
G04 APERTURE END LIST*
D10*
%TO.C,REF\u002A\u002A*%
X252187000Y-67778000D03*
X259187000Y-67778000D03*
D11*
X253437000Y-65278000D03*
X257937000Y-65278000D03*
%TD*%
D12*
%TO.C,*%
X231140000Y-125095000D03*
%TD*%
D13*
%TO.C,REF\u002A\u002A*%
X232480000Y-65320000D03*
D14*
X232480000Y-69020000D03*
D13*
X222180000Y-65320000D03*
X222180000Y-71820000D03*
X232480000Y-71820000D03*
D14*
X222180000Y-69020000D03*
%TD*%
D12*
%TO.C,*%
X231140000Y-123190000D03*
%TD*%
%TO.C,*%
X229235000Y-123190000D03*
%TD*%
%TO.C,*%
X229235000Y-123190000D03*
%TD*%
D15*
%TO.C,REF\u002A\u002A*%
X220684000Y-112633000D03*
D16*
X220684000Y-110633000D03*
%TD*%
D12*
%TO.C,*%
X229235000Y-125095000D03*
%TD*%
D13*
%TO.C,REF\u002A\u002A*%
X213360000Y-130810000D03*
X215900000Y-130810000D03*
X213360000Y-128270000D03*
X215900000Y-128270000D03*
X213360000Y-125730000D03*
X215900000Y-125730000D03*
X213360000Y-123190000D03*
X215900000Y-123190000D03*
X213360000Y-120650000D03*
X215900000Y-120650000D03*
X213360000Y-118110000D03*
X215900000Y-118110000D03*
X213360000Y-115570000D03*
X215900000Y-115570000D03*
X213360000Y-113030000D03*
X215900000Y-113030000D03*
X213360000Y-110490000D03*
X215900000Y-110490000D03*
X213360000Y-107950000D03*
X215900000Y-107950000D03*
X213360000Y-105410000D03*
X215900000Y-105410000D03*
X213360000Y-102870000D03*
X215900000Y-102870000D03*
X213360000Y-100330000D03*
X215900000Y-100330000D03*
X213360000Y-97790000D03*
X215900000Y-97790000D03*
X213360000Y-95250000D03*
X215900000Y-95250000D03*
X213360000Y-92710000D03*
X215900000Y-92710000D03*
X213360000Y-90170000D03*
X215900000Y-90170000D03*
X213360000Y-87630000D03*
X215900000Y-87630000D03*
X213360000Y-85090000D03*
X215900000Y-85090000D03*
X213360000Y-82550000D03*
X215900000Y-82550000D03*
%TD*%
M02*
