%TF.GenerationSoftware,KiCad,Pcbnew,7.0.2-0*%
%TF.CreationDate,2025-01-26T18:28:18-07:00*%
%TF.ProjectId,RightMB,52696768-744d-4422-9e6b-696361645f70,rev?*%
%TF.SameCoordinates,Original*%
%TF.FileFunction,Profile,NP*%
%FSLAX46Y46*%
G04 Gerber Fmt 4.6, Leading zero omitted, Abs format (unit mm)*
G04 Created by KiCad (PCBNEW 7.0.2-0) date 2025-01-26 18:28:18*
%MOMM*%
%LPD*%
G01*
G04 APERTURE LIST*
%TA.AperFunction,Profile*%
%ADD10C,0.050000*%
%TD*%
G04 APERTURE END LIST*
D10*
X207391000Y-107442000D02*
X207518000Y-59690000D01*
X203454000Y-111379000D02*
X207391000Y-107442000D01*
X237236000Y-92710000D02*
G75*
G03*
X237236000Y-92710000I-1000000J0D01*
G01*
X227838000Y-110490000D02*
G75*
G03*
X227838000Y-110490000I-1000000J0D01*
G01*
X203454000Y-135636000D02*
X203454000Y-111379000D01*
X250190000Y-71882000D02*
X252349000Y-69723000D01*
X203454000Y-135636000D02*
X221234000Y-135636000D01*
X215773000Y-76200000D02*
G75*
G03*
X215773000Y-76200000I-1000000J0D01*
G01*
X250190000Y-105664000D02*
X241173000Y-114681000D01*
X229870000Y-127000000D02*
X221234000Y-135636000D01*
X207518000Y-59690000D02*
X260731000Y-59690000D01*
X260731000Y-59690000D02*
X260731000Y-69723000D01*
X214741000Y-62357000D02*
G75*
G03*
X214741000Y-62357000I-1000000J0D01*
G01*
X243205000Y-107950000D02*
G75*
G03*
X243205000Y-107950000I-1000000J0D01*
G01*
X241173000Y-114681000D02*
X241173000Y-120396000D01*
X260731000Y-69723000D02*
X252349000Y-69723000D01*
X234569000Y-127000000D02*
X229870000Y-127000000D01*
X221488000Y-133096000D02*
G75*
G03*
X221488000Y-133096000I-1000000J0D01*
G01*
X241173000Y-120396000D02*
X234569000Y-127000000D01*
X243205000Y-67056000D02*
G75*
G03*
X243205000Y-67056000I-1000000J0D01*
G01*
X250190000Y-71882000D02*
X250190000Y-105664000D01*
M02*
