%TF.GenerationSoftware,KiCad,Pcbnew,7.0.2-0*%
%TF.CreationDate,2025-01-26T18:28:25-07:00*%
%TF.ProjectId,RightMB,52696768-744d-4422-9e6b-696361645f70,rev?*%
%TF.SameCoordinates,Original*%
%TF.FileFunction,Drillmap*%
%TF.FilePolarity,Positive*%
%FSLAX45Y45*%
G04 Gerber Fmt 4.5, Leading zero omitted, Abs format (unit mm)*
G04 Created by KiCad (PCBNEW 7.0.2-0) date 2025-01-26 18:28:25*
%MOMM*%
%LPD*%
G01*
G04 APERTURE LIST*
%ADD10C,0.050000*%
%ADD11C,0.200000*%
%ADD12C,0.020000*%
%ADD13C,0.030000*%
%ADD14C,0.075000*%
%ADD15C,0.076200*%
%ADD16C,0.100000*%
%ADD17C,0.120000*%
%ADD18C,0.130000*%
G04 APERTURE END LIST*
D10*
X20739100Y-10744200D02*
X20751800Y-5969000D01*
X20345400Y-11137900D02*
X20739100Y-10744200D01*
X23723600Y-9271000D02*
G75*
G03*
X23723600Y-9271000I-100000J0D01*
G01*
X22783800Y-11049000D02*
G75*
G03*
X22783800Y-11049000I-100000J0D01*
G01*
X20345400Y-13563600D02*
X20345400Y-11137900D01*
X25019000Y-7188200D02*
X25234900Y-6972300D01*
X20345400Y-13563600D02*
X22123400Y-13563600D01*
X21577300Y-7620000D02*
G75*
G03*
X21577300Y-7620000I-100000J0D01*
G01*
X25019000Y-10566400D02*
X24117300Y-11468100D01*
X22987000Y-12700000D02*
X22123400Y-13563600D01*
X20751800Y-5969000D02*
X26073100Y-5969000D01*
X26073100Y-5969000D02*
X26073100Y-6972300D01*
X21474100Y-6235700D02*
G75*
G03*
X21474100Y-6235700I-100000J0D01*
G01*
X24320500Y-10795000D02*
G75*
G03*
X24320500Y-10795000I-100000J0D01*
G01*
X24117300Y-11468100D02*
X24117300Y-12039600D01*
X26073100Y-6972300D02*
X25234900Y-6972300D01*
X23456900Y-12700000D02*
X22987000Y-12700000D01*
X22148800Y-13309600D02*
G75*
G03*
X22148800Y-13309600I-100000J0D01*
G01*
X24117300Y-12039600D02*
X23456900Y-12700000D01*
X24320500Y-6705600D02*
G75*
G03*
X24320500Y-6705600I-100000J0D01*
G01*
X25019000Y-7188200D02*
X25019000Y-10566400D01*
D11*
D12*
X21033900Y-11712100D02*
X21053900Y-11732100D01*
X21053900Y-11712100D02*
X21033900Y-11732100D01*
X21033900Y-11960600D02*
X21053900Y-11980600D01*
X21053900Y-11960600D02*
X21033900Y-11980600D01*
X21033900Y-12055000D02*
X21053900Y-12075000D01*
X21053900Y-12055000D02*
X21033900Y-12075000D01*
X21033900Y-12156600D02*
X21053900Y-12176600D01*
X21053900Y-12156600D02*
X21033900Y-12176600D01*
X21033900Y-12258200D02*
X21053900Y-12278200D01*
X21053900Y-12258200D02*
X21033900Y-12278200D01*
X21033900Y-12359800D02*
X21053900Y-12379800D01*
X21053900Y-12359800D02*
X21033900Y-12379800D01*
X21033900Y-12461400D02*
X21053900Y-12481400D01*
X21053900Y-12461400D02*
X21033900Y-12481400D01*
X21084700Y-11293000D02*
X21104700Y-11313000D01*
X21104700Y-11293000D02*
X21084700Y-11313000D01*
X21122800Y-10960260D02*
X21142800Y-10980260D01*
X21142800Y-10960260D02*
X21122800Y-10980260D01*
X21186300Y-12309000D02*
X21206300Y-12329000D01*
X21206300Y-12309000D02*
X21186300Y-12329000D01*
X21186300Y-12436000D02*
X21206300Y-12456000D01*
X21206300Y-12436000D02*
X21186300Y-12456000D01*
X21199000Y-11801000D02*
X21219000Y-11821000D01*
X21219000Y-11801000D02*
X21199000Y-11821000D01*
X21199000Y-12182000D02*
X21219000Y-12202000D01*
X21219000Y-12182000D02*
X21199000Y-12202000D01*
X21732400Y-13286900D02*
X21752400Y-13306900D01*
X21752400Y-13286900D02*
X21732400Y-13306900D01*
X21795900Y-13337700D02*
X21815900Y-13357700D01*
X21815900Y-13337700D02*
X21795900Y-13357700D01*
D13*
X21058900Y-12611100D02*
G75*
G03*
X21058900Y-12611100I-15000J0D01*
G01*
X21173200Y-13233400D02*
G75*
G03*
X21173200Y-13233400I-15000J0D01*
G01*
X21224000Y-12700000D02*
G75*
G03*
X21224000Y-12700000I-15000J0D01*
G01*
X21478000Y-13195300D02*
G75*
G03*
X21478000Y-13195300I-15000J0D01*
G01*
X21986000Y-11811000D02*
G75*
G03*
X21986000Y-11811000I-15000J0D01*
G01*
X21986000Y-12319000D02*
G75*
G03*
X21986000Y-12319000I-15000J0D01*
G01*
X22811500Y-11811000D02*
G75*
G03*
X22811500Y-11811000I-15000J0D01*
G01*
X22811500Y-12319000D02*
G75*
G03*
X22811500Y-12319000I-15000J0D01*
G01*
D14*
X22068400Y-11025800D02*
X22068400Y-11100800D01*
X22030900Y-11063300D02*
X22105900Y-11063300D01*
X22068400Y-11225800D02*
X22068400Y-11300800D01*
X22030900Y-11263300D02*
X22105900Y-11263300D01*
D15*
X21362941Y-8281941D02*
X21362941Y-8228059D01*
X21309059Y-8228059D01*
X21309059Y-8281941D01*
X21362941Y-8281941D01*
X21362941Y-8535941D02*
X21362941Y-8482059D01*
X21309059Y-8482059D01*
X21309059Y-8535941D01*
X21362941Y-8535941D01*
X21362941Y-8789941D02*
X21362941Y-8736059D01*
X21309059Y-8736059D01*
X21309059Y-8789941D01*
X21362941Y-8789941D01*
X21362941Y-9043941D02*
X21362941Y-8990059D01*
X21309059Y-8990059D01*
X21309059Y-9043941D01*
X21362941Y-9043941D01*
X21362941Y-9297941D02*
X21362941Y-9244059D01*
X21309059Y-9244059D01*
X21309059Y-9297941D01*
X21362941Y-9297941D01*
X21362941Y-9551941D02*
X21362941Y-9498059D01*
X21309059Y-9498059D01*
X21309059Y-9551941D01*
X21362941Y-9551941D01*
X21362941Y-9805941D02*
X21362941Y-9752059D01*
X21309059Y-9752059D01*
X21309059Y-9805941D01*
X21362941Y-9805941D01*
X21362941Y-10059941D02*
X21362941Y-10006059D01*
X21309059Y-10006059D01*
X21309059Y-10059941D01*
X21362941Y-10059941D01*
X21362941Y-10313941D02*
X21362941Y-10260059D01*
X21309059Y-10260059D01*
X21309059Y-10313941D01*
X21362941Y-10313941D01*
X21362941Y-10567941D02*
X21362941Y-10514059D01*
X21309059Y-10514059D01*
X21309059Y-10567941D01*
X21362941Y-10567941D01*
X21362941Y-10821941D02*
X21362941Y-10768059D01*
X21309059Y-10768059D01*
X21309059Y-10821941D01*
X21362941Y-10821941D01*
X21362941Y-11075941D02*
X21362941Y-11022059D01*
X21309059Y-11022059D01*
X21309059Y-11075941D01*
X21362941Y-11075941D01*
X21362941Y-11329941D02*
X21362941Y-11276059D01*
X21309059Y-11276059D01*
X21309059Y-11329941D01*
X21362941Y-11329941D01*
X21362941Y-11583941D02*
X21362941Y-11530059D01*
X21309059Y-11530059D01*
X21309059Y-11583941D01*
X21362941Y-11583941D01*
X21362941Y-11837941D02*
X21362941Y-11784059D01*
X21309059Y-11784059D01*
X21309059Y-11837941D01*
X21362941Y-11837941D01*
X21362941Y-12091941D02*
X21362941Y-12038059D01*
X21309059Y-12038059D01*
X21309059Y-12091941D01*
X21362941Y-12091941D01*
X21362941Y-12345941D02*
X21362941Y-12292059D01*
X21309059Y-12292059D01*
X21309059Y-12345941D01*
X21362941Y-12345941D01*
X21362941Y-12599941D02*
X21362941Y-12546059D01*
X21309059Y-12546059D01*
X21309059Y-12599941D01*
X21362941Y-12599941D01*
X21362941Y-12853941D02*
X21362941Y-12800059D01*
X21309059Y-12800059D01*
X21309059Y-12853941D01*
X21362941Y-12853941D01*
X21362941Y-13107941D02*
X21362941Y-13054059D01*
X21309059Y-13054059D01*
X21309059Y-13107941D01*
X21362941Y-13107941D01*
X21616941Y-8281941D02*
X21616941Y-8228059D01*
X21563059Y-8228059D01*
X21563059Y-8281941D01*
X21616941Y-8281941D01*
X21616941Y-8535941D02*
X21616941Y-8482059D01*
X21563059Y-8482059D01*
X21563059Y-8535941D01*
X21616941Y-8535941D01*
X21616941Y-8789941D02*
X21616941Y-8736059D01*
X21563059Y-8736059D01*
X21563059Y-8789941D01*
X21616941Y-8789941D01*
X21616941Y-9043941D02*
X21616941Y-8990059D01*
X21563059Y-8990059D01*
X21563059Y-9043941D01*
X21616941Y-9043941D01*
X21616941Y-9297941D02*
X21616941Y-9244059D01*
X21563059Y-9244059D01*
X21563059Y-9297941D01*
X21616941Y-9297941D01*
X21616941Y-9551941D02*
X21616941Y-9498059D01*
X21563059Y-9498059D01*
X21563059Y-9551941D01*
X21616941Y-9551941D01*
X21616941Y-9805941D02*
X21616941Y-9752059D01*
X21563059Y-9752059D01*
X21563059Y-9805941D01*
X21616941Y-9805941D01*
X21616941Y-10059941D02*
X21616941Y-10006059D01*
X21563059Y-10006059D01*
X21563059Y-10059941D01*
X21616941Y-10059941D01*
X21616941Y-10313941D02*
X21616941Y-10260059D01*
X21563059Y-10260059D01*
X21563059Y-10313941D01*
X21616941Y-10313941D01*
X21616941Y-10567941D02*
X21616941Y-10514059D01*
X21563059Y-10514059D01*
X21563059Y-10567941D01*
X21616941Y-10567941D01*
X21616941Y-10821941D02*
X21616941Y-10768059D01*
X21563059Y-10768059D01*
X21563059Y-10821941D01*
X21616941Y-10821941D01*
X21616941Y-11075941D02*
X21616941Y-11022059D01*
X21563059Y-11022059D01*
X21563059Y-11075941D01*
X21616941Y-11075941D01*
X21616941Y-11329941D02*
X21616941Y-11276059D01*
X21563059Y-11276059D01*
X21563059Y-11329941D01*
X21616941Y-11329941D01*
X21616941Y-11583941D02*
X21616941Y-11530059D01*
X21563059Y-11530059D01*
X21563059Y-11583941D01*
X21616941Y-11583941D01*
X21616941Y-11837941D02*
X21616941Y-11784059D01*
X21563059Y-11784059D01*
X21563059Y-11837941D01*
X21616941Y-11837941D01*
X21616941Y-12091941D02*
X21616941Y-12038059D01*
X21563059Y-12038059D01*
X21563059Y-12091941D01*
X21616941Y-12091941D01*
X21616941Y-12345941D02*
X21616941Y-12292059D01*
X21563059Y-12292059D01*
X21563059Y-12345941D01*
X21616941Y-12345941D01*
X21616941Y-12599941D02*
X21616941Y-12546059D01*
X21563059Y-12546059D01*
X21563059Y-12599941D01*
X21616941Y-12599941D01*
X21616941Y-12853941D02*
X21616941Y-12800059D01*
X21563059Y-12800059D01*
X21563059Y-12853941D01*
X21616941Y-12853941D01*
X21616941Y-13107941D02*
X21616941Y-13054059D01*
X21563059Y-13054059D01*
X21563059Y-13107941D01*
X21616941Y-13107941D01*
D16*
X22218000Y-6952000D02*
X22268000Y-6902000D01*
X22218000Y-6852000D01*
X22168000Y-6902000D01*
X22218000Y-6952000D01*
X22923500Y-12369000D02*
X22973500Y-12319000D01*
X22923500Y-12269000D01*
X22873500Y-12319000D01*
X22923500Y-12369000D01*
X22923500Y-12369000D02*
X22973500Y-12319000D01*
X22923500Y-12269000D01*
X22873500Y-12319000D01*
X22923500Y-12369000D01*
X22923500Y-12559500D02*
X22973500Y-12509500D01*
X22923500Y-12459500D01*
X22873500Y-12509500D01*
X22923500Y-12559500D01*
X23114000Y-12369000D02*
X23164000Y-12319000D01*
X23114000Y-12269000D01*
X23064000Y-12319000D01*
X23114000Y-12369000D01*
X23114000Y-12559500D02*
X23164000Y-12509500D01*
X23114000Y-12459500D01*
X23064000Y-12509500D01*
X23114000Y-12559500D01*
X23248000Y-6952000D02*
X23298000Y-6902000D01*
X23248000Y-6852000D01*
X23198000Y-6902000D01*
X23248000Y-6952000D01*
X25343700Y-6577800D02*
X25393700Y-6527800D01*
X25343700Y-6477800D01*
X25293700Y-6527800D01*
X25343700Y-6577800D01*
X25793700Y-6577800D02*
X25843700Y-6527800D01*
X25793700Y-6477800D01*
X25743700Y-6527800D01*
X25793700Y-6577800D01*
D17*
X22158000Y-6472000D02*
X22278000Y-6592000D01*
X22278000Y-6472000D02*
X22158000Y-6592000D01*
X22278000Y-6532000D02*
G75*
G03*
X22278000Y-6532000I-60000J0D01*
G01*
X22158000Y-7122000D02*
X22278000Y-7242000D01*
X22278000Y-7122000D02*
X22158000Y-7242000D01*
X22278000Y-7182000D02*
G75*
G03*
X22278000Y-7182000I-60000J0D01*
G01*
X23188000Y-6472000D02*
X23308000Y-6592000D01*
X23308000Y-6472000D02*
X23188000Y-6592000D01*
X23308000Y-6532000D02*
G75*
G03*
X23308000Y-6532000I-60000J0D01*
G01*
X23188000Y-7122000D02*
X23308000Y-7242000D01*
X23308000Y-7122000D02*
X23188000Y-7242000D01*
X23308000Y-7182000D02*
G75*
G03*
X23308000Y-7182000I-60000J0D01*
G01*
D18*
X25153700Y-6712800D02*
X25283700Y-6842800D01*
X25283700Y-6712800D02*
X25153700Y-6842800D01*
X25218700Y-6712800D02*
X25218700Y-6842800D01*
X25153700Y-6777800D02*
X25283700Y-6777800D01*
X25853700Y-6712800D02*
X25983700Y-6842800D01*
X25983700Y-6712800D02*
X25853700Y-6842800D01*
X25918700Y-6712800D02*
X25918700Y-6842800D01*
X25853700Y-6777800D02*
X25983700Y-6777800D01*
D11*
X20590519Y-13878624D02*
X20590519Y-13678624D01*
X20590519Y-13678624D02*
X20638138Y-13678624D01*
X20638138Y-13678624D02*
X20666710Y-13688148D01*
X20666710Y-13688148D02*
X20685757Y-13707195D01*
X20685757Y-13707195D02*
X20695281Y-13726243D01*
X20695281Y-13726243D02*
X20704805Y-13764338D01*
X20704805Y-13764338D02*
X20704805Y-13792909D01*
X20704805Y-13792909D02*
X20695281Y-13831005D01*
X20695281Y-13831005D02*
X20685757Y-13850052D01*
X20685757Y-13850052D02*
X20666710Y-13869100D01*
X20666710Y-13869100D02*
X20638138Y-13878624D01*
X20638138Y-13878624D02*
X20590519Y-13878624D01*
X20790519Y-13878624D02*
X20790519Y-13745290D01*
X20790519Y-13783386D02*
X20800043Y-13764338D01*
X20800043Y-13764338D02*
X20809567Y-13754814D01*
X20809567Y-13754814D02*
X20828614Y-13745290D01*
X20828614Y-13745290D02*
X20847662Y-13745290D01*
X20914329Y-13878624D02*
X20914329Y-13745290D01*
X20914329Y-13678624D02*
X20904805Y-13688148D01*
X20904805Y-13688148D02*
X20914329Y-13697671D01*
X20914329Y-13697671D02*
X20923852Y-13688148D01*
X20923852Y-13688148D02*
X20914329Y-13678624D01*
X20914329Y-13678624D02*
X20914329Y-13697671D01*
X21038138Y-13878624D02*
X21019090Y-13869100D01*
X21019090Y-13869100D02*
X21009567Y-13850052D01*
X21009567Y-13850052D02*
X21009567Y-13678624D01*
X21142900Y-13878624D02*
X21123852Y-13869100D01*
X21123852Y-13869100D02*
X21114329Y-13850052D01*
X21114329Y-13850052D02*
X21114329Y-13678624D01*
X21371471Y-13878624D02*
X21371471Y-13678624D01*
X21371471Y-13678624D02*
X21438138Y-13821481D01*
X21438138Y-13821481D02*
X21504805Y-13678624D01*
X21504805Y-13678624D02*
X21504805Y-13878624D01*
X21685757Y-13878624D02*
X21685757Y-13773862D01*
X21685757Y-13773862D02*
X21676233Y-13754814D01*
X21676233Y-13754814D02*
X21657186Y-13745290D01*
X21657186Y-13745290D02*
X21619090Y-13745290D01*
X21619090Y-13745290D02*
X21600043Y-13754814D01*
X21685757Y-13869100D02*
X21666710Y-13878624D01*
X21666710Y-13878624D02*
X21619090Y-13878624D01*
X21619090Y-13878624D02*
X21600043Y-13869100D01*
X21600043Y-13869100D02*
X21590519Y-13850052D01*
X21590519Y-13850052D02*
X21590519Y-13831005D01*
X21590519Y-13831005D02*
X21600043Y-13811957D01*
X21600043Y-13811957D02*
X21619090Y-13802433D01*
X21619090Y-13802433D02*
X21666710Y-13802433D01*
X21666710Y-13802433D02*
X21685757Y-13792909D01*
X21780995Y-13745290D02*
X21780995Y-13945290D01*
X21780995Y-13754814D02*
X21800043Y-13745290D01*
X21800043Y-13745290D02*
X21838138Y-13745290D01*
X21838138Y-13745290D02*
X21857186Y-13754814D01*
X21857186Y-13754814D02*
X21866710Y-13764338D01*
X21866710Y-13764338D02*
X21876233Y-13783386D01*
X21876233Y-13783386D02*
X21876233Y-13840528D01*
X21876233Y-13840528D02*
X21866710Y-13859576D01*
X21866710Y-13859576D02*
X21857186Y-13869100D01*
X21857186Y-13869100D02*
X21838138Y-13878624D01*
X21838138Y-13878624D02*
X21800043Y-13878624D01*
X21800043Y-13878624D02*
X21780995Y-13869100D01*
X21961948Y-13859576D02*
X21971471Y-13869100D01*
X21971471Y-13869100D02*
X21961948Y-13878624D01*
X21961948Y-13878624D02*
X21952424Y-13869100D01*
X21952424Y-13869100D02*
X21961948Y-13859576D01*
X21961948Y-13859576D02*
X21961948Y-13878624D01*
X21961948Y-13754814D02*
X21971471Y-13764338D01*
X21971471Y-13764338D02*
X21961948Y-13773862D01*
X21961948Y-13773862D02*
X21952424Y-13764338D01*
X21952424Y-13764338D02*
X21961948Y-13754814D01*
X21961948Y-13754814D02*
X21961948Y-13773862D01*
D12*
X20322900Y-14196100D02*
X20342900Y-14216100D01*
X20342900Y-14196100D02*
X20322900Y-14216100D01*
D11*
X20628614Y-14098624D02*
X20647662Y-14098624D01*
X20647662Y-14098624D02*
X20666710Y-14108148D01*
X20666710Y-14108148D02*
X20676233Y-14117671D01*
X20676233Y-14117671D02*
X20685757Y-14136719D01*
X20685757Y-14136719D02*
X20695281Y-14174814D01*
X20695281Y-14174814D02*
X20695281Y-14222433D01*
X20695281Y-14222433D02*
X20685757Y-14260528D01*
X20685757Y-14260528D02*
X20676233Y-14279576D01*
X20676233Y-14279576D02*
X20666710Y-14289100D01*
X20666710Y-14289100D02*
X20647662Y-14298624D01*
X20647662Y-14298624D02*
X20628614Y-14298624D01*
X20628614Y-14298624D02*
X20609567Y-14289100D01*
X20609567Y-14289100D02*
X20600043Y-14279576D01*
X20600043Y-14279576D02*
X20590519Y-14260528D01*
X20590519Y-14260528D02*
X20580995Y-14222433D01*
X20580995Y-14222433D02*
X20580995Y-14174814D01*
X20580995Y-14174814D02*
X20590519Y-14136719D01*
X20590519Y-14136719D02*
X20600043Y-14117671D01*
X20600043Y-14117671D02*
X20609567Y-14108148D01*
X20609567Y-14108148D02*
X20628614Y-14098624D01*
X20780995Y-14279576D02*
X20790519Y-14289100D01*
X20790519Y-14289100D02*
X20780995Y-14298624D01*
X20780995Y-14298624D02*
X20771471Y-14289100D01*
X20771471Y-14289100D02*
X20780995Y-14279576D01*
X20780995Y-14279576D02*
X20780995Y-14298624D01*
X20866710Y-14117671D02*
X20876233Y-14108148D01*
X20876233Y-14108148D02*
X20895281Y-14098624D01*
X20895281Y-14098624D02*
X20942900Y-14098624D01*
X20942900Y-14098624D02*
X20961948Y-14108148D01*
X20961948Y-14108148D02*
X20971471Y-14117671D01*
X20971471Y-14117671D02*
X20980995Y-14136719D01*
X20980995Y-14136719D02*
X20980995Y-14155767D01*
X20980995Y-14155767D02*
X20971471Y-14184338D01*
X20971471Y-14184338D02*
X20857186Y-14298624D01*
X20857186Y-14298624D02*
X20980995Y-14298624D01*
X21104805Y-14098624D02*
X21123852Y-14098624D01*
X21123852Y-14098624D02*
X21142900Y-14108148D01*
X21142900Y-14108148D02*
X21152424Y-14117671D01*
X21152424Y-14117671D02*
X21161948Y-14136719D01*
X21161948Y-14136719D02*
X21171471Y-14174814D01*
X21171471Y-14174814D02*
X21171471Y-14222433D01*
X21171471Y-14222433D02*
X21161948Y-14260528D01*
X21161948Y-14260528D02*
X21152424Y-14279576D01*
X21152424Y-14279576D02*
X21142900Y-14289100D01*
X21142900Y-14289100D02*
X21123852Y-14298624D01*
X21123852Y-14298624D02*
X21104805Y-14298624D01*
X21104805Y-14298624D02*
X21085757Y-14289100D01*
X21085757Y-14289100D02*
X21076233Y-14279576D01*
X21076233Y-14279576D02*
X21066710Y-14260528D01*
X21066710Y-14260528D02*
X21057186Y-14222433D01*
X21057186Y-14222433D02*
X21057186Y-14174814D01*
X21057186Y-14174814D02*
X21066710Y-14136719D01*
X21066710Y-14136719D02*
X21076233Y-14117671D01*
X21076233Y-14117671D02*
X21085757Y-14108148D01*
X21085757Y-14108148D02*
X21104805Y-14098624D01*
X21295281Y-14098624D02*
X21314329Y-14098624D01*
X21314329Y-14098624D02*
X21333376Y-14108148D01*
X21333376Y-14108148D02*
X21342900Y-14117671D01*
X21342900Y-14117671D02*
X21352424Y-14136719D01*
X21352424Y-14136719D02*
X21361948Y-14174814D01*
X21361948Y-14174814D02*
X21361948Y-14222433D01*
X21361948Y-14222433D02*
X21352424Y-14260528D01*
X21352424Y-14260528D02*
X21342900Y-14279576D01*
X21342900Y-14279576D02*
X21333376Y-14289100D01*
X21333376Y-14289100D02*
X21314329Y-14298624D01*
X21314329Y-14298624D02*
X21295281Y-14298624D01*
X21295281Y-14298624D02*
X21276233Y-14289100D01*
X21276233Y-14289100D02*
X21266710Y-14279576D01*
X21266710Y-14279576D02*
X21257186Y-14260528D01*
X21257186Y-14260528D02*
X21247662Y-14222433D01*
X21247662Y-14222433D02*
X21247662Y-14174814D01*
X21247662Y-14174814D02*
X21257186Y-14136719D01*
X21257186Y-14136719D02*
X21266710Y-14117671D01*
X21266710Y-14117671D02*
X21276233Y-14108148D01*
X21276233Y-14108148D02*
X21295281Y-14098624D01*
X21447662Y-14298624D02*
X21447662Y-14165290D01*
X21447662Y-14184338D02*
X21457186Y-14174814D01*
X21457186Y-14174814D02*
X21476233Y-14165290D01*
X21476233Y-14165290D02*
X21504805Y-14165290D01*
X21504805Y-14165290D02*
X21523852Y-14174814D01*
X21523852Y-14174814D02*
X21533376Y-14193862D01*
X21533376Y-14193862D02*
X21533376Y-14298624D01*
X21533376Y-14193862D02*
X21542900Y-14174814D01*
X21542900Y-14174814D02*
X21561948Y-14165290D01*
X21561948Y-14165290D02*
X21590519Y-14165290D01*
X21590519Y-14165290D02*
X21609567Y-14174814D01*
X21609567Y-14174814D02*
X21619091Y-14193862D01*
X21619091Y-14193862D02*
X21619091Y-14298624D01*
X21714329Y-14298624D02*
X21714329Y-14165290D01*
X21714329Y-14184338D02*
X21723852Y-14174814D01*
X21723852Y-14174814D02*
X21742900Y-14165290D01*
X21742900Y-14165290D02*
X21771472Y-14165290D01*
X21771472Y-14165290D02*
X21790519Y-14174814D01*
X21790519Y-14174814D02*
X21800043Y-14193862D01*
X21800043Y-14193862D02*
X21800043Y-14298624D01*
X21800043Y-14193862D02*
X21809567Y-14174814D01*
X21809567Y-14174814D02*
X21828614Y-14165290D01*
X21828614Y-14165290D02*
X21857186Y-14165290D01*
X21857186Y-14165290D02*
X21876233Y-14174814D01*
X21876233Y-14174814D02*
X21885757Y-14193862D01*
X21885757Y-14193862D02*
X21885757Y-14298624D01*
X22276233Y-14089100D02*
X22104805Y-14346243D01*
X22533376Y-14098624D02*
X22552424Y-14098624D01*
X22552424Y-14098624D02*
X22571472Y-14108148D01*
X22571472Y-14108148D02*
X22580995Y-14117671D01*
X22580995Y-14117671D02*
X22590519Y-14136719D01*
X22590519Y-14136719D02*
X22600043Y-14174814D01*
X22600043Y-14174814D02*
X22600043Y-14222433D01*
X22600043Y-14222433D02*
X22590519Y-14260528D01*
X22590519Y-14260528D02*
X22580995Y-14279576D01*
X22580995Y-14279576D02*
X22571472Y-14289100D01*
X22571472Y-14289100D02*
X22552424Y-14298624D01*
X22552424Y-14298624D02*
X22533376Y-14298624D01*
X22533376Y-14298624D02*
X22514329Y-14289100D01*
X22514329Y-14289100D02*
X22504805Y-14279576D01*
X22504805Y-14279576D02*
X22495281Y-14260528D01*
X22495281Y-14260528D02*
X22485757Y-14222433D01*
X22485757Y-14222433D02*
X22485757Y-14174814D01*
X22485757Y-14174814D02*
X22495281Y-14136719D01*
X22495281Y-14136719D02*
X22504805Y-14117671D01*
X22504805Y-14117671D02*
X22514329Y-14108148D01*
X22514329Y-14108148D02*
X22533376Y-14098624D01*
X22685757Y-14279576D02*
X22695281Y-14289100D01*
X22695281Y-14289100D02*
X22685757Y-14298624D01*
X22685757Y-14298624D02*
X22676233Y-14289100D01*
X22676233Y-14289100D02*
X22685757Y-14279576D01*
X22685757Y-14279576D02*
X22685757Y-14298624D01*
X22819091Y-14098624D02*
X22838138Y-14098624D01*
X22838138Y-14098624D02*
X22857186Y-14108148D01*
X22857186Y-14108148D02*
X22866710Y-14117671D01*
X22866710Y-14117671D02*
X22876233Y-14136719D01*
X22876233Y-14136719D02*
X22885757Y-14174814D01*
X22885757Y-14174814D02*
X22885757Y-14222433D01*
X22885757Y-14222433D02*
X22876233Y-14260528D01*
X22876233Y-14260528D02*
X22866710Y-14279576D01*
X22866710Y-14279576D02*
X22857186Y-14289100D01*
X22857186Y-14289100D02*
X22838138Y-14298624D01*
X22838138Y-14298624D02*
X22819091Y-14298624D01*
X22819091Y-14298624D02*
X22800043Y-14289100D01*
X22800043Y-14289100D02*
X22790519Y-14279576D01*
X22790519Y-14279576D02*
X22780995Y-14260528D01*
X22780995Y-14260528D02*
X22771472Y-14222433D01*
X22771472Y-14222433D02*
X22771472Y-14174814D01*
X22771472Y-14174814D02*
X22780995Y-14136719D01*
X22780995Y-14136719D02*
X22790519Y-14117671D01*
X22790519Y-14117671D02*
X22800043Y-14108148D01*
X22800043Y-14108148D02*
X22819091Y-14098624D01*
X23009567Y-14098624D02*
X23028614Y-14098624D01*
X23028614Y-14098624D02*
X23047662Y-14108148D01*
X23047662Y-14108148D02*
X23057186Y-14117671D01*
X23057186Y-14117671D02*
X23066710Y-14136719D01*
X23066710Y-14136719D02*
X23076233Y-14174814D01*
X23076233Y-14174814D02*
X23076233Y-14222433D01*
X23076233Y-14222433D02*
X23066710Y-14260528D01*
X23066710Y-14260528D02*
X23057186Y-14279576D01*
X23057186Y-14279576D02*
X23047662Y-14289100D01*
X23047662Y-14289100D02*
X23028614Y-14298624D01*
X23028614Y-14298624D02*
X23009567Y-14298624D01*
X23009567Y-14298624D02*
X22990519Y-14289100D01*
X22990519Y-14289100D02*
X22980995Y-14279576D01*
X22980995Y-14279576D02*
X22971472Y-14260528D01*
X22971472Y-14260528D02*
X22961948Y-14222433D01*
X22961948Y-14222433D02*
X22961948Y-14174814D01*
X22961948Y-14174814D02*
X22971472Y-14136719D01*
X22971472Y-14136719D02*
X22980995Y-14117671D01*
X22980995Y-14117671D02*
X22990519Y-14108148D01*
X22990519Y-14108148D02*
X23009567Y-14098624D01*
X23142900Y-14098624D02*
X23276233Y-14098624D01*
X23276233Y-14098624D02*
X23190519Y-14298624D01*
X23361948Y-14298624D02*
X23400043Y-14298624D01*
X23400043Y-14298624D02*
X23419091Y-14289100D01*
X23419091Y-14289100D02*
X23428614Y-14279576D01*
X23428614Y-14279576D02*
X23447662Y-14251005D01*
X23447662Y-14251005D02*
X23457186Y-14212909D01*
X23457186Y-14212909D02*
X23457186Y-14136719D01*
X23457186Y-14136719D02*
X23447662Y-14117671D01*
X23447662Y-14117671D02*
X23438138Y-14108148D01*
X23438138Y-14108148D02*
X23419091Y-14098624D01*
X23419091Y-14098624D02*
X23380995Y-14098624D01*
X23380995Y-14098624D02*
X23361948Y-14108148D01*
X23361948Y-14108148D02*
X23352424Y-14117671D01*
X23352424Y-14117671D02*
X23342900Y-14136719D01*
X23342900Y-14136719D02*
X23342900Y-14184338D01*
X23342900Y-14184338D02*
X23352424Y-14203386D01*
X23352424Y-14203386D02*
X23361948Y-14212909D01*
X23361948Y-14212909D02*
X23380995Y-14222433D01*
X23380995Y-14222433D02*
X23419091Y-14222433D01*
X23419091Y-14222433D02*
X23438138Y-14212909D01*
X23438138Y-14212909D02*
X23447662Y-14203386D01*
X23447662Y-14203386D02*
X23457186Y-14184338D01*
X23533376Y-14098624D02*
X23533376Y-14136719D01*
X23609567Y-14098624D02*
X23609567Y-14136719D01*
X23904805Y-14374814D02*
X23895281Y-14365290D01*
X23895281Y-14365290D02*
X23876234Y-14336719D01*
X23876234Y-14336719D02*
X23866710Y-14317671D01*
X23866710Y-14317671D02*
X23857186Y-14289100D01*
X23857186Y-14289100D02*
X23847662Y-14241481D01*
X23847662Y-14241481D02*
X23847662Y-14203386D01*
X23847662Y-14203386D02*
X23857186Y-14155767D01*
X23857186Y-14155767D02*
X23866710Y-14127195D01*
X23866710Y-14127195D02*
X23876234Y-14108148D01*
X23876234Y-14108148D02*
X23895281Y-14079576D01*
X23895281Y-14079576D02*
X23904805Y-14070052D01*
X24085757Y-14298624D02*
X23971472Y-14298624D01*
X24028614Y-14298624D02*
X24028614Y-14098624D01*
X24028614Y-14098624D02*
X24009567Y-14127195D01*
X24009567Y-14127195D02*
X23990519Y-14146243D01*
X23990519Y-14146243D02*
X23971472Y-14155767D01*
X24266710Y-14098624D02*
X24171472Y-14098624D01*
X24171472Y-14098624D02*
X24161948Y-14193862D01*
X24161948Y-14193862D02*
X24171472Y-14184338D01*
X24171472Y-14184338D02*
X24190519Y-14174814D01*
X24190519Y-14174814D02*
X24238138Y-14174814D01*
X24238138Y-14174814D02*
X24257186Y-14184338D01*
X24257186Y-14184338D02*
X24266710Y-14193862D01*
X24266710Y-14193862D02*
X24276234Y-14212909D01*
X24276234Y-14212909D02*
X24276234Y-14260528D01*
X24276234Y-14260528D02*
X24266710Y-14279576D01*
X24266710Y-14279576D02*
X24257186Y-14289100D01*
X24257186Y-14289100D02*
X24238138Y-14298624D01*
X24238138Y-14298624D02*
X24190519Y-14298624D01*
X24190519Y-14298624D02*
X24171472Y-14289100D01*
X24171472Y-14289100D02*
X24161948Y-14279576D01*
X24514329Y-14298624D02*
X24514329Y-14098624D01*
X24600043Y-14298624D02*
X24600043Y-14193862D01*
X24600043Y-14193862D02*
X24590519Y-14174814D01*
X24590519Y-14174814D02*
X24571472Y-14165290D01*
X24571472Y-14165290D02*
X24542900Y-14165290D01*
X24542900Y-14165290D02*
X24523853Y-14174814D01*
X24523853Y-14174814D02*
X24514329Y-14184338D01*
X24723853Y-14298624D02*
X24704805Y-14289100D01*
X24704805Y-14289100D02*
X24695281Y-14279576D01*
X24695281Y-14279576D02*
X24685757Y-14260528D01*
X24685757Y-14260528D02*
X24685757Y-14203386D01*
X24685757Y-14203386D02*
X24695281Y-14184338D01*
X24695281Y-14184338D02*
X24704805Y-14174814D01*
X24704805Y-14174814D02*
X24723853Y-14165290D01*
X24723853Y-14165290D02*
X24752424Y-14165290D01*
X24752424Y-14165290D02*
X24771472Y-14174814D01*
X24771472Y-14174814D02*
X24780996Y-14184338D01*
X24780996Y-14184338D02*
X24790519Y-14203386D01*
X24790519Y-14203386D02*
X24790519Y-14260528D01*
X24790519Y-14260528D02*
X24780996Y-14279576D01*
X24780996Y-14279576D02*
X24771472Y-14289100D01*
X24771472Y-14289100D02*
X24752424Y-14298624D01*
X24752424Y-14298624D02*
X24723853Y-14298624D01*
X24904805Y-14298624D02*
X24885757Y-14289100D01*
X24885757Y-14289100D02*
X24876234Y-14270052D01*
X24876234Y-14270052D02*
X24876234Y-14098624D01*
X25057186Y-14289100D02*
X25038138Y-14298624D01*
X25038138Y-14298624D02*
X25000043Y-14298624D01*
X25000043Y-14298624D02*
X24980996Y-14289100D01*
X24980996Y-14289100D02*
X24971472Y-14270052D01*
X24971472Y-14270052D02*
X24971472Y-14193862D01*
X24971472Y-14193862D02*
X24980996Y-14174814D01*
X24980996Y-14174814D02*
X25000043Y-14165290D01*
X25000043Y-14165290D02*
X25038138Y-14165290D01*
X25038138Y-14165290D02*
X25057186Y-14174814D01*
X25057186Y-14174814D02*
X25066710Y-14193862D01*
X25066710Y-14193862D02*
X25066710Y-14212909D01*
X25066710Y-14212909D02*
X24971472Y-14231957D01*
X25142900Y-14289100D02*
X25161948Y-14298624D01*
X25161948Y-14298624D02*
X25200043Y-14298624D01*
X25200043Y-14298624D02*
X25219091Y-14289100D01*
X25219091Y-14289100D02*
X25228615Y-14270052D01*
X25228615Y-14270052D02*
X25228615Y-14260528D01*
X25228615Y-14260528D02*
X25219091Y-14241481D01*
X25219091Y-14241481D02*
X25200043Y-14231957D01*
X25200043Y-14231957D02*
X25171472Y-14231957D01*
X25171472Y-14231957D02*
X25152424Y-14222433D01*
X25152424Y-14222433D02*
X25142900Y-14203386D01*
X25142900Y-14203386D02*
X25142900Y-14193862D01*
X25142900Y-14193862D02*
X25152424Y-14174814D01*
X25152424Y-14174814D02*
X25171472Y-14165290D01*
X25171472Y-14165290D02*
X25200043Y-14165290D01*
X25200043Y-14165290D02*
X25219091Y-14174814D01*
X25295281Y-14374814D02*
X25304805Y-14365290D01*
X25304805Y-14365290D02*
X25323853Y-14336719D01*
X25323853Y-14336719D02*
X25333377Y-14317671D01*
X25333377Y-14317671D02*
X25342900Y-14289100D01*
X25342900Y-14289100D02*
X25352424Y-14241481D01*
X25352424Y-14241481D02*
X25352424Y-14203386D01*
X25352424Y-14203386D02*
X25342900Y-14155767D01*
X25342900Y-14155767D02*
X25333377Y-14127195D01*
X25333377Y-14127195D02*
X25323853Y-14108148D01*
X25323853Y-14108148D02*
X25304805Y-14079576D01*
X25304805Y-14079576D02*
X25295281Y-14070052D01*
D13*
X20342900Y-14470100D02*
G75*
G03*
X20342900Y-14470100I-15000J0D01*
G01*
D11*
X20628614Y-14362624D02*
X20647662Y-14362624D01*
X20647662Y-14362624D02*
X20666710Y-14372148D01*
X20666710Y-14372148D02*
X20676233Y-14381671D01*
X20676233Y-14381671D02*
X20685757Y-14400719D01*
X20685757Y-14400719D02*
X20695281Y-14438814D01*
X20695281Y-14438814D02*
X20695281Y-14486433D01*
X20695281Y-14486433D02*
X20685757Y-14524528D01*
X20685757Y-14524528D02*
X20676233Y-14543576D01*
X20676233Y-14543576D02*
X20666710Y-14553100D01*
X20666710Y-14553100D02*
X20647662Y-14562624D01*
X20647662Y-14562624D02*
X20628614Y-14562624D01*
X20628614Y-14562624D02*
X20609567Y-14553100D01*
X20609567Y-14553100D02*
X20600043Y-14543576D01*
X20600043Y-14543576D02*
X20590519Y-14524528D01*
X20590519Y-14524528D02*
X20580995Y-14486433D01*
X20580995Y-14486433D02*
X20580995Y-14438814D01*
X20580995Y-14438814D02*
X20590519Y-14400719D01*
X20590519Y-14400719D02*
X20600043Y-14381671D01*
X20600043Y-14381671D02*
X20609567Y-14372148D01*
X20609567Y-14372148D02*
X20628614Y-14362624D01*
X20780995Y-14543576D02*
X20790519Y-14553100D01*
X20790519Y-14553100D02*
X20780995Y-14562624D01*
X20780995Y-14562624D02*
X20771471Y-14553100D01*
X20771471Y-14553100D02*
X20780995Y-14543576D01*
X20780995Y-14543576D02*
X20780995Y-14562624D01*
X20857186Y-14362624D02*
X20980995Y-14362624D01*
X20980995Y-14362624D02*
X20914329Y-14438814D01*
X20914329Y-14438814D02*
X20942900Y-14438814D01*
X20942900Y-14438814D02*
X20961948Y-14448338D01*
X20961948Y-14448338D02*
X20971471Y-14457862D01*
X20971471Y-14457862D02*
X20980995Y-14476909D01*
X20980995Y-14476909D02*
X20980995Y-14524528D01*
X20980995Y-14524528D02*
X20971471Y-14543576D01*
X20971471Y-14543576D02*
X20961948Y-14553100D01*
X20961948Y-14553100D02*
X20942900Y-14562624D01*
X20942900Y-14562624D02*
X20885757Y-14562624D01*
X20885757Y-14562624D02*
X20866710Y-14553100D01*
X20866710Y-14553100D02*
X20857186Y-14543576D01*
X21104805Y-14362624D02*
X21123852Y-14362624D01*
X21123852Y-14362624D02*
X21142900Y-14372148D01*
X21142900Y-14372148D02*
X21152424Y-14381671D01*
X21152424Y-14381671D02*
X21161948Y-14400719D01*
X21161948Y-14400719D02*
X21171471Y-14438814D01*
X21171471Y-14438814D02*
X21171471Y-14486433D01*
X21171471Y-14486433D02*
X21161948Y-14524528D01*
X21161948Y-14524528D02*
X21152424Y-14543576D01*
X21152424Y-14543576D02*
X21142900Y-14553100D01*
X21142900Y-14553100D02*
X21123852Y-14562624D01*
X21123852Y-14562624D02*
X21104805Y-14562624D01*
X21104805Y-14562624D02*
X21085757Y-14553100D01*
X21085757Y-14553100D02*
X21076233Y-14543576D01*
X21076233Y-14543576D02*
X21066710Y-14524528D01*
X21066710Y-14524528D02*
X21057186Y-14486433D01*
X21057186Y-14486433D02*
X21057186Y-14438814D01*
X21057186Y-14438814D02*
X21066710Y-14400719D01*
X21066710Y-14400719D02*
X21076233Y-14381671D01*
X21076233Y-14381671D02*
X21085757Y-14372148D01*
X21085757Y-14372148D02*
X21104805Y-14362624D01*
X21295281Y-14362624D02*
X21314329Y-14362624D01*
X21314329Y-14362624D02*
X21333376Y-14372148D01*
X21333376Y-14372148D02*
X21342900Y-14381671D01*
X21342900Y-14381671D02*
X21352424Y-14400719D01*
X21352424Y-14400719D02*
X21361948Y-14438814D01*
X21361948Y-14438814D02*
X21361948Y-14486433D01*
X21361948Y-14486433D02*
X21352424Y-14524528D01*
X21352424Y-14524528D02*
X21342900Y-14543576D01*
X21342900Y-14543576D02*
X21333376Y-14553100D01*
X21333376Y-14553100D02*
X21314329Y-14562624D01*
X21314329Y-14562624D02*
X21295281Y-14562624D01*
X21295281Y-14562624D02*
X21276233Y-14553100D01*
X21276233Y-14553100D02*
X21266710Y-14543576D01*
X21266710Y-14543576D02*
X21257186Y-14524528D01*
X21257186Y-14524528D02*
X21247662Y-14486433D01*
X21247662Y-14486433D02*
X21247662Y-14438814D01*
X21247662Y-14438814D02*
X21257186Y-14400719D01*
X21257186Y-14400719D02*
X21266710Y-14381671D01*
X21266710Y-14381671D02*
X21276233Y-14372148D01*
X21276233Y-14372148D02*
X21295281Y-14362624D01*
X21447662Y-14562624D02*
X21447662Y-14429290D01*
X21447662Y-14448338D02*
X21457186Y-14438814D01*
X21457186Y-14438814D02*
X21476233Y-14429290D01*
X21476233Y-14429290D02*
X21504805Y-14429290D01*
X21504805Y-14429290D02*
X21523852Y-14438814D01*
X21523852Y-14438814D02*
X21533376Y-14457862D01*
X21533376Y-14457862D02*
X21533376Y-14562624D01*
X21533376Y-14457862D02*
X21542900Y-14438814D01*
X21542900Y-14438814D02*
X21561948Y-14429290D01*
X21561948Y-14429290D02*
X21590519Y-14429290D01*
X21590519Y-14429290D02*
X21609567Y-14438814D01*
X21609567Y-14438814D02*
X21619091Y-14457862D01*
X21619091Y-14457862D02*
X21619091Y-14562624D01*
X21714329Y-14562624D02*
X21714329Y-14429290D01*
X21714329Y-14448338D02*
X21723852Y-14438814D01*
X21723852Y-14438814D02*
X21742900Y-14429290D01*
X21742900Y-14429290D02*
X21771472Y-14429290D01*
X21771472Y-14429290D02*
X21790519Y-14438814D01*
X21790519Y-14438814D02*
X21800043Y-14457862D01*
X21800043Y-14457862D02*
X21800043Y-14562624D01*
X21800043Y-14457862D02*
X21809567Y-14438814D01*
X21809567Y-14438814D02*
X21828614Y-14429290D01*
X21828614Y-14429290D02*
X21857186Y-14429290D01*
X21857186Y-14429290D02*
X21876233Y-14438814D01*
X21876233Y-14438814D02*
X21885757Y-14457862D01*
X21885757Y-14457862D02*
X21885757Y-14562624D01*
X22276233Y-14353100D02*
X22104805Y-14610243D01*
X22533376Y-14362624D02*
X22552424Y-14362624D01*
X22552424Y-14362624D02*
X22571472Y-14372148D01*
X22571472Y-14372148D02*
X22580995Y-14381671D01*
X22580995Y-14381671D02*
X22590519Y-14400719D01*
X22590519Y-14400719D02*
X22600043Y-14438814D01*
X22600043Y-14438814D02*
X22600043Y-14486433D01*
X22600043Y-14486433D02*
X22590519Y-14524528D01*
X22590519Y-14524528D02*
X22580995Y-14543576D01*
X22580995Y-14543576D02*
X22571472Y-14553100D01*
X22571472Y-14553100D02*
X22552424Y-14562624D01*
X22552424Y-14562624D02*
X22533376Y-14562624D01*
X22533376Y-14562624D02*
X22514329Y-14553100D01*
X22514329Y-14553100D02*
X22504805Y-14543576D01*
X22504805Y-14543576D02*
X22495281Y-14524528D01*
X22495281Y-14524528D02*
X22485757Y-14486433D01*
X22485757Y-14486433D02*
X22485757Y-14438814D01*
X22485757Y-14438814D02*
X22495281Y-14400719D01*
X22495281Y-14400719D02*
X22504805Y-14381671D01*
X22504805Y-14381671D02*
X22514329Y-14372148D01*
X22514329Y-14372148D02*
X22533376Y-14362624D01*
X22685757Y-14543576D02*
X22695281Y-14553100D01*
X22695281Y-14553100D02*
X22685757Y-14562624D01*
X22685757Y-14562624D02*
X22676233Y-14553100D01*
X22676233Y-14553100D02*
X22685757Y-14543576D01*
X22685757Y-14543576D02*
X22685757Y-14562624D01*
X22819091Y-14362624D02*
X22838138Y-14362624D01*
X22838138Y-14362624D02*
X22857186Y-14372148D01*
X22857186Y-14372148D02*
X22866710Y-14381671D01*
X22866710Y-14381671D02*
X22876233Y-14400719D01*
X22876233Y-14400719D02*
X22885757Y-14438814D01*
X22885757Y-14438814D02*
X22885757Y-14486433D01*
X22885757Y-14486433D02*
X22876233Y-14524528D01*
X22876233Y-14524528D02*
X22866710Y-14543576D01*
X22866710Y-14543576D02*
X22857186Y-14553100D01*
X22857186Y-14553100D02*
X22838138Y-14562624D01*
X22838138Y-14562624D02*
X22819091Y-14562624D01*
X22819091Y-14562624D02*
X22800043Y-14553100D01*
X22800043Y-14553100D02*
X22790519Y-14543576D01*
X22790519Y-14543576D02*
X22780995Y-14524528D01*
X22780995Y-14524528D02*
X22771472Y-14486433D01*
X22771472Y-14486433D02*
X22771472Y-14438814D01*
X22771472Y-14438814D02*
X22780995Y-14400719D01*
X22780995Y-14400719D02*
X22790519Y-14381671D01*
X22790519Y-14381671D02*
X22800043Y-14372148D01*
X22800043Y-14372148D02*
X22819091Y-14362624D01*
X23076233Y-14562624D02*
X22961948Y-14562624D01*
X23019091Y-14562624D02*
X23019091Y-14362624D01*
X23019091Y-14362624D02*
X23000043Y-14391195D01*
X23000043Y-14391195D02*
X22980995Y-14410243D01*
X22980995Y-14410243D02*
X22961948Y-14419767D01*
X23266710Y-14562624D02*
X23152424Y-14562624D01*
X23209567Y-14562624D02*
X23209567Y-14362624D01*
X23209567Y-14362624D02*
X23190519Y-14391195D01*
X23190519Y-14391195D02*
X23171472Y-14410243D01*
X23171472Y-14410243D02*
X23152424Y-14419767D01*
X23380995Y-14448338D02*
X23361948Y-14438814D01*
X23361948Y-14438814D02*
X23352424Y-14429290D01*
X23352424Y-14429290D02*
X23342900Y-14410243D01*
X23342900Y-14410243D02*
X23342900Y-14400719D01*
X23342900Y-14400719D02*
X23352424Y-14381671D01*
X23352424Y-14381671D02*
X23361948Y-14372148D01*
X23361948Y-14372148D02*
X23380995Y-14362624D01*
X23380995Y-14362624D02*
X23419091Y-14362624D01*
X23419091Y-14362624D02*
X23438138Y-14372148D01*
X23438138Y-14372148D02*
X23447662Y-14381671D01*
X23447662Y-14381671D02*
X23457186Y-14400719D01*
X23457186Y-14400719D02*
X23457186Y-14410243D01*
X23457186Y-14410243D02*
X23447662Y-14429290D01*
X23447662Y-14429290D02*
X23438138Y-14438814D01*
X23438138Y-14438814D02*
X23419091Y-14448338D01*
X23419091Y-14448338D02*
X23380995Y-14448338D01*
X23380995Y-14448338D02*
X23361948Y-14457862D01*
X23361948Y-14457862D02*
X23352424Y-14467386D01*
X23352424Y-14467386D02*
X23342900Y-14486433D01*
X23342900Y-14486433D02*
X23342900Y-14524528D01*
X23342900Y-14524528D02*
X23352424Y-14543576D01*
X23352424Y-14543576D02*
X23361948Y-14553100D01*
X23361948Y-14553100D02*
X23380995Y-14562624D01*
X23380995Y-14562624D02*
X23419091Y-14562624D01*
X23419091Y-14562624D02*
X23438138Y-14553100D01*
X23438138Y-14553100D02*
X23447662Y-14543576D01*
X23447662Y-14543576D02*
X23457186Y-14524528D01*
X23457186Y-14524528D02*
X23457186Y-14486433D01*
X23457186Y-14486433D02*
X23447662Y-14467386D01*
X23447662Y-14467386D02*
X23438138Y-14457862D01*
X23438138Y-14457862D02*
X23419091Y-14448338D01*
X23533376Y-14362624D02*
X23533376Y-14400719D01*
X23609567Y-14362624D02*
X23609567Y-14400719D01*
X23904805Y-14638814D02*
X23895281Y-14629290D01*
X23895281Y-14629290D02*
X23876234Y-14600719D01*
X23876234Y-14600719D02*
X23866710Y-14581671D01*
X23866710Y-14581671D02*
X23857186Y-14553100D01*
X23857186Y-14553100D02*
X23847662Y-14505481D01*
X23847662Y-14505481D02*
X23847662Y-14467386D01*
X23847662Y-14467386D02*
X23857186Y-14419767D01*
X23857186Y-14419767D02*
X23866710Y-14391195D01*
X23866710Y-14391195D02*
X23876234Y-14372148D01*
X23876234Y-14372148D02*
X23895281Y-14343576D01*
X23895281Y-14343576D02*
X23904805Y-14334052D01*
X24009567Y-14448338D02*
X23990519Y-14438814D01*
X23990519Y-14438814D02*
X23980995Y-14429290D01*
X23980995Y-14429290D02*
X23971472Y-14410243D01*
X23971472Y-14410243D02*
X23971472Y-14400719D01*
X23971472Y-14400719D02*
X23980995Y-14381671D01*
X23980995Y-14381671D02*
X23990519Y-14372148D01*
X23990519Y-14372148D02*
X24009567Y-14362624D01*
X24009567Y-14362624D02*
X24047662Y-14362624D01*
X24047662Y-14362624D02*
X24066710Y-14372148D01*
X24066710Y-14372148D02*
X24076234Y-14381671D01*
X24076234Y-14381671D02*
X24085757Y-14400719D01*
X24085757Y-14400719D02*
X24085757Y-14410243D01*
X24085757Y-14410243D02*
X24076234Y-14429290D01*
X24076234Y-14429290D02*
X24066710Y-14438814D01*
X24066710Y-14438814D02*
X24047662Y-14448338D01*
X24047662Y-14448338D02*
X24009567Y-14448338D01*
X24009567Y-14448338D02*
X23990519Y-14457862D01*
X23990519Y-14457862D02*
X23980995Y-14467386D01*
X23980995Y-14467386D02*
X23971472Y-14486433D01*
X23971472Y-14486433D02*
X23971472Y-14524528D01*
X23971472Y-14524528D02*
X23980995Y-14543576D01*
X23980995Y-14543576D02*
X23990519Y-14553100D01*
X23990519Y-14553100D02*
X24009567Y-14562624D01*
X24009567Y-14562624D02*
X24047662Y-14562624D01*
X24047662Y-14562624D02*
X24066710Y-14553100D01*
X24066710Y-14553100D02*
X24076234Y-14543576D01*
X24076234Y-14543576D02*
X24085757Y-14524528D01*
X24085757Y-14524528D02*
X24085757Y-14486433D01*
X24085757Y-14486433D02*
X24076234Y-14467386D01*
X24076234Y-14467386D02*
X24066710Y-14457862D01*
X24066710Y-14457862D02*
X24047662Y-14448338D01*
X24323853Y-14562624D02*
X24323853Y-14362624D01*
X24409567Y-14562624D02*
X24409567Y-14457862D01*
X24409567Y-14457862D02*
X24400043Y-14438814D01*
X24400043Y-14438814D02*
X24380996Y-14429290D01*
X24380996Y-14429290D02*
X24352424Y-14429290D01*
X24352424Y-14429290D02*
X24333376Y-14438814D01*
X24333376Y-14438814D02*
X24323853Y-14448338D01*
X24533376Y-14562624D02*
X24514329Y-14553100D01*
X24514329Y-14553100D02*
X24504805Y-14543576D01*
X24504805Y-14543576D02*
X24495281Y-14524528D01*
X24495281Y-14524528D02*
X24495281Y-14467386D01*
X24495281Y-14467386D02*
X24504805Y-14448338D01*
X24504805Y-14448338D02*
X24514329Y-14438814D01*
X24514329Y-14438814D02*
X24533376Y-14429290D01*
X24533376Y-14429290D02*
X24561948Y-14429290D01*
X24561948Y-14429290D02*
X24580996Y-14438814D01*
X24580996Y-14438814D02*
X24590519Y-14448338D01*
X24590519Y-14448338D02*
X24600043Y-14467386D01*
X24600043Y-14467386D02*
X24600043Y-14524528D01*
X24600043Y-14524528D02*
X24590519Y-14543576D01*
X24590519Y-14543576D02*
X24580996Y-14553100D01*
X24580996Y-14553100D02*
X24561948Y-14562624D01*
X24561948Y-14562624D02*
X24533376Y-14562624D01*
X24714329Y-14562624D02*
X24695281Y-14553100D01*
X24695281Y-14553100D02*
X24685757Y-14534052D01*
X24685757Y-14534052D02*
X24685757Y-14362624D01*
X24866710Y-14553100D02*
X24847662Y-14562624D01*
X24847662Y-14562624D02*
X24809567Y-14562624D01*
X24809567Y-14562624D02*
X24790519Y-14553100D01*
X24790519Y-14553100D02*
X24780996Y-14534052D01*
X24780996Y-14534052D02*
X24780996Y-14457862D01*
X24780996Y-14457862D02*
X24790519Y-14438814D01*
X24790519Y-14438814D02*
X24809567Y-14429290D01*
X24809567Y-14429290D02*
X24847662Y-14429290D01*
X24847662Y-14429290D02*
X24866710Y-14438814D01*
X24866710Y-14438814D02*
X24876234Y-14457862D01*
X24876234Y-14457862D02*
X24876234Y-14476909D01*
X24876234Y-14476909D02*
X24780996Y-14495957D01*
X24952424Y-14553100D02*
X24971472Y-14562624D01*
X24971472Y-14562624D02*
X25009567Y-14562624D01*
X25009567Y-14562624D02*
X25028615Y-14553100D01*
X25028615Y-14553100D02*
X25038138Y-14534052D01*
X25038138Y-14534052D02*
X25038138Y-14524528D01*
X25038138Y-14524528D02*
X25028615Y-14505481D01*
X25028615Y-14505481D02*
X25009567Y-14495957D01*
X25009567Y-14495957D02*
X24980996Y-14495957D01*
X24980996Y-14495957D02*
X24961948Y-14486433D01*
X24961948Y-14486433D02*
X24952424Y-14467386D01*
X24952424Y-14467386D02*
X24952424Y-14457862D01*
X24952424Y-14457862D02*
X24961948Y-14438814D01*
X24961948Y-14438814D02*
X24980996Y-14429290D01*
X24980996Y-14429290D02*
X25009567Y-14429290D01*
X25009567Y-14429290D02*
X25028615Y-14438814D01*
X25104805Y-14638814D02*
X25114329Y-14629290D01*
X25114329Y-14629290D02*
X25133377Y-14600719D01*
X25133377Y-14600719D02*
X25142900Y-14581671D01*
X25142900Y-14581671D02*
X25152424Y-14553100D01*
X25152424Y-14553100D02*
X25161948Y-14505481D01*
X25161948Y-14505481D02*
X25161948Y-14467386D01*
X25161948Y-14467386D02*
X25152424Y-14419767D01*
X25152424Y-14419767D02*
X25142900Y-14391195D01*
X25142900Y-14391195D02*
X25133377Y-14372148D01*
X25133377Y-14372148D02*
X25114329Y-14343576D01*
X25114329Y-14343576D02*
X25104805Y-14334052D01*
D14*
X20305400Y-14696600D02*
X20305400Y-14771600D01*
X20267900Y-14734100D02*
X20342900Y-14734100D01*
D11*
X20628614Y-14626624D02*
X20647662Y-14626624D01*
X20647662Y-14626624D02*
X20666710Y-14636148D01*
X20666710Y-14636148D02*
X20676233Y-14645671D01*
X20676233Y-14645671D02*
X20685757Y-14664719D01*
X20685757Y-14664719D02*
X20695281Y-14702814D01*
X20695281Y-14702814D02*
X20695281Y-14750433D01*
X20695281Y-14750433D02*
X20685757Y-14788528D01*
X20685757Y-14788528D02*
X20676233Y-14807576D01*
X20676233Y-14807576D02*
X20666710Y-14817100D01*
X20666710Y-14817100D02*
X20647662Y-14826624D01*
X20647662Y-14826624D02*
X20628614Y-14826624D01*
X20628614Y-14826624D02*
X20609567Y-14817100D01*
X20609567Y-14817100D02*
X20600043Y-14807576D01*
X20600043Y-14807576D02*
X20590519Y-14788528D01*
X20590519Y-14788528D02*
X20580995Y-14750433D01*
X20580995Y-14750433D02*
X20580995Y-14702814D01*
X20580995Y-14702814D02*
X20590519Y-14664719D01*
X20590519Y-14664719D02*
X20600043Y-14645671D01*
X20600043Y-14645671D02*
X20609567Y-14636148D01*
X20609567Y-14636148D02*
X20628614Y-14626624D01*
X20780995Y-14807576D02*
X20790519Y-14817100D01*
X20790519Y-14817100D02*
X20780995Y-14826624D01*
X20780995Y-14826624D02*
X20771471Y-14817100D01*
X20771471Y-14817100D02*
X20780995Y-14807576D01*
X20780995Y-14807576D02*
X20780995Y-14826624D01*
X20857186Y-14626624D02*
X20990519Y-14626624D01*
X20990519Y-14626624D02*
X20904805Y-14826624D01*
X21161948Y-14626624D02*
X21066710Y-14626624D01*
X21066710Y-14626624D02*
X21057186Y-14721862D01*
X21057186Y-14721862D02*
X21066710Y-14712338D01*
X21066710Y-14712338D02*
X21085757Y-14702814D01*
X21085757Y-14702814D02*
X21133376Y-14702814D01*
X21133376Y-14702814D02*
X21152424Y-14712338D01*
X21152424Y-14712338D02*
X21161948Y-14721862D01*
X21161948Y-14721862D02*
X21171471Y-14740909D01*
X21171471Y-14740909D02*
X21171471Y-14788528D01*
X21171471Y-14788528D02*
X21161948Y-14807576D01*
X21161948Y-14807576D02*
X21152424Y-14817100D01*
X21152424Y-14817100D02*
X21133376Y-14826624D01*
X21133376Y-14826624D02*
X21085757Y-14826624D01*
X21085757Y-14826624D02*
X21066710Y-14817100D01*
X21066710Y-14817100D02*
X21057186Y-14807576D01*
X21295281Y-14626624D02*
X21314329Y-14626624D01*
X21314329Y-14626624D02*
X21333376Y-14636148D01*
X21333376Y-14636148D02*
X21342900Y-14645671D01*
X21342900Y-14645671D02*
X21352424Y-14664719D01*
X21352424Y-14664719D02*
X21361948Y-14702814D01*
X21361948Y-14702814D02*
X21361948Y-14750433D01*
X21361948Y-14750433D02*
X21352424Y-14788528D01*
X21352424Y-14788528D02*
X21342900Y-14807576D01*
X21342900Y-14807576D02*
X21333376Y-14817100D01*
X21333376Y-14817100D02*
X21314329Y-14826624D01*
X21314329Y-14826624D02*
X21295281Y-14826624D01*
X21295281Y-14826624D02*
X21276233Y-14817100D01*
X21276233Y-14817100D02*
X21266710Y-14807576D01*
X21266710Y-14807576D02*
X21257186Y-14788528D01*
X21257186Y-14788528D02*
X21247662Y-14750433D01*
X21247662Y-14750433D02*
X21247662Y-14702814D01*
X21247662Y-14702814D02*
X21257186Y-14664719D01*
X21257186Y-14664719D02*
X21266710Y-14645671D01*
X21266710Y-14645671D02*
X21276233Y-14636148D01*
X21276233Y-14636148D02*
X21295281Y-14626624D01*
X21447662Y-14826624D02*
X21447662Y-14693290D01*
X21447662Y-14712338D02*
X21457186Y-14702814D01*
X21457186Y-14702814D02*
X21476233Y-14693290D01*
X21476233Y-14693290D02*
X21504805Y-14693290D01*
X21504805Y-14693290D02*
X21523852Y-14702814D01*
X21523852Y-14702814D02*
X21533376Y-14721862D01*
X21533376Y-14721862D02*
X21533376Y-14826624D01*
X21533376Y-14721862D02*
X21542900Y-14702814D01*
X21542900Y-14702814D02*
X21561948Y-14693290D01*
X21561948Y-14693290D02*
X21590519Y-14693290D01*
X21590519Y-14693290D02*
X21609567Y-14702814D01*
X21609567Y-14702814D02*
X21619091Y-14721862D01*
X21619091Y-14721862D02*
X21619091Y-14826624D01*
X21714329Y-14826624D02*
X21714329Y-14693290D01*
X21714329Y-14712338D02*
X21723852Y-14702814D01*
X21723852Y-14702814D02*
X21742900Y-14693290D01*
X21742900Y-14693290D02*
X21771472Y-14693290D01*
X21771472Y-14693290D02*
X21790519Y-14702814D01*
X21790519Y-14702814D02*
X21800043Y-14721862D01*
X21800043Y-14721862D02*
X21800043Y-14826624D01*
X21800043Y-14721862D02*
X21809567Y-14702814D01*
X21809567Y-14702814D02*
X21828614Y-14693290D01*
X21828614Y-14693290D02*
X21857186Y-14693290D01*
X21857186Y-14693290D02*
X21876233Y-14702814D01*
X21876233Y-14702814D02*
X21885757Y-14721862D01*
X21885757Y-14721862D02*
X21885757Y-14826624D01*
X22276233Y-14617100D02*
X22104805Y-14874243D01*
X22533376Y-14626624D02*
X22552424Y-14626624D01*
X22552424Y-14626624D02*
X22571472Y-14636148D01*
X22571472Y-14636148D02*
X22580995Y-14645671D01*
X22580995Y-14645671D02*
X22590519Y-14664719D01*
X22590519Y-14664719D02*
X22600043Y-14702814D01*
X22600043Y-14702814D02*
X22600043Y-14750433D01*
X22600043Y-14750433D02*
X22590519Y-14788528D01*
X22590519Y-14788528D02*
X22580995Y-14807576D01*
X22580995Y-14807576D02*
X22571472Y-14817100D01*
X22571472Y-14817100D02*
X22552424Y-14826624D01*
X22552424Y-14826624D02*
X22533376Y-14826624D01*
X22533376Y-14826624D02*
X22514329Y-14817100D01*
X22514329Y-14817100D02*
X22504805Y-14807576D01*
X22504805Y-14807576D02*
X22495281Y-14788528D01*
X22495281Y-14788528D02*
X22485757Y-14750433D01*
X22485757Y-14750433D02*
X22485757Y-14702814D01*
X22485757Y-14702814D02*
X22495281Y-14664719D01*
X22495281Y-14664719D02*
X22504805Y-14645671D01*
X22504805Y-14645671D02*
X22514329Y-14636148D01*
X22514329Y-14636148D02*
X22533376Y-14626624D01*
X22685757Y-14807576D02*
X22695281Y-14817100D01*
X22695281Y-14817100D02*
X22685757Y-14826624D01*
X22685757Y-14826624D02*
X22676233Y-14817100D01*
X22676233Y-14817100D02*
X22685757Y-14807576D01*
X22685757Y-14807576D02*
X22685757Y-14826624D01*
X22819091Y-14626624D02*
X22838138Y-14626624D01*
X22838138Y-14626624D02*
X22857186Y-14636148D01*
X22857186Y-14636148D02*
X22866710Y-14645671D01*
X22866710Y-14645671D02*
X22876233Y-14664719D01*
X22876233Y-14664719D02*
X22885757Y-14702814D01*
X22885757Y-14702814D02*
X22885757Y-14750433D01*
X22885757Y-14750433D02*
X22876233Y-14788528D01*
X22876233Y-14788528D02*
X22866710Y-14807576D01*
X22866710Y-14807576D02*
X22857186Y-14817100D01*
X22857186Y-14817100D02*
X22838138Y-14826624D01*
X22838138Y-14826624D02*
X22819091Y-14826624D01*
X22819091Y-14826624D02*
X22800043Y-14817100D01*
X22800043Y-14817100D02*
X22790519Y-14807576D01*
X22790519Y-14807576D02*
X22780995Y-14788528D01*
X22780995Y-14788528D02*
X22771472Y-14750433D01*
X22771472Y-14750433D02*
X22771472Y-14702814D01*
X22771472Y-14702814D02*
X22780995Y-14664719D01*
X22780995Y-14664719D02*
X22790519Y-14645671D01*
X22790519Y-14645671D02*
X22800043Y-14636148D01*
X22800043Y-14636148D02*
X22819091Y-14626624D01*
X22961948Y-14645671D02*
X22971472Y-14636148D01*
X22971472Y-14636148D02*
X22990519Y-14626624D01*
X22990519Y-14626624D02*
X23038138Y-14626624D01*
X23038138Y-14626624D02*
X23057186Y-14636148D01*
X23057186Y-14636148D02*
X23066710Y-14645671D01*
X23066710Y-14645671D02*
X23076233Y-14664719D01*
X23076233Y-14664719D02*
X23076233Y-14683767D01*
X23076233Y-14683767D02*
X23066710Y-14712338D01*
X23066710Y-14712338D02*
X22952424Y-14826624D01*
X22952424Y-14826624D02*
X23076233Y-14826624D01*
X23171472Y-14826624D02*
X23209567Y-14826624D01*
X23209567Y-14826624D02*
X23228614Y-14817100D01*
X23228614Y-14817100D02*
X23238138Y-14807576D01*
X23238138Y-14807576D02*
X23257186Y-14779005D01*
X23257186Y-14779005D02*
X23266710Y-14740909D01*
X23266710Y-14740909D02*
X23266710Y-14664719D01*
X23266710Y-14664719D02*
X23257186Y-14645671D01*
X23257186Y-14645671D02*
X23247662Y-14636148D01*
X23247662Y-14636148D02*
X23228614Y-14626624D01*
X23228614Y-14626624D02*
X23190519Y-14626624D01*
X23190519Y-14626624D02*
X23171472Y-14636148D01*
X23171472Y-14636148D02*
X23161948Y-14645671D01*
X23161948Y-14645671D02*
X23152424Y-14664719D01*
X23152424Y-14664719D02*
X23152424Y-14712338D01*
X23152424Y-14712338D02*
X23161948Y-14731386D01*
X23161948Y-14731386D02*
X23171472Y-14740909D01*
X23171472Y-14740909D02*
X23190519Y-14750433D01*
X23190519Y-14750433D02*
X23228614Y-14750433D01*
X23228614Y-14750433D02*
X23247662Y-14740909D01*
X23247662Y-14740909D02*
X23257186Y-14731386D01*
X23257186Y-14731386D02*
X23266710Y-14712338D01*
X23447662Y-14626624D02*
X23352424Y-14626624D01*
X23352424Y-14626624D02*
X23342900Y-14721862D01*
X23342900Y-14721862D02*
X23352424Y-14712338D01*
X23352424Y-14712338D02*
X23371472Y-14702814D01*
X23371472Y-14702814D02*
X23419091Y-14702814D01*
X23419091Y-14702814D02*
X23438138Y-14712338D01*
X23438138Y-14712338D02*
X23447662Y-14721862D01*
X23447662Y-14721862D02*
X23457186Y-14740909D01*
X23457186Y-14740909D02*
X23457186Y-14788528D01*
X23457186Y-14788528D02*
X23447662Y-14807576D01*
X23447662Y-14807576D02*
X23438138Y-14817100D01*
X23438138Y-14817100D02*
X23419091Y-14826624D01*
X23419091Y-14826624D02*
X23371472Y-14826624D01*
X23371472Y-14826624D02*
X23352424Y-14817100D01*
X23352424Y-14817100D02*
X23342900Y-14807576D01*
X23533376Y-14626624D02*
X23533376Y-14664719D01*
X23609567Y-14626624D02*
X23609567Y-14664719D01*
X23904805Y-14902814D02*
X23895281Y-14893290D01*
X23895281Y-14893290D02*
X23876234Y-14864719D01*
X23876234Y-14864719D02*
X23866710Y-14845671D01*
X23866710Y-14845671D02*
X23857186Y-14817100D01*
X23857186Y-14817100D02*
X23847662Y-14769481D01*
X23847662Y-14769481D02*
X23847662Y-14731386D01*
X23847662Y-14731386D02*
X23857186Y-14683767D01*
X23857186Y-14683767D02*
X23866710Y-14655195D01*
X23866710Y-14655195D02*
X23876234Y-14636148D01*
X23876234Y-14636148D02*
X23895281Y-14607576D01*
X23895281Y-14607576D02*
X23904805Y-14598052D01*
X23971472Y-14645671D02*
X23980995Y-14636148D01*
X23980995Y-14636148D02*
X24000043Y-14626624D01*
X24000043Y-14626624D02*
X24047662Y-14626624D01*
X24047662Y-14626624D02*
X24066710Y-14636148D01*
X24066710Y-14636148D02*
X24076234Y-14645671D01*
X24076234Y-14645671D02*
X24085757Y-14664719D01*
X24085757Y-14664719D02*
X24085757Y-14683767D01*
X24085757Y-14683767D02*
X24076234Y-14712338D01*
X24076234Y-14712338D02*
X23961948Y-14826624D01*
X23961948Y-14826624D02*
X24085757Y-14826624D01*
X24323853Y-14826624D02*
X24323853Y-14626624D01*
X24409567Y-14826624D02*
X24409567Y-14721862D01*
X24409567Y-14721862D02*
X24400043Y-14702814D01*
X24400043Y-14702814D02*
X24380996Y-14693290D01*
X24380996Y-14693290D02*
X24352424Y-14693290D01*
X24352424Y-14693290D02*
X24333376Y-14702814D01*
X24333376Y-14702814D02*
X24323853Y-14712338D01*
X24533376Y-14826624D02*
X24514329Y-14817100D01*
X24514329Y-14817100D02*
X24504805Y-14807576D01*
X24504805Y-14807576D02*
X24495281Y-14788528D01*
X24495281Y-14788528D02*
X24495281Y-14731386D01*
X24495281Y-14731386D02*
X24504805Y-14712338D01*
X24504805Y-14712338D02*
X24514329Y-14702814D01*
X24514329Y-14702814D02*
X24533376Y-14693290D01*
X24533376Y-14693290D02*
X24561948Y-14693290D01*
X24561948Y-14693290D02*
X24580996Y-14702814D01*
X24580996Y-14702814D02*
X24590519Y-14712338D01*
X24590519Y-14712338D02*
X24600043Y-14731386D01*
X24600043Y-14731386D02*
X24600043Y-14788528D01*
X24600043Y-14788528D02*
X24590519Y-14807576D01*
X24590519Y-14807576D02*
X24580996Y-14817100D01*
X24580996Y-14817100D02*
X24561948Y-14826624D01*
X24561948Y-14826624D02*
X24533376Y-14826624D01*
X24714329Y-14826624D02*
X24695281Y-14817100D01*
X24695281Y-14817100D02*
X24685757Y-14798052D01*
X24685757Y-14798052D02*
X24685757Y-14626624D01*
X24866710Y-14817100D02*
X24847662Y-14826624D01*
X24847662Y-14826624D02*
X24809567Y-14826624D01*
X24809567Y-14826624D02*
X24790519Y-14817100D01*
X24790519Y-14817100D02*
X24780996Y-14798052D01*
X24780996Y-14798052D02*
X24780996Y-14721862D01*
X24780996Y-14721862D02*
X24790519Y-14702814D01*
X24790519Y-14702814D02*
X24809567Y-14693290D01*
X24809567Y-14693290D02*
X24847662Y-14693290D01*
X24847662Y-14693290D02*
X24866710Y-14702814D01*
X24866710Y-14702814D02*
X24876234Y-14721862D01*
X24876234Y-14721862D02*
X24876234Y-14740909D01*
X24876234Y-14740909D02*
X24780996Y-14759957D01*
X24952424Y-14817100D02*
X24971472Y-14826624D01*
X24971472Y-14826624D02*
X25009567Y-14826624D01*
X25009567Y-14826624D02*
X25028615Y-14817100D01*
X25028615Y-14817100D02*
X25038138Y-14798052D01*
X25038138Y-14798052D02*
X25038138Y-14788528D01*
X25038138Y-14788528D02*
X25028615Y-14769481D01*
X25028615Y-14769481D02*
X25009567Y-14759957D01*
X25009567Y-14759957D02*
X24980996Y-14759957D01*
X24980996Y-14759957D02*
X24961948Y-14750433D01*
X24961948Y-14750433D02*
X24952424Y-14731386D01*
X24952424Y-14731386D02*
X24952424Y-14721862D01*
X24952424Y-14721862D02*
X24961948Y-14702814D01*
X24961948Y-14702814D02*
X24980996Y-14693290D01*
X24980996Y-14693290D02*
X25009567Y-14693290D01*
X25009567Y-14693290D02*
X25028615Y-14702814D01*
X25104805Y-14902814D02*
X25114329Y-14893290D01*
X25114329Y-14893290D02*
X25133377Y-14864719D01*
X25133377Y-14864719D02*
X25142900Y-14845671D01*
X25142900Y-14845671D02*
X25152424Y-14817100D01*
X25152424Y-14817100D02*
X25161948Y-14769481D01*
X25161948Y-14769481D02*
X25161948Y-14731386D01*
X25161948Y-14731386D02*
X25152424Y-14683767D01*
X25152424Y-14683767D02*
X25142900Y-14655195D01*
X25142900Y-14655195D02*
X25133377Y-14636148D01*
X25133377Y-14636148D02*
X25114329Y-14607576D01*
X25114329Y-14607576D02*
X25104805Y-14598052D01*
D15*
X20331741Y-15025041D02*
X20331741Y-14971159D01*
X20277859Y-14971159D01*
X20277859Y-15025041D01*
X20331741Y-15025041D01*
D11*
X20628614Y-14890624D02*
X20647662Y-14890624D01*
X20647662Y-14890624D02*
X20666710Y-14900148D01*
X20666710Y-14900148D02*
X20676233Y-14909671D01*
X20676233Y-14909671D02*
X20685757Y-14928719D01*
X20685757Y-14928719D02*
X20695281Y-14966814D01*
X20695281Y-14966814D02*
X20695281Y-15014433D01*
X20695281Y-15014433D02*
X20685757Y-15052528D01*
X20685757Y-15052528D02*
X20676233Y-15071576D01*
X20676233Y-15071576D02*
X20666710Y-15081100D01*
X20666710Y-15081100D02*
X20647662Y-15090624D01*
X20647662Y-15090624D02*
X20628614Y-15090624D01*
X20628614Y-15090624D02*
X20609567Y-15081100D01*
X20609567Y-15081100D02*
X20600043Y-15071576D01*
X20600043Y-15071576D02*
X20590519Y-15052528D01*
X20590519Y-15052528D02*
X20580995Y-15014433D01*
X20580995Y-15014433D02*
X20580995Y-14966814D01*
X20580995Y-14966814D02*
X20590519Y-14928719D01*
X20590519Y-14928719D02*
X20600043Y-14909671D01*
X20600043Y-14909671D02*
X20609567Y-14900148D01*
X20609567Y-14900148D02*
X20628614Y-14890624D01*
X20780995Y-15071576D02*
X20790519Y-15081100D01*
X20790519Y-15081100D02*
X20780995Y-15090624D01*
X20780995Y-15090624D02*
X20771471Y-15081100D01*
X20771471Y-15081100D02*
X20780995Y-15071576D01*
X20780995Y-15071576D02*
X20780995Y-15090624D01*
X20857186Y-14890624D02*
X20990519Y-14890624D01*
X20990519Y-14890624D02*
X20904805Y-15090624D01*
X21152424Y-14890624D02*
X21114329Y-14890624D01*
X21114329Y-14890624D02*
X21095281Y-14900148D01*
X21095281Y-14900148D02*
X21085757Y-14909671D01*
X21085757Y-14909671D02*
X21066710Y-14938243D01*
X21066710Y-14938243D02*
X21057186Y-14976338D01*
X21057186Y-14976338D02*
X21057186Y-15052528D01*
X21057186Y-15052528D02*
X21066710Y-15071576D01*
X21066710Y-15071576D02*
X21076233Y-15081100D01*
X21076233Y-15081100D02*
X21095281Y-15090624D01*
X21095281Y-15090624D02*
X21133376Y-15090624D01*
X21133376Y-15090624D02*
X21152424Y-15081100D01*
X21152424Y-15081100D02*
X21161948Y-15071576D01*
X21161948Y-15071576D02*
X21171471Y-15052528D01*
X21171471Y-15052528D02*
X21171471Y-15004909D01*
X21171471Y-15004909D02*
X21161948Y-14985862D01*
X21161948Y-14985862D02*
X21152424Y-14976338D01*
X21152424Y-14976338D02*
X21133376Y-14966814D01*
X21133376Y-14966814D02*
X21095281Y-14966814D01*
X21095281Y-14966814D02*
X21076233Y-14976338D01*
X21076233Y-14976338D02*
X21066710Y-14985862D01*
X21066710Y-14985862D02*
X21057186Y-15004909D01*
X21247662Y-14909671D02*
X21257186Y-14900148D01*
X21257186Y-14900148D02*
X21276233Y-14890624D01*
X21276233Y-14890624D02*
X21323852Y-14890624D01*
X21323852Y-14890624D02*
X21342900Y-14900148D01*
X21342900Y-14900148D02*
X21352424Y-14909671D01*
X21352424Y-14909671D02*
X21361948Y-14928719D01*
X21361948Y-14928719D02*
X21361948Y-14947767D01*
X21361948Y-14947767D02*
X21352424Y-14976338D01*
X21352424Y-14976338D02*
X21238138Y-15090624D01*
X21238138Y-15090624D02*
X21361948Y-15090624D01*
X21447662Y-15090624D02*
X21447662Y-14957290D01*
X21447662Y-14976338D02*
X21457186Y-14966814D01*
X21457186Y-14966814D02*
X21476233Y-14957290D01*
X21476233Y-14957290D02*
X21504805Y-14957290D01*
X21504805Y-14957290D02*
X21523852Y-14966814D01*
X21523852Y-14966814D02*
X21533376Y-14985862D01*
X21533376Y-14985862D02*
X21533376Y-15090624D01*
X21533376Y-14985862D02*
X21542900Y-14966814D01*
X21542900Y-14966814D02*
X21561948Y-14957290D01*
X21561948Y-14957290D02*
X21590519Y-14957290D01*
X21590519Y-14957290D02*
X21609567Y-14966814D01*
X21609567Y-14966814D02*
X21619091Y-14985862D01*
X21619091Y-14985862D02*
X21619091Y-15090624D01*
X21714329Y-15090624D02*
X21714329Y-14957290D01*
X21714329Y-14976338D02*
X21723852Y-14966814D01*
X21723852Y-14966814D02*
X21742900Y-14957290D01*
X21742900Y-14957290D02*
X21771472Y-14957290D01*
X21771472Y-14957290D02*
X21790519Y-14966814D01*
X21790519Y-14966814D02*
X21800043Y-14985862D01*
X21800043Y-14985862D02*
X21800043Y-15090624D01*
X21800043Y-14985862D02*
X21809567Y-14966814D01*
X21809567Y-14966814D02*
X21828614Y-14957290D01*
X21828614Y-14957290D02*
X21857186Y-14957290D01*
X21857186Y-14957290D02*
X21876233Y-14966814D01*
X21876233Y-14966814D02*
X21885757Y-14985862D01*
X21885757Y-14985862D02*
X21885757Y-15090624D01*
X22276233Y-14881100D02*
X22104805Y-15138243D01*
X22533376Y-14890624D02*
X22552424Y-14890624D01*
X22552424Y-14890624D02*
X22571472Y-14900148D01*
X22571472Y-14900148D02*
X22580995Y-14909671D01*
X22580995Y-14909671D02*
X22590519Y-14928719D01*
X22590519Y-14928719D02*
X22600043Y-14966814D01*
X22600043Y-14966814D02*
X22600043Y-15014433D01*
X22600043Y-15014433D02*
X22590519Y-15052528D01*
X22590519Y-15052528D02*
X22580995Y-15071576D01*
X22580995Y-15071576D02*
X22571472Y-15081100D01*
X22571472Y-15081100D02*
X22552424Y-15090624D01*
X22552424Y-15090624D02*
X22533376Y-15090624D01*
X22533376Y-15090624D02*
X22514329Y-15081100D01*
X22514329Y-15081100D02*
X22504805Y-15071576D01*
X22504805Y-15071576D02*
X22495281Y-15052528D01*
X22495281Y-15052528D02*
X22485757Y-15014433D01*
X22485757Y-15014433D02*
X22485757Y-14966814D01*
X22485757Y-14966814D02*
X22495281Y-14928719D01*
X22495281Y-14928719D02*
X22504805Y-14909671D01*
X22504805Y-14909671D02*
X22514329Y-14900148D01*
X22514329Y-14900148D02*
X22533376Y-14890624D01*
X22685757Y-15071576D02*
X22695281Y-15081100D01*
X22695281Y-15081100D02*
X22685757Y-15090624D01*
X22685757Y-15090624D02*
X22676233Y-15081100D01*
X22676233Y-15081100D02*
X22685757Y-15071576D01*
X22685757Y-15071576D02*
X22685757Y-15090624D01*
X22819091Y-14890624D02*
X22838138Y-14890624D01*
X22838138Y-14890624D02*
X22857186Y-14900148D01*
X22857186Y-14900148D02*
X22866710Y-14909671D01*
X22866710Y-14909671D02*
X22876233Y-14928719D01*
X22876233Y-14928719D02*
X22885757Y-14966814D01*
X22885757Y-14966814D02*
X22885757Y-15014433D01*
X22885757Y-15014433D02*
X22876233Y-15052528D01*
X22876233Y-15052528D02*
X22866710Y-15071576D01*
X22866710Y-15071576D02*
X22857186Y-15081100D01*
X22857186Y-15081100D02*
X22838138Y-15090624D01*
X22838138Y-15090624D02*
X22819091Y-15090624D01*
X22819091Y-15090624D02*
X22800043Y-15081100D01*
X22800043Y-15081100D02*
X22790519Y-15071576D01*
X22790519Y-15071576D02*
X22780995Y-15052528D01*
X22780995Y-15052528D02*
X22771472Y-15014433D01*
X22771472Y-15014433D02*
X22771472Y-14966814D01*
X22771472Y-14966814D02*
X22780995Y-14928719D01*
X22780995Y-14928719D02*
X22790519Y-14909671D01*
X22790519Y-14909671D02*
X22800043Y-14900148D01*
X22800043Y-14900148D02*
X22819091Y-14890624D01*
X22952424Y-14890624D02*
X23076233Y-14890624D01*
X23076233Y-14890624D02*
X23009567Y-14966814D01*
X23009567Y-14966814D02*
X23038138Y-14966814D01*
X23038138Y-14966814D02*
X23057186Y-14976338D01*
X23057186Y-14976338D02*
X23066710Y-14985862D01*
X23066710Y-14985862D02*
X23076233Y-15004909D01*
X23076233Y-15004909D02*
X23076233Y-15052528D01*
X23076233Y-15052528D02*
X23066710Y-15071576D01*
X23066710Y-15071576D02*
X23057186Y-15081100D01*
X23057186Y-15081100D02*
X23038138Y-15090624D01*
X23038138Y-15090624D02*
X22980995Y-15090624D01*
X22980995Y-15090624D02*
X22961948Y-15081100D01*
X22961948Y-15081100D02*
X22952424Y-15071576D01*
X23200043Y-14890624D02*
X23219091Y-14890624D01*
X23219091Y-14890624D02*
X23238138Y-14900148D01*
X23238138Y-14900148D02*
X23247662Y-14909671D01*
X23247662Y-14909671D02*
X23257186Y-14928719D01*
X23257186Y-14928719D02*
X23266710Y-14966814D01*
X23266710Y-14966814D02*
X23266710Y-15014433D01*
X23266710Y-15014433D02*
X23257186Y-15052528D01*
X23257186Y-15052528D02*
X23247662Y-15071576D01*
X23247662Y-15071576D02*
X23238138Y-15081100D01*
X23238138Y-15081100D02*
X23219091Y-15090624D01*
X23219091Y-15090624D02*
X23200043Y-15090624D01*
X23200043Y-15090624D02*
X23180995Y-15081100D01*
X23180995Y-15081100D02*
X23171472Y-15071576D01*
X23171472Y-15071576D02*
X23161948Y-15052528D01*
X23161948Y-15052528D02*
X23152424Y-15014433D01*
X23152424Y-15014433D02*
X23152424Y-14966814D01*
X23152424Y-14966814D02*
X23161948Y-14928719D01*
X23161948Y-14928719D02*
X23171472Y-14909671D01*
X23171472Y-14909671D02*
X23180995Y-14900148D01*
X23180995Y-14900148D02*
X23200043Y-14890624D01*
X23390519Y-14890624D02*
X23409567Y-14890624D01*
X23409567Y-14890624D02*
X23428614Y-14900148D01*
X23428614Y-14900148D02*
X23438138Y-14909671D01*
X23438138Y-14909671D02*
X23447662Y-14928719D01*
X23447662Y-14928719D02*
X23457186Y-14966814D01*
X23457186Y-14966814D02*
X23457186Y-15014433D01*
X23457186Y-15014433D02*
X23447662Y-15052528D01*
X23447662Y-15052528D02*
X23438138Y-15071576D01*
X23438138Y-15071576D02*
X23428614Y-15081100D01*
X23428614Y-15081100D02*
X23409567Y-15090624D01*
X23409567Y-15090624D02*
X23390519Y-15090624D01*
X23390519Y-15090624D02*
X23371472Y-15081100D01*
X23371472Y-15081100D02*
X23361948Y-15071576D01*
X23361948Y-15071576D02*
X23352424Y-15052528D01*
X23352424Y-15052528D02*
X23342900Y-15014433D01*
X23342900Y-15014433D02*
X23342900Y-14966814D01*
X23342900Y-14966814D02*
X23352424Y-14928719D01*
X23352424Y-14928719D02*
X23361948Y-14909671D01*
X23361948Y-14909671D02*
X23371472Y-14900148D01*
X23371472Y-14900148D02*
X23390519Y-14890624D01*
X23533376Y-14890624D02*
X23533376Y-14928719D01*
X23609567Y-14890624D02*
X23609567Y-14928719D01*
X23904805Y-15166814D02*
X23895281Y-15157290D01*
X23895281Y-15157290D02*
X23876234Y-15128719D01*
X23876234Y-15128719D02*
X23866710Y-15109671D01*
X23866710Y-15109671D02*
X23857186Y-15081100D01*
X23857186Y-15081100D02*
X23847662Y-15033481D01*
X23847662Y-15033481D02*
X23847662Y-14995386D01*
X23847662Y-14995386D02*
X23857186Y-14947767D01*
X23857186Y-14947767D02*
X23866710Y-14919195D01*
X23866710Y-14919195D02*
X23876234Y-14900148D01*
X23876234Y-14900148D02*
X23895281Y-14871576D01*
X23895281Y-14871576D02*
X23904805Y-14862052D01*
X24066710Y-14957290D02*
X24066710Y-15090624D01*
X24019091Y-14881100D02*
X23971472Y-15023957D01*
X23971472Y-15023957D02*
X24095281Y-15023957D01*
X24209567Y-14890624D02*
X24228615Y-14890624D01*
X24228615Y-14890624D02*
X24247662Y-14900148D01*
X24247662Y-14900148D02*
X24257186Y-14909671D01*
X24257186Y-14909671D02*
X24266710Y-14928719D01*
X24266710Y-14928719D02*
X24276234Y-14966814D01*
X24276234Y-14966814D02*
X24276234Y-15014433D01*
X24276234Y-15014433D02*
X24266710Y-15052528D01*
X24266710Y-15052528D02*
X24257186Y-15071576D01*
X24257186Y-15071576D02*
X24247662Y-15081100D01*
X24247662Y-15081100D02*
X24228615Y-15090624D01*
X24228615Y-15090624D02*
X24209567Y-15090624D01*
X24209567Y-15090624D02*
X24190519Y-15081100D01*
X24190519Y-15081100D02*
X24180995Y-15071576D01*
X24180995Y-15071576D02*
X24171472Y-15052528D01*
X24171472Y-15052528D02*
X24161948Y-15014433D01*
X24161948Y-15014433D02*
X24161948Y-14966814D01*
X24161948Y-14966814D02*
X24171472Y-14928719D01*
X24171472Y-14928719D02*
X24180995Y-14909671D01*
X24180995Y-14909671D02*
X24190519Y-14900148D01*
X24190519Y-14900148D02*
X24209567Y-14890624D01*
X24514329Y-15090624D02*
X24514329Y-14890624D01*
X24600043Y-15090624D02*
X24600043Y-14985862D01*
X24600043Y-14985862D02*
X24590519Y-14966814D01*
X24590519Y-14966814D02*
X24571472Y-14957290D01*
X24571472Y-14957290D02*
X24542900Y-14957290D01*
X24542900Y-14957290D02*
X24523853Y-14966814D01*
X24523853Y-14966814D02*
X24514329Y-14976338D01*
X24723853Y-15090624D02*
X24704805Y-15081100D01*
X24704805Y-15081100D02*
X24695281Y-15071576D01*
X24695281Y-15071576D02*
X24685757Y-15052528D01*
X24685757Y-15052528D02*
X24685757Y-14995386D01*
X24685757Y-14995386D02*
X24695281Y-14976338D01*
X24695281Y-14976338D02*
X24704805Y-14966814D01*
X24704805Y-14966814D02*
X24723853Y-14957290D01*
X24723853Y-14957290D02*
X24752424Y-14957290D01*
X24752424Y-14957290D02*
X24771472Y-14966814D01*
X24771472Y-14966814D02*
X24780996Y-14976338D01*
X24780996Y-14976338D02*
X24790519Y-14995386D01*
X24790519Y-14995386D02*
X24790519Y-15052528D01*
X24790519Y-15052528D02*
X24780996Y-15071576D01*
X24780996Y-15071576D02*
X24771472Y-15081100D01*
X24771472Y-15081100D02*
X24752424Y-15090624D01*
X24752424Y-15090624D02*
X24723853Y-15090624D01*
X24904805Y-15090624D02*
X24885757Y-15081100D01*
X24885757Y-15081100D02*
X24876234Y-15062052D01*
X24876234Y-15062052D02*
X24876234Y-14890624D01*
X25057186Y-15081100D02*
X25038138Y-15090624D01*
X25038138Y-15090624D02*
X25000043Y-15090624D01*
X25000043Y-15090624D02*
X24980996Y-15081100D01*
X24980996Y-15081100D02*
X24971472Y-15062052D01*
X24971472Y-15062052D02*
X24971472Y-14985862D01*
X24971472Y-14985862D02*
X24980996Y-14966814D01*
X24980996Y-14966814D02*
X25000043Y-14957290D01*
X25000043Y-14957290D02*
X25038138Y-14957290D01*
X25038138Y-14957290D02*
X25057186Y-14966814D01*
X25057186Y-14966814D02*
X25066710Y-14985862D01*
X25066710Y-14985862D02*
X25066710Y-15004909D01*
X25066710Y-15004909D02*
X24971472Y-15023957D01*
X25142900Y-15081100D02*
X25161948Y-15090624D01*
X25161948Y-15090624D02*
X25200043Y-15090624D01*
X25200043Y-15090624D02*
X25219091Y-15081100D01*
X25219091Y-15081100D02*
X25228615Y-15062052D01*
X25228615Y-15062052D02*
X25228615Y-15052528D01*
X25228615Y-15052528D02*
X25219091Y-15033481D01*
X25219091Y-15033481D02*
X25200043Y-15023957D01*
X25200043Y-15023957D02*
X25171472Y-15023957D01*
X25171472Y-15023957D02*
X25152424Y-15014433D01*
X25152424Y-15014433D02*
X25142900Y-14995386D01*
X25142900Y-14995386D02*
X25142900Y-14985862D01*
X25142900Y-14985862D02*
X25152424Y-14966814D01*
X25152424Y-14966814D02*
X25171472Y-14957290D01*
X25171472Y-14957290D02*
X25200043Y-14957290D01*
X25200043Y-14957290D02*
X25219091Y-14966814D01*
X25295281Y-15166814D02*
X25304805Y-15157290D01*
X25304805Y-15157290D02*
X25323853Y-15128719D01*
X25323853Y-15128719D02*
X25333377Y-15109671D01*
X25333377Y-15109671D02*
X25342900Y-15081100D01*
X25342900Y-15081100D02*
X25352424Y-15033481D01*
X25352424Y-15033481D02*
X25352424Y-14995386D01*
X25352424Y-14995386D02*
X25342900Y-14947767D01*
X25342900Y-14947767D02*
X25333377Y-14919195D01*
X25333377Y-14919195D02*
X25323853Y-14900148D01*
X25323853Y-14900148D02*
X25304805Y-14871576D01*
X25304805Y-14871576D02*
X25295281Y-14862052D01*
D16*
X20292900Y-15312100D02*
X20342900Y-15262100D01*
X20292900Y-15212100D01*
X20242900Y-15262100D01*
X20292900Y-15312100D01*
D11*
X20695281Y-15354624D02*
X20580995Y-15354624D01*
X20638138Y-15354624D02*
X20638138Y-15154624D01*
X20638138Y-15154624D02*
X20619090Y-15183195D01*
X20619090Y-15183195D02*
X20600043Y-15202243D01*
X20600043Y-15202243D02*
X20580995Y-15211767D01*
X20780995Y-15335576D02*
X20790519Y-15345100D01*
X20790519Y-15345100D02*
X20780995Y-15354624D01*
X20780995Y-15354624D02*
X20771471Y-15345100D01*
X20771471Y-15345100D02*
X20780995Y-15335576D01*
X20780995Y-15335576D02*
X20780995Y-15354624D01*
X20914329Y-15154624D02*
X20933376Y-15154624D01*
X20933376Y-15154624D02*
X20952424Y-15164148D01*
X20952424Y-15164148D02*
X20961948Y-15173671D01*
X20961948Y-15173671D02*
X20971471Y-15192719D01*
X20971471Y-15192719D02*
X20980995Y-15230814D01*
X20980995Y-15230814D02*
X20980995Y-15278433D01*
X20980995Y-15278433D02*
X20971471Y-15316528D01*
X20971471Y-15316528D02*
X20961948Y-15335576D01*
X20961948Y-15335576D02*
X20952424Y-15345100D01*
X20952424Y-15345100D02*
X20933376Y-15354624D01*
X20933376Y-15354624D02*
X20914329Y-15354624D01*
X20914329Y-15354624D02*
X20895281Y-15345100D01*
X20895281Y-15345100D02*
X20885757Y-15335576D01*
X20885757Y-15335576D02*
X20876233Y-15316528D01*
X20876233Y-15316528D02*
X20866710Y-15278433D01*
X20866710Y-15278433D02*
X20866710Y-15230814D01*
X20866710Y-15230814D02*
X20876233Y-15192719D01*
X20876233Y-15192719D02*
X20885757Y-15173671D01*
X20885757Y-15173671D02*
X20895281Y-15164148D01*
X20895281Y-15164148D02*
X20914329Y-15154624D01*
X21104805Y-15154624D02*
X21123852Y-15154624D01*
X21123852Y-15154624D02*
X21142900Y-15164148D01*
X21142900Y-15164148D02*
X21152424Y-15173671D01*
X21152424Y-15173671D02*
X21161948Y-15192719D01*
X21161948Y-15192719D02*
X21171471Y-15230814D01*
X21171471Y-15230814D02*
X21171471Y-15278433D01*
X21171471Y-15278433D02*
X21161948Y-15316528D01*
X21161948Y-15316528D02*
X21152424Y-15335576D01*
X21152424Y-15335576D02*
X21142900Y-15345100D01*
X21142900Y-15345100D02*
X21123852Y-15354624D01*
X21123852Y-15354624D02*
X21104805Y-15354624D01*
X21104805Y-15354624D02*
X21085757Y-15345100D01*
X21085757Y-15345100D02*
X21076233Y-15335576D01*
X21076233Y-15335576D02*
X21066710Y-15316528D01*
X21066710Y-15316528D02*
X21057186Y-15278433D01*
X21057186Y-15278433D02*
X21057186Y-15230814D01*
X21057186Y-15230814D02*
X21066710Y-15192719D01*
X21066710Y-15192719D02*
X21076233Y-15173671D01*
X21076233Y-15173671D02*
X21085757Y-15164148D01*
X21085757Y-15164148D02*
X21104805Y-15154624D01*
X21295281Y-15154624D02*
X21314329Y-15154624D01*
X21314329Y-15154624D02*
X21333376Y-15164148D01*
X21333376Y-15164148D02*
X21342900Y-15173671D01*
X21342900Y-15173671D02*
X21352424Y-15192719D01*
X21352424Y-15192719D02*
X21361948Y-15230814D01*
X21361948Y-15230814D02*
X21361948Y-15278433D01*
X21361948Y-15278433D02*
X21352424Y-15316528D01*
X21352424Y-15316528D02*
X21342900Y-15335576D01*
X21342900Y-15335576D02*
X21333376Y-15345100D01*
X21333376Y-15345100D02*
X21314329Y-15354624D01*
X21314329Y-15354624D02*
X21295281Y-15354624D01*
X21295281Y-15354624D02*
X21276233Y-15345100D01*
X21276233Y-15345100D02*
X21266710Y-15335576D01*
X21266710Y-15335576D02*
X21257186Y-15316528D01*
X21257186Y-15316528D02*
X21247662Y-15278433D01*
X21247662Y-15278433D02*
X21247662Y-15230814D01*
X21247662Y-15230814D02*
X21257186Y-15192719D01*
X21257186Y-15192719D02*
X21266710Y-15173671D01*
X21266710Y-15173671D02*
X21276233Y-15164148D01*
X21276233Y-15164148D02*
X21295281Y-15154624D01*
X21447662Y-15354624D02*
X21447662Y-15221290D01*
X21447662Y-15240338D02*
X21457186Y-15230814D01*
X21457186Y-15230814D02*
X21476233Y-15221290D01*
X21476233Y-15221290D02*
X21504805Y-15221290D01*
X21504805Y-15221290D02*
X21523852Y-15230814D01*
X21523852Y-15230814D02*
X21533376Y-15249862D01*
X21533376Y-15249862D02*
X21533376Y-15354624D01*
X21533376Y-15249862D02*
X21542900Y-15230814D01*
X21542900Y-15230814D02*
X21561948Y-15221290D01*
X21561948Y-15221290D02*
X21590519Y-15221290D01*
X21590519Y-15221290D02*
X21609567Y-15230814D01*
X21609567Y-15230814D02*
X21619091Y-15249862D01*
X21619091Y-15249862D02*
X21619091Y-15354624D01*
X21714329Y-15354624D02*
X21714329Y-15221290D01*
X21714329Y-15240338D02*
X21723852Y-15230814D01*
X21723852Y-15230814D02*
X21742900Y-15221290D01*
X21742900Y-15221290D02*
X21771472Y-15221290D01*
X21771472Y-15221290D02*
X21790519Y-15230814D01*
X21790519Y-15230814D02*
X21800043Y-15249862D01*
X21800043Y-15249862D02*
X21800043Y-15354624D01*
X21800043Y-15249862D02*
X21809567Y-15230814D01*
X21809567Y-15230814D02*
X21828614Y-15221290D01*
X21828614Y-15221290D02*
X21857186Y-15221290D01*
X21857186Y-15221290D02*
X21876233Y-15230814D01*
X21876233Y-15230814D02*
X21885757Y-15249862D01*
X21885757Y-15249862D02*
X21885757Y-15354624D01*
X22276233Y-15145100D02*
X22104805Y-15402243D01*
X22533376Y-15154624D02*
X22552424Y-15154624D01*
X22552424Y-15154624D02*
X22571472Y-15164148D01*
X22571472Y-15164148D02*
X22580995Y-15173671D01*
X22580995Y-15173671D02*
X22590519Y-15192719D01*
X22590519Y-15192719D02*
X22600043Y-15230814D01*
X22600043Y-15230814D02*
X22600043Y-15278433D01*
X22600043Y-15278433D02*
X22590519Y-15316528D01*
X22590519Y-15316528D02*
X22580995Y-15335576D01*
X22580995Y-15335576D02*
X22571472Y-15345100D01*
X22571472Y-15345100D02*
X22552424Y-15354624D01*
X22552424Y-15354624D02*
X22533376Y-15354624D01*
X22533376Y-15354624D02*
X22514329Y-15345100D01*
X22514329Y-15345100D02*
X22504805Y-15335576D01*
X22504805Y-15335576D02*
X22495281Y-15316528D01*
X22495281Y-15316528D02*
X22485757Y-15278433D01*
X22485757Y-15278433D02*
X22485757Y-15230814D01*
X22485757Y-15230814D02*
X22495281Y-15192719D01*
X22495281Y-15192719D02*
X22504805Y-15173671D01*
X22504805Y-15173671D02*
X22514329Y-15164148D01*
X22514329Y-15164148D02*
X22533376Y-15154624D01*
X22685757Y-15335576D02*
X22695281Y-15345100D01*
X22695281Y-15345100D02*
X22685757Y-15354624D01*
X22685757Y-15354624D02*
X22676233Y-15345100D01*
X22676233Y-15345100D02*
X22685757Y-15335576D01*
X22685757Y-15335576D02*
X22685757Y-15354624D01*
X22819091Y-15154624D02*
X22838138Y-15154624D01*
X22838138Y-15154624D02*
X22857186Y-15164148D01*
X22857186Y-15164148D02*
X22866710Y-15173671D01*
X22866710Y-15173671D02*
X22876233Y-15192719D01*
X22876233Y-15192719D02*
X22885757Y-15230814D01*
X22885757Y-15230814D02*
X22885757Y-15278433D01*
X22885757Y-15278433D02*
X22876233Y-15316528D01*
X22876233Y-15316528D02*
X22866710Y-15335576D01*
X22866710Y-15335576D02*
X22857186Y-15345100D01*
X22857186Y-15345100D02*
X22838138Y-15354624D01*
X22838138Y-15354624D02*
X22819091Y-15354624D01*
X22819091Y-15354624D02*
X22800043Y-15345100D01*
X22800043Y-15345100D02*
X22790519Y-15335576D01*
X22790519Y-15335576D02*
X22780995Y-15316528D01*
X22780995Y-15316528D02*
X22771472Y-15278433D01*
X22771472Y-15278433D02*
X22771472Y-15230814D01*
X22771472Y-15230814D02*
X22780995Y-15192719D01*
X22780995Y-15192719D02*
X22790519Y-15173671D01*
X22790519Y-15173671D02*
X22800043Y-15164148D01*
X22800043Y-15164148D02*
X22819091Y-15154624D01*
X22952424Y-15154624D02*
X23076233Y-15154624D01*
X23076233Y-15154624D02*
X23009567Y-15230814D01*
X23009567Y-15230814D02*
X23038138Y-15230814D01*
X23038138Y-15230814D02*
X23057186Y-15240338D01*
X23057186Y-15240338D02*
X23066710Y-15249862D01*
X23066710Y-15249862D02*
X23076233Y-15268909D01*
X23076233Y-15268909D02*
X23076233Y-15316528D01*
X23076233Y-15316528D02*
X23066710Y-15335576D01*
X23066710Y-15335576D02*
X23057186Y-15345100D01*
X23057186Y-15345100D02*
X23038138Y-15354624D01*
X23038138Y-15354624D02*
X22980995Y-15354624D01*
X22980995Y-15354624D02*
X22961948Y-15345100D01*
X22961948Y-15345100D02*
X22952424Y-15335576D01*
X23171472Y-15354624D02*
X23209567Y-15354624D01*
X23209567Y-15354624D02*
X23228614Y-15345100D01*
X23228614Y-15345100D02*
X23238138Y-15335576D01*
X23238138Y-15335576D02*
X23257186Y-15307005D01*
X23257186Y-15307005D02*
X23266710Y-15268909D01*
X23266710Y-15268909D02*
X23266710Y-15192719D01*
X23266710Y-15192719D02*
X23257186Y-15173671D01*
X23257186Y-15173671D02*
X23247662Y-15164148D01*
X23247662Y-15164148D02*
X23228614Y-15154624D01*
X23228614Y-15154624D02*
X23190519Y-15154624D01*
X23190519Y-15154624D02*
X23171472Y-15164148D01*
X23171472Y-15164148D02*
X23161948Y-15173671D01*
X23161948Y-15173671D02*
X23152424Y-15192719D01*
X23152424Y-15192719D02*
X23152424Y-15240338D01*
X23152424Y-15240338D02*
X23161948Y-15259386D01*
X23161948Y-15259386D02*
X23171472Y-15268909D01*
X23171472Y-15268909D02*
X23190519Y-15278433D01*
X23190519Y-15278433D02*
X23228614Y-15278433D01*
X23228614Y-15278433D02*
X23247662Y-15268909D01*
X23247662Y-15268909D02*
X23257186Y-15259386D01*
X23257186Y-15259386D02*
X23266710Y-15240338D01*
X23438138Y-15221290D02*
X23438138Y-15354624D01*
X23390519Y-15145100D02*
X23342900Y-15287957D01*
X23342900Y-15287957D02*
X23466710Y-15287957D01*
X23533376Y-15154624D02*
X23533376Y-15192719D01*
X23609567Y-15154624D02*
X23609567Y-15192719D01*
X23904805Y-15430814D02*
X23895281Y-15421290D01*
X23895281Y-15421290D02*
X23876234Y-15392719D01*
X23876234Y-15392719D02*
X23866710Y-15373671D01*
X23866710Y-15373671D02*
X23857186Y-15345100D01*
X23857186Y-15345100D02*
X23847662Y-15297481D01*
X23847662Y-15297481D02*
X23847662Y-15259386D01*
X23847662Y-15259386D02*
X23857186Y-15211767D01*
X23857186Y-15211767D02*
X23866710Y-15183195D01*
X23866710Y-15183195D02*
X23876234Y-15164148D01*
X23876234Y-15164148D02*
X23895281Y-15135576D01*
X23895281Y-15135576D02*
X23904805Y-15126052D01*
X23990519Y-15354624D02*
X24028614Y-15354624D01*
X24028614Y-15354624D02*
X24047662Y-15345100D01*
X24047662Y-15345100D02*
X24057186Y-15335576D01*
X24057186Y-15335576D02*
X24076234Y-15307005D01*
X24076234Y-15307005D02*
X24085757Y-15268909D01*
X24085757Y-15268909D02*
X24085757Y-15192719D01*
X24085757Y-15192719D02*
X24076234Y-15173671D01*
X24076234Y-15173671D02*
X24066710Y-15164148D01*
X24066710Y-15164148D02*
X24047662Y-15154624D01*
X24047662Y-15154624D02*
X24009567Y-15154624D01*
X24009567Y-15154624D02*
X23990519Y-15164148D01*
X23990519Y-15164148D02*
X23980995Y-15173671D01*
X23980995Y-15173671D02*
X23971472Y-15192719D01*
X23971472Y-15192719D02*
X23971472Y-15240338D01*
X23971472Y-15240338D02*
X23980995Y-15259386D01*
X23980995Y-15259386D02*
X23990519Y-15268909D01*
X23990519Y-15268909D02*
X24009567Y-15278433D01*
X24009567Y-15278433D02*
X24047662Y-15278433D01*
X24047662Y-15278433D02*
X24066710Y-15268909D01*
X24066710Y-15268909D02*
X24076234Y-15259386D01*
X24076234Y-15259386D02*
X24085757Y-15240338D01*
X24323853Y-15354624D02*
X24323853Y-15154624D01*
X24409567Y-15354624D02*
X24409567Y-15249862D01*
X24409567Y-15249862D02*
X24400043Y-15230814D01*
X24400043Y-15230814D02*
X24380996Y-15221290D01*
X24380996Y-15221290D02*
X24352424Y-15221290D01*
X24352424Y-15221290D02*
X24333376Y-15230814D01*
X24333376Y-15230814D02*
X24323853Y-15240338D01*
X24533376Y-15354624D02*
X24514329Y-15345100D01*
X24514329Y-15345100D02*
X24504805Y-15335576D01*
X24504805Y-15335576D02*
X24495281Y-15316528D01*
X24495281Y-15316528D02*
X24495281Y-15259386D01*
X24495281Y-15259386D02*
X24504805Y-15240338D01*
X24504805Y-15240338D02*
X24514329Y-15230814D01*
X24514329Y-15230814D02*
X24533376Y-15221290D01*
X24533376Y-15221290D02*
X24561948Y-15221290D01*
X24561948Y-15221290D02*
X24580996Y-15230814D01*
X24580996Y-15230814D02*
X24590519Y-15240338D01*
X24590519Y-15240338D02*
X24600043Y-15259386D01*
X24600043Y-15259386D02*
X24600043Y-15316528D01*
X24600043Y-15316528D02*
X24590519Y-15335576D01*
X24590519Y-15335576D02*
X24580996Y-15345100D01*
X24580996Y-15345100D02*
X24561948Y-15354624D01*
X24561948Y-15354624D02*
X24533376Y-15354624D01*
X24714329Y-15354624D02*
X24695281Y-15345100D01*
X24695281Y-15345100D02*
X24685757Y-15326052D01*
X24685757Y-15326052D02*
X24685757Y-15154624D01*
X24866710Y-15345100D02*
X24847662Y-15354624D01*
X24847662Y-15354624D02*
X24809567Y-15354624D01*
X24809567Y-15354624D02*
X24790519Y-15345100D01*
X24790519Y-15345100D02*
X24780996Y-15326052D01*
X24780996Y-15326052D02*
X24780996Y-15249862D01*
X24780996Y-15249862D02*
X24790519Y-15230814D01*
X24790519Y-15230814D02*
X24809567Y-15221290D01*
X24809567Y-15221290D02*
X24847662Y-15221290D01*
X24847662Y-15221290D02*
X24866710Y-15230814D01*
X24866710Y-15230814D02*
X24876234Y-15249862D01*
X24876234Y-15249862D02*
X24876234Y-15268909D01*
X24876234Y-15268909D02*
X24780996Y-15287957D01*
X24952424Y-15345100D02*
X24971472Y-15354624D01*
X24971472Y-15354624D02*
X25009567Y-15354624D01*
X25009567Y-15354624D02*
X25028615Y-15345100D01*
X25028615Y-15345100D02*
X25038138Y-15326052D01*
X25038138Y-15326052D02*
X25038138Y-15316528D01*
X25038138Y-15316528D02*
X25028615Y-15297481D01*
X25028615Y-15297481D02*
X25009567Y-15287957D01*
X25009567Y-15287957D02*
X24980996Y-15287957D01*
X24980996Y-15287957D02*
X24961948Y-15278433D01*
X24961948Y-15278433D02*
X24952424Y-15259386D01*
X24952424Y-15259386D02*
X24952424Y-15249862D01*
X24952424Y-15249862D02*
X24961948Y-15230814D01*
X24961948Y-15230814D02*
X24980996Y-15221290D01*
X24980996Y-15221290D02*
X25009567Y-15221290D01*
X25009567Y-15221290D02*
X25028615Y-15230814D01*
X25104805Y-15430814D02*
X25114329Y-15421290D01*
X25114329Y-15421290D02*
X25133377Y-15392719D01*
X25133377Y-15392719D02*
X25142900Y-15373671D01*
X25142900Y-15373671D02*
X25152424Y-15345100D01*
X25152424Y-15345100D02*
X25161948Y-15297481D01*
X25161948Y-15297481D02*
X25161948Y-15259386D01*
X25161948Y-15259386D02*
X25152424Y-15211767D01*
X25152424Y-15211767D02*
X25142900Y-15183195D01*
X25142900Y-15183195D02*
X25133377Y-15164148D01*
X25133377Y-15164148D02*
X25114329Y-15135576D01*
X25114329Y-15135576D02*
X25104805Y-15126052D01*
D17*
X20222900Y-15466100D02*
X20342900Y-15586100D01*
X20342900Y-15466100D02*
X20222900Y-15586100D01*
X20342900Y-15526100D02*
G75*
G03*
X20342900Y-15526100I-60000J0D01*
G01*
D11*
X20695281Y-15618624D02*
X20580995Y-15618624D01*
X20638138Y-15618624D02*
X20638138Y-15418624D01*
X20638138Y-15418624D02*
X20619090Y-15447195D01*
X20619090Y-15447195D02*
X20600043Y-15466243D01*
X20600043Y-15466243D02*
X20580995Y-15475767D01*
X20780995Y-15599576D02*
X20790519Y-15609100D01*
X20790519Y-15609100D02*
X20780995Y-15618624D01*
X20780995Y-15618624D02*
X20771471Y-15609100D01*
X20771471Y-15609100D02*
X20780995Y-15599576D01*
X20780995Y-15599576D02*
X20780995Y-15618624D01*
X20866710Y-15437671D02*
X20876233Y-15428148D01*
X20876233Y-15428148D02*
X20895281Y-15418624D01*
X20895281Y-15418624D02*
X20942900Y-15418624D01*
X20942900Y-15418624D02*
X20961948Y-15428148D01*
X20961948Y-15428148D02*
X20971471Y-15437671D01*
X20971471Y-15437671D02*
X20980995Y-15456719D01*
X20980995Y-15456719D02*
X20980995Y-15475767D01*
X20980995Y-15475767D02*
X20971471Y-15504338D01*
X20971471Y-15504338D02*
X20857186Y-15618624D01*
X20857186Y-15618624D02*
X20980995Y-15618624D01*
X21104805Y-15418624D02*
X21123852Y-15418624D01*
X21123852Y-15418624D02*
X21142900Y-15428148D01*
X21142900Y-15428148D02*
X21152424Y-15437671D01*
X21152424Y-15437671D02*
X21161948Y-15456719D01*
X21161948Y-15456719D02*
X21171471Y-15494814D01*
X21171471Y-15494814D02*
X21171471Y-15542433D01*
X21171471Y-15542433D02*
X21161948Y-15580528D01*
X21161948Y-15580528D02*
X21152424Y-15599576D01*
X21152424Y-15599576D02*
X21142900Y-15609100D01*
X21142900Y-15609100D02*
X21123852Y-15618624D01*
X21123852Y-15618624D02*
X21104805Y-15618624D01*
X21104805Y-15618624D02*
X21085757Y-15609100D01*
X21085757Y-15609100D02*
X21076233Y-15599576D01*
X21076233Y-15599576D02*
X21066710Y-15580528D01*
X21066710Y-15580528D02*
X21057186Y-15542433D01*
X21057186Y-15542433D02*
X21057186Y-15494814D01*
X21057186Y-15494814D02*
X21066710Y-15456719D01*
X21066710Y-15456719D02*
X21076233Y-15437671D01*
X21076233Y-15437671D02*
X21085757Y-15428148D01*
X21085757Y-15428148D02*
X21104805Y-15418624D01*
X21295281Y-15418624D02*
X21314329Y-15418624D01*
X21314329Y-15418624D02*
X21333376Y-15428148D01*
X21333376Y-15428148D02*
X21342900Y-15437671D01*
X21342900Y-15437671D02*
X21352424Y-15456719D01*
X21352424Y-15456719D02*
X21361948Y-15494814D01*
X21361948Y-15494814D02*
X21361948Y-15542433D01*
X21361948Y-15542433D02*
X21352424Y-15580528D01*
X21352424Y-15580528D02*
X21342900Y-15599576D01*
X21342900Y-15599576D02*
X21333376Y-15609100D01*
X21333376Y-15609100D02*
X21314329Y-15618624D01*
X21314329Y-15618624D02*
X21295281Y-15618624D01*
X21295281Y-15618624D02*
X21276233Y-15609100D01*
X21276233Y-15609100D02*
X21266710Y-15599576D01*
X21266710Y-15599576D02*
X21257186Y-15580528D01*
X21257186Y-15580528D02*
X21247662Y-15542433D01*
X21247662Y-15542433D02*
X21247662Y-15494814D01*
X21247662Y-15494814D02*
X21257186Y-15456719D01*
X21257186Y-15456719D02*
X21266710Y-15437671D01*
X21266710Y-15437671D02*
X21276233Y-15428148D01*
X21276233Y-15428148D02*
X21295281Y-15418624D01*
X21447662Y-15618624D02*
X21447662Y-15485290D01*
X21447662Y-15504338D02*
X21457186Y-15494814D01*
X21457186Y-15494814D02*
X21476233Y-15485290D01*
X21476233Y-15485290D02*
X21504805Y-15485290D01*
X21504805Y-15485290D02*
X21523852Y-15494814D01*
X21523852Y-15494814D02*
X21533376Y-15513862D01*
X21533376Y-15513862D02*
X21533376Y-15618624D01*
X21533376Y-15513862D02*
X21542900Y-15494814D01*
X21542900Y-15494814D02*
X21561948Y-15485290D01*
X21561948Y-15485290D02*
X21590519Y-15485290D01*
X21590519Y-15485290D02*
X21609567Y-15494814D01*
X21609567Y-15494814D02*
X21619091Y-15513862D01*
X21619091Y-15513862D02*
X21619091Y-15618624D01*
X21714329Y-15618624D02*
X21714329Y-15485290D01*
X21714329Y-15504338D02*
X21723852Y-15494814D01*
X21723852Y-15494814D02*
X21742900Y-15485290D01*
X21742900Y-15485290D02*
X21771472Y-15485290D01*
X21771472Y-15485290D02*
X21790519Y-15494814D01*
X21790519Y-15494814D02*
X21800043Y-15513862D01*
X21800043Y-15513862D02*
X21800043Y-15618624D01*
X21800043Y-15513862D02*
X21809567Y-15494814D01*
X21809567Y-15494814D02*
X21828614Y-15485290D01*
X21828614Y-15485290D02*
X21857186Y-15485290D01*
X21857186Y-15485290D02*
X21876233Y-15494814D01*
X21876233Y-15494814D02*
X21885757Y-15513862D01*
X21885757Y-15513862D02*
X21885757Y-15618624D01*
X22276233Y-15409100D02*
X22104805Y-15666243D01*
X22533376Y-15418624D02*
X22552424Y-15418624D01*
X22552424Y-15418624D02*
X22571472Y-15428148D01*
X22571472Y-15428148D02*
X22580995Y-15437671D01*
X22580995Y-15437671D02*
X22590519Y-15456719D01*
X22590519Y-15456719D02*
X22600043Y-15494814D01*
X22600043Y-15494814D02*
X22600043Y-15542433D01*
X22600043Y-15542433D02*
X22590519Y-15580528D01*
X22590519Y-15580528D02*
X22580995Y-15599576D01*
X22580995Y-15599576D02*
X22571472Y-15609100D01*
X22571472Y-15609100D02*
X22552424Y-15618624D01*
X22552424Y-15618624D02*
X22533376Y-15618624D01*
X22533376Y-15618624D02*
X22514329Y-15609100D01*
X22514329Y-15609100D02*
X22504805Y-15599576D01*
X22504805Y-15599576D02*
X22495281Y-15580528D01*
X22495281Y-15580528D02*
X22485757Y-15542433D01*
X22485757Y-15542433D02*
X22485757Y-15494814D01*
X22485757Y-15494814D02*
X22495281Y-15456719D01*
X22495281Y-15456719D02*
X22504805Y-15437671D01*
X22504805Y-15437671D02*
X22514329Y-15428148D01*
X22514329Y-15428148D02*
X22533376Y-15418624D01*
X22685757Y-15599576D02*
X22695281Y-15609100D01*
X22695281Y-15609100D02*
X22685757Y-15618624D01*
X22685757Y-15618624D02*
X22676233Y-15609100D01*
X22676233Y-15609100D02*
X22685757Y-15599576D01*
X22685757Y-15599576D02*
X22685757Y-15618624D01*
X22819091Y-15418624D02*
X22838138Y-15418624D01*
X22838138Y-15418624D02*
X22857186Y-15428148D01*
X22857186Y-15428148D02*
X22866710Y-15437671D01*
X22866710Y-15437671D02*
X22876233Y-15456719D01*
X22876233Y-15456719D02*
X22885757Y-15494814D01*
X22885757Y-15494814D02*
X22885757Y-15542433D01*
X22885757Y-15542433D02*
X22876233Y-15580528D01*
X22876233Y-15580528D02*
X22866710Y-15599576D01*
X22866710Y-15599576D02*
X22857186Y-15609100D01*
X22857186Y-15609100D02*
X22838138Y-15618624D01*
X22838138Y-15618624D02*
X22819091Y-15618624D01*
X22819091Y-15618624D02*
X22800043Y-15609100D01*
X22800043Y-15609100D02*
X22790519Y-15599576D01*
X22790519Y-15599576D02*
X22780995Y-15580528D01*
X22780995Y-15580528D02*
X22771472Y-15542433D01*
X22771472Y-15542433D02*
X22771472Y-15494814D01*
X22771472Y-15494814D02*
X22780995Y-15456719D01*
X22780995Y-15456719D02*
X22790519Y-15437671D01*
X22790519Y-15437671D02*
X22800043Y-15428148D01*
X22800043Y-15428148D02*
X22819091Y-15418624D01*
X23057186Y-15485290D02*
X23057186Y-15618624D01*
X23009567Y-15409100D02*
X22961948Y-15551957D01*
X22961948Y-15551957D02*
X23085757Y-15551957D01*
X23142900Y-15418624D02*
X23276233Y-15418624D01*
X23276233Y-15418624D02*
X23190519Y-15618624D01*
X23342900Y-15437671D02*
X23352424Y-15428148D01*
X23352424Y-15428148D02*
X23371472Y-15418624D01*
X23371472Y-15418624D02*
X23419091Y-15418624D01*
X23419091Y-15418624D02*
X23438138Y-15428148D01*
X23438138Y-15428148D02*
X23447662Y-15437671D01*
X23447662Y-15437671D02*
X23457186Y-15456719D01*
X23457186Y-15456719D02*
X23457186Y-15475767D01*
X23457186Y-15475767D02*
X23447662Y-15504338D01*
X23447662Y-15504338D02*
X23333376Y-15618624D01*
X23333376Y-15618624D02*
X23457186Y-15618624D01*
X23533376Y-15418624D02*
X23533376Y-15456719D01*
X23609567Y-15418624D02*
X23609567Y-15456719D01*
X23904805Y-15694814D02*
X23895281Y-15685290D01*
X23895281Y-15685290D02*
X23876234Y-15656719D01*
X23876234Y-15656719D02*
X23866710Y-15637671D01*
X23866710Y-15637671D02*
X23857186Y-15609100D01*
X23857186Y-15609100D02*
X23847662Y-15561481D01*
X23847662Y-15561481D02*
X23847662Y-15523386D01*
X23847662Y-15523386D02*
X23857186Y-15475767D01*
X23857186Y-15475767D02*
X23866710Y-15447195D01*
X23866710Y-15447195D02*
X23876234Y-15428148D01*
X23876234Y-15428148D02*
X23895281Y-15399576D01*
X23895281Y-15399576D02*
X23904805Y-15390052D01*
X24066710Y-15485290D02*
X24066710Y-15618624D01*
X24019091Y-15409100D02*
X23971472Y-15551957D01*
X23971472Y-15551957D02*
X24095281Y-15551957D01*
X24323853Y-15618624D02*
X24323853Y-15418624D01*
X24409567Y-15618624D02*
X24409567Y-15513862D01*
X24409567Y-15513862D02*
X24400043Y-15494814D01*
X24400043Y-15494814D02*
X24380996Y-15485290D01*
X24380996Y-15485290D02*
X24352424Y-15485290D01*
X24352424Y-15485290D02*
X24333376Y-15494814D01*
X24333376Y-15494814D02*
X24323853Y-15504338D01*
X24533376Y-15618624D02*
X24514329Y-15609100D01*
X24514329Y-15609100D02*
X24504805Y-15599576D01*
X24504805Y-15599576D02*
X24495281Y-15580528D01*
X24495281Y-15580528D02*
X24495281Y-15523386D01*
X24495281Y-15523386D02*
X24504805Y-15504338D01*
X24504805Y-15504338D02*
X24514329Y-15494814D01*
X24514329Y-15494814D02*
X24533376Y-15485290D01*
X24533376Y-15485290D02*
X24561948Y-15485290D01*
X24561948Y-15485290D02*
X24580996Y-15494814D01*
X24580996Y-15494814D02*
X24590519Y-15504338D01*
X24590519Y-15504338D02*
X24600043Y-15523386D01*
X24600043Y-15523386D02*
X24600043Y-15580528D01*
X24600043Y-15580528D02*
X24590519Y-15599576D01*
X24590519Y-15599576D02*
X24580996Y-15609100D01*
X24580996Y-15609100D02*
X24561948Y-15618624D01*
X24561948Y-15618624D02*
X24533376Y-15618624D01*
X24714329Y-15618624D02*
X24695281Y-15609100D01*
X24695281Y-15609100D02*
X24685757Y-15590052D01*
X24685757Y-15590052D02*
X24685757Y-15418624D01*
X24866710Y-15609100D02*
X24847662Y-15618624D01*
X24847662Y-15618624D02*
X24809567Y-15618624D01*
X24809567Y-15618624D02*
X24790519Y-15609100D01*
X24790519Y-15609100D02*
X24780996Y-15590052D01*
X24780996Y-15590052D02*
X24780996Y-15513862D01*
X24780996Y-15513862D02*
X24790519Y-15494814D01*
X24790519Y-15494814D02*
X24809567Y-15485290D01*
X24809567Y-15485290D02*
X24847662Y-15485290D01*
X24847662Y-15485290D02*
X24866710Y-15494814D01*
X24866710Y-15494814D02*
X24876234Y-15513862D01*
X24876234Y-15513862D02*
X24876234Y-15532909D01*
X24876234Y-15532909D02*
X24780996Y-15551957D01*
X24952424Y-15609100D02*
X24971472Y-15618624D01*
X24971472Y-15618624D02*
X25009567Y-15618624D01*
X25009567Y-15618624D02*
X25028615Y-15609100D01*
X25028615Y-15609100D02*
X25038138Y-15590052D01*
X25038138Y-15590052D02*
X25038138Y-15580528D01*
X25038138Y-15580528D02*
X25028615Y-15561481D01*
X25028615Y-15561481D02*
X25009567Y-15551957D01*
X25009567Y-15551957D02*
X24980996Y-15551957D01*
X24980996Y-15551957D02*
X24961948Y-15542433D01*
X24961948Y-15542433D02*
X24952424Y-15523386D01*
X24952424Y-15523386D02*
X24952424Y-15513862D01*
X24952424Y-15513862D02*
X24961948Y-15494814D01*
X24961948Y-15494814D02*
X24980996Y-15485290D01*
X24980996Y-15485290D02*
X25009567Y-15485290D01*
X25009567Y-15485290D02*
X25028615Y-15494814D01*
X25104805Y-15694814D02*
X25114329Y-15685290D01*
X25114329Y-15685290D02*
X25133377Y-15656719D01*
X25133377Y-15656719D02*
X25142900Y-15637671D01*
X25142900Y-15637671D02*
X25152424Y-15609100D01*
X25152424Y-15609100D02*
X25161948Y-15561481D01*
X25161948Y-15561481D02*
X25161948Y-15523386D01*
X25161948Y-15523386D02*
X25152424Y-15475767D01*
X25152424Y-15475767D02*
X25142900Y-15447195D01*
X25142900Y-15447195D02*
X25133377Y-15428148D01*
X25133377Y-15428148D02*
X25114329Y-15399576D01*
X25114329Y-15399576D02*
X25104805Y-15390052D01*
D18*
X20212900Y-15725100D02*
X20342900Y-15855100D01*
X20342900Y-15725100D02*
X20212900Y-15855100D01*
X20277900Y-15725100D02*
X20277900Y-15855100D01*
X20212900Y-15790100D02*
X20342900Y-15790100D01*
D11*
X20695281Y-15882624D02*
X20580995Y-15882624D01*
X20638138Y-15882624D02*
X20638138Y-15682624D01*
X20638138Y-15682624D02*
X20619090Y-15711195D01*
X20619090Y-15711195D02*
X20600043Y-15730243D01*
X20600043Y-15730243D02*
X20580995Y-15739767D01*
X20780995Y-15863576D02*
X20790519Y-15873100D01*
X20790519Y-15873100D02*
X20780995Y-15882624D01*
X20780995Y-15882624D02*
X20771471Y-15873100D01*
X20771471Y-15873100D02*
X20780995Y-15863576D01*
X20780995Y-15863576D02*
X20780995Y-15882624D01*
X20857186Y-15682624D02*
X20980995Y-15682624D01*
X20980995Y-15682624D02*
X20914329Y-15758814D01*
X20914329Y-15758814D02*
X20942900Y-15758814D01*
X20942900Y-15758814D02*
X20961948Y-15768338D01*
X20961948Y-15768338D02*
X20971471Y-15777862D01*
X20971471Y-15777862D02*
X20980995Y-15796909D01*
X20980995Y-15796909D02*
X20980995Y-15844528D01*
X20980995Y-15844528D02*
X20971471Y-15863576D01*
X20971471Y-15863576D02*
X20961948Y-15873100D01*
X20961948Y-15873100D02*
X20942900Y-15882624D01*
X20942900Y-15882624D02*
X20885757Y-15882624D01*
X20885757Y-15882624D02*
X20866710Y-15873100D01*
X20866710Y-15873100D02*
X20857186Y-15863576D01*
X21104805Y-15682624D02*
X21123852Y-15682624D01*
X21123852Y-15682624D02*
X21142900Y-15692148D01*
X21142900Y-15692148D02*
X21152424Y-15701671D01*
X21152424Y-15701671D02*
X21161948Y-15720719D01*
X21161948Y-15720719D02*
X21171471Y-15758814D01*
X21171471Y-15758814D02*
X21171471Y-15806433D01*
X21171471Y-15806433D02*
X21161948Y-15844528D01*
X21161948Y-15844528D02*
X21152424Y-15863576D01*
X21152424Y-15863576D02*
X21142900Y-15873100D01*
X21142900Y-15873100D02*
X21123852Y-15882624D01*
X21123852Y-15882624D02*
X21104805Y-15882624D01*
X21104805Y-15882624D02*
X21085757Y-15873100D01*
X21085757Y-15873100D02*
X21076233Y-15863576D01*
X21076233Y-15863576D02*
X21066710Y-15844528D01*
X21066710Y-15844528D02*
X21057186Y-15806433D01*
X21057186Y-15806433D02*
X21057186Y-15758814D01*
X21057186Y-15758814D02*
X21066710Y-15720719D01*
X21066710Y-15720719D02*
X21076233Y-15701671D01*
X21076233Y-15701671D02*
X21085757Y-15692148D01*
X21085757Y-15692148D02*
X21104805Y-15682624D01*
X21295281Y-15682624D02*
X21314329Y-15682624D01*
X21314329Y-15682624D02*
X21333376Y-15692148D01*
X21333376Y-15692148D02*
X21342900Y-15701671D01*
X21342900Y-15701671D02*
X21352424Y-15720719D01*
X21352424Y-15720719D02*
X21361948Y-15758814D01*
X21361948Y-15758814D02*
X21361948Y-15806433D01*
X21361948Y-15806433D02*
X21352424Y-15844528D01*
X21352424Y-15844528D02*
X21342900Y-15863576D01*
X21342900Y-15863576D02*
X21333376Y-15873100D01*
X21333376Y-15873100D02*
X21314329Y-15882624D01*
X21314329Y-15882624D02*
X21295281Y-15882624D01*
X21295281Y-15882624D02*
X21276233Y-15873100D01*
X21276233Y-15873100D02*
X21266710Y-15863576D01*
X21266710Y-15863576D02*
X21257186Y-15844528D01*
X21257186Y-15844528D02*
X21247662Y-15806433D01*
X21247662Y-15806433D02*
X21247662Y-15758814D01*
X21247662Y-15758814D02*
X21257186Y-15720719D01*
X21257186Y-15720719D02*
X21266710Y-15701671D01*
X21266710Y-15701671D02*
X21276233Y-15692148D01*
X21276233Y-15692148D02*
X21295281Y-15682624D01*
X21447662Y-15882624D02*
X21447662Y-15749290D01*
X21447662Y-15768338D02*
X21457186Y-15758814D01*
X21457186Y-15758814D02*
X21476233Y-15749290D01*
X21476233Y-15749290D02*
X21504805Y-15749290D01*
X21504805Y-15749290D02*
X21523852Y-15758814D01*
X21523852Y-15758814D02*
X21533376Y-15777862D01*
X21533376Y-15777862D02*
X21533376Y-15882624D01*
X21533376Y-15777862D02*
X21542900Y-15758814D01*
X21542900Y-15758814D02*
X21561948Y-15749290D01*
X21561948Y-15749290D02*
X21590519Y-15749290D01*
X21590519Y-15749290D02*
X21609567Y-15758814D01*
X21609567Y-15758814D02*
X21619091Y-15777862D01*
X21619091Y-15777862D02*
X21619091Y-15882624D01*
X21714329Y-15882624D02*
X21714329Y-15749290D01*
X21714329Y-15768338D02*
X21723852Y-15758814D01*
X21723852Y-15758814D02*
X21742900Y-15749290D01*
X21742900Y-15749290D02*
X21771472Y-15749290D01*
X21771472Y-15749290D02*
X21790519Y-15758814D01*
X21790519Y-15758814D02*
X21800043Y-15777862D01*
X21800043Y-15777862D02*
X21800043Y-15882624D01*
X21800043Y-15777862D02*
X21809567Y-15758814D01*
X21809567Y-15758814D02*
X21828614Y-15749290D01*
X21828614Y-15749290D02*
X21857186Y-15749290D01*
X21857186Y-15749290D02*
X21876233Y-15758814D01*
X21876233Y-15758814D02*
X21885757Y-15777862D01*
X21885757Y-15777862D02*
X21885757Y-15882624D01*
X22276233Y-15673100D02*
X22104805Y-15930243D01*
X22533376Y-15682624D02*
X22552424Y-15682624D01*
X22552424Y-15682624D02*
X22571472Y-15692148D01*
X22571472Y-15692148D02*
X22580995Y-15701671D01*
X22580995Y-15701671D02*
X22590519Y-15720719D01*
X22590519Y-15720719D02*
X22600043Y-15758814D01*
X22600043Y-15758814D02*
X22600043Y-15806433D01*
X22600043Y-15806433D02*
X22590519Y-15844528D01*
X22590519Y-15844528D02*
X22580995Y-15863576D01*
X22580995Y-15863576D02*
X22571472Y-15873100D01*
X22571472Y-15873100D02*
X22552424Y-15882624D01*
X22552424Y-15882624D02*
X22533376Y-15882624D01*
X22533376Y-15882624D02*
X22514329Y-15873100D01*
X22514329Y-15873100D02*
X22504805Y-15863576D01*
X22504805Y-15863576D02*
X22495281Y-15844528D01*
X22495281Y-15844528D02*
X22485757Y-15806433D01*
X22485757Y-15806433D02*
X22485757Y-15758814D01*
X22485757Y-15758814D02*
X22495281Y-15720719D01*
X22495281Y-15720719D02*
X22504805Y-15701671D01*
X22504805Y-15701671D02*
X22514329Y-15692148D01*
X22514329Y-15692148D02*
X22533376Y-15682624D01*
X22685757Y-15863576D02*
X22695281Y-15873100D01*
X22695281Y-15873100D02*
X22685757Y-15882624D01*
X22685757Y-15882624D02*
X22676233Y-15873100D01*
X22676233Y-15873100D02*
X22685757Y-15863576D01*
X22685757Y-15863576D02*
X22685757Y-15882624D01*
X22819091Y-15682624D02*
X22838138Y-15682624D01*
X22838138Y-15682624D02*
X22857186Y-15692148D01*
X22857186Y-15692148D02*
X22866710Y-15701671D01*
X22866710Y-15701671D02*
X22876233Y-15720719D01*
X22876233Y-15720719D02*
X22885757Y-15758814D01*
X22885757Y-15758814D02*
X22885757Y-15806433D01*
X22885757Y-15806433D02*
X22876233Y-15844528D01*
X22876233Y-15844528D02*
X22866710Y-15863576D01*
X22866710Y-15863576D02*
X22857186Y-15873100D01*
X22857186Y-15873100D02*
X22838138Y-15882624D01*
X22838138Y-15882624D02*
X22819091Y-15882624D01*
X22819091Y-15882624D02*
X22800043Y-15873100D01*
X22800043Y-15873100D02*
X22790519Y-15863576D01*
X22790519Y-15863576D02*
X22780995Y-15844528D01*
X22780995Y-15844528D02*
X22771472Y-15806433D01*
X22771472Y-15806433D02*
X22771472Y-15758814D01*
X22771472Y-15758814D02*
X22780995Y-15720719D01*
X22780995Y-15720719D02*
X22790519Y-15701671D01*
X22790519Y-15701671D02*
X22800043Y-15692148D01*
X22800043Y-15692148D02*
X22819091Y-15682624D01*
X23066710Y-15682624D02*
X22971472Y-15682624D01*
X22971472Y-15682624D02*
X22961948Y-15777862D01*
X22961948Y-15777862D02*
X22971472Y-15768338D01*
X22971472Y-15768338D02*
X22990519Y-15758814D01*
X22990519Y-15758814D02*
X23038138Y-15758814D01*
X23038138Y-15758814D02*
X23057186Y-15768338D01*
X23057186Y-15768338D02*
X23066710Y-15777862D01*
X23066710Y-15777862D02*
X23076233Y-15796909D01*
X23076233Y-15796909D02*
X23076233Y-15844528D01*
X23076233Y-15844528D02*
X23066710Y-15863576D01*
X23066710Y-15863576D02*
X23057186Y-15873100D01*
X23057186Y-15873100D02*
X23038138Y-15882624D01*
X23038138Y-15882624D02*
X22990519Y-15882624D01*
X22990519Y-15882624D02*
X22971472Y-15873100D01*
X22971472Y-15873100D02*
X22961948Y-15863576D01*
X23266710Y-15882624D02*
X23152424Y-15882624D01*
X23209567Y-15882624D02*
X23209567Y-15682624D01*
X23209567Y-15682624D02*
X23190519Y-15711195D01*
X23190519Y-15711195D02*
X23171472Y-15730243D01*
X23171472Y-15730243D02*
X23152424Y-15739767D01*
X23342900Y-15701671D02*
X23352424Y-15692148D01*
X23352424Y-15692148D02*
X23371472Y-15682624D01*
X23371472Y-15682624D02*
X23419091Y-15682624D01*
X23419091Y-15682624D02*
X23438138Y-15692148D01*
X23438138Y-15692148D02*
X23447662Y-15701671D01*
X23447662Y-15701671D02*
X23457186Y-15720719D01*
X23457186Y-15720719D02*
X23457186Y-15739767D01*
X23457186Y-15739767D02*
X23447662Y-15768338D01*
X23447662Y-15768338D02*
X23333376Y-15882624D01*
X23333376Y-15882624D02*
X23457186Y-15882624D01*
X23533376Y-15682624D02*
X23533376Y-15720719D01*
X23609567Y-15682624D02*
X23609567Y-15720719D01*
X23904805Y-15958814D02*
X23895281Y-15949290D01*
X23895281Y-15949290D02*
X23876234Y-15920719D01*
X23876234Y-15920719D02*
X23866710Y-15901671D01*
X23866710Y-15901671D02*
X23857186Y-15873100D01*
X23857186Y-15873100D02*
X23847662Y-15825481D01*
X23847662Y-15825481D02*
X23847662Y-15787386D01*
X23847662Y-15787386D02*
X23857186Y-15739767D01*
X23857186Y-15739767D02*
X23866710Y-15711195D01*
X23866710Y-15711195D02*
X23876234Y-15692148D01*
X23876234Y-15692148D02*
X23895281Y-15663576D01*
X23895281Y-15663576D02*
X23904805Y-15654052D01*
X23971472Y-15701671D02*
X23980995Y-15692148D01*
X23980995Y-15692148D02*
X24000043Y-15682624D01*
X24000043Y-15682624D02*
X24047662Y-15682624D01*
X24047662Y-15682624D02*
X24066710Y-15692148D01*
X24066710Y-15692148D02*
X24076234Y-15701671D01*
X24076234Y-15701671D02*
X24085757Y-15720719D01*
X24085757Y-15720719D02*
X24085757Y-15739767D01*
X24085757Y-15739767D02*
X24076234Y-15768338D01*
X24076234Y-15768338D02*
X23961948Y-15882624D01*
X23961948Y-15882624D02*
X24085757Y-15882624D01*
X24323853Y-15882624D02*
X24323853Y-15682624D01*
X24409567Y-15882624D02*
X24409567Y-15777862D01*
X24409567Y-15777862D02*
X24400043Y-15758814D01*
X24400043Y-15758814D02*
X24380996Y-15749290D01*
X24380996Y-15749290D02*
X24352424Y-15749290D01*
X24352424Y-15749290D02*
X24333376Y-15758814D01*
X24333376Y-15758814D02*
X24323853Y-15768338D01*
X24533376Y-15882624D02*
X24514329Y-15873100D01*
X24514329Y-15873100D02*
X24504805Y-15863576D01*
X24504805Y-15863576D02*
X24495281Y-15844528D01*
X24495281Y-15844528D02*
X24495281Y-15787386D01*
X24495281Y-15787386D02*
X24504805Y-15768338D01*
X24504805Y-15768338D02*
X24514329Y-15758814D01*
X24514329Y-15758814D02*
X24533376Y-15749290D01*
X24533376Y-15749290D02*
X24561948Y-15749290D01*
X24561948Y-15749290D02*
X24580996Y-15758814D01*
X24580996Y-15758814D02*
X24590519Y-15768338D01*
X24590519Y-15768338D02*
X24600043Y-15787386D01*
X24600043Y-15787386D02*
X24600043Y-15844528D01*
X24600043Y-15844528D02*
X24590519Y-15863576D01*
X24590519Y-15863576D02*
X24580996Y-15873100D01*
X24580996Y-15873100D02*
X24561948Y-15882624D01*
X24561948Y-15882624D02*
X24533376Y-15882624D01*
X24714329Y-15882624D02*
X24695281Y-15873100D01*
X24695281Y-15873100D02*
X24685757Y-15854052D01*
X24685757Y-15854052D02*
X24685757Y-15682624D01*
X24866710Y-15873100D02*
X24847662Y-15882624D01*
X24847662Y-15882624D02*
X24809567Y-15882624D01*
X24809567Y-15882624D02*
X24790519Y-15873100D01*
X24790519Y-15873100D02*
X24780996Y-15854052D01*
X24780996Y-15854052D02*
X24780996Y-15777862D01*
X24780996Y-15777862D02*
X24790519Y-15758814D01*
X24790519Y-15758814D02*
X24809567Y-15749290D01*
X24809567Y-15749290D02*
X24847662Y-15749290D01*
X24847662Y-15749290D02*
X24866710Y-15758814D01*
X24866710Y-15758814D02*
X24876234Y-15777862D01*
X24876234Y-15777862D02*
X24876234Y-15796909D01*
X24876234Y-15796909D02*
X24780996Y-15815957D01*
X24952424Y-15873100D02*
X24971472Y-15882624D01*
X24971472Y-15882624D02*
X25009567Y-15882624D01*
X25009567Y-15882624D02*
X25028615Y-15873100D01*
X25028615Y-15873100D02*
X25038138Y-15854052D01*
X25038138Y-15854052D02*
X25038138Y-15844528D01*
X25038138Y-15844528D02*
X25028615Y-15825481D01*
X25028615Y-15825481D02*
X25009567Y-15815957D01*
X25009567Y-15815957D02*
X24980996Y-15815957D01*
X24980996Y-15815957D02*
X24961948Y-15806433D01*
X24961948Y-15806433D02*
X24952424Y-15787386D01*
X24952424Y-15787386D02*
X24952424Y-15777862D01*
X24952424Y-15777862D02*
X24961948Y-15758814D01*
X24961948Y-15758814D02*
X24980996Y-15749290D01*
X24980996Y-15749290D02*
X25009567Y-15749290D01*
X25009567Y-15749290D02*
X25028615Y-15758814D01*
X25104805Y-15958814D02*
X25114329Y-15949290D01*
X25114329Y-15949290D02*
X25133377Y-15920719D01*
X25133377Y-15920719D02*
X25142900Y-15901671D01*
X25142900Y-15901671D02*
X25152424Y-15873100D01*
X25152424Y-15873100D02*
X25161948Y-15825481D01*
X25161948Y-15825481D02*
X25161948Y-15787386D01*
X25161948Y-15787386D02*
X25152424Y-15739767D01*
X25152424Y-15739767D02*
X25142900Y-15711195D01*
X25142900Y-15711195D02*
X25133377Y-15692148D01*
X25133377Y-15692148D02*
X25114329Y-15663576D01*
X25114329Y-15663576D02*
X25104805Y-15654052D01*
M02*
