%TF.GenerationSoftware,KiCad,Pcbnew,7.0.2-0*%
%TF.CreationDate,2025-01-26T18:28:18-07:00*%
%TF.ProjectId,RightMB,52696768-744d-4422-9e6b-696361645f70,rev?*%
%TF.SameCoordinates,Original*%
%TF.FileFunction,Copper,L2,Bot*%
%TF.FilePolarity,Positive*%
%FSLAX46Y46*%
G04 Gerber Fmt 4.6, Leading zero omitted, Abs format (unit mm)*
G04 Created by KiCad (PCBNEW 7.0.2-0) date 2025-01-26 18:28:18*
%MOMM*%
%LPD*%
G01*
G04 APERTURE LIST*
G04 Aperture macros list*
%AMRoundRect*
0 Rectangle with rounded corners*
0 $1 Rounding radius*
0 $2 $3 $4 $5 $6 $7 $8 $9 X,Y pos of 4 corners*
0 Add a 4 corners polygon primitive as box body*
4,1,4,$2,$3,$4,$5,$6,$7,$8,$9,$2,$3,0*
0 Add four circle primitives for the rounded corners*
1,1,$1+$1,$2,$3*
1,1,$1+$1,$4,$5*
1,1,$1+$1,$6,$7*
1,1,$1+$1,$8,$9*
0 Add four rect primitives between the rounded corners*
20,1,$1+$1,$2,$3,$4,$5,0*
20,1,$1+$1,$4,$5,$6,$7,0*
20,1,$1+$1,$6,$7,$8,$9,0*
20,1,$1+$1,$8,$9,$2,$3,0*%
G04 Aperture macros list end*
%TA.AperFunction,ComponentPad*%
%ADD10C,2.200000*%
%TD*%
%TA.AperFunction,ComponentPad*%
%ADD11C,1.700000*%
%TD*%
%TA.AperFunction,ComponentPad*%
%ADD12R,1.700000X1.700000*%
%TD*%
%TA.AperFunction,ComponentPad*%
%ADD13C,2.000000*%
%TD*%
%TA.AperFunction,ComponentPad*%
%ADD14C,1.524000*%
%TD*%
%TA.AperFunction,ComponentPad*%
%ADD15RoundRect,0.250000X0.625000X-0.350000X0.625000X0.350000X-0.625000X0.350000X-0.625000X-0.350000X0*%
%TD*%
%TA.AperFunction,ComponentPad*%
%ADD16O,1.750000X1.200000*%
%TD*%
%TA.AperFunction,ViaPad*%
%ADD17C,0.400000*%
%TD*%
%TA.AperFunction,ViaPad*%
%ADD18C,0.600000*%
%TD*%
%TA.AperFunction,Conductor*%
%ADD19C,0.200000*%
%TD*%
%TA.AperFunction,Conductor*%
%ADD20C,0.300000*%
%TD*%
%TA.AperFunction,Conductor*%
%ADD21C,0.400000*%
%TD*%
G04 APERTURE END LIST*
D10*
%TO.P,REF\u002A\u002A,*%
%TO.N,*%
X252187000Y-67778000D03*
X259187000Y-67778000D03*
D11*
%TO.P,REF\u002A\u002A,Out*%
%TO.N,N/C*%
X253437000Y-65278000D03*
%TO.P,REF\u002A\u002A,VCC*%
X257937000Y-65278000D03*
%TD*%
D12*
%TO.P,,SPKR*%
%TO.N,N/C*%
X231140000Y-125095000D03*
%TD*%
D13*
%TO.P,REF\u002A\u002A,Cen*%
%TO.N,N/C*%
X232480000Y-65320000D03*
D14*
%TO.P,REF\u002A\u002A,E*%
X232480000Y-69020000D03*
D13*
%TO.P,REF\u002A\u002A,N*%
X222180000Y-65320000D03*
%TO.P,REF\u002A\u002A,S*%
X222180000Y-71820000D03*
%TO.P,REF\u002A\u002A,VCC*%
X232480000Y-71820000D03*
D14*
%TO.P,REF\u002A\u002A,W*%
X222180000Y-69020000D03*
%TD*%
D12*
%TO.P,,GND*%
%TO.N,N/C*%
X231140000Y-123190000D03*
%TD*%
%TO.P,,GND*%
%TO.N,N/C*%
X229235000Y-123190000D03*
%TD*%
%TO.P,,GND*%
%TO.N,N/C*%
X229235000Y-123190000D03*
%TD*%
D15*
%TO.P,REF\u002A\u002A,1*%
%TO.N,N/C*%
X220684000Y-112633000D03*
D16*
%TO.P,REF\u002A\u002A,2*%
X220684000Y-110633000D03*
%TD*%
D12*
%TO.P,,SPKR*%
%TO.N,N/C*%
X229235000Y-125095000D03*
%TD*%
D13*
%TO.P,REF\u002A\u002A,1*%
%TO.N,N/C*%
X213360000Y-130810000D03*
%TO.P,REF\u002A\u002A,2*%
X215900000Y-130810000D03*
%TO.P,REF\u002A\u002A,3*%
X213360000Y-128270000D03*
%TO.P,REF\u002A\u002A,4*%
X215900000Y-128270000D03*
%TO.P,REF\u002A\u002A,5*%
X213360000Y-125730000D03*
%TO.P,REF\u002A\u002A,6*%
X215900000Y-125730000D03*
%TO.P,REF\u002A\u002A,7*%
X213360000Y-123190000D03*
%TO.P,REF\u002A\u002A,8*%
X215900000Y-123190000D03*
%TO.P,REF\u002A\u002A,9*%
X213360000Y-120650000D03*
%TO.P,REF\u002A\u002A,10*%
X215900000Y-120650000D03*
%TO.P,REF\u002A\u002A,11*%
X213360000Y-118110000D03*
%TO.P,REF\u002A\u002A,12*%
X215900000Y-118110000D03*
%TO.P,REF\u002A\u002A,13*%
X213360000Y-115570000D03*
%TO.P,REF\u002A\u002A,14*%
X215900000Y-115570000D03*
%TO.P,REF\u002A\u002A,15*%
X213360000Y-113030000D03*
%TO.P,REF\u002A\u002A,16*%
X215900000Y-113030000D03*
%TO.P,REF\u002A\u002A,17*%
X213360000Y-110490000D03*
%TO.P,REF\u002A\u002A,18*%
X215900000Y-110490000D03*
%TO.P,REF\u002A\u002A,19*%
X213360000Y-107950000D03*
%TO.P,REF\u002A\u002A,20*%
X215900000Y-107950000D03*
%TO.P,REF\u002A\u002A,21*%
X213360000Y-105410000D03*
%TO.P,REF\u002A\u002A,22*%
X215900000Y-105410000D03*
%TO.P,REF\u002A\u002A,23*%
X213360000Y-102870000D03*
%TO.P,REF\u002A\u002A,24*%
X215900000Y-102870000D03*
%TO.P,REF\u002A\u002A,25*%
X213360000Y-100330000D03*
%TO.P,REF\u002A\u002A,26*%
X215900000Y-100330000D03*
%TO.P,REF\u002A\u002A,27*%
X213360000Y-97790000D03*
%TO.P,REF\u002A\u002A,28*%
X215900000Y-97790000D03*
%TO.P,REF\u002A\u002A,29*%
X213360000Y-95250000D03*
%TO.P,REF\u002A\u002A,30*%
X215900000Y-95250000D03*
%TO.P,REF\u002A\u002A,31*%
X213360000Y-92710000D03*
%TO.P,REF\u002A\u002A,32*%
X215900000Y-92710000D03*
%TO.P,REF\u002A\u002A,33*%
X213360000Y-90170000D03*
%TO.P,REF\u002A\u002A,34*%
X215900000Y-90170000D03*
%TO.P,REF\u002A\u002A,35*%
X213360000Y-87630000D03*
%TO.P,REF\u002A\u002A,36*%
X215900000Y-87630000D03*
%TO.P,REF\u002A\u002A,37*%
X213360000Y-85090000D03*
%TO.P,REF\u002A\u002A,38*%
X215900000Y-85090000D03*
%TO.P,REF\u002A\u002A,39*%
X213360000Y-82550000D03*
%TO.P,REF\u002A\u002A,40*%
X215900000Y-82550000D03*
%TD*%
D17*
%TO.N,*%
X210439000Y-124714000D03*
X210439000Y-121666000D03*
X210439000Y-117221000D03*
X210439000Y-123698000D03*
D18*
X219710000Y-123190000D03*
D17*
X218059000Y-133477000D03*
D18*
X219710000Y-118110000D03*
D17*
X210439000Y-119706000D03*
X212090000Y-118110000D03*
D18*
X212090000Y-127000000D03*
X211582000Y-132334000D03*
X227965000Y-123190000D03*
D17*
X212090000Y-121920000D03*
X217424000Y-132969000D03*
D18*
X227965000Y-118110000D03*
D17*
X211328000Y-109702600D03*
X210439000Y-120650000D03*
X211963000Y-124460000D03*
X210439000Y-122682000D03*
X211963000Y-123190000D03*
D18*
X214630000Y-131953000D03*
D17*
X210947000Y-113030000D03*
D18*
X210439000Y-126111000D03*
%TD*%
D19*
%TO.N,*%
X212090000Y-118110000D02*
X211709000Y-118491000D01*
X211963000Y-123190000D02*
X210439000Y-124714000D01*
D20*
X211582000Y-132334000D02*
X214249000Y-132334000D01*
D21*
X211201000Y-126111000D02*
X212090000Y-127000000D01*
D19*
X210947000Y-113030000D02*
X210947000Y-120142000D01*
X217424000Y-132969000D02*
X217424000Y-112014000D01*
X217424000Y-112014000D02*
X215900000Y-110490000D01*
X210439000Y-123698000D02*
X212090000Y-122047000D01*
X219710000Y-118110000D02*
X227965000Y-118110000D01*
X210439000Y-119706000D02*
X210439000Y-117221000D01*
X212090000Y-122047000D02*
X212090000Y-121920000D01*
X218059000Y-107569000D02*
X215900000Y-105410000D01*
D20*
X214249000Y-132334000D02*
X214630000Y-131953000D01*
D19*
X211328000Y-120777000D02*
X210439000Y-121666000D01*
X211709000Y-121412000D02*
X210439000Y-122682000D01*
X218059000Y-133477000D02*
X218059000Y-107569000D01*
X210947000Y-120142000D02*
X210439000Y-120650000D01*
X227965000Y-123190000D02*
X219710000Y-123190000D01*
X211709000Y-118491000D02*
X211709000Y-121412000D01*
X211328000Y-109702600D02*
X211328000Y-120777000D01*
D21*
X210439000Y-126111000D02*
X211201000Y-126111000D01*
%TD*%
M02*
